<svg width="97" height="141" viewBox="0 0 97 141" fill="none" xmlns="http://www.w3.org/2000/svg">
<g filter="url(#filter0_i_0_184)">
<path d="M41.3433 48.146C41.5501 48.5041 41.4869 48.9573 41.1892 49.2442L35.8537 54.3838C35.3437 54.8755 35.8035 55.7266 36.4945 55.5699L43.9262 53.8852C44.3108 53.7981 44.7072 53.9724 44.9044 54.3139L46.4908 57.0617C46.6904 57.4073 46.6386 57.843 46.3634 58.132L41.2193 63.5366C40.7262 64.0546 41.2357 64.8916 41.9221 64.6914L48.9231 62.6476C49.3212 62.5313 49.7472 62.7022 49.9547 63.0613L51.6275 65.9587C51.9303 66.4837 51.6385 67.1518 51.0474 67.286L37.0053 70.4722C36.6207 70.5593 36.2243 70.385 36.0271 70.0435L34.0076 66.5456C33.8093 66.2021 33.8589 65.7696 34.13 65.4803L39.296 59.9729C39.7711 59.4664 39.2985 58.6517 38.623 58.8132L31.2973 60.5642C30.91 60.6568 30.508 60.484 30.3089 60.1392L28.2571 56.5854C28.0596 56.2432 28.1084 55.8118 28.3775 55.5225L38.1756 44.9874C38.5878 44.5441 39.3112 44.6262 39.6139 45.1504L41.3433 48.146Z" fill="url(#paint0_linear_0_184)" fill-opacity="0.7" stroke="#414141" stroke-width="0.2"/>
<path d="M62.2181 74.189C62.5838 74.8223 62.8943 75.4098 63.1486 75.951C63.2874 76.2464 63.4122 76.5266 63.5224 76.7918C63.6913 77.1983 63.5192 77.6574 63.1429 77.8747L60.9947 79.1149C60.7924 79.2317 60.5339 79.1624 60.4171 78.9601C60.3971 78.9254 60.382 78.8879 60.3724 78.8495C60.3193 78.6375 60.2439 78.3714 60.1468 78.0506C60.0448 77.7138 59.896 77.3741 59.6989 77.0327C59.2177 76.1992 58.758 75.7524 58.3291 75.6404C57.8997 75.5284 57.2652 75.6953 56.4073 76.1907C56.3962 76.197 56.3923 76.2117 56.3987 76.2227L57.8376 78.7151C58.086 79.1454 57.9387 79.6951 57.5084 79.9437L56.0047 80.8118C55.5743 81.0602 55.0246 80.9129 54.7761 80.4826L53.7576 78.7185C53.5642 78.3838 53.1358 78.269 52.8011 78.4622L43.7788 83.6711C43.3485 83.9195 42.7988 83.7722 42.5502 83.3419L40.8891 80.4648C40.6407 80.0344 40.788 79.4847 41.2183 79.2361L50.2405 74.0272C50.5751 73.8339 50.6899 73.4054 50.4968 73.0707L50.2439 72.6326C49.9955 72.2022 50.1428 71.6525 50.5731 71.404L52.0768 70.5358C52.5072 70.2874 53.0569 70.4347 53.3054 70.865L53.7463 71.6287C53.8358 71.7836 54.0343 71.8368 54.1892 71.7474C55.83 70.8001 57.3283 70.5165 58.6754 70.922C60.0212 71.3272 61.1997 72.4251 62.2181 74.189Z" fill="url(#paint1_linear_0_184)" fill-opacity="0.7" stroke="#414141" stroke-width="0.2"/>
<path d="M67.2017 92.9341C67.4501 93.3645 67.3028 93.9142 66.8725 94.1628L65.1498 95.1574C64.9531 95.2709 64.7208 95.306 64.4994 95.2555L55.1727 93.1246C54.577 92.9884 54.1046 93.6277 54.4099 94.157L57.1536 98.9091C57.4019 99.3395 57.2546 99.8892 56.8244 100.138L55.0365 101.17C54.6061 101.418 54.0564 101.271 53.8079 100.841L47.3958 89.7346C47.1474 89.3043 47.2947 88.7546 47.725 88.506L49.4925 87.4855C49.6911 87.3709 49.926 87.3357 50.1491 87.3884L59.5328 89.6003C60.1297 89.7407 60.6062 89.1002 60.2995 88.569L57.7424 84.1399C57.494 83.7095 57.6413 83.1598 58.0716 82.9113L59.8003 81.9132C60.2307 81.6649 60.7803 81.8122 61.0289 82.2424L67.2017 92.9341Z" fill="url(#paint2_linear_0_184)" fill-opacity="0.7" stroke="#414141" stroke-width="0.2"/>
<mask id="path-4-outside-1_0_184" maskUnits="userSpaceOnUse" x="52.5362" y="93.857" width="24.0885" height="23.7224" fill="black">
<rect fill="white" x="52.5362" y="93.857" width="24.0885" height="23.7224"/>
<path d="M71.4569 101.629C72.856 104.052 73.4936 106.018 73.3697 107.526C73.2459 109.034 72.3867 110.248 70.7922 111.169L62.4392 115.991C62.0565 116.212 61.5672 116.081 61.3463 115.699L59.5758 112.632C59.4267 112.374 59.5152 112.044 59.7734 111.895V111.895C60.1598 111.671 60.1258 111.098 59.7185 110.916C59.678 110.898 59.6369 110.88 59.5952 110.861C59.1545 110.663 58.7765 110.455 58.4613 110.237C58.0303 109.928 57.6395 109.574 57.289 109.177C56.9385 108.779 56.6082 108.312 56.2984 107.776C55.5692 106.513 55.3492 105.229 55.6385 103.926C55.9278 102.622 56.6802 101.619 57.8958 100.917C58.8667 100.357 59.7853 100.116 60.6516 100.195C61.518 100.273 62.3589 100.609 63.1744 101.201C63.9853 101.785 64.803 102.618 65.6275 103.7C66.4364 104.761 67.2314 105.886 68.0126 107.075C68.0379 107.113 68.0888 107.125 68.1287 107.102V107.102C68.8628 106.678 69.1967 106.086 69.1306 105.324C69.0645 104.562 68.6942 103.597 68.0197 102.429C67.6141 101.727 67.0568 101.048 66.3479 100.395C65.6766 99.7758 65.1731 99.3289 64.8373 99.054C64.8011 99.0244 64.7704 98.9886 64.747 98.948V98.948C64.642 98.7662 64.7043 98.5336 64.8862 98.4286L67.2315 97.0745C67.5462 96.8928 67.944 96.9459 68.1864 97.2166C68.5238 97.5933 68.9463 98.0944 69.4539 98.7199C70.2014 99.6407 70.869 100.61 71.4569 101.629ZM64.7936 108.996C65.1986 108.762 65.3178 108.232 65.0445 107.853C64.8016 107.516 64.5435 107.166 64.2702 106.804C63.8 106.181 63.4094 105.728 63.0983 105.444C62.718 105.095 62.3347 104.882 61.9483 104.806C61.5618 104.729 61.1595 104.811 60.7411 105.053C60.4648 105.212 60.2535 105.366 60.1072 105.513C59.9609 105.661 59.8635 105.875 59.815 106.156C59.762 106.428 59.7709 106.713 59.8417 107.009C59.9126 107.304 60.1029 107.721 60.4128 108.257C60.6589 108.684 60.9953 109.066 61.4218 109.404C61.745 109.66 62.0823 109.867 62.4336 110.025C62.6466 110.121 62.8915 110.094 63.0937 109.978L64.7936 108.996Z"/>
</mask>
<path d="M71.4569 101.629C72.856 104.052 73.4936 106.018 73.3697 107.526C73.2459 109.034 72.3867 110.248 70.7922 111.169L62.4392 115.991C62.0565 116.212 61.5672 116.081 61.3463 115.699L59.5758 112.632C59.4267 112.374 59.5152 112.044 59.7734 111.895V111.895C60.1598 111.671 60.1258 111.098 59.7185 110.916C59.678 110.898 59.6369 110.88 59.5952 110.861C59.1545 110.663 58.7765 110.455 58.4613 110.237C58.0303 109.928 57.6395 109.574 57.289 109.177C56.9385 108.779 56.6082 108.312 56.2984 107.776C55.5692 106.513 55.3492 105.229 55.6385 103.926C55.9278 102.622 56.6802 101.619 57.8958 100.917C58.8667 100.357 59.7853 100.116 60.6516 100.195C61.518 100.273 62.3589 100.609 63.1744 101.201C63.9853 101.785 64.803 102.618 65.6275 103.7C66.4364 104.761 67.2314 105.886 68.0126 107.075C68.0379 107.113 68.0888 107.125 68.1287 107.102V107.102C68.8628 106.678 69.1967 106.086 69.1306 105.324C69.0645 104.562 68.6942 103.597 68.0197 102.429C67.6141 101.727 67.0568 101.048 66.3479 100.395C65.6766 99.7758 65.1731 99.3289 64.8373 99.054C64.8011 99.0244 64.7704 98.9886 64.747 98.948V98.948C64.642 98.7662 64.7043 98.5336 64.8862 98.4286L67.2315 97.0745C67.5462 96.8928 67.944 96.9459 68.1864 97.2166C68.5238 97.5933 68.9463 98.0944 69.4539 98.7199C70.2014 99.6407 70.869 100.61 71.4569 101.629ZM64.7936 108.996C65.1986 108.762 65.3178 108.232 65.0445 107.853C64.8016 107.516 64.5435 107.166 64.2702 106.804C63.8 106.181 63.4094 105.728 63.0983 105.444C62.718 105.095 62.3347 104.882 61.9483 104.806C61.5618 104.729 61.1595 104.811 60.7411 105.053C60.4648 105.212 60.2535 105.366 60.1072 105.513C59.9609 105.661 59.8635 105.875 59.815 106.156C59.762 106.428 59.7709 106.713 59.8417 107.009C59.9126 107.304 60.1029 107.721 60.4128 108.257C60.6589 108.684 60.9953 109.066 61.4218 109.404C61.745 109.66 62.0823 109.867 62.4336 110.025C62.6466 110.121 62.8915 110.094 63.0937 109.978L64.7936 108.996Z" fill="url(#paint3_linear_0_184)" fill-opacity="0.7"/>
<path d="M58.4613 110.237L58.3447 110.399L58.3476 110.401L58.4613 110.237ZM63.1744 101.201L63.0569 101.363L63.0575 101.363L63.1744 101.201ZM63.0983 105.444L62.9631 105.591L62.9636 105.592L63.0983 105.444ZM59.815 106.156L60.0114 106.194L60.0121 106.19L59.815 106.156ZM61.4218 109.404L61.2977 109.56L61.4218 109.404ZM62.4336 110.025L62.5157 109.842L62.4336 110.025ZM65.0445 107.853L64.8822 107.97L65.0445 107.853ZM64.8373 99.054L64.7107 99.2088L64.8373 99.054ZM68.0126 107.075L67.8455 107.184L68.0126 107.075ZM59.7185 110.916L59.8003 110.734L59.7185 110.916ZM71.4569 101.629L71.2837 101.729C72.6773 104.142 73.2891 106.064 73.1704 107.509L73.3697 107.526L73.5691 107.542C73.6981 105.971 73.0347 103.961 71.6301 101.529L71.4569 101.629ZM73.3697 107.526L73.1704 107.509C73.0531 108.937 72.2439 110.1 70.6922 110.996L70.7922 111.169L70.8922 111.342C72.5296 110.397 73.4386 109.13 73.5691 107.542L73.3697 107.526ZM70.7922 111.169L70.6922 110.996L62.3392 115.818L62.4392 115.991L62.5392 116.165L70.8922 111.342L70.7922 111.169ZM61.3463 115.699L61.5195 115.599L59.749 112.532L59.5758 112.632L59.4026 112.732L61.1731 115.799L61.3463 115.699ZM59.7185 110.916L59.8003 110.734C59.7598 110.715 59.7188 110.697 59.6772 110.678L59.5952 110.861L59.5131 111.043C59.555 111.062 59.5962 111.08 59.6368 111.099L59.7185 110.916ZM59.5952 110.861L59.6772 110.678C59.2449 110.484 58.8781 110.282 58.575 110.072L58.4613 110.237L58.3476 110.401C58.675 110.628 59.0641 110.841 59.5131 111.043L59.5952 110.861ZM58.4613 110.237L58.5778 110.074C58.1591 109.774 57.7796 109.431 57.439 109.045L57.289 109.177L57.139 109.309C57.4995 109.718 57.9015 110.081 58.3448 110.399L58.4613 110.237ZM57.289 109.177L57.439 109.045C57.0986 108.659 56.7759 108.203 56.4716 107.676L56.2984 107.776L56.1251 107.876C56.4406 108.422 56.7783 108.9 57.139 109.309L57.289 109.177ZM56.2984 107.776L56.4716 107.676C55.7649 106.452 55.5564 105.219 55.8338 103.969L55.6385 103.926L55.4432 103.882C55.1421 105.239 55.3735 106.574 56.1251 107.876L56.2984 107.776ZM55.6385 103.926L55.8338 103.969C56.1102 102.723 56.8259 101.766 57.9958 101.091L57.8958 100.917L57.7958 100.744C56.5344 101.472 55.7453 102.521 55.4432 103.882L55.6385 103.926ZM57.8958 100.917L57.9958 101.091C58.9412 100.545 59.8187 100.32 60.6336 100.394L60.6516 100.195L60.6697 99.9954C59.7519 99.912 58.7921 100.169 57.7958 100.744L57.8958 100.917ZM60.6516 100.195L60.6336 100.394C61.4586 100.469 62.2659 100.788 63.0569 101.363L63.1744 101.201L63.2919 101.039C62.4519 100.429 61.5773 100.078 60.6697 99.9954L60.6516 100.195ZM63.1744 101.201L63.0575 101.363C63.8478 101.933 64.6519 102.75 65.4684 103.821L65.6275 103.7L65.7865 103.578C64.9541 102.486 64.1228 101.638 63.2913 101.039L63.1744 101.201ZM65.6275 103.7L65.4684 103.821C66.2743 104.878 67.0667 105.999 67.8455 107.184L68.0126 107.075L68.1797 106.965C67.3962 105.772 66.5984 104.644 65.7865 103.578L65.6275 103.7ZM68.1287 107.102L68.2287 107.275C68.6192 107.05 68.9156 106.772 69.104 106.438C69.2931 106.102 69.366 105.722 69.3299 105.307L69.1306 105.324L68.9314 105.341C68.9614 105.687 68.9003 105.985 68.7555 106.242C68.6099 106.5 68.3723 106.731 68.0287 106.929L68.1287 107.102ZM69.1306 105.324L69.3299 105.307C69.2599 104.501 68.8725 103.506 68.1929 102.329L68.0197 102.429L67.8465 102.529C68.5159 103.688 68.869 104.623 68.9314 105.341L69.1306 105.324ZM68.0197 102.429L68.1929 102.329C67.7755 101.606 67.2045 100.913 66.4835 100.248L66.3479 100.395L66.2123 100.542C66.9091 101.184 67.4527 101.847 67.8465 102.529L68.0197 102.429ZM66.3479 100.395L66.4835 100.248C65.8117 99.6283 65.3046 99.178 64.964 98.8993L64.8373 99.054L64.7107 99.2088C65.0416 99.4797 65.5415 99.9232 66.2123 100.542L66.3479 100.395ZM64.8862 98.4286L64.9862 98.6018L67.3315 97.2477L67.2315 97.0745L67.1315 96.9013L64.7862 98.2554L64.8862 98.4286ZM68.1864 97.2166L68.0374 97.35C68.3717 97.7233 68.792 98.2216 69.2986 98.8459L69.4539 98.7199L69.6092 98.5938C69.1005 97.9671 68.6758 97.4632 68.3354 97.0832L68.1864 97.2166ZM69.4539 98.7199L69.2986 98.8459C70.0395 99.7587 70.7011 100.72 71.2837 101.729L71.4569 101.629L71.6301 101.529C71.0369 100.501 70.3632 99.5228 69.6092 98.5938L69.4539 98.7199ZM65.0445 107.853L65.2067 107.736C64.963 107.397 64.704 107.047 64.4299 106.683L64.2702 106.804L64.1106 106.924C64.3831 107.285 64.6403 107.634 64.8822 107.97L65.0445 107.853ZM64.2702 106.804L64.4299 106.683C63.9573 106.057 63.5579 105.592 63.2331 105.296L63.0983 105.444L62.9636 105.592C63.2608 105.863 63.6426 106.304 64.1106 106.924L64.2702 106.804ZM63.0983 105.444L63.2335 105.297C62.8344 104.931 62.4191 104.695 61.9873 104.609L61.9483 104.806L61.9093 105.002C62.2503 105.07 62.6017 105.26 62.9631 105.591L63.0983 105.444ZM61.9483 104.806L61.9873 104.609C61.5431 104.521 61.0916 104.619 60.6411 104.879L60.7411 105.053L60.8411 105.226C61.2273 105.003 61.5806 104.936 61.9093 105.002L61.9483 104.806ZM60.7411 105.053L60.6411 104.879C60.3567 105.044 60.1288 105.207 59.9652 105.373L60.1072 105.513L60.2493 105.654C60.3783 105.524 60.573 105.381 60.8411 105.226L60.7411 105.053ZM60.1072 105.513L59.9652 105.373C59.7811 105.558 59.6709 105.815 59.6179 106.122L59.815 106.156L60.0121 106.19C60.0561 105.935 60.1407 105.764 60.2493 105.654L60.1072 105.513ZM59.815 106.156L59.6187 106.117C59.5597 106.421 59.5703 106.734 59.6472 107.055L59.8417 107.009L60.0362 106.962C59.9714 106.691 59.9642 106.436 60.0113 106.194L59.815 106.156ZM59.8417 107.009L59.6472 107.055C59.7251 107.38 59.9279 107.818 60.2396 108.357L60.4128 108.257L60.586 108.157C60.278 107.624 60.1 107.228 60.0362 106.962L59.8417 107.009ZM60.4128 108.257L60.2396 108.357C60.4996 108.808 60.8534 109.209 61.2977 109.56L61.4218 109.404L61.546 109.247C61.1371 108.923 60.8182 108.56 60.586 108.157L60.4128 108.257ZM61.4218 109.404L61.2977 109.56C61.6329 109.826 61.9842 110.042 62.3515 110.207L62.4336 110.025L62.5157 109.842C62.1804 109.691 61.8572 109.493 61.546 109.247L61.4218 109.404ZM63.0937 109.978L63.1937 110.151L64.8936 109.169L64.7936 108.996L64.6936 108.823L62.9937 109.804L63.0937 109.978ZM62.4336 110.025L62.3515 110.207C62.6313 110.333 62.944 110.295 63.1937 110.151L63.0937 109.978L62.9937 109.804C62.839 109.894 62.6619 109.908 62.5157 109.842L62.4336 110.025ZM65.0445 107.853L64.8822 107.97C65.0849 108.251 64.9982 108.647 64.6936 108.823L64.7936 108.996L64.8936 109.169C65.399 108.878 65.5508 108.213 65.2067 107.736L65.0445 107.853ZM67.2315 97.0745L67.3315 97.2477C67.5688 97.1107 67.8616 97.1536 68.0374 97.35L68.1864 97.2166L68.3354 97.0832C68.0264 96.7381 67.5236 96.6749 67.1315 96.9013L67.2315 97.0745ZM64.747 98.948L64.9202 98.848C64.8704 98.7618 64.8999 98.6516 64.9862 98.6018L64.8862 98.4286L64.7862 98.2554C64.5086 98.4156 64.4135 98.7705 64.5738 99.048L64.747 98.948ZM64.8373 99.054L64.964 98.8993C64.9459 98.8845 64.9312 98.8672 64.9202 98.848L64.747 98.948L64.5738 99.048C64.6096 99.1101 64.6562 99.1642 64.7107 99.2088L64.8373 99.054ZM59.5758 112.632L59.749 112.532C59.6552 112.369 59.7109 112.162 59.8734 112.068L59.7734 111.895L59.6734 111.721C59.3196 111.926 59.1983 112.378 59.4026 112.732L59.5758 112.632ZM68.0126 107.075L67.8455 107.184C67.9288 107.311 68.0968 107.352 68.2287 107.275L68.1287 107.102L68.0287 106.929C68.0808 106.899 68.147 106.915 68.1797 106.965L68.0126 107.075ZM59.7734 111.895L59.8734 112.068C60.4042 111.761 60.3533 110.981 59.8003 110.734L59.7185 110.916L59.6368 111.099C59.8983 111.216 59.9155 111.582 59.6734 111.721L59.7734 111.895ZM62.4392 115.991L62.3392 115.818C62.0522 115.984 61.6852 115.886 61.5195 115.599L61.3463 115.699L61.1731 115.799C61.4493 116.277 62.0609 116.441 62.5392 116.165L62.4392 115.991Z" fill="#414141" mask="url(#path-4-outside-1_0_184)"/>
<path d="M78.6744 112.805C78.8812 113.163 78.818 113.617 78.5202 113.904L73.1848 119.043C72.6747 119.535 73.1345 120.386 73.8256 120.229L81.2572 118.545C81.6418 118.457 82.0383 118.632 82.2354 118.973L83.8219 121.721C84.0214 122.067 83.9696 122.502 83.6945 122.791L78.5503 128.196C78.0573 128.714 78.5667 129.551 79.2532 129.351L86.2542 127.307C86.6523 127.191 87.0783 127.361 87.2857 127.721L88.9586 130.618C89.2613 131.143 88.9695 131.811 88.3785 131.945L74.3364 135.131C73.9518 135.219 73.5553 135.044 73.3582 134.703L71.3386 131.205C71.1404 130.861 71.1899 130.429 71.4611 130.14L76.627 124.632C77.1022 124.126 76.6296 123.311 75.9541 123.473L68.6284 125.223C68.2411 125.316 67.8391 125.143 67.6399 124.798L65.5881 121.245C65.3907 120.902 65.4394 120.471 65.7085 120.182L75.5066 109.647C75.9189 109.203 76.6422 109.285 76.9449 109.81L78.6744 112.805Z" fill="url(#paint4_linear_0_184)" fill-opacity="0.7" stroke="#414141" stroke-width="0.2"/>
<mask id="path-7-outside-2_0_184" maskUnits="userSpaceOnUse" x="15.7597" y="26.6933" width="28.9186" height="27.0885" fill="black">
<rect fill="white" x="15.7597" y="26.6933" width="28.9186" height="27.0885"/>
<path d="M32.6972 35.2524C32.1172 35.5873 32.1756 36.4605 32.7616 36.7847C33.0851 36.9637 33.3935 37.1544 33.6867 37.357C34.4045 37.853 35.0209 38.5469 35.5359 39.4389C36.5066 41.1202 36.6482 42.7645 35.9606 44.3718C35.2731 45.9791 33.8637 47.3979 31.7324 48.6284C29.6407 49.8361 27.6019 50.2423 25.616 49.847C23.6301 49.4516 22.1382 48.3896 21.1402 46.661C20.7118 45.919 20.4147 45.2222 20.249 44.5706C20.1243 44.0802 20.0489 43.5823 20.0227 43.0767C20.0097 42.8255 19.7718 42.6403 19.5288 42.7055V42.7055C19.3628 42.75 19.1876 42.6774 19.1016 42.5286L17.2889 39.3889C17.068 39.0062 17.1991 38.517 17.5817 38.296L34.6194 28.4593C35.0021 28.2384 35.4913 28.3695 35.7123 28.7521L37.3732 31.629C37.5941 32.0116 37.463 32.5009 37.0804 32.7218L32.6972 35.2524ZM31.2148 39.392C30.9824 38.9894 30.6819 38.6103 30.3135 38.2547C30.0536 38.0039 29.7729 37.7782 29.4714 37.5776C29.2359 37.421 28.9323 37.4261 28.6875 37.5674L22.892 40.9134C22.5996 41.0822 22.4384 41.4184 22.5304 41.7432C22.5759 41.9042 22.6277 42.0568 22.6855 42.2009C22.8056 42.5 22.9772 42.8429 23.2005 43.2297C23.8522 44.3584 24.6691 45.0077 25.6512 45.1774C26.6332 45.3471 27.7873 45.0492 29.1134 44.2836C30.2974 43.6 31.0929 42.8723 31.4999 42.1006C31.9068 41.3289 31.8118 40.426 31.2148 39.392Z"/>
</mask>
<path d="M32.6972 35.2524C32.1172 35.5873 32.1756 36.4605 32.7616 36.7847C33.0851 36.9637 33.3935 37.1544 33.6867 37.357C34.4045 37.853 35.0209 38.5469 35.5359 39.4389C36.5066 41.1202 36.6482 42.7645 35.9606 44.3718C35.2731 45.9791 33.8637 47.3979 31.7324 48.6284C29.6407 49.8361 27.6019 50.2423 25.616 49.847C23.6301 49.4516 22.1382 48.3896 21.1402 46.661C20.7118 45.919 20.4147 45.2222 20.249 44.5706C20.1243 44.0802 20.0489 43.5823 20.0227 43.0767C20.0097 42.8255 19.7718 42.6403 19.5288 42.7055V42.7055C19.3628 42.75 19.1876 42.6774 19.1016 42.5286L17.2889 39.3889C17.068 39.0062 17.1991 38.517 17.5817 38.296L34.6194 28.4593C35.0021 28.2384 35.4913 28.3695 35.7123 28.7521L37.3732 31.629C37.5941 32.0116 37.463 32.5009 37.0804 32.7218L32.6972 35.2524ZM31.2148 39.392C30.9824 38.9894 30.6819 38.6103 30.3135 38.2547C30.0536 38.0039 29.7729 37.7782 29.4714 37.5776C29.2359 37.421 28.9323 37.4261 28.6875 37.5674L22.892 40.9134C22.5996 41.0822 22.4384 41.4184 22.5304 41.7432C22.5759 41.9042 22.6277 42.0568 22.6855 42.2009C22.8056 42.5 22.9772 42.8429 23.2005 43.2297C23.8522 44.3584 24.6691 45.0077 25.6512 45.1774C26.6332 45.3471 27.7873 45.0492 29.1134 44.2836C30.2974 43.6 31.0929 42.8723 31.4999 42.1006C31.9068 41.3289 31.8118 40.426 31.2148 39.392Z" fill="url(#paint5_linear_0_184)" fill-opacity="0.7"/>
<path d="M20.249 44.5706L20.4429 44.5213L20.249 44.5706ZM22.6855 42.2009L22.8711 42.1264L22.6855 42.2009ZM22.5304 41.7432L22.7228 41.6887L22.5304 41.7432ZM29.4714 37.5776L29.5821 37.4111L29.4714 37.5776ZM37.0804 32.7218L36.9804 32.5486L37.0804 32.7218ZM32.7616 36.7847L32.8584 36.6097L32.7616 36.7847ZM32.6972 35.2524L32.5972 35.0792L32.6972 35.2524ZM19.1016 42.5286L19.2748 42.4286L19.1016 42.5286ZM20.0227 43.0767L19.823 43.0871L20.0227 43.0767ZM17.2889 39.3889L17.4621 39.2889L17.2889 39.3889ZM32.7616 36.7847L32.6648 36.9597C32.9827 37.1356 33.2854 37.3229 33.573 37.5216L33.6867 37.357L33.8004 37.1925C33.5015 36.986 33.1875 36.7918 32.8584 36.6097L32.7616 36.7847ZM33.6867 37.357L33.573 37.5216C34.2624 37.9979 34.8599 38.668 35.3627 39.5389L35.5359 39.4389L35.7091 39.3389C35.182 38.4258 34.5466 37.708 33.8004 37.1925L33.6867 37.357ZM35.5359 39.4389L35.3627 39.5389C36.3059 41.1726 36.4365 42.7507 35.7767 44.2931L35.9606 44.3718L36.1445 44.4504C36.8598 42.7782 36.7073 41.0678 35.7091 39.3389L35.5359 39.4389ZM35.9606 44.3718L35.7767 44.2931C35.1119 45.8473 33.7411 47.2378 31.6324 48.4552L31.7324 48.6284L31.8324 48.8016C33.9862 47.5581 35.4342 46.1108 36.1445 44.4504L35.9606 44.3718ZM31.7324 48.6284L31.6324 48.4552C29.5742 49.6435 27.5845 50.0349 25.655 49.6508L25.616 49.847L25.577 50.0431C27.6192 50.4497 29.7072 50.0286 31.8324 48.8016L31.7324 48.6284ZM25.616 49.847L25.655 49.6508C23.7247 49.2665 22.2821 48.2389 21.3134 46.561L21.1402 46.661L20.9669 46.761C21.9943 48.5403 23.5356 49.6367 25.577 50.0431L25.616 49.847ZM21.1402 46.661L21.3134 46.561C20.8918 45.8307 20.603 45.151 20.4429 44.5213L20.249 44.5706L20.0552 44.6199C20.2265 45.2933 20.5318 46.0072 20.9669 46.761L21.1402 46.661ZM20.249 44.5706L20.4429 44.5213C20.3214 44.0437 20.2479 43.5588 20.2225 43.0664L20.0227 43.0767L19.823 43.0871C19.8498 43.6058 19.9272 44.1168 20.0552 44.6199L20.249 44.5706ZM19.1016 42.5286L19.2748 42.4286L17.4621 39.2889L17.2889 39.3889L17.1157 39.4889L18.9284 42.6286L19.1016 42.5286ZM17.5817 38.296L17.6817 38.4692L34.7194 28.6325L34.6194 28.4593L34.5194 28.2861L17.4817 38.1228L17.5817 38.296ZM35.7123 28.7521L35.5391 28.8521L37.2 31.729L37.3732 31.629L37.5464 31.529L35.8855 28.6521L35.7123 28.7521ZM37.0804 32.7218L36.9804 32.5486L32.5972 35.0792L32.6972 35.2524L32.7972 35.4256L37.1804 32.895L37.0804 32.7218ZM31.2148 39.392L31.388 39.292C31.1453 38.8717 30.8329 38.4781 30.4524 38.1108L30.3135 38.2547L30.1746 38.3986C30.531 38.7426 30.8194 39.1071 31.0416 39.492L31.2148 39.392ZM30.3135 38.2547L30.4524 38.1108C30.1838 37.8516 29.8937 37.6183 29.5821 37.4111L29.4714 37.5776L29.3606 37.7441C29.6521 37.9381 29.9234 38.1562 30.1746 38.3986L30.3135 38.2547ZM28.6875 37.5674L28.5875 37.3942L22.792 40.7402L22.892 40.9134L22.992 41.0866L28.7875 37.7406L28.6875 37.5674ZM22.5304 41.7432L22.3379 41.7977C22.3853 41.965 22.4392 42.1242 22.4999 42.2754L22.6855 42.2009L22.8711 42.1264C22.8161 41.9893 22.7666 41.8434 22.7228 41.6887L22.5304 41.7432ZM22.6855 42.2009L22.4999 42.2754C22.6245 42.5859 22.801 42.9376 23.0273 43.3297L23.2005 43.2297L23.3737 43.1297C23.1535 42.7482 22.9866 42.4141 22.8711 42.1264L22.6855 42.2009ZM23.2005 43.2297L23.0273 43.3297C23.6989 44.4929 24.5597 45.1917 25.6171 45.3745L25.6512 45.1774L25.6852 44.9803C24.7785 44.8236 24.0055 44.224 23.3737 43.1297L23.2005 43.2297ZM25.6512 45.1774L25.6171 45.3745C26.6644 45.5555 27.8675 45.2338 29.2134 44.4568L29.1134 44.2836L29.0134 44.1103C27.7071 44.8645 26.6021 45.1388 25.6852 44.9803L25.6512 45.1774ZM29.1134 44.2836L29.2134 44.4568C30.4131 43.7641 31.2449 43.0129 31.6768 42.1939L31.4999 42.1006L31.323 42.0073C30.9409 42.7318 30.1818 43.4358 29.0134 44.1103L29.1134 44.2836ZM31.4999 42.1006L31.6768 42.1939C32.127 41.3401 32.0053 40.3612 31.388 39.292L31.2148 39.392L31.0416 39.492C31.6183 40.4908 31.6866 41.3177 31.323 42.0073L31.4999 42.1006ZM22.892 40.9134L22.792 40.7402C22.4311 40.9486 22.2178 41.3733 22.3379 41.7977L22.5304 41.7432L22.7228 41.6887C22.659 41.4634 22.7682 41.2159 22.992 41.0866L22.892 40.9134ZM29.4714 37.5776L29.5821 37.4111C29.2765 37.2078 28.8906 37.2192 28.5875 37.3942L28.6875 37.5674L28.7875 37.7406C28.974 37.633 29.1954 37.6342 29.3606 37.7441L29.4714 37.5776ZM37.3732 31.629L37.2 31.729C37.3657 32.016 37.2673 32.3829 36.9804 32.5486L37.0804 32.7218L37.1804 32.895C37.6587 32.6189 37.8225 32.0073 37.5464 31.529L37.3732 31.629ZM32.7616 36.7847L32.8584 36.6097C32.3885 36.3497 32.3713 35.6715 32.7972 35.4256L32.6972 35.2524L32.5972 35.0792C31.863 35.5031 31.9627 36.5713 32.6648 36.9597L32.7616 36.7847ZM34.6194 28.4593L34.7194 28.6325C35.0064 28.4668 35.3734 28.5652 35.5391 28.8521L35.7123 28.7521L35.8855 28.6521C35.6093 28.1739 34.9977 28.01 34.5194 28.2861L34.6194 28.4593ZM19.5288 42.7055L19.477 42.5123C19.3984 42.5333 19.3155 42.499 19.2748 42.4286L19.1016 42.5286L18.9284 42.6286C19.0596 42.8558 19.3271 42.9666 19.5806 42.8986L19.5288 42.7055ZM20.0227 43.0767L20.2225 43.0664C20.2034 42.6972 19.8517 42.4119 19.477 42.5123L19.5288 42.7055L19.5806 42.8986C19.692 42.8688 19.8161 42.9537 19.823 43.0871L20.0227 43.0767ZM17.2889 39.3889L17.4621 39.2889C17.2964 39.0019 17.3948 38.6349 17.6817 38.4692L17.5817 38.296L17.4817 38.1228C17.0034 38.399 16.8396 39.0106 17.1157 39.4889L17.2889 39.3889Z" fill="#414141" mask="url(#path-7-outside-2_0_184)"/>
</g>
<g filter="url(#filter1_i_0_184)">
<path fill-rule="evenodd" clip-rule="evenodd" d="M18.2662 10.9684C18.7589 10.6839 19.345 10.9498 19.6043 11.3989C19.8636 11.8479 19.7116 12.3342 19.219 12.6186C18.7275 12.9024 18.2264 12.7932 17.9671 12.3441C17.7078 11.895 17.7747 11.2522 18.2662 10.9684ZM17.3974 20.0633C17.7241 19.8746 18.2264 19.9859 18.3986 20.2843C18.6603 20.7375 18.5031 21.2239 18.1764 21.4125C17.8451 21.6038 17.3499 21.4941 17.0882 21.0408C16.916 20.7425 17.0661 20.2545 17.3974 20.0633Z" fill="url(#paint6_linear_0_184)"/>
</g>
<path d="M17.0882 21.0408L17.1531 21.0033L17.1531 21.0033L17.0882 21.0408ZM19.6043 11.3989L19.6693 11.3614C19.3956 10.8873 18.7672 10.5925 18.2287 10.9034L18.2662 10.9684L18.3037 11.0333C18.7505 10.7754 19.2945 11.0123 19.5394 11.4364L19.6043 11.3989ZM19.219 12.6186L19.2565 12.6836C19.5158 12.5338 19.6913 12.3274 19.7651 12.093C19.8392 11.8579 19.8084 11.6023 19.6693 11.3614L19.6043 11.3989L19.5394 11.4364C19.6595 11.6445 19.6823 11.8566 19.6221 12.048C19.5616 12.2401 19.4147 12.419 19.1815 12.5537L19.219 12.6186ZM17.9671 12.3441L17.9022 12.3816C18.0414 12.6228 18.2485 12.7766 18.4899 12.8295C18.7305 12.8821 18.9977 12.833 19.2565 12.6836L19.219 12.6186L19.1815 12.5537C18.9488 12.688 18.7196 12.7262 18.522 12.6829C18.3252 12.6398 18.1521 12.5145 18.0321 12.3066L17.9671 12.3441ZM18.2662 10.9684L18.2287 10.9034C17.6916 11.2135 17.6283 11.9072 17.9022 12.3816L17.9671 12.3441L18.0321 12.3066C17.7874 11.8829 17.8577 11.2908 18.3037 11.0333L18.2662 10.9684ZM18.3986 20.2843L18.4636 20.2468C18.364 20.0742 18.174 19.9625 17.9721 19.9179C17.7696 19.8732 17.5425 19.8929 17.3599 19.9983L17.3974 20.0633L17.4349 20.1282C17.579 20.045 17.7664 20.0261 17.9397 20.0644C18.1137 20.1028 18.261 20.196 18.3337 20.3218L18.3986 20.2843ZM18.1764 21.4125L18.2139 21.4775C18.5802 21.266 18.7437 20.732 18.4636 20.2468L18.3986 20.2843L18.3337 20.3218C18.5768 20.743 18.426 21.1818 18.1389 21.3476L18.1764 21.4125ZM17.0882 21.0408L17.0232 21.0783C17.3032 21.5633 17.8427 21.6918 18.2139 21.4775L18.1764 21.4125L18.1389 21.3476C17.8475 21.5158 17.3965 21.4248 17.1531 21.0033L17.0882 21.0408ZM17.3974 20.0633L17.3599 19.9983C17.1751 20.105 17.0444 20.2918 16.9824 20.4895C16.9206 20.6866 16.9238 20.9061 17.0232 21.0783L17.0882 21.0408L17.1531 21.0033C17.0803 20.8772 17.0725 20.7036 17.1255 20.5343C17.1784 20.3657 17.2884 20.2128 17.4349 20.1282L17.3974 20.0633Z" fill="black"/>
<g filter="url(#filter2_i_0_184)">
<path fill-rule="evenodd" clip-rule="evenodd" d="M30.9812 24.4119C32.729 23.4029 33.3277 21.1685 32.3186 19.4207L23.9724 4.9647C22.9633 3.21692 20.729 2.61825 18.9812 3.62732L4.5252 11.9735C2.77743 12.9826 2.17872 15.2169 3.1878 16.9647L11.534 31.4207C12.5431 33.1685 14.7774 33.7672 16.5252 32.7581L30.9812 24.4119ZM12.9089 17.6586C12.5352 17.0114 12.334 16.4065 12.1055 15.7198L12.1054 15.7197C12.0895 15.6718 12.0734 15.6235 12.0572 15.5748C12.0009 15.4063 11.8892 15.2621 11.7408 15.1644L11.0827 14.731C10.5502 14.3803 10.7077 13.561 11.3322 13.4327V13.4327C11.6423 13.369 11.8707 13.1083 11.9156 12.7949C12.191 10.8726 13.0422 9.343 14.599 8.44415C17.5389 6.74679 21.4604 8.19265 23.4214 11.5892C25.038 14.3893 24.8988 17.7766 23.1598 19.8342C22.9412 20.0929 22.5436 20.0065 22.3743 19.7131V19.7131C20.6797 16.778 17.1507 15.7245 14.4512 17.2831C14.2018 17.4271 13.97 17.5896 13.7544 17.7672C13.489 17.9859 13.0808 17.9564 12.9089 17.6586V17.6586ZM14.6984 27.9316C14.7104 28.462 15.3596 28.711 15.7231 28.3246V28.3246C15.8936 28.1434 16.1584 28.0897 16.3913 28.1771C17.9249 28.7526 19.5287 28.8753 20.8144 28.1331C23.2848 26.7068 23.8713 23.0721 22.2683 20.2956C20.571 17.3557 17.2203 16.2028 14.7499 17.6291C12.2753 19.0579 11.6027 22.5336 13.3001 25.4735C13.6057 26.0028 14.0286 26.4697 14.4666 26.9264C14.6039 27.0695 14.6833 27.2585 14.6878 27.4567L14.6984 27.9316Z" fill="url(#paint7_linear_0_184)" fill-opacity="0.7"/>
</g>
<path d="M30.9812 24.4119L30.9437 24.347L30.9812 24.4119ZM16.5252 32.7581L16.5627 32.8231L16.5252 32.7581ZM12.1055 15.7198L12.1766 15.6962L12.1765 15.6957L12.1055 15.7198ZM12.1054 15.7197L12.0343 15.7434L12.0344 15.7438L12.1054 15.7197ZM20.8144 28.1331L20.8519 28.198L20.8519 28.198L20.8144 28.1331ZM14.4666 26.9264L14.4125 26.9783L14.4666 26.9264ZM14.6878 27.4567L14.7628 27.455L14.6878 27.4567ZM14.6984 27.9316L14.6235 27.9333L14.6984 27.9316ZM16.3913 28.1771L16.4177 28.1069L16.3913 28.1771ZM13.7544 17.7672L13.7067 17.7094L13.7544 17.7672ZM11.9156 12.7949L11.9898 12.8055L11.9156 12.7949ZM11.0827 14.731L11.0414 14.7936L11.0827 14.731ZM23.1598 19.8342L23.1025 19.7858L23.1598 19.8342ZM12.0572 15.5748L11.986 15.5985L12.0572 15.5748ZM11.7408 15.1644L11.6996 15.227L11.7408 15.1644ZM32.3186 19.4207L32.2536 19.4582C33.242 21.1701 32.6556 23.3586 30.9437 24.347L30.9812 24.4119L31.0187 24.4769C32.8023 23.4471 33.4133 21.1669 32.3835 19.3832L32.3186 19.4207ZM23.9724 4.9647L23.9075 5.0022L32.2536 19.4582L32.3186 19.4207L32.3835 19.3832L24.0374 4.9272L23.9724 4.9647ZM18.9812 3.62732L19.0187 3.69228C20.7306 2.70391 22.9191 3.2903 23.9075 5.0022L23.9724 4.9647L24.0374 4.9272C23.0076 3.14355 20.7273 2.53259 18.9437 3.56237L18.9812 3.62732ZM4.5252 11.9735L4.5627 12.0385L19.0187 3.69228L18.9812 3.62732L18.9437 3.56237L4.4877 11.9086L4.5252 11.9735ZM3.1878 16.9647L3.25275 16.9272C2.26438 15.2153 2.8508 13.0268 4.5627 12.0385L4.5252 11.9735L4.4877 11.9086C2.70406 12.9383 2.09306 15.2186 3.12284 17.0022L3.1878 16.9647ZM11.534 31.4207L11.5989 31.3832L3.25275 16.9272L3.1878 16.9647L3.12284 17.0022L11.469 31.4582L11.534 31.4207ZM16.5252 32.7581L16.4877 32.6932C14.7758 33.6815 12.5873 33.0951 11.5989 31.3832L11.534 31.4207L11.469 31.4582C12.4988 33.2419 14.7791 33.8529 16.5627 32.8231L16.5252 32.7581ZM30.9812 24.4119L30.9437 24.347L16.4877 32.6932L16.5252 32.7581L16.5627 32.8231L31.0187 24.4769L30.9812 24.4119ZM12.1055 15.7198L12.0343 15.7435C12.2626 16.4296 12.466 17.0414 12.844 17.6961L12.9089 17.6586L12.9739 17.6211C12.6045 16.9814 12.4053 16.3835 12.1766 15.6962L12.1055 15.7198ZM12.1054 15.7197L12.0344 15.7438L12.0345 15.744L12.1055 15.7198L12.1765 15.6957L12.1764 15.6955L12.1054 15.7197ZM12.0572 15.5748L11.986 15.5985C12.0023 15.6472 12.0183 15.6955 12.0343 15.7434L12.1054 15.7197L12.1766 15.696C12.1607 15.6481 12.1446 15.5998 12.1283 15.551L12.0572 15.5748ZM11.0827 14.731L11.0414 14.7936L11.6996 15.227L11.7408 15.1644L11.7821 15.1018L11.1239 14.6683L11.0827 14.731ZM14.599 8.44415L14.5615 8.3792C12.9799 9.29237 12.1191 10.8454 11.8413 12.7843L11.9156 12.7949L11.9898 12.8055C12.2628 10.8999 13.1045 9.39364 14.6365 8.50911L14.599 8.44415ZM23.4214 11.5892L23.4863 11.5517C21.5108 8.12998 17.5472 6.65545 14.5615 8.3792L14.599 8.44415L14.6365 8.50911C17.5307 6.83814 21.4099 8.25532 23.3564 11.6267L23.4214 11.5892ZM23.1598 19.8342L23.2171 19.8826C24.9807 17.7959 25.1153 14.3732 23.4863 11.5517L23.4214 11.5892L23.3564 11.6267C24.9607 14.4054 24.817 17.7572 23.1025 19.7858L23.1598 19.8342ZM14.4512 17.2831L14.4887 17.348C17.1483 15.8125 20.633 16.8472 22.3093 19.7506L22.3743 19.7131L22.4392 19.6756C20.7263 16.7088 17.1531 15.6365 14.4137 17.2181L14.4512 17.2831ZM13.7544 17.7672L13.8021 17.8251C14.0146 17.65 14.2431 17.4898 14.4887 17.348L14.4512 17.2831L14.4137 17.2181C14.1606 17.3643 13.9254 17.5293 13.7067 17.7094L13.7544 17.7672ZM20.8144 28.1331L20.7769 28.0681C19.5189 28.7944 17.9411 28.6786 16.4177 28.1069L16.3913 28.1771L16.365 28.2473C17.9087 28.8267 19.5386 28.9562 20.8519 28.198L20.8144 28.1331ZM22.2683 20.2956L22.2034 20.3331C23.792 23.0847 23.2014 26.6683 20.7769 28.0681L20.8144 28.1331L20.8519 28.198C23.3682 26.7452 23.9507 23.0596 22.3333 20.2581L22.2683 20.2956ZM14.7499 17.6291L14.7874 17.6941C17.213 16.2937 20.5211 17.4194 22.2034 20.3331L22.2683 20.2956L22.3333 20.2581C20.6208 17.292 17.2277 16.112 14.7124 17.5642L14.7499 17.6291ZM13.3001 25.4735L13.365 25.436C11.6828 22.5222 12.3576 19.0969 14.7874 17.6941L14.7499 17.6291L14.7124 17.5642C12.1929 19.0188 11.5226 22.5449 13.2351 25.511L13.3001 25.4735ZM14.4666 26.9264L14.5208 26.8744C14.083 26.418 13.6657 25.9568 13.365 25.436L13.3001 25.4735L13.2351 25.511C13.5457 26.0489 13.9743 26.5214 14.4125 26.9783L14.4666 26.9264ZM14.6984 27.9316L14.7734 27.9299L14.7628 27.455L14.6878 27.4567L14.6128 27.4584L14.6235 27.9333L14.6984 27.9316ZM14.4666 26.9264L14.4125 26.9783C14.537 27.108 14.6088 27.2791 14.6128 27.4584L14.6878 27.4567L14.7628 27.455C14.7579 27.2378 14.6709 27.0309 14.5208 26.8744L14.4666 26.9264ZM15.7231 28.3246L15.6685 28.2732C15.3509 28.6107 14.7838 28.3932 14.7734 27.9299L14.6984 27.9316L14.6235 27.9333C14.6369 28.5308 15.3682 28.8112 15.7777 28.3759L15.7231 28.3246ZM15.7231 28.3246L15.7777 28.3759C15.9261 28.2182 16.1585 28.1699 16.365 28.2473L16.3913 28.1771L16.4177 28.1069C16.1583 28.0096 15.861 28.0685 15.6685 28.2732L15.7231 28.3246ZM13.7544 17.7672L13.7067 17.7094C13.4685 17.9055 13.1174 17.8697 12.9739 17.6211L12.9089 17.6586L12.844 17.6961C13.0443 18.0431 13.5094 18.0662 13.8021 17.8251L13.7544 17.7672ZM11.3322 13.4327L11.3473 13.5061C11.6908 13.4356 11.9408 13.1477 11.9898 12.8055L11.9156 12.7949L11.8413 12.7843C11.8005 13.0688 11.5938 13.3024 11.3171 13.3592L11.3322 13.4327ZM11.0827 14.731L11.1239 14.6683C10.6473 14.3545 10.7882 13.621 11.3473 13.5061L11.3322 13.4327L11.3171 13.3592C10.6271 13.5009 10.4532 14.4062 11.0414 14.7936L11.0827 14.731ZM23.1598 19.8342L23.1025 19.7858C23.0122 19.8927 22.8859 19.9286 22.7615 19.9068C22.6357 19.8847 22.5129 19.8033 22.4392 19.6756L22.3743 19.7131L22.3093 19.7506C22.405 19.9163 22.5657 20.0247 22.7356 20.0545C22.907 20.0846 23.0888 20.0344 23.2171 19.8826L23.1598 19.8342ZM12.0572 15.5748L12.1283 15.551C12.0667 15.3664 11.9443 15.2086 11.7821 15.1018L11.7408 15.1644L11.6996 15.227C11.8341 15.3156 11.9352 15.4462 11.986 15.5985L12.0572 15.5748Z" fill="black"/>
<g filter="url(#filter3_i_0_184)">
<path fill-rule="evenodd" clip-rule="evenodd" d="M21.7234 16.9563C21.2318 17.2401 20.7299 17.1294 20.4682 16.676C20.2076 16.2248 20.2747 15.5822 20.7662 15.2985C21.2589 15.014 21.8448 15.2795 22.1054 15.7308C22.3671 16.1841 22.216 16.6719 21.7234 16.9563ZM19.3959 23.5248C19.7227 23.3362 20.2245 23.4468 20.3964 23.7446C20.657 24.1959 20.5031 24.688 20.1764 24.8766C19.8451 25.0678 19.3466 24.9524 19.086 24.5011C18.9141 24.2034 19.0647 23.7161 19.3959 23.5248Z" fill="url(#paint8_linear_0_184)"/>
</g>
<path d="M19.086 24.5011L19.151 24.4636L19.151 24.4636L19.086 24.5011ZM20.4682 16.676L20.4032 16.7135C20.5436 16.9567 20.7513 17.112 20.9933 17.1658C21.2345 17.2195 21.502 17.1708 21.7609 17.0213L21.7234 16.9563L21.6859 16.8914C21.4533 17.0257 21.224 17.0635 21.0259 17.0194C20.8286 16.9755 20.6545 16.8487 20.5331 16.6385L20.4682 16.676ZM20.7662 15.2985L20.7287 15.2335C20.1916 15.5436 20.1281 16.237 20.4032 16.7135L20.4682 16.676L20.5331 16.6385C20.2872 16.2126 20.3578 15.6209 20.8037 15.3634L20.7662 15.2985ZM22.1054 15.7308L22.1703 15.6933C21.8954 15.2171 21.2673 14.9225 20.7287 15.2335L20.7662 15.2985L20.8037 15.3634C21.2504 15.1055 21.7943 15.3419 22.0404 15.7683L22.1054 15.7308ZM21.7234 16.9563L21.7609 17.0213C22.0203 16.8715 22.1956 16.6646 22.2689 16.4292C22.3424 16.193 22.3106 15.9362 22.1703 15.6933L22.1054 15.7308L22.0404 15.7683C22.1619 15.9787 22.1855 16.1924 22.1257 16.3846C22.0656 16.5775 21.9191 16.7567 21.6859 16.8914L21.7234 16.9563ZM20.3964 23.7446L20.4614 23.7071C20.3619 23.5348 20.1721 23.4234 19.9704 23.379C19.768 23.3345 19.541 23.3544 19.3584 23.4598L19.3959 23.5248L19.4334 23.5897C19.5776 23.5065 19.7649 23.4874 19.9381 23.5255C20.112 23.5638 20.259 23.6566 20.3315 23.7821L20.3964 23.7446ZM20.1764 24.8766L20.2139 24.9415C20.5807 24.7297 20.7401 24.1898 20.4614 23.7071L20.3964 23.7446L20.3315 23.7821C20.5739 24.2019 20.4255 24.6462 20.1389 24.8116L20.1764 24.8766ZM19.086 24.5011L19.0211 24.5386C19.2996 25.0211 19.8422 25.1561 20.2139 24.9415L20.1764 24.8766L20.1389 24.8116C19.848 24.9796 19.3935 24.8838 19.151 24.4636L19.086 24.5011ZM19.3959 23.5248L19.3584 23.4598C19.1737 23.5665 19.0429 23.753 18.9807 23.9505C18.9188 24.1474 18.9218 24.3666 19.0211 24.5386L19.086 24.5011L19.151 24.4636C19.0784 24.3379 19.0706 24.1646 19.1238 23.9955C19.1768 23.8271 19.2869 23.6744 19.4334 23.5897L19.3959 23.5248Z" fill="black"/>
<defs>
<filter id="filter0_i_0_184" x="16.9816" y="28.152" width="73.1984" height="108.101" filterUnits="userSpaceOnUse" color-interpolation-filters="sRGB">
<feFlood flood-opacity="0" result="BackgroundImageFix"/>
<feBlend mode="normal" in="SourceGraphic" in2="BackgroundImageFix" result="shape"/>
<feColorMatrix in="SourceAlpha" type="matrix" values="0 0 0 0 0 0 0 0 0 0 0 0 0 0 0 0 0 0 127 0" result="hardAlpha"/>
<feOffset dx="1" dy="1"/>
<feGaussianBlur stdDeviation="0.5"/>
<feComposite in2="hardAlpha" operator="arithmetic" k2="-1" k3="1"/>
<feColorMatrix type="matrix" values="0 0 0 0 0.153884 0 0 0 0 0.153884 0 0 0 0 0.153884 0 0 0 1 0"/>
<feBlend mode="normal" in2="shape" result="effect1_innerShadow_0_184"/>
</filter>
<filter id="filter1_i_0_184" x="16.9413" y="10.7753" width="3.86292" height="11.8022" filterUnits="userSpaceOnUse" color-interpolation-filters="sRGB">
<feFlood flood-opacity="0" result="BackgroundImageFix"/>
<feBlend mode="normal" in="SourceGraphic" in2="BackgroundImageFix" result="shape"/>
<feColorMatrix in="SourceAlpha" type="matrix" values="0 0 0 0 0 0 0 0 0 0 0 0 0 0 0 0 0 0 127 0" result="hardAlpha"/>
<feOffset dx="1" dy="1"/>
<feGaussianBlur stdDeviation="0.5"/>
<feComposite in2="hardAlpha" operator="arithmetic" k2="-1" k3="1"/>
<feColorMatrix type="matrix" values="0 0 0 0 0.0987602 0 0 0 0 0.0987602 0 0 0 0 0.0987602 0 0 0 0.5 0"/>
<feBlend mode="normal" in2="shape" result="effect1_innerShadow_0_184"/>
</filter>
<filter id="filter2_i_0_184" x="2.62256" y="3.06213" width="31.2612" height="31.2612" filterUnits="userSpaceOnUse" color-interpolation-filters="sRGB">
<feFlood flood-opacity="0" result="BackgroundImageFix"/>
<feBlend mode="normal" in="SourceGraphic" in2="BackgroundImageFix" result="shape"/>
<feColorMatrix in="SourceAlpha" type="matrix" values="0 0 0 0 0 0 0 0 0 0 0 0 0 0 0 0 0 0 127 0" result="hardAlpha"/>
<feOffset dx="1" dy="1"/>
<feGaussianBlur stdDeviation="0.5"/>
<feComposite in2="hardAlpha" operator="arithmetic" k2="-1" k3="1"/>
<feColorMatrix type="matrix" values="0 0 0 0 0.0987602 0 0 0 0 0.0987602 0 0 0 0 0.0987602 0 0 0 0.5 0"/>
<feBlend mode="normal" in2="shape" result="effect1_innerShadow_0_184"/>
</filter>
<filter id="filter3_i_0_184" x="18.9393" y="15.1053" width="4.36792" height="10.9351" filterUnits="userSpaceOnUse" color-interpolation-filters="sRGB">
<feFlood flood-opacity="0" result="BackgroundImageFix"/>
<feBlend mode="normal" in="SourceGraphic" in2="BackgroundImageFix" result="shape"/>
<feColorMatrix in="SourceAlpha" type="matrix" values="0 0 0 0 0 0 0 0 0 0 0 0 0 0 0 0 0 0 127 0" result="hardAlpha"/>
<feOffset dx="1" dy="1"/>
<feGaussianBlur stdDeviation="0.5"/>
<feComposite in2="hardAlpha" operator="arithmetic" k2="-1" k3="1"/>
<feColorMatrix type="matrix" values="0 0 0 0 0.0987602 0 0 0 0 0.0987602 0 0 0 0 0.0987602 0 0 0 0.5 0"/>
<feBlend mode="normal" in2="shape" result="effect1_innerShadow_0_184"/>
</filter>
<linearGradient id="paint0_linear_0_184" x1="33.3572" y1="63.2353" x2="39.4602" y2="52.0147" gradientUnits="userSpaceOnUse">
<stop/>
<stop offset="1" stop-color="#787878"/>
</linearGradient>
<linearGradient id="paint1_linear_0_184" x1="43.7591" y1="82.4693" x2="43.356" y2="72.7998" gradientUnits="userSpaceOnUse">
<stop/>
<stop offset="1" stop-color="#787878"/>
</linearGradient>
<linearGradient id="paint2_linear_0_184" x1="51.6903" y1="94.9892" x2="53.7709" y2="85.1907" gradientUnits="userSpaceOnUse">
<stop/>
<stop offset="1" stop-color="#787878"/>
</linearGradient>
<linearGradient id="paint3_linear_0_184" x1="58.6181" y1="109.699" x2="60.8579" y2="99.328" gradientUnits="userSpaceOnUse">
<stop/>
<stop offset="1" stop-color="#787878"/>
</linearGradient>
<linearGradient id="paint4_linear_0_184" x1="70.6882" y1="127.895" x2="76.7912" y2="116.674" gradientUnits="userSpaceOnUse">
<stop/>
<stop offset="1" stop-color="#787878"/>
</linearGradient>
<linearGradient id="paint5_linear_0_184" x1="22.0005" y1="45.3626" x2="23.1556" y2="33.2189" gradientUnits="userSpaceOnUse">
<stop/>
<stop offset="1" stop-color="#787878"/>
</linearGradient>
<linearGradient id="paint6_linear_0_184" x1="19.2943" y1="-1.17189" x2="-0.238982" y2="10.1057" gradientUnits="userSpaceOnUse">
<stop stop-color="white" stop-opacity="0.1"/>
<stop offset="1" stop-opacity="0.1"/>
</linearGradient>
<linearGradient id="paint7_linear_0_184" x1="9.3609" y1="27.6568" x2="26.6455" y2="9.59464" gradientUnits="userSpaceOnUse">
<stop/>
<stop offset="1" stop-color="#7E7D7D"/>
</linearGradient>
<linearGradient id="paint8_linear_0_184" x1="22.3499" y1="4.12041" x2="2.81656" y2="15.398" gradientUnits="userSpaceOnUse">
<stop stop-color="white" stop-opacity="0.1"/>
<stop offset="1" stop-opacity="0.1"/>
</linearGradient>
</defs>
</svg>
