<svg width="97" height="141" viewBox="0 0 97 141" fill="none" xmlns="http://www.w3.org/2000/svg">
<path d="M51.5461 65.5737C51.8156 66.0404 51.5559 66.6346 51.0303 66.7538L36.9884 69.9396C36.6465 70.0172 36.2939 69.8631 36.1186 69.5594L34.099 66.0613C33.9227 65.756 33.9671 65.3712 34.2083 65.114L39.3745 59.6067C39.9175 59.0278 39.3769 58.0967 38.605 58.2813L31.279 60.0329C30.9347 60.1152 30.5772 59.9614 30.4002 59.6548L28.3486 56.1014C28.173 55.7972 28.2164 55.4139 28.4556 55.1566L38.2539 44.6207C38.6204 44.2267 39.2635 44.2995 39.5325 44.7655L41.2623 47.7615C41.4461 48.0799 41.3893 48.4826 41.1245 48.7377L35.7897 53.8771C35.2064 54.4391 35.7317 55.4125 36.5216 55.2335L43.9534 53.5488C44.2953 53.4713 44.6478 53.6254 44.8231 53.929L46.4098 56.6773C46.5872 56.9845 46.5411 57.3719 46.2965 57.6288L41.152 63.0336C40.5884 63.6258 41.171 64.5823 41.9557 64.3531L48.9566 62.3089C49.3105 62.2055 49.6893 62.3575 49.8736 62.6768L51.5461 65.5737Z" fill="url(#paint0_linear_0_184)" fill-opacity="0.7" stroke="#414141" stroke-width="0.2"/>
<path d="M60.9498 78.5943C60.7953 78.6835 60.5978 78.6306 60.5086 78.4761V78.4761C60.4933 78.4496 60.4819 78.421 60.4744 78.3914C60.4208 78.177 60.3452 77.9088 60.2477 77.5867C60.1433 77.2418 59.9908 76.8957 59.7903 76.5484C59.3072 75.7117 58.8303 75.2319 58.3594 75.1091C57.8886 74.9863 57.223 75.1732 56.3626 75.67V75.67C56.3037 75.704 56.2836 75.7792 56.3175 75.8381L57.7564 78.3302C57.9773 78.7129 57.8462 79.2022 57.4636 79.4231L55.9602 80.291C55.5776 80.512 55.0883 80.3809 54.8674 79.9982L53.849 78.2344C53.6281 77.8517 53.1389 77.7206 52.7562 77.9415L43.7343 83.1503C43.3517 83.3712 42.8624 83.2401 42.6415 82.8575L40.9806 79.9807C40.7597 79.5981 40.8908 79.1088 41.2734 78.8879L50.2953 73.6791C50.6779 73.4582 50.809 72.9689 50.5881 72.5863L50.3354 72.1485C50.1145 71.7659 50.2456 71.2766 50.6282 71.0557L52.1316 70.1877C52.5142 69.9668 53.0035 70.0979 53.2244 70.4805L53.6652 71.2441C53.7822 71.4468 54.0414 71.5162 54.2442 71.3992V71.3992C55.8702 70.4604 57.3393 70.1885 58.6513 70.5834C59.9634 70.9783 61.1252 72.052 62.137 73.8043C62.5015 74.4358 62.8102 75.0206 63.0631 75.5587C63.2014 75.8533 63.3254 76.1324 63.435 76.3963C63.5835 76.7538 63.4335 77.1603 63.0983 77.3539L60.9498 78.5943Z" fill="url(#paint1_linear_0_184)" fill-opacity="0.7" stroke="#414141" stroke-width="0.2"/>
<path d="M54.992 100.649C54.6094 100.87 54.1201 100.739 53.8992 100.356L47.4873 89.2504C47.2663 88.8678 47.3974 88.3785 47.7801 88.1576L49.5476 87.1371C49.7241 87.0353 49.9328 87.0046 50.1311 87.0513L59.5146 89.2633C60.1969 89.4241 60.7415 88.6918 60.3909 88.0846L57.8339 83.6557C57.613 83.2731 57.7441 82.7838 58.1267 82.5629L59.855 81.565C60.2377 81.3441 60.7269 81.4752 60.9479 81.8578L67.1205 92.5492C67.3414 92.9318 67.2103 93.4211 66.8277 93.642L65.1048 94.6367C64.93 94.7377 64.7234 94.7688 64.5266 94.7238L55.2 92.5925C54.519 92.4369 53.9797 93.1675 54.3289 93.7724L57.0723 98.5242C57.2933 98.9068 57.1622 99.3961 56.7795 99.617L54.992 100.649Z" fill="url(#paint2_linear_0_184)" fill-opacity="0.7" stroke="#414141" stroke-width="0.2"/>
<path d="M71.4622 101.194C72.8612 103.617 73.4989 105.583 73.375 107.091C73.2511 108.599 72.392 109.814 70.7975 110.734L62.4444 115.557C62.0618 115.778 61.5725 115.647 61.3516 115.264L59.5811 112.197C59.432 111.939 59.5205 111.609 59.7787 111.46V111.46C60.1651 111.237 60.1311 110.664 59.7238 110.482C59.6833 110.464 59.6421 110.445 59.6004 110.426C59.1598 110.228 58.7818 110.02 58.4665 109.802C58.0356 109.493 57.6448 109.14 57.2943 108.742C56.9437 108.345 56.6135 107.878 56.3036 107.341C55.5744 106.078 55.3545 104.795 55.6437 103.491C55.933 102.187 56.6854 101.185 57.901 100.483C58.8719 99.9224 59.7906 99.6814 60.6569 99.7601C61.5232 99.8388 62.3641 100.174 63.1796 100.766C63.9906 101.351 64.8083 102.184 65.6327 103.265C66.4416 104.326 67.2367 105.451 68.0179 106.64C68.0431 106.679 68.0941 106.691 68.1339 106.668V106.668C68.868 106.244 69.202 105.651 69.1359 104.889C69.0697 104.128 68.6994 103.163 68.0249 101.995C67.6193 101.292 67.0621 100.614 66.3531 99.9603C65.6819 99.3413 65.1783 98.8944 64.8426 98.6196C64.8063 98.5899 64.7757 98.5542 64.7522 98.5136V98.5136C64.6472 98.3317 64.7095 98.0991 64.8914 97.9941L67.2367 96.6401C67.5514 96.4584 67.9492 96.5114 68.1917 96.7821C68.529 97.1588 68.9515 97.6599 69.4592 98.2854C70.2066 99.2063 70.8743 100.176 71.4622 101.194ZM64.7988 108.562C65.2038 108.328 65.3231 107.798 65.0497 107.418C64.8069 107.081 64.5488 106.732 64.2755 106.369C63.8052 105.746 63.4146 105.293 63.1036 105.01C62.7233 104.661 62.3399 104.448 61.9535 104.371C61.5671 104.294 61.1647 104.377 60.7464 104.618C60.4701 104.778 60.2588 104.931 60.1125 105.079C59.9662 105.226 59.8688 105.441 59.8203 105.721C59.7672 105.994 59.7761 106.278 59.847 106.574C59.9178 106.87 60.1082 107.286 60.4181 107.823C60.6642 108.249 61.0005 108.631 61.4271 108.969C61.7503 109.225 62.0875 109.432 62.4389 109.59C62.6518 109.686 62.8967 109.66 63.099 109.543L64.7988 108.562Z" fill="url(#paint3_linear_0_184)" fill-opacity="0.7"/>
<path d="M58.4665 109.802L58.4083 109.884L58.4097 109.884L58.4665 109.802ZM63.1796 100.766L63.1209 100.847L63.1212 100.847L63.1796 100.766ZM69.4592 98.2854L69.5368 98.2224L69.4592 98.2854ZM63.1036 105.01L63.036 105.083L63.0362 105.083L63.1036 105.01ZM59.8203 105.721L59.9185 105.74L59.9188 105.738L59.8203 105.721ZM61.4271 108.969L61.365 109.048L61.4271 108.969ZM62.4389 109.59L62.3978 109.681L62.4389 109.59ZM64.8426 98.6196L64.7792 98.697L64.8426 98.6196ZM68.0179 106.64L68.1014 106.585L68.0179 106.64ZM59.7238 110.482L59.7647 110.39L59.7238 110.482ZM71.4622 101.194L71.3756 101.244C72.7719 103.663 73.3966 105.606 73.2753 107.083L73.375 107.091L73.4747 107.099C73.6011 105.56 72.9506 103.572 71.5488 101.144L71.4622 101.194ZM73.375 107.091L73.2753 107.083C73.1548 108.551 72.3205 109.739 70.7475 110.648L70.7975 110.734L70.8475 110.821C72.4634 109.888 73.3475 108.648 73.4747 107.099L73.375 107.091ZM70.7975 110.734L70.7475 110.648L62.3944 115.47L62.4444 115.557L62.4944 115.644L70.8475 110.821L70.7975 110.734ZM61.3516 115.264L61.4382 115.214L59.6677 112.147L59.5811 112.197L59.4945 112.247L61.265 115.314L61.3516 115.264ZM59.7238 110.482L59.7647 110.39C59.7242 110.372 59.6831 110.354 59.6414 110.335L59.6004 110.426L59.5594 110.518C59.6012 110.536 59.6424 110.555 59.6829 110.573L59.7238 110.482ZM59.6004 110.426L59.6414 110.335C59.2049 110.139 58.8326 109.934 58.5234 109.72L58.4665 109.802L58.4097 109.884C58.731 110.107 59.1146 110.318 59.5594 110.518L59.6004 110.426ZM58.4665 109.802L58.5248 109.721C58.1 109.416 57.7148 109.068 57.3693 108.676L57.2943 108.742L57.2193 108.809C57.5748 109.212 57.9712 109.57 58.4083 109.884L58.4665 109.802ZM57.2943 108.742L57.3693 108.676C57.0238 108.285 56.6973 107.823 56.3902 107.291L56.3036 107.341L56.217 107.391C56.5297 107.933 56.8637 108.405 57.2193 108.809L57.2943 108.742ZM56.3036 107.341L56.3902 107.291C55.6723 106.048 55.458 104.79 55.7414 103.513L55.6437 103.491L55.5461 103.469C55.2509 104.8 55.4766 106.109 56.217 107.391L56.3036 107.341ZM55.6437 103.491L55.7414 103.513C56.0242 102.238 56.7583 101.258 57.951 100.57L57.901 100.483L57.851 100.396C56.6126 101.111 55.8418 102.137 55.5461 103.469L55.6437 103.491ZM57.901 100.483L57.951 100.57C58.9092 100.016 59.8073 99.7834 60.6478 99.8597L60.6569 99.7601L60.6659 99.6605C59.7738 99.5795 58.8347 99.8284 57.851 100.396L57.901 100.483ZM60.6569 99.7601L60.6478 99.8597C61.4936 99.9365 62.3176 100.264 63.1209 100.847L63.1796 100.766L63.2384 100.685C62.4107 100.084 61.5529 99.7411 60.6659 99.6605L60.6569 99.7601ZM63.1796 100.766L63.1212 100.847C63.9218 101.424 64.7327 102.249 65.5532 103.326L65.6327 103.265L65.7123 103.205C64.8838 102.118 64.0593 101.277 63.2381 100.685L63.1796 100.766ZM65.6327 103.265L65.5532 103.326C66.3606 104.385 67.1543 105.508 67.9343 106.695L68.0179 106.64L68.1014 106.585C67.3191 105.395 66.5227 104.268 65.7123 103.205L65.6327 103.265ZM68.1339 106.668L68.1839 106.754C68.5627 106.536 68.8444 106.27 69.0221 105.954C69.2002 105.638 69.2701 105.279 69.2355 104.881L69.1359 104.889L69.0362 104.898C69.0678 105.261 69.0038 105.579 68.8479 105.856C68.6916 106.134 68.4392 106.376 68.0839 106.581L68.1339 106.668ZM69.1359 104.889L69.2355 104.881C69.1675 104.097 68.7886 103.117 68.1115 101.945L68.0249 101.995L67.9383 102.045C68.6103 103.208 68.972 104.158 69.0362 104.898L69.1359 104.889ZM68.0249 101.995L68.1115 101.945C67.7 101.232 67.1359 100.546 66.4209 99.8868L66.3531 99.9603L66.2854 100.034C66.9882 100.682 67.5386 101.352 67.9383 102.045L68.0249 101.995ZM66.3531 99.9603L66.4209 99.8868C65.7494 99.2676 65.2441 98.819 64.9059 98.5422L64.8426 98.6196L64.7792 98.697C65.1126 98.9698 65.6143 99.415 66.2854 100.034L66.3531 99.9603ZM64.8914 97.9941L64.9414 98.0807L67.2867 96.7267L67.2367 96.6401L67.1867 96.5535L64.8414 97.9075L64.8914 97.9941ZM68.1917 96.7821L68.1172 96.8489C68.453 97.2238 68.8744 97.7235 69.3815 98.3484L69.4592 98.2854L69.5368 98.2224C69.0286 97.5963 68.605 97.0938 68.2662 96.7154L68.1917 96.7821ZM69.4592 98.2854L69.3815 98.3484C70.1257 99.2652 70.7903 100.23 71.3756 101.244L71.4622 101.194L71.5488 101.144C70.9582 100.121 70.2875 99.1473 69.5368 98.2224L69.4592 98.2854ZM65.0497 107.418L65.1308 107.36C64.8875 107.022 64.629 106.672 64.3553 106.309L64.2755 106.369L64.1957 106.43C64.4686 106.791 64.7262 107.14 64.9686 107.477L65.0497 107.418ZM64.2755 106.369L64.3553 106.309C63.8839 105.685 63.4889 105.225 63.1709 104.936L63.1036 105.01L63.0362 105.083C63.3403 105.361 63.7266 105.808 64.1957 106.43L64.2755 106.369ZM63.1036 105.01L63.1712 104.936C62.7815 104.578 62.3822 104.354 61.973 104.273L61.9535 104.371L61.934 104.469C62.2977 104.542 62.6651 104.743 63.036 105.083L63.1036 105.01ZM61.9535 104.371L61.973 104.273C61.5577 104.19 61.1308 104.281 60.6964 104.532L60.7464 104.618L60.7964 104.705C61.1987 104.473 61.5764 104.398 61.934 104.469L61.9535 104.371ZM60.7464 104.618L60.6964 104.532C60.416 104.693 60.1964 104.852 60.0415 105.008L60.1125 105.079L60.1835 105.149C60.3212 105.01 60.5241 104.862 60.7964 104.705L60.7464 104.618ZM60.1125 105.079L60.0415 105.008C59.8763 105.175 59.7725 105.411 59.7217 105.704L59.8203 105.721L59.9188 105.738C59.9651 105.471 60.0561 105.278 60.1835 105.149L60.1125 105.079ZM59.8203 105.721L59.7221 105.702C59.6661 105.99 59.6759 106.289 59.7497 106.597L59.847 106.574L59.9442 106.551C59.8764 106.267 59.8684 105.998 59.9184 105.74L59.8203 105.721ZM59.847 106.574L59.7497 106.597C59.8241 106.908 60.0207 107.335 60.3315 107.873L60.4181 107.823L60.5047 107.773C60.1957 107.238 60.0115 106.832 59.9442 106.551L59.847 106.574ZM60.4181 107.823L60.3315 107.873C60.5845 108.311 60.9296 108.703 61.365 109.048L61.4271 108.969L61.4892 108.891C61.0714 108.56 60.7438 108.187 60.5047 107.773L60.4181 107.823ZM61.4271 108.969L61.365 109.048C61.6942 109.308 62.0385 109.52 62.3978 109.681L62.4389 109.59L62.4799 109.499C62.1366 109.345 61.8064 109.142 61.4892 108.891L61.4271 108.969ZM63.099 109.543L63.149 109.63L64.8488 108.648L64.7988 108.562L64.7488 108.475L63.049 109.456L63.099 109.543ZM62.4389 109.59L62.3978 109.681C62.6442 109.792 62.923 109.76 63.149 109.63L63.099 109.543L63.049 109.456C62.8705 109.56 62.6595 109.58 62.4799 109.499L62.4389 109.59ZM65.0497 107.418L64.9686 107.477C65.2066 107.807 65.1036 108.27 64.7488 108.475L64.7988 108.562L64.8488 108.648C65.304 108.385 65.4395 107.788 65.1308 107.36L65.0497 107.418ZM67.2367 96.6401L67.2867 96.7267C67.5627 96.5673 67.908 96.6153 68.1172 96.8489L68.1917 96.7821L68.2662 96.7154C67.9904 96.4075 67.5401 96.3494 67.1867 96.5535L67.2367 96.6401ZM64.7522 98.5136L64.8388 98.4636C64.7614 98.3295 64.8074 98.1581 64.9414 98.0807L64.8914 97.9941L64.8414 97.9075C64.6117 98.0402 64.533 98.3339 64.6656 98.5636L64.7522 98.5136ZM64.8426 98.6196L64.9059 98.5422C64.8788 98.52 64.8561 98.4934 64.8388 98.4636L64.7522 98.5136L64.6656 98.5636C64.6953 98.6149 64.7339 98.6599 64.7792 98.697L64.8426 98.6196ZM59.5811 112.197L59.6677 112.147C59.5462 111.937 59.6183 111.668 59.8287 111.547L59.7787 111.46L59.7287 111.373C59.4226 111.55 59.3178 111.941 59.4945 112.247L59.5811 112.197ZM68.0179 106.64L67.9343 106.695C67.9886 106.778 68.0981 106.804 68.1839 106.754L68.1339 106.668L68.0839 106.581C68.0901 106.578 68.0977 106.58 68.1014 106.585L68.0179 106.64ZM59.7787 111.46L59.8287 111.547C60.2873 111.282 60.2448 110.605 59.7647 110.39L59.7238 110.482L59.6829 110.573C60.0173 110.723 60.0429 111.192 59.7287 111.373L59.7787 111.46ZM62.4444 115.557L62.3944 115.47C62.0596 115.664 61.6315 115.549 61.4382 115.214L61.3516 115.264L61.265 115.314C61.5135 115.745 62.0639 115.892 62.4944 115.644L62.4444 115.557Z" fill="#414141"/>
<path d="M88.8772 130.233C89.1467 130.7 88.8869 131.294 88.3614 131.413L74.3195 134.599C73.9776 134.676 73.625 134.522 73.4497 134.219L71.4301 130.721C71.2537 130.415 71.2982 130.03 71.5394 129.773L76.7055 124.266C77.2486 123.687 76.708 122.756 75.936 122.941L68.6101 124.692C68.2658 124.775 67.9083 124.621 67.7312 124.314L65.6797 120.761C65.504 120.456 65.5474 120.073 65.7867 119.816L75.585 109.28C75.9514 108.886 76.5946 108.959 76.8636 109.425L78.5934 112.421C78.7772 112.739 78.7203 113.142 78.4556 113.397L73.1208 118.536C72.5375 119.098 73.0628 120.072 73.8527 119.893L81.2844 118.208C81.6263 118.131 81.9789 118.285 82.1541 118.588L83.7409 121.337C83.9183 121.644 83.8721 122.031 83.6275 122.288L78.483 127.693C77.9194 128.285 78.502 129.242 79.2868 129.012L86.2876 126.968C86.6416 126.865 87.0203 127.017 87.2047 127.336L88.8772 130.233Z" fill="url(#paint4_linear_0_184)" fill-opacity="0.7" stroke="#414141" stroke-width="0.2"/>
<path d="M32.7023 34.818C32.1223 35.1528 32.1807 36.0261 32.7667 36.3503C33.0902 36.5292 33.3986 36.72 33.6918 36.9226C34.4096 37.4185 35.0261 38.1125 35.541 39.0044C36.5117 40.6857 36.6533 42.33 35.9657 43.9373C35.2782 45.5446 33.8688 46.9635 31.7376 48.194C29.6458 49.4016 27.607 49.8078 25.6211 49.4125C23.6353 49.0172 22.1433 47.9552 21.1453 46.2265C20.7169 45.4845 20.4199 44.7877 20.2542 44.1362C20.1295 43.6458 20.054 43.1478 20.0279 42.6423C20.0149 42.391 19.7769 42.2059 19.5339 42.271V42.271C19.3679 42.3155 19.1927 42.243 19.1067 42.0941L17.294 38.9544C17.0731 38.5718 17.2042 38.0825 17.5869 37.8616L34.6246 28.0249C35.0072 27.804 35.4965 27.9351 35.7174 28.3177L37.3783 31.1945C37.5992 31.5772 37.4681 32.0664 37.0855 32.2873L32.7023 34.818ZM31.2199 38.9575C30.9875 38.555 30.6871 38.1759 30.3186 37.8203C30.0587 37.5694 29.778 37.3437 29.4765 37.1432C29.2411 36.9866 28.9374 36.9916 28.6926 37.133L22.8972 40.479C22.6048 40.6478 22.4435 40.9839 22.5355 41.3088C22.5811 41.4698 22.6328 41.6223 22.6906 41.7665C22.8107 42.0655 22.9824 42.4084 23.2057 42.7952C23.8574 43.924 24.6742 44.5732 25.6563 44.7429C26.6384 44.9127 27.7924 44.6147 29.1185 43.8491C30.3026 43.1655 31.098 42.4379 31.505 41.6662C31.9119 40.8944 31.8169 39.9916 31.2199 38.9575Z" fill="url(#paint5_linear_0_184)" fill-opacity="0.7"/>
<path d="M20.2542 44.1362L20.3511 44.1115L20.2542 44.1362ZM22.6906 41.7665L22.7835 41.7292L22.6906 41.7665ZM22.5355 41.3088L22.6317 41.2815L22.5355 41.3088ZM32.7667 36.3503L32.8151 36.2628L32.7667 36.3503ZM19.1067 42.0941L19.0201 42.1441L19.1067 42.0941ZM20.0279 42.6423L19.928 42.6475L20.0279 42.6423ZM17.294 38.9544L17.2074 39.0044L17.294 38.9544ZM32.7667 36.3503L32.7183 36.4378C33.039 36.6152 33.3446 36.8042 33.635 37.0049L33.6918 36.9226L33.7486 36.8403C33.4526 36.6358 33.1414 36.4433 32.8151 36.2628L32.7667 36.3503ZM33.6918 36.9226L33.635 37.0049C34.3386 37.491 34.9455 38.173 35.4544 39.0544L35.541 39.0044L35.6276 38.9544C35.1066 38.0519 34.4807 37.346 33.7486 36.8403L33.6918 36.9226ZM35.541 39.0044L35.4544 39.0544C36.4114 40.7119 36.5475 42.3232 35.8738 43.898L35.9657 43.9373L36.0577 43.9767C36.7591 42.3369 36.6121 40.6595 35.6276 38.9544L35.541 39.0044ZM35.9657 43.9373L35.8738 43.898C35.1976 45.4787 33.8075 46.8834 31.6876 48.1074L31.7376 48.194L31.7876 48.2806C33.9301 47.0436 35.3588 45.6105 36.0577 43.9767L35.9657 43.9373ZM31.7376 48.194L31.6876 48.1074C29.6125 49.3054 27.5983 49.7041 25.6407 49.3144L25.6211 49.4125L25.6016 49.5106C27.6157 49.9115 29.679 49.4979 31.7876 48.2806L31.7376 48.194ZM25.6211 49.4125L25.6407 49.3144C23.6826 48.9246 22.2153 47.8798 21.2319 46.1765L21.1453 46.2265L21.0587 46.2765C22.0714 48.0305 23.588 49.1097 25.6016 49.5106L25.6211 49.4125ZM21.1453 46.2265L21.2319 46.1765C20.8069 45.4404 20.514 44.7522 20.3511 44.1115L20.2542 44.1362L20.1572 44.1608C20.3257 44.8233 20.6269 45.5286 21.0587 46.2765L21.1453 46.2265ZM20.2542 44.1362L20.3511 44.1115C20.228 43.6275 20.1535 43.1361 20.1277 42.6371L20.0279 42.6423L19.928 42.6475C19.9545 43.1596 20.0309 43.6641 20.1572 44.1608L20.2542 44.1362ZM19.1067 42.0941L19.1933 42.0441L17.3806 38.9044L17.294 38.9544L17.2074 39.0044L19.0201 42.1441L19.1067 42.0941ZM17.5869 37.8616L17.6369 37.9482L34.6746 28.1115L34.6246 28.0249L34.5746 27.9383L17.5369 37.775L17.5869 37.8616ZM35.7174 28.3177L35.6308 28.3677L37.2917 31.2445L37.3783 31.1945L37.4649 31.1445L35.804 28.2677L35.7174 28.3177ZM37.0855 32.2873L37.0355 32.2007L32.6523 34.7314L32.7023 34.818L32.7523 34.9046L37.1355 32.3739L37.0855 32.2873ZM31.2199 38.9575L31.3065 38.9075C31.069 38.4961 30.7625 38.1098 30.3881 37.7483L30.3186 37.8203L30.2492 37.8922C30.6116 38.242 30.906 38.6138 31.1333 39.0075L31.2199 38.9575ZM30.3186 37.8203L30.3881 37.7483C30.1238 37.4933 29.8384 37.2638 29.5319 37.0599L29.4765 37.1432L29.4211 37.2264C29.7176 37.4237 29.9936 37.6456 30.2492 37.8922L30.3186 37.8203ZM28.6926 37.133L28.6426 37.0464L22.8472 40.3924L22.8972 40.479L22.9472 40.5656L28.7426 37.2196L28.6926 37.133ZM22.5355 41.3088L22.4393 41.336C22.4857 41.5001 22.5386 41.6561 22.5978 41.8037L22.6906 41.7665L22.7835 41.7292C22.727 41.5886 22.6764 41.4394 22.6317 41.2815L22.5355 41.3088ZM22.6906 41.7665L22.5978 41.8037C22.7202 42.1085 22.8942 42.4558 23.1191 42.8452L23.2057 42.7952L23.2923 42.7452C23.0705 42.3611 22.9012 42.0226 22.7835 41.7292L22.6906 41.7665ZM23.2057 42.7952L23.1191 42.8452C23.7807 43.9912 24.6195 44.6652 25.6393 44.8415L25.6563 44.7429L25.6733 44.6444C24.729 44.4812 23.934 43.8567 23.2923 42.7452L23.2057 42.7952ZM25.6563 44.7429L25.6393 44.8415C26.6539 45.0169 27.8325 44.707 29.1685 43.9357L29.1185 43.8491L29.0685 43.7625C27.7523 44.5224 26.6228 44.8085 25.6733 44.6444L25.6563 44.7429ZM29.1185 43.8491L29.1685 43.9357C30.3604 43.2476 31.174 42.5081 31.5934 41.7128L31.505 41.6662L31.4165 41.6195C31.022 42.3676 30.2447 43.0834 29.0685 43.7625L29.1185 43.8491ZM31.505 41.6662L31.5934 41.7128C32.022 40.9001 31.9137 39.9592 31.3065 38.9075L31.2199 38.9575L31.1333 39.0075C31.7202 40.024 31.8018 40.8888 31.4165 41.6195L31.505 41.6662ZM22.8972 40.479L22.8472 40.3924C22.5205 40.581 22.3332 40.9614 22.4393 41.336L22.5355 41.3088L22.6317 41.2815C22.5538 41.0064 22.689 40.7146 22.9472 40.5656L22.8972 40.479ZM29.4765 37.1432L29.5319 37.0599C29.2614 36.88 28.9166 36.8882 28.6426 37.0464L28.6926 37.133L28.7426 37.2196C28.9583 37.0951 29.2208 37.0932 29.4211 37.2264L29.4765 37.1432ZM37.3783 31.1945L37.2917 31.2445C37.485 31.5793 37.3703 32.0074 37.0355 32.2007L37.0855 32.2873L37.1355 32.3739C37.566 32.1254 37.7135 31.575 37.4649 31.1445L37.3783 31.1945ZM32.7667 36.3503L32.8151 36.2628C32.2871 35.9707 32.2494 35.1949 32.7523 34.9046L32.7023 34.818L32.6523 34.7314C31.9952 35.1107 32.0743 36.0815 32.7183 36.4378L32.7667 36.3503ZM34.6246 28.0249L34.6746 28.1115C35.0094 27.9182 35.4375 28.0329 35.6308 28.3677L35.7174 28.3177L35.804 28.2677C35.5555 27.8372 35.005 27.6897 34.5746 27.9383L34.6246 28.0249ZM19.5339 42.271L19.508 42.1744C19.3857 42.2072 19.2567 42.1538 19.1933 42.0441L19.1067 42.0941L19.0201 42.1441C19.1287 42.3322 19.3501 42.4238 19.5598 42.3676L19.5339 42.271ZM20.0279 42.6423L20.1277 42.6371C20.1117 42.3269 19.8169 42.0916 19.508 42.1744L19.5339 42.271L19.5598 42.3676C19.737 42.3201 19.918 42.4551 19.928 42.6475L20.0279 42.6423ZM17.294 38.9544L17.3806 38.9044C17.1873 38.5696 17.3021 38.1415 17.6369 37.9482L17.5869 37.8616L17.5369 37.775C17.1064 38.0235 16.9589 38.574 17.2074 39.0044L17.294 38.9544Z" fill="#414141"/>
<path fill-rule="evenodd" clip-rule="evenodd" d="M18.2712 10.5339C18.7639 10.2495 19.35 10.5154 19.6093 10.9644C19.8686 11.4135 19.7166 11.8998 19.224 12.1842C18.7325 12.468 18.2314 12.3587 17.9721 11.9097C17.7129 11.4606 17.7797 10.8177 18.2712 10.5339ZM17.4024 19.6288C17.7291 19.4402 18.2314 19.5515 18.4036 19.8498C18.6653 20.303 18.5081 20.7895 18.1814 20.9781C17.8501 21.1693 17.3549 21.0596 17.0932 20.6064C16.921 20.3081 17.0711 19.8201 17.4024 19.6288Z" fill="url(#paint6_linear_0_184)" fill-opacity="0.7"/>
<path d="M17.0932 20.6064L17.1798 20.5564L17.1798 20.5564L17.0932 20.6064ZM19.6093 10.9644L19.6959 10.9144C19.4174 10.4321 18.775 10.1276 18.2212 10.4473L18.2712 10.5339L18.3212 10.6205C18.7527 10.3714 19.2827 10.5987 19.5227 11.0144L19.6093 10.9644ZM19.224 12.1842L19.274 12.2708C19.5377 12.1185 19.718 11.9075 19.794 11.6661C19.8704 11.4236 19.8382 11.1609 19.6959 10.9144L19.6093 10.9644L19.5227 11.0144C19.6397 11.2171 19.6612 11.422 19.6032 11.606C19.545 11.7911 19.4029 11.9654 19.174 12.0976L19.224 12.1842ZM17.9721 11.9097L17.8855 11.9597C18.028 12.2064 18.2407 12.3649 18.4896 12.4194C18.7374 12.4737 19.0108 12.4227 19.274 12.2708L19.224 12.1842L19.174 12.0976C18.9456 12.2294 18.7228 12.2657 18.5323 12.2241C18.343 12.1826 18.1755 12.062 18.0587 11.8597L17.9721 11.9097ZM18.2712 10.5339L18.2212 10.4473C17.669 10.7662 17.6067 11.4768 17.8855 11.9597L17.9721 11.9097L18.0587 11.8597C17.819 11.4444 17.8904 10.8692 18.3212 10.6205L18.2712 10.5339ZM18.4036 19.8498L18.4902 19.7998C18.3861 19.6195 18.189 19.5047 17.9825 19.4591C17.7752 19.4132 17.5415 19.4331 17.3524 19.5422L17.4024 19.6288L17.4524 19.7154C17.5901 19.6359 17.7708 19.6171 17.9394 19.6544C18.1087 19.6918 18.2489 19.7818 18.317 19.8998L18.4036 19.8498ZM18.1814 20.9781L18.2314 21.0647C18.6109 20.8456 18.7765 20.2957 18.4902 19.7998L18.4036 19.8498L18.317 19.8998C18.554 20.3104 18.4053 20.7333 18.1314 20.8915L18.1814 20.9781ZM17.0932 20.6064L17.0066 20.6564C17.2927 21.1519 17.8469 21.2867 18.2314 21.0647L18.1814 20.9781L18.1314 20.8915C17.8533 21.052 17.4171 20.9673 17.1798 20.5564L17.0932 20.6064ZM17.4024 19.6288L17.3524 19.5422C17.1613 19.6526 17.0271 19.845 16.9636 20.0475C16.9003 20.2493 16.9027 20.4765 17.0066 20.6564L17.0932 20.6064L17.1798 20.5564C17.1114 20.438 17.1028 20.272 17.1544 20.1074C17.2058 19.9435 17.3123 19.7963 17.4524 19.7154L17.4024 19.6288Z" fill="black"/>
<path fill-rule="evenodd" clip-rule="evenodd" d="M30.9863 23.9775C32.7341 22.9684 33.3328 20.734 32.3237 18.9863L23.9775 4.53025C22.9685 2.78248 20.7341 2.1838 18.9863 3.19288L4.53033 11.5391C2.78256 12.5481 2.18385 14.7825 3.19292 16.5302L11.5391 30.9863C12.5482 32.734 14.7826 33.3327 16.5303 32.3237L30.9863 23.9775ZM12.914 17.2242C12.5404 16.577 12.3391 15.9721 12.1106 15.2854L12.1106 15.2852C12.0946 15.2374 12.0786 15.1891 12.0623 15.1403C12.006 14.9719 11.8943 14.8276 11.746 14.73L11.0878 14.2965C10.5553 13.9459 10.7128 13.1265 11.3373 12.9982V12.9982C11.6474 12.9345 11.8758 12.6738 11.9207 12.3604C12.1961 10.4382 13.0473 8.90856 14.6042 8.00971C17.5441 6.31234 21.4655 7.7582 23.4265 11.1548C25.0431 13.9548 24.904 17.3421 23.165 19.3997C22.9463 19.6584 22.5488 19.572 22.3794 19.2787V19.2787C20.6848 16.3436 17.1559 15.2901 14.4563 16.8486C14.2069 16.9926 13.9751 17.1552 13.7595 17.3328C13.4941 17.5514 13.086 17.522 12.914 17.2242V17.2242ZM14.7036 27.4972C14.7155 28.0276 15.3647 28.2765 15.7282 27.8901V27.8901C15.8987 27.7089 16.1635 27.6553 16.3965 27.7427C17.93 28.3182 19.5339 28.4409 20.8195 27.6986C23.2899 26.2723 23.8765 22.6377 22.2735 19.8612C20.5761 16.9213 17.2255 15.7684 14.7551 17.1947C12.2804 18.6234 11.6078 22.0991 13.3052 25.039C13.6108 25.5684 14.0338 26.0353 14.4718 26.4919C14.609 26.635 14.6884 26.824 14.6929 27.0223L14.7036 27.4972Z" fill="url(#paint7_linear_0_184)" fill-opacity="0.7"/>
<path d="M30.9863 23.9775L31.0363 24.0641L30.9863 23.9775ZM18.9863 3.19288L19.0363 3.27948L18.9863 3.19288ZM4.53033 11.5391L4.48033 11.4525L4.53033 11.5391ZM3.19292 16.5302L3.10632 16.5802L3.19292 16.5302ZM11.5391 30.9863L11.6257 30.9363L11.5391 30.9863ZM16.5303 32.3237L16.4803 32.2371L16.5303 32.3237ZM12.1106 15.2854L12.2055 15.2538L12.2053 15.2532L12.1106 15.2854ZM12.1106 15.2852L12.0157 15.3168L12.0159 15.3174L12.1106 15.2852ZM20.8195 27.6986L20.8695 27.7852L20.8695 27.7852L20.8195 27.6986ZM14.4718 26.4919L14.3996 26.5611L14.4718 26.4919ZM14.6929 27.0223L14.7929 27.02L14.6929 27.0223ZM14.7036 27.4972L14.8036 27.4949L14.7036 27.4972ZM16.3965 27.7427L16.4316 27.6491L16.3965 27.7427ZM13.7595 17.3328L13.8231 17.41L13.7595 17.3328ZM11.9207 12.3604L11.8217 12.3463L11.9207 12.3604ZM11.0878 14.2965L11.0328 14.38L11.0878 14.2965ZM23.165 19.3997L23.2413 19.4643L23.165 19.3997ZM12.0623 15.1403L12.1571 15.1087L12.0623 15.1403ZM11.746 14.73L11.691 14.8135L11.746 14.73ZM32.3237 18.9863L32.2371 19.0363C33.2186 20.7362 32.6363 22.9094 30.9363 23.8909L30.9863 23.9775L31.0363 24.0641C32.8319 23.0274 33.447 20.7319 32.4103 18.9363L32.3237 18.9863ZM23.9775 4.53025L23.8909 4.58025L32.2371 19.0363L32.3237 18.9863L32.4103 18.9363L24.0641 4.48025L23.9775 4.53025ZM18.9863 3.19288L19.0363 3.27948C20.7363 2.29802 22.9095 2.88031 23.8909 4.58025L23.9775 4.53025L24.0641 4.48025C23.0274 2.68465 20.7319 2.06959 18.9363 3.10627L18.9863 3.19288ZM4.53033 11.5391L4.58033 11.6257L19.0363 3.27948L18.9863 3.19288L18.9363 3.10627L4.48033 11.4525L4.53033 11.5391ZM3.19292 16.5302L3.27952 16.4802C2.29806 14.7803 2.88038 12.6071 4.58033 11.6257L4.53033 11.5391L4.48033 11.4525C2.68473 12.4891 2.06963 14.7846 3.10632 16.5802L3.19292 16.5302ZM11.5391 30.9863L11.6257 30.9363L3.27952 16.4802L3.19292 16.5302L3.10632 16.5802L11.4525 31.0363L11.5391 30.9863ZM16.5303 32.3237L16.4803 32.2371C14.7804 33.2185 12.6072 32.6362 11.6257 30.9363L11.5391 30.9863L11.4525 31.0363C12.4892 32.8319 14.7847 33.447 16.5803 32.4103L16.5303 32.3237ZM30.9863 23.9775L30.9363 23.8909L16.4803 32.2371L16.5303 32.3237L16.5803 32.4103L31.0363 24.0641L30.9863 23.9775ZM12.1106 15.2854L12.0157 15.317C12.2439 16.0029 12.448 16.617 12.8274 17.2742L12.914 17.2242L13.0006 17.1742C12.6327 16.537 12.4343 15.9413 12.2055 15.2538L12.1106 15.2854ZM12.1106 15.2852L12.0159 15.3174L12.0159 15.3176L12.1106 15.2854L12.2053 15.2532L12.2052 15.253L12.1106 15.2852ZM12.0623 15.1403L11.9674 15.172C11.9837 15.2207 11.9997 15.2689 12.0157 15.3168L12.1106 15.2852L12.2054 15.2537C12.1895 15.2058 12.1734 15.1575 12.1571 15.1087L12.0623 15.1403ZM11.0878 14.2965L11.0328 14.38L11.691 14.8135L11.746 14.73L11.801 14.6464L11.1428 14.213L11.0878 14.2965ZM14.6042 8.00971L14.5542 7.9231C12.9642 8.84104 12.1003 10.4019 11.8217 12.3463L11.9207 12.3604L12.0197 12.3746C12.2919 10.4745 13.1304 8.97607 14.6542 8.09631L14.6042 8.00971ZM23.4265 11.1548L23.5131 11.1048C21.5327 7.67465 17.555 6.19055 14.5542 7.9231L14.6042 8.00971L14.6542 8.09631C17.5331 6.43414 21.3983 7.84176 23.3399 11.2048L23.4265 11.1548ZM23.165 19.3997L23.2413 19.4643C25.0131 17.368 25.1462 13.9334 23.5131 11.1048L23.4265 11.1548L23.3399 11.2048C24.94 13.9763 24.7948 17.3163 23.0886 19.3352L23.165 19.3997ZM14.4563 16.8486L14.5063 16.9352C17.1526 15.4074 20.6226 16.4358 22.2928 19.3287L22.3794 19.2787L22.466 19.2287C20.747 16.2513 17.1591 15.1727 14.4063 16.762L14.4563 16.8486ZM13.7595 17.3328L13.8231 17.41C14.0347 17.2357 14.262 17.0763 14.5063 16.9352L14.4563 16.8486L14.4063 16.762C14.1519 16.9089 13.9156 17.0747 13.6959 17.2556L13.7595 17.3328ZM20.8195 27.6986L20.7695 27.612C19.5207 28.333 17.9517 28.2195 16.4316 27.6491L16.3965 27.7427L16.3613 27.8363C17.9084 28.4169 19.547 28.5487 20.8695 27.7852L20.8195 27.6986ZM22.2735 19.8612L22.1869 19.9112C23.7707 22.6544 23.1787 26.2211 20.7695 27.612L20.8195 27.6986L20.8695 27.7852C23.4012 26.3236 23.9823 22.6209 22.3601 19.8112L22.2735 19.8612ZM14.7551 17.1947L14.8051 17.2813C17.2157 15.8895 20.5097 17.0062 22.1869 19.9112L22.2735 19.8612L22.3601 19.8112C20.6425 16.8363 17.2353 15.6473 14.7051 17.1081L14.7551 17.1947ZM13.3052 25.039L13.3918 24.989C11.7146 22.084 12.3902 18.6755 14.8051 17.2813L14.7551 17.1947L14.7051 17.1081C12.1706 18.5714 11.5011 22.1142 13.2186 25.089L13.3052 25.039ZM14.4718 26.4919L14.5439 26.4227C14.1062 25.9663 13.6908 25.507 13.3918 24.989L13.3052 25.039L13.2186 25.089C13.5308 25.6298 13.9613 26.1042 14.3996 26.5611L14.4718 26.4919ZM14.7036 27.4972L14.8036 27.4949L14.7929 27.02L14.6929 27.0223L14.5929 27.0245L14.6036 27.4994L14.7036 27.4972ZM14.4718 26.4919L14.3996 26.5611C14.5198 26.6864 14.589 26.8516 14.5929 27.0245L14.6929 27.0223L14.7929 27.02C14.7878 26.7964 14.6983 26.5836 14.5439 26.4227L14.4718 26.4919ZM15.7282 27.8901L15.6554 27.8216C15.3532 28.1428 14.8135 27.9359 14.8036 27.4949L14.7036 27.4972L14.6036 27.4994C14.6175 28.1193 15.3762 28.4102 15.8011 27.9586L15.7282 27.8901ZM15.7282 27.8901L15.8011 27.9586C15.9421 27.8087 16.1637 27.7621 16.3613 27.8363L16.3965 27.7427L16.4316 27.6491C16.1634 27.5484 15.8552 27.6091 15.6554 27.8216L15.7282 27.8901ZM13.7595 17.3328L13.6959 17.2556C13.4669 17.4443 13.1347 17.4064 13.0006 17.1742L12.914 17.2242L12.8274 17.2742C13.0372 17.6375 13.5213 17.6585 13.8231 17.41L13.7595 17.3328ZM11.3373 12.9982L11.3574 13.0962C11.7121 13.0233 11.9693 12.7264 12.0197 12.3746L11.9207 12.3604L11.8217 12.3463C11.7823 12.6212 11.5827 12.8457 11.3172 12.9003L11.3373 12.9982ZM11.0878 14.2965L11.1428 14.213C10.6848 13.9114 10.8202 13.2065 11.3574 13.0962L11.3373 12.9982L11.3172 12.9003C10.6054 13.0465 10.4259 13.9804 11.0328 14.38L11.0878 14.2965ZM23.165 19.3997L23.0886 19.3352C23.0046 19.4346 22.8876 19.4682 22.771 19.4477C22.6525 19.427 22.536 19.35 22.466 19.2287L22.3794 19.2787L22.2928 19.3287C22.3921 19.5007 22.5591 19.6136 22.7364 19.6447C22.9156 19.6761 23.1067 19.6236 23.2413 19.4643L23.165 19.3997ZM12.0623 15.1403L12.1571 15.1087C12.0937 14.9187 11.9678 14.7563 11.801 14.6464L11.746 14.73L11.691 14.8135C11.8208 14.899 11.9184 15.0251 11.9674 15.172L12.0623 15.1403Z" fill="black"/>
<path fill-rule="evenodd" clip-rule="evenodd" d="M21.7284 16.522C21.2369 16.8058 20.7349 16.6951 20.4732 16.2417C20.2126 15.7904 20.2797 15.1479 20.7712 14.8641C21.2639 14.5797 21.8498 14.8452 22.1104 15.2965C22.3721 15.7498 22.221 16.2375 21.7284 16.522ZM19.401 23.0905C19.7277 22.9018 20.2295 23.0125 20.4014 23.3102C20.662 23.7615 20.5081 24.2536 20.1814 24.4423C19.8501 24.6335 19.3516 24.5181 19.091 24.0668C18.9191 23.7691 19.0697 23.2817 19.401 23.0905Z" fill="url(#paint8_linear_0_184)" fill-opacity="0.7"/>
<path d="M19.091 24.0668L19.1776 24.0168L19.1776 24.0168L19.091 24.0668ZM20.4732 16.2417L20.3866 16.2917C20.5301 16.5404 20.7435 16.7004 20.9929 16.7559C21.2413 16.8112 21.5151 16.7606 21.7784 16.6086L21.7284 16.522L21.6784 16.4354C21.4501 16.5672 21.2272 16.6031 21.0363 16.5607C20.8465 16.5184 20.678 16.3964 20.5598 16.1917L20.4732 16.2417ZM20.7712 14.8641L20.7212 14.7775C20.1689 15.0964 20.1066 15.8067 20.3866 16.2917L20.4732 16.2417L20.5598 16.1917C20.3187 15.7742 20.3905 15.1994 20.8212 14.9507L20.7712 14.8641ZM22.1104 15.2965L22.197 15.2465C21.9173 14.762 21.2751 14.4577 20.7212 14.7775L20.7712 14.8641L20.8212 14.9507C21.2526 14.7016 21.7824 14.9284 22.0238 15.3465L22.1104 15.2965ZM21.7284 16.522L21.7784 16.6086C22.0422 16.4563 22.2223 16.2448 22.2978 16.0023C22.3735 15.7588 22.3404 15.4948 22.197 15.2465L22.1104 15.2965L22.0238 15.3465C22.1421 15.5515 22.1643 15.758 22.1068 15.9429C22.049 16.1287 21.9072 16.3033 21.6784 16.4354L21.7284 16.522ZM20.4014 23.3102L20.488 23.2602C20.3841 23.0801 20.1871 22.9657 19.9807 22.9203C19.7735 22.8747 19.5399 22.8948 19.351 23.0039L19.401 23.0905L19.451 23.1771C19.5887 23.0976 19.7694 23.0786 19.9378 23.1156C20.107 23.1528 20.2469 23.2426 20.3148 23.3602L20.4014 23.3102ZM20.1814 24.4423L20.2314 24.5289C20.6116 24.3093 20.7728 23.7535 20.488 23.2602L20.4014 23.3102L20.3148 23.3602C20.5512 23.7696 20.4046 24.1979 20.1314 24.3557L20.1814 24.4423ZM19.091 24.0668L19.0044 24.1168C19.289 24.6096 19.8462 24.7512 20.2314 24.5289L20.1814 24.4423L20.1314 24.3557C19.854 24.5158 19.4142 24.4266 19.1776 24.0168L19.091 24.0668ZM19.401 23.0905L19.351 23.0039C19.1599 23.1142 19.0256 23.3064 18.9619 23.5087C18.8985 23.7102 18.9007 23.9371 19.0044 24.1168L19.091 24.0668L19.1776 24.0168C19.1095 23.8987 19.101 23.7331 19.1527 23.5687C19.2041 23.4051 19.3108 23.258 19.451 23.1771L19.401 23.0905Z" fill="black"/>
<defs>
<linearGradient id="paint0_linear_0_184" x1="33.3623" y1="62.8009" x2="39.4653" y2="51.5803" gradientUnits="userSpaceOnUse">
<stop/>
<stop offset="1" stop-color="#787878"/>
</linearGradient>
<linearGradient id="paint1_linear_0_184" x1="43.7643" y1="82.0349" x2="43.3611" y2="72.3653" gradientUnits="userSpaceOnUse">
<stop/>
<stop offset="1" stop-color="#787878"/>
</linearGradient>
<linearGradient id="paint2_linear_0_184" x1="51.6954" y1="94.5547" x2="53.776" y2="84.7561" gradientUnits="userSpaceOnUse">
<stop/>
<stop offset="1" stop-color="#787878"/>
</linearGradient>
<linearGradient id="paint3_linear_0_184" x1="58.6234" y1="109.265" x2="60.8631" y2="98.8935" gradientUnits="userSpaceOnUse">
<stop/>
<stop offset="1" stop-color="#787878"/>
</linearGradient>
<linearGradient id="paint4_linear_0_184" x1="70.6933" y1="127.46" x2="76.7963" y2="116.24" gradientUnits="userSpaceOnUse">
<stop/>
<stop offset="1" stop-color="#787878"/>
</linearGradient>
<linearGradient id="paint5_linear_0_184" x1="22.0056" y1="44.9281" x2="23.1607" y2="32.7845" gradientUnits="userSpaceOnUse">
<stop/>
<stop offset="1" stop-color="#787878"/>
</linearGradient>
<linearGradient id="paint6_linear_0_184" x1="19.2993" y1="-1.60634" x2="-0.233977" y2="9.67122" gradientUnits="userSpaceOnUse">
<stop stop-color="#696969"/>
<stop offset="1"/>
</linearGradient>
<linearGradient id="paint7_linear_0_184" x1="9.36602" y1="27.2224" x2="26.6506" y2="9.16019" gradientUnits="userSpaceOnUse">
<stop/>
<stop offset="1" stop-color="#7E7D7D"/>
</linearGradient>
<linearGradient id="paint8_linear_0_184" x1="22.3549" y1="3.68608" x2="2.82156" y2="14.9636" gradientUnits="userSpaceOnUse">
<stop stop-color="#696969"/>
<stop offset="1"/>
</linearGradient>
</defs>
</svg>
