<svg width="99" height="140" viewBox="0 0 99 140" fill="none" xmlns="http://www.w3.org/2000/svg">
<g opacity="0.702916">
<g filter="url(#filter0_i_0_195)">
<path fill-rule="evenodd" clip-rule="evenodd" d="M26.6126 49.3505C28.605 49.7111 30.6364 49.2694 32.7068 48.0254C34.8163 46.7579 36.2007 45.3147 36.8601 43.6956C37.5195 42.0766 37.3492 40.435 36.3493 38.7709C35.8189 37.888 35.1904 37.205 34.4641 36.7216C34.2791 36.5985 34.0883 36.4802 33.8917 36.3665C33.1671 35.9473 33.0758 34.8523 33.7933 34.4211L37.6049 32.1309C38.0783 31.8464 38.2315 31.2321 37.947 30.7587L36.4422 28.2541C36.1577 27.7807 35.5434 27.6276 35.07 27.912L18.5494 37.8386C18.076 38.123 17.9228 38.7374 18.2073 39.2108L19.9715 42.1469C20.06 42.2942 20.2364 42.3637 20.4017 42.3163V42.3163C20.6435 42.247 20.8846 42.4279 20.902 42.6789C20.937 43.1839 21.0211 43.6805 21.1544 44.1686C21.3314 44.8172 21.6406 45.5087 22.0818 46.2431C23.1099 47.9541 24.6201 48.9899 26.6126 49.3505ZM32.3604 41.5026C31.9669 42.2813 31.1843 43.0228 30.0124 43.7269C28.6998 44.5156 27.5511 44.8336 26.5663 44.681C25.5814 44.5285 24.7533 43.8936 24.082 42.7764C23.852 42.3935 23.6744 42.0537 23.5491 41.7568C23.5059 41.6542 23.4657 41.5473 23.4286 41.4359C23.2951 41.0356 23.492 40.6108 23.8537 40.3934L29.3715 37.078C29.6745 36.896 30.0547 36.882 30.3487 37.0781C30.6178 37.2577 30.8706 37.4577 31.107 37.678C31.4816 38.0272 31.7886 38.401 32.0281 38.7994C32.643 39.8229 32.7538 40.724 32.3604 41.5026Z" fill="url(#paint0_linear_0_195)" fill-opacity="0.5"/>
</g>
<path d="M36.8601 43.6956L36.9758 43.7428L36.9758 43.7428L36.8601 43.6956ZM34.4641 36.7216L34.3948 36.8257L34.3948 36.8257L34.4641 36.7216ZM20.902 42.6789L21.0267 42.6703L20.902 42.6789ZM23.4286 41.4359L23.5472 41.3964L23.4286 41.4359ZM33.8917 36.3665L33.9543 36.2583L33.8917 36.3665ZM32.7068 48.0254L32.6424 47.9183C30.5928 49.1498 28.5919 49.5817 26.6349 49.2275L26.6126 49.3505L26.5903 49.4735C28.6182 49.8405 30.6801 49.389 32.7712 48.1325L32.7068 48.0254ZM36.8601 43.6956L36.7443 43.6485C36.0985 45.2341 34.7379 46.6592 32.6424 47.9183L32.7068 48.0254L32.7712 48.1325C34.8946 46.8567 36.3028 45.3952 36.9758 43.7428L36.8601 43.6956ZM36.3493 38.7709L36.2422 38.8353C37.2244 40.4699 37.3871 42.0703 36.7443 43.6485L36.8601 43.6956L36.9758 43.7428C37.6519 42.0829 37.4741 40.4001 36.4565 38.7065L36.3493 38.7709ZM34.4641 36.7216L34.3948 36.8257C35.1032 37.2971 35.7196 37.9655 36.2422 38.8353L36.3493 38.7709L36.4565 38.7065C35.9182 37.8106 35.2776 37.1128 34.5333 36.6176L34.4641 36.7216ZM33.8917 36.3665L33.8291 36.4747C34.0235 36.5871 34.2121 36.7041 34.3948 36.8257L34.4641 36.7216L34.5333 36.6176C34.3461 36.493 34.1531 36.3732 33.9543 36.2583L33.8917 36.3665ZM37.6049 32.1309L37.5405 32.0237L33.7289 34.314L33.7933 34.4211L33.8577 34.5283L37.6693 32.238L37.6049 32.1309ZM36.4422 28.2541L36.335 28.3185L37.8399 30.8231L37.947 30.7587L38.0542 30.6943L36.5493 28.1898L36.4422 28.2541ZM18.5494 37.8386L18.6138 37.9457L35.1343 28.0192L35.07 27.912L35.0056 27.8049L18.485 37.7314L18.5494 37.8386ZM19.9715 42.1469L20.0786 42.0825L18.3144 39.1464L18.2073 39.2108L18.1001 39.2752L19.8643 42.2113L19.9715 42.1469ZM21.1544 44.1686L21.2749 44.1357C21.1439 43.6555 21.0611 43.1671 21.0267 42.6703L20.902 42.6789L20.7773 42.6876C20.8129 43.2008 20.8984 43.7055 21.0338 44.2015L21.1544 44.1686ZM22.0818 46.2431L22.189 46.1787C21.7521 45.4516 21.4483 44.7707 21.2749 44.1357L21.1544 44.1686L21.0338 44.2015C21.2145 44.8637 21.529 45.5658 21.9747 46.3075L22.0818 46.2431ZM26.6126 49.3505L26.6349 49.2275C24.6772 48.8732 23.1982 47.8584 22.189 46.1787L22.0818 46.2431L21.9747 46.3075C23.0216 48.0498 24.5631 49.1066 26.5903 49.4735L26.6126 49.3505ZM30.0124 43.7269L30.0768 43.8341C31.2584 43.1241 32.0635 42.3675 32.4719 41.559L32.3604 41.5026L32.2488 41.4463C31.8704 42.1952 31.1102 42.9214 29.948 43.6198L30.0124 43.7269ZM26.5663 44.681L26.5471 44.8046C27.5729 44.9635 28.752 44.6301 30.0768 43.8341L30.0124 43.7269L29.948 43.6198C28.6477 44.4011 27.5294 44.7038 26.5854 44.5575L26.5663 44.681ZM24.082 42.7764L23.9749 42.8407C24.659 43.9793 25.515 44.6447 26.5471 44.8046L26.5663 44.681L26.5854 44.5575C25.6478 44.4123 24.8476 43.8079 24.1892 42.712L24.082 42.7764ZM23.5491 41.7568L23.4339 41.8053C23.5622 42.1093 23.7429 42.4546 23.9749 42.8407L24.082 42.7764L24.1892 42.712C23.9611 42.3325 23.7865 41.998 23.6643 41.7082L23.5491 41.7568ZM23.4286 41.4359L23.31 41.4755C23.3481 41.5897 23.3894 41.6997 23.4339 41.8053L23.5491 41.7568L23.6643 41.7082C23.6224 41.6087 23.5833 41.5048 23.5472 41.3964L23.4286 41.4359ZM29.3715 37.078L29.3072 36.9708L23.7893 40.2863L23.8537 40.3934L23.9181 40.5006L29.4359 37.1851L29.3715 37.078ZM31.107 37.678L31.1923 37.5866C30.9509 37.3616 30.6928 37.1575 30.4181 36.9742L30.3487 37.0781L30.2793 37.1821C30.5428 37.3579 30.7903 37.5537 31.0218 37.7695L31.107 37.678ZM32.0281 38.7994L32.1352 38.735C31.8892 38.3256 31.5745 37.9429 31.1923 37.5866L31.107 37.678L31.0218 37.7695C31.3887 38.1115 31.6881 38.4763 31.9209 38.8638L32.0281 38.7994ZM32.3604 41.5026L32.4719 41.559C32.8915 40.7286 32.7632 39.7803 32.1352 38.735L32.0281 38.7994L31.9209 38.8638C32.5228 39.8655 32.6161 40.7193 32.2488 41.4463L32.3604 41.5026ZM20.4017 42.3163L20.4361 42.4365C20.5961 42.3906 20.765 42.5102 20.7773 42.6876L20.902 42.6789L21.0267 42.6703C21.0042 42.3457 20.6909 42.1033 20.3672 42.1962L20.4017 42.3163ZM19.9715 42.1469L19.8643 42.2113C19.982 42.4071 20.2165 42.4995 20.4361 42.4365L20.4017 42.3163L20.3672 42.1962C20.2564 42.228 20.138 42.1814 20.0786 42.0825L19.9715 42.1469ZM29.3715 37.078L29.4359 37.1851C29.7033 37.0245 30.0309 37.0164 30.2793 37.1821L30.3487 37.0781L30.4181 36.9742C30.0784 36.7476 29.6457 36.7675 29.3072 36.9708L29.3715 37.078ZM18.5494 37.8386L18.485 37.7314C17.9524 38.0514 17.7801 38.7426 18.1001 39.2752L18.2073 39.2108L18.3144 39.1464C18.0655 38.7322 18.1996 38.1946 18.6138 37.9457L18.5494 37.8386ZM23.4286 41.4359L23.5472 41.3964C23.4353 41.0608 23.5977 40.6931 23.9181 40.5006L23.8537 40.3934L23.7893 40.2863C23.3863 40.5285 23.1549 41.0103 23.31 41.4755L23.4286 41.4359ZM36.4422 28.2541L36.5493 28.1898C36.2293 27.6572 35.5382 27.4849 35.0056 27.8049L35.07 27.912L35.1343 28.0192C35.5486 27.7703 36.0861 27.9043 36.335 28.3185L36.4422 28.2541ZM37.6049 32.1309L37.6693 32.238C38.2019 31.918 38.3742 31.2269 38.0542 30.6943L37.947 30.7587L37.8399 30.8231C38.0888 31.2373 37.9548 31.7748 37.5405 32.0237L37.6049 32.1309ZM33.8917 36.3665L33.9543 36.2583C33.6317 36.0716 33.4478 35.733 33.4264 35.3905C33.4052 35.0493 33.5452 34.7161 33.8577 34.5283L33.7933 34.4211L33.7289 34.314C33.3239 34.5573 33.1508 34.9872 33.1769 35.4061C33.203 35.8237 33.4271 36.2421 33.8291 36.4747L33.8917 36.3665Z" fill="url(#paint1_linear_0_195)" style="mix-blend-mode:exclusion"/>
<g filter="url(#filter1_i_0_195)">
<path d="M53.191 65.6814C53.5379 66.2588 53.2263 67.0071 52.572 67.1676L38.9946 70.4982C38.569 70.6026 38.1249 70.4177 37.8992 70.042L35.9712 66.8333C35.7442 66.4555 35.7913 65.9737 36.0872 65.647L40.609 60.6547C41.2751 59.9193 40.5792 58.7674 39.6184 59.015L33.1145 60.6905C32.6859 60.8009 32.2358 60.6165 32.0078 60.2372L30.0476 56.9747C29.8214 56.5983 29.8673 56.1183 30.1607 55.7916L39.494 45.3976C39.9434 44.8971 40.7488 44.9741 41.0952 45.5507L42.657 48.1499C42.8937 48.5438 42.8314 49.0483 42.5061 49.3729L37.8804 53.9876C37.1636 54.7027 37.8414 55.9078 38.8247 55.6668L45.3861 54.0585C45.8117 53.9542 46.2557 54.1391 46.4814 54.5147L47.9629 56.9804C48.1913 57.3605 48.1421 57.8456 47.842 58.1721L43.3965 63.0088C42.7051 63.7611 43.4541 64.9439 44.4298 64.6404L50.5346 62.7415C50.9748 62.6046 51.4514 62.7863 51.6888 63.1814L53.191 65.6814Z" fill="url(#paint2_linear_0_195)" fill-opacity="0.5"/>
</g>
<path d="M53.191 65.6814C53.5379 66.2588 53.2263 67.0071 52.572 67.1676L38.9946 70.4982C38.569 70.6026 38.1249 70.4177 37.8992 70.042L35.9712 66.8333C35.7442 66.4555 35.7913 65.9737 36.0872 65.647L40.609 60.6547C41.2751 59.9193 40.5792 58.7674 39.6184 59.015L33.1145 60.6905C32.6859 60.8009 32.2358 60.6165 32.0078 60.2372L30.0476 56.9747C29.8214 56.5983 29.8673 56.1183 30.1607 55.7916L39.494 45.3976C39.9434 44.8971 40.7488 44.9741 41.0952 45.5507L42.657 48.1499C42.8937 48.5438 42.8314 49.0483 42.5061 49.3729L37.8804 53.9876C37.1636 54.7027 37.8414 55.9078 38.8247 55.6668L45.3861 54.0585C45.8117 53.9542 46.2557 54.1391 46.4814 54.5147L47.9629 56.9804C48.1913 57.3605 48.1421 57.8456 47.842 58.1721L43.3965 63.0088C42.7051 63.7611 43.4541 64.9439 44.4298 64.6404L50.5346 62.7415C50.9748 62.6046 51.4514 62.7863 51.6888 63.1814L53.191 65.6814Z" stroke="url(#paint3_linear_0_195)" stroke-width="0.25" style="mix-blend-mode:exclusion"/>
<g filter="url(#filter2_i_0_195)">
<path d="M62.4452 77.9113C62.2923 78.0031 62.0939 77.9537 62.002 77.8008V77.8008C61.9863 77.7745 61.9743 77.7462 61.9664 77.7166C61.909 77.5033 61.8288 77.2364 61.7257 76.9161C61.6152 76.5731 61.4568 76.2297 61.2502 75.8859C60.7526 75.0577 60.2673 74.5864 59.7944 74.4718C59.3215 74.3572 58.6592 74.5557 57.8077 75.0674V75.0674C57.7494 75.1024 57.7306 75.178 57.7656 75.2363L59.1447 77.5315C59.4291 78.0049 59.276 78.6193 58.8026 78.9037L57.6574 79.5918C57.184 79.8762 56.5697 79.7231 56.2852 79.2497L55.4423 77.8467C55.1578 77.3733 54.5435 77.2202 54.0701 77.5046L45.4833 82.664C45.0099 82.9485 44.3956 82.7953 44.1111 82.3219L42.6062 79.8174C42.3218 79.344 42.475 78.7296 42.9484 78.4452L51.5351 73.2857C52.0085 73.0013 52.1617 72.3869 51.8772 71.9135L51.8229 71.8231C51.5385 71.3497 51.6916 70.7354 52.165 70.4509L53.3102 69.7629C53.7836 69.4784 54.3979 69.6316 54.6824 70.105L55.0334 70.6893C55.154 70.8899 55.4144 70.9548 55.615 70.8343V70.8343C57.2244 69.8672 58.6885 69.5697 60.0073 69.9417C61.326 70.3136 62.5065 71.3668 63.5486 73.1013C63.9241 73.7263 64.243 74.3056 64.5052 74.8393C64.621 75.0751 64.7273 75.3011 64.8241 75.5172C65.0218 75.9589 64.8432 76.4704 64.4284 76.7197L62.4452 77.9113Z" fill="url(#paint4_linear_0_195)" fill-opacity="0.5"/>
</g>
<path d="M62.4452 77.9113C62.2923 78.0031 62.0939 77.9537 62.002 77.8008V77.8008C61.9863 77.7745 61.9743 77.7462 61.9664 77.7166C61.909 77.5033 61.8288 77.2364 61.7257 76.9161C61.6152 76.5731 61.4568 76.2297 61.2502 75.8859C60.7526 75.0577 60.2673 74.5864 59.7944 74.4718C59.3215 74.3572 58.6592 74.5557 57.8077 75.0674V75.0674C57.7494 75.1024 57.7306 75.178 57.7656 75.2363L59.1447 77.5315C59.4291 78.0049 59.276 78.6193 58.8026 78.9037L57.6574 79.5918C57.184 79.8762 56.5697 79.7231 56.2852 79.2497L55.4423 77.8467C55.1578 77.3733 54.5435 77.2202 54.0701 77.5046L45.4833 82.664C45.0099 82.9485 44.3956 82.7953 44.1111 82.3219L42.6062 79.8174C42.3218 79.344 42.475 78.7296 42.9484 78.4452L51.5351 73.2857C52.0085 73.0013 52.1617 72.3869 51.8772 71.9135L51.8229 71.8231C51.5385 71.3497 51.6916 70.7354 52.165 70.4509L53.3102 69.7629C53.7836 69.4784 54.3979 69.6316 54.6824 70.105L55.0334 70.6893C55.154 70.8899 55.4144 70.9548 55.615 70.8343V70.8343C57.2244 69.8672 58.6885 69.5697 60.0073 69.9417C61.326 70.3136 62.5065 71.3668 63.5486 73.1013C63.9241 73.7263 64.243 74.3056 64.5052 74.8393C64.621 75.0751 64.7273 75.3011 64.8241 75.5172C65.0218 75.9589 64.8432 76.4704 64.4284 76.7197L62.4452 77.9113Z" stroke="url(#paint5_linear_0_195)" stroke-width="0.25" style="mix-blend-mode:exclusion"/>
<g filter="url(#filter3_i_0_195)">
<path d="M56.1875 100.479C55.7141 100.763 55.0997 100.61 54.8153 100.137L48.4165 89.4875C48.1321 89.0141 48.2852 88.3997 48.7586 88.1153L50.2687 87.208C50.487 87.0768 50.7472 87.0338 50.9961 87.0879L59.8869 89.0206C60.7432 89.2068 61.4078 88.2796 60.9565 87.5284L58.6639 83.713C58.3795 83.2396 58.5327 82.6252 59.0061 82.3408L60.3738 81.519C60.8472 81.2345 61.4616 81.3877 61.746 81.8611L67.8983 92.1002C68.1828 92.5736 68.0296 93.188 67.5562 93.4724L66.0897 94.3536C65.8734 94.4836 65.6159 94.527 65.3689 94.475L56.5321 92.6174C55.6777 92.4377 55.0196 93.3626 55.4692 94.111L57.956 98.2496C58.2404 98.723 58.0872 99.3374 57.6138 99.6218L56.1875 100.479Z" fill="url(#paint6_linear_0_195)" fill-opacity="0.5"/>
</g>
<path d="M56.1875 100.479C55.7141 100.763 55.0997 100.61 54.8153 100.137L48.4165 89.4875C48.1321 89.0141 48.2852 88.3997 48.7586 88.1153L50.2687 87.208C50.487 87.0768 50.7472 87.0338 50.9961 87.0879L59.8869 89.0206C60.7432 89.2068 61.4078 88.2796 60.9565 87.5284L58.6639 83.713C58.3795 83.2396 58.5327 82.6252 59.0061 82.3408L60.3738 81.519C60.8472 81.2345 61.4616 81.3877 61.746 81.8611L67.8983 92.1002C68.1828 92.5736 68.0296 93.188 67.5562 93.4724L66.0897 94.3536C65.8734 94.4836 65.6159 94.527 65.3689 94.475L56.5321 92.6174C55.6777 92.4377 55.0196 93.3626 55.4692 94.111L57.956 98.2496C58.2404 98.723 58.0872 99.3374 57.6138 99.6218L56.1875 100.479Z" stroke="url(#paint7_linear_0_195)" stroke-width="0.25" style="mix-blend-mode:exclusion"/>
<g filter="url(#filter4_i_0_195)">
<path fill-rule="evenodd" clip-rule="evenodd" d="M61.6514 109.762C61.6935 109.78 61.7349 109.798 61.7758 109.815C62.1861 109.991 62.2302 110.563 61.8477 110.793V110.793C61.5921 110.946 61.5094 111.278 61.663 111.533L63.3838 114.397C63.6682 114.871 64.2826 115.024 64.756 114.739L72.8522 109.875C74.4303 108.926 75.2682 107.697 75.3657 106.187C75.4632 104.677 74.7914 102.723 73.3502 100.324C72.7447 99.3166 72.0602 98.3588 71.2968 97.4511C70.8295 96.8954 70.4331 96.4396 70.1077 96.0836C69.8012 95.7483 69.3032 95.6902 68.9138 95.9242L66.7247 97.2396C66.5446 97.3477 66.4864 97.5814 66.5946 97.7614V97.7614C66.6187 97.8016 66.65 97.8368 66.6867 97.8658C67.0272 98.1347 67.5385 98.5727 68.2205 99.1799C68.9407 99.8211 69.5097 100.489 69.9275 101.185C70.6223 102.341 71.0094 103.299 71.0888 104.06C71.1682 104.82 70.8446 105.419 70.118 105.855V105.855C70.0786 105.879 70.0275 105.868 70.0015 105.83C69.1997 104.655 68.3852 103.544 67.5578 102.497C66.7146 101.43 65.8825 100.611 65.0615 100.041C64.2358 99.4634 63.3892 99.1427 62.5216 99.0792C61.654 99.0156 60.7397 99.2726 59.7788 99.85C58.5756 100.573 57.8408 101.589 57.5743 102.897C57.3079 104.206 57.5502 105.485 58.3013 106.735C58.6205 107.266 58.9588 107.728 59.3162 108.119C59.6737 108.51 60.0705 108.857 60.5068 109.158C60.8258 109.37 61.2074 109.572 61.6514 109.762ZM66.9171 106.486C67.2689 106.953 67.1315 107.618 66.6304 107.919L65.2129 108.771C64.9627 108.921 64.6565 108.96 64.3907 108.84C64.0668 108.692 63.754 108.504 63.4524 108.273C63.02 107.943 62.677 107.567 62.4235 107.145C62.1043 106.614 61.9067 106.201 61.8307 105.906C61.7547 105.612 61.7409 105.328 61.7891 105.054C61.8327 104.773 61.9264 104.557 62.0701 104.407C62.2138 104.256 62.4224 104.099 62.6958 103.935C63.1099 103.686 63.5108 103.597 63.8985 103.667C64.2862 103.737 64.6732 103.943 65.0595 104.285C65.3754 104.563 65.7739 105.01 66.255 105.624C66.4863 105.92 66.7069 106.207 66.9171 106.486Z" fill="url(#paint8_linear_0_195)" fill-opacity="0.5"/>
</g>
<path d="M72.8522 109.875L72.7878 109.768L72.8522 109.875ZM71.2968 97.4511L71.2011 97.5315L71.2968 97.4511ZM68.2205 99.1799L68.1374 99.2733L68.1374 99.2733L68.2205 99.1799ZM71.0888 104.06L71.2131 104.047L71.2131 104.047L71.0888 104.06ZM65.0615 100.041L64.9899 100.144L64.9902 100.144L65.0615 100.041ZM62.5216 99.0792L62.5125 99.2038L62.5125 99.2038L62.5216 99.0792ZM59.3162 108.119L59.4085 108.035L59.4085 108.035L59.3162 108.119ZM60.5068 109.158L60.4358 109.261L60.4376 109.262L60.5068 109.158ZM61.7891 105.054L61.9123 105.076L61.9127 105.073L61.7891 105.054ZM65.0595 104.285L64.9766 104.379L64.9769 104.379L65.0595 104.285ZM66.255 105.624L66.1565 105.701L66.1565 105.701L66.255 105.624ZM70.0015 105.83L69.8983 105.9L70.0015 105.83ZM66.6867 97.8658L66.6093 97.9639L66.6867 97.8658ZM66.7247 97.2396L66.6603 97.1324L66.7247 97.2396ZM66.6304 107.919L66.566 107.812L66.6304 107.919ZM65.2129 108.771L65.1485 108.664L65.2129 108.771ZM64.3907 108.84L64.339 108.953L64.3907 108.84ZM61.7758 109.815L61.8248 109.7C61.7841 109.683 61.7427 109.665 61.7007 109.647L61.6514 109.762L61.6022 109.877C61.6443 109.895 61.6858 109.913 61.7267 109.93L61.7758 109.815ZM63.3838 114.397L63.4909 114.333L61.7701 111.469L61.663 111.533L61.5559 111.598L63.2766 114.462L63.3838 114.397ZM72.8522 109.875L72.7878 109.768L64.6916 114.632L64.756 114.739L64.8203 114.847L72.9166 109.982L72.8522 109.875ZM75.3657 106.187L75.241 106.179C75.1467 107.639 74.3395 108.835 72.7878 109.768L72.8522 109.875L72.9166 109.982C74.5212 109.018 75.3897 107.755 75.4905 106.195L75.3657 106.187ZM73.3502 100.324L73.2431 100.389C74.6807 102.781 75.336 104.708 75.241 106.179L75.3657 106.187L75.4905 106.195C75.5905 104.646 74.9021 102.664 73.4574 100.26L73.3502 100.324ZM71.2968 97.4511L71.2011 97.5315C71.9603 98.4342 72.641 99.3866 73.2431 100.389L73.3502 100.324L73.4574 100.26C72.8484 99.2465 72.1601 98.2833 71.3925 97.3706L71.2968 97.4511ZM70.1077 96.0836L70.0154 96.1679C70.3393 96.5222 70.7344 96.9766 71.2011 97.5315L71.2968 97.4511L71.3925 97.3706C70.9245 96.8142 70.5269 96.357 70.1999 95.9992L70.1077 96.0836ZM66.7247 97.2396L66.789 97.3467L68.9782 96.0314L68.9138 95.9242L68.8494 95.8171L66.6603 97.1324L66.7247 97.2396ZM68.2205 99.1799L68.3036 99.0865C67.6213 98.4791 67.1078 98.039 66.7642 97.7677L66.6867 97.8658L66.6093 97.9639C66.9467 98.2304 67.4557 98.6664 68.1374 99.2733L68.2205 99.1799ZM69.9275 101.185L70.0347 101.12C69.6093 100.412 69.0315 99.7346 68.3036 99.0865L68.2205 99.1799L68.1374 99.2733C68.8499 99.9076 69.4102 100.566 69.8204 101.249L69.9275 101.185ZM71.0888 104.06L71.2131 104.047C71.1309 103.259 70.7327 102.282 70.0347 101.12L69.9275 101.185L69.8204 101.249C70.5119 102.4 70.8879 103.339 70.9645 104.073L71.0888 104.06ZM70.118 105.855L70.1824 105.962C70.5602 105.735 70.8409 105.462 71.0156 105.138C71.1908 104.814 71.2551 104.449 71.2131 104.047L71.0888 104.06L70.9645 104.073C71.0019 104.431 70.9441 104.745 70.7957 105.02C70.6469 105.295 70.4024 105.539 70.0537 105.748L70.118 105.855ZM67.5578 102.497L67.4598 102.574C68.2852 103.619 69.098 104.728 69.8983 105.9L70.0015 105.83L70.1048 105.759C69.3014 104.582 68.4851 103.469 67.6559 102.419L67.5578 102.497ZM65.0615 100.041L64.9902 100.144C65.7982 100.705 66.6216 101.514 67.4598 102.574L67.5578 102.497L67.6559 102.419C66.8076 101.346 65.9668 100.518 65.1328 99.9386L65.0615 100.041ZM62.5216 99.0792L62.5125 99.2038C63.3542 99.2655 64.1796 99.5767 64.9899 100.144L65.0615 100.041L65.1332 99.9388C64.292 99.3502 63.4241 99.0199 62.5307 98.9545L62.5216 99.0792ZM59.7788 99.85L59.8432 99.9571C60.7884 99.3892 61.6771 99.1427 62.5125 99.2038L62.5216 99.0792L62.5307 98.9545C61.6309 98.8886 60.6911 99.156 59.7144 99.7428L59.7788 99.85ZM57.5743 102.897L57.6968 102.922C57.9559 101.65 58.6683 100.663 59.8432 99.9571L59.7788 99.85L59.7144 99.7428C58.4829 100.483 57.7257 101.527 57.4518 102.872L57.5743 102.897ZM58.3013 106.735L58.4084 106.671C57.6718 105.445 57.4372 104.197 57.6968 102.922L57.5743 102.897L57.4518 102.872C57.1785 104.214 57.4285 105.525 58.1941 106.799L58.3013 106.735ZM59.3162 108.119L59.4085 108.035C59.0576 107.65 58.7241 107.196 58.4084 106.671L58.3013 106.735L58.1941 106.799C58.5169 107.337 58.8601 107.805 59.2239 108.203L59.3162 108.119ZM60.5068 109.158L60.5779 109.055C60.1493 108.759 59.7596 108.419 59.4085 108.035L59.3162 108.119L59.2239 108.203C59.5877 108.601 59.9917 108.954 60.4358 109.261L60.5068 109.158ZM61.6514 109.762L61.7007 109.647C61.2619 109.459 60.8874 109.261 60.5761 109.054L60.5068 109.158L60.4376 109.262C60.7643 109.48 61.1528 109.684 61.6022 109.877L61.6514 109.762ZM65.2129 108.771L65.2773 108.878L66.6948 108.026L66.6304 107.919L66.566 107.812L65.1485 108.664L65.2129 108.771ZM63.4524 108.273L63.3765 108.373C63.6851 108.608 64.0059 108.802 64.339 108.953L64.3907 108.84L64.4424 108.726C64.1276 108.583 63.8229 108.399 63.5283 108.174L63.4524 108.273ZM62.4235 107.145L62.3164 107.209C62.5788 107.646 62.9329 108.034 63.3765 108.373L63.4524 108.273L63.5283 108.174C63.1071 107.852 62.7752 107.488 62.5307 107.081L62.4235 107.145ZM61.8307 105.906L61.7097 105.937C61.7904 106.25 61.996 106.676 62.3164 107.209L62.4235 107.145L62.5307 107.081C62.2126 106.551 62.023 106.151 61.9517 105.875L61.8307 105.906ZM61.7891 105.054L61.666 105.032C61.6144 105.325 61.6296 105.627 61.7097 105.937L61.8307 105.906L61.9517 105.875C61.8798 105.596 61.8673 105.33 61.9122 105.076L61.7891 105.054ZM62.0701 104.407L61.9798 104.32C61.8129 104.495 61.7117 104.737 61.6656 105.035L61.7891 105.054L61.9127 105.073C61.9537 104.808 62.0399 104.619 62.1604 104.493L62.0701 104.407ZM62.6958 103.935L62.6315 103.828C62.353 103.995 62.1341 104.159 61.9798 104.32L62.0701 104.407L62.1604 104.493C62.2935 104.354 62.4918 104.203 62.7602 104.042L62.6958 103.935ZM63.8985 103.667L63.9207 103.544C63.4968 103.467 63.0654 103.567 62.6315 103.828L62.6958 103.935L62.7602 104.042C63.1544 103.805 63.5247 103.726 63.8763 103.79L63.8985 103.667ZM65.0595 104.285L65.1424 104.192C64.7441 103.839 64.3369 103.619 63.9207 103.544L63.8985 103.667L63.8763 103.79C64.2355 103.855 64.6023 104.047 64.9766 104.379L65.0595 104.285ZM66.255 105.624L66.3534 105.547C65.8709 104.931 65.4668 104.477 65.1421 104.191L65.0595 104.285L64.9769 104.379C65.2841 104.649 65.677 105.089 66.1565 105.701L66.255 105.624ZM66.9171 106.486L67.0169 106.411C66.8063 106.131 66.5851 105.843 66.3534 105.547L66.255 105.624L66.1565 105.701C66.3874 105.996 66.6076 106.283 66.8172 106.561L66.9171 106.486ZM70.118 105.855L70.0537 105.748C70.0711 105.738 70.0935 105.743 70.1048 105.759L70.0015 105.83L69.8983 105.9C69.9615 105.993 70.0861 106.02 70.1824 105.962L70.118 105.855ZM66.5946 97.7614L66.4874 97.8258C66.5195 97.8792 66.561 97.9257 66.6093 97.9639L66.6867 97.8658L66.7642 97.7677C66.739 97.7478 66.7179 97.7239 66.7017 97.697L66.5946 97.7614ZM66.7247 97.2396L66.6603 97.1324C66.4211 97.2762 66.3437 97.5866 66.4874 97.8258L66.5946 97.7614L66.7017 97.697C66.6291 97.5762 66.6682 97.4193 66.789 97.3467L66.7247 97.2396ZM70.1077 96.0836L70.1999 95.9992C69.8509 95.6174 69.2867 95.5543 68.8494 95.8171L68.9138 95.9242L68.9782 96.0314C69.3197 95.8261 69.7514 95.8792 70.0154 96.1679L70.1077 96.0836ZM66.6304 107.919L66.6948 108.026C67.2579 107.688 67.4145 106.938 67.0169 106.411L66.9171 106.486L66.8172 106.561C67.1233 106.967 67.0051 107.548 66.566 107.812L66.6304 107.919ZM63.3838 114.397L63.2766 114.462C63.5966 114.994 64.2878 115.167 64.8203 114.847L64.756 114.739L64.6916 114.632C64.2774 114.881 63.7398 114.747 63.4909 114.333L63.3838 114.397ZM65.2129 108.771L65.1485 108.664C64.9271 108.797 64.6645 108.827 64.4424 108.726L64.3907 108.84L64.339 108.953C64.6486 109.094 64.9982 109.046 65.2773 108.878L65.2129 108.771ZM61.8477 110.793L61.7833 110.686C61.4686 110.875 61.3667 111.283 61.5559 111.598L61.663 111.533L61.7701 111.469C61.6521 111.273 61.7157 111.018 61.9121 110.9L61.8477 110.793ZM61.7758 109.815L61.7267 109.93C62.0452 110.066 62.0765 110.509 61.7833 110.686L61.8477 110.793L61.9121 110.9C62.3838 110.616 62.3271 109.915 61.8248 109.7L61.7758 109.815Z" fill="url(#paint9_linear_0_195)" style="mix-blend-mode:exclusion"/>
<g filter="url(#filter5_i_0_195)">
<path d="M90.2726 129.337C90.6196 129.915 90.308 130.663 89.6537 130.823L76.0763 134.154C75.6506 134.258 75.2066 134.073 74.9809 133.698L73.0529 130.489C72.8259 130.111 72.873 129.629 73.1689 129.303L77.6907 124.31C78.3568 123.575 77.6608 122.423 76.7 122.671L70.1962 124.346C69.7676 124.457 69.3174 124.272 69.0895 123.893L67.1292 120.63C66.903 120.254 66.9489 119.774 67.2423 119.447L76.5757 109.053C77.0251 108.553 77.8305 108.63 78.1769 109.206L79.7387 111.806C79.9754 112.2 79.9131 112.704 79.5878 113.029L74.962 117.643C74.2453 118.358 74.9231 119.564 75.9064 119.323L82.4678 117.714C82.8934 117.61 83.3373 117.795 83.563 118.17L85.0446 120.636C85.2729 121.016 85.2237 121.501 84.9236 121.828L80.4782 126.665C79.7867 127.417 80.5357 128.6 81.5115 128.296L87.6163 126.397C88.0564 126.26 88.5331 126.442 88.7705 126.837L90.2726 129.337Z" fill="url(#paint10_linear_0_195)" fill-opacity="0.5"/>
</g>
<path d="M90.2726 129.337C90.6196 129.915 90.308 130.663 89.6537 130.823L76.0763 134.154C75.6506 134.258 75.2066 134.073 74.9809 133.698L73.0529 130.489C72.8259 130.111 72.873 129.629 73.1689 129.303L77.6907 124.31C78.3568 123.575 77.6608 122.423 76.7 122.671L70.1962 124.346C69.7676 124.457 69.3174 124.272 69.0895 123.893L67.1292 120.63C66.903 120.254 66.9489 119.774 67.2423 119.447L76.5757 109.053C77.0251 108.553 77.8305 108.63 78.1769 109.206L79.7387 111.806C79.9754 112.2 79.9131 112.704 79.5878 113.029L74.962 117.643C74.2453 118.358 74.9231 119.564 75.9064 119.323L82.4678 117.714C82.8934 117.61 83.3373 117.795 83.563 118.17L85.0446 120.636C85.2729 121.016 85.2237 121.501 84.9236 121.828L80.4782 126.665C79.7867 127.417 80.5357 128.6 81.5115 128.296L87.6163 126.397C88.0564 126.26 88.5331 126.442 88.7705 126.837L90.2726 129.337Z" stroke="url(#paint11_linear_0_195)" stroke-width="0.25" style="mix-blend-mode:exclusion"/>
</g>
<g opacity="0.5">
<g filter="url(#filter6_i_0_195)">
<path fill-rule="evenodd" clip-rule="evenodd" d="M18.5852 10.6061C19.0729 10.3131 19.6636 10.5687 19.9307 11.0132C20.1977 11.4577 20.0543 11.9465 19.5667 12.2395C19.0802 12.5318 18.5773 12.4313 18.3102 11.9868C18.0431 11.5424 18.0987 10.8984 18.5852 10.6061ZM17.8753 19.7148C18.1987 19.5205 18.7028 19.623 18.8802 19.9183C19.1497 20.3668 19.0011 20.8559 18.6777 21.0502C18.3498 21.2473 17.8527 21.1462 17.5832 20.6976C17.4058 20.4023 17.5474 19.9118 17.8753 19.7148Z" fill="url(#paint12_linear_0_195)" fill-opacity="0.5"/>
</g>
<path d="M17.5832 20.6976L17.6475 20.659L17.6475 20.659L17.5832 20.6976ZM19.9307 11.0132L19.9949 10.9746C19.713 10.5054 19.0796 10.2215 18.5466 10.5418L18.5852 10.6061L18.6239 10.6704C19.0661 10.4047 19.6141 10.6321 19.8664 11.0518L19.9307 11.0132ZM19.5667 12.2395L19.6053 12.3038C19.862 12.1495 20.0339 11.9401 20.1036 11.7044C20.1735 11.468 20.1382 11.2131 19.9949 10.9746L19.9307 11.0132L19.8664 11.0518C19.9901 11.2578 20.0167 11.4695 19.9597 11.6619C19.9026 11.855 19.7589 12.0365 19.528 12.1752L19.5667 12.2395ZM18.3102 11.9868L18.2459 12.0255C18.3894 12.2642 18.5991 12.4144 18.8414 12.463C19.0829 12.5115 19.3491 12.4577 19.6053 12.3038L19.5667 12.2395L19.528 12.1752C19.2977 12.3136 19.0692 12.3557 18.8709 12.3159C18.6734 12.2763 18.4981 12.1539 18.3745 11.9482L18.3102 11.9868ZM18.5852 10.6061L18.5466 10.5418C18.015 10.8612 17.9638 11.5559 18.2459 12.0255L18.3102 11.9868L18.3745 11.9482C18.1225 11.5288 18.1824 10.9356 18.6239 10.6704L18.5852 10.6061ZM18.8802 19.9183L18.9445 19.8796C18.8419 19.7089 18.65 19.6005 18.4474 19.5594C18.2441 19.5182 18.0174 19.5419 17.8367 19.6505L17.8753 19.7148L17.9139 19.7791C18.0565 19.6934 18.2436 19.6711 18.4176 19.7064C18.5922 19.7418 18.7411 19.8324 18.8159 19.9569L18.8802 19.9183ZM18.6777 21.0502L18.7163 21.1145C19.0789 20.8967 19.2331 20.3599 18.9445 19.8796L18.8802 19.9183L18.8159 19.9569C19.0664 20.3738 18.9232 20.8152 18.6391 20.9859L18.6777 21.0502ZM17.5832 20.6976L17.5189 20.7362C17.8073 21.2162 18.349 21.3353 18.7163 21.1145L18.6777 21.0502L18.6391 20.9859C18.3507 21.1592 17.8982 21.0761 17.6475 20.659L17.5832 20.6976ZM17.8753 19.7148L17.8367 19.6505C17.6538 19.7604 17.5263 19.9494 17.4678 20.1482C17.4095 20.3463 17.4165 20.5657 17.5189 20.7362L17.5832 20.6976L17.6475 20.659C17.5725 20.5341 17.5616 20.3607 17.6117 20.1905C17.6616 20.021 17.7689 19.8662 17.9139 19.7791L17.8753 19.7148Z" fill="url(#paint13_linear_0_195)"/>
<g filter="url(#filter7_i_0_195)">
<path fill-rule="evenodd" clip-rule="evenodd" d="M31.5329 23.8259C33.2628 22.7865 33.8224 20.542 32.783 18.8121L24.1858 4.50399C23.1464 2.77409 20.9019 2.2145 19.172 3.25393L4.86387 11.8511C3.13398 12.8906 2.57436 15.135 3.61378 16.8649L12.211 31.1731C13.2504 32.903 15.4949 33.4626 17.2248 32.4231L31.5329 23.8259ZM13.3455 17.3891C12.9606 16.7485 12.7488 16.1472 12.5084 15.4646L12.5083 15.4644C12.499 15.4381 12.4897 15.4116 12.4803 15.385C12.4065 15.1756 12.2638 14.9978 12.0762 14.8789L11.4685 14.4937C10.93 14.1524 11.0731 13.3304 11.6953 13.1913V13.1913C12.0042 13.1222 12.228 12.8575 12.2674 12.5434C12.5093 10.6167 13.3336 9.07239 14.8746 8.1465C17.7844 6.39809 21.7305 7.77529 23.7505 11.1371C25.4157 13.9086 25.3357 17.2978 23.6329 19.3854C23.4188 19.6479 23.0198 19.5684 22.8453 19.2781V19.2781C21.0997 16.373 17.5529 15.3812 14.881 16.9867C14.6342 17.135 14.4053 17.3016 14.1928 17.4829C13.9312 17.7061 13.5226 17.6838 13.3455 17.3891V17.3891ZM15.3141 27.6292C15.3353 28.1594 15.9887 28.397 16.3454 28.0043V28.0043C16.5127 27.8201 16.7766 27.7619 17.011 27.8452C18.5544 28.3939 20.1601 28.4885 21.4326 27.7239C23.8778 26.2548 24.4008 22.6104 22.7496 19.8623C21.0011 16.9525 17.6309 15.8582 15.1858 17.3274C12.7364 18.7992 12.1246 22.2861 13.873 25.1959C14.1878 25.7198 14.6188 26.1793 15.0648 26.6282C15.2045 26.7689 15.2872 26.9565 15.2951 27.1546L15.3141 27.6292Z" fill="url(#paint14_linear_0_195)" fill-opacity="0.5"/>
</g>
<path d="M31.5329 23.8259L31.5716 23.8902L31.5329 23.8259ZM19.172 3.25393L19.2106 3.31821L19.172 3.25393ZM4.86387 11.8511L4.82525 11.7868L4.86387 11.8511ZM3.61378 16.8649L3.67807 16.8263L3.61378 16.8649ZM12.211 31.1731L12.1467 31.2117L12.211 31.1731ZM17.2248 32.4231L17.1862 32.3589L17.2248 32.4231ZM12.5084 15.4646L12.5791 15.4397L12.579 15.4392L12.5084 15.4646ZM12.5083 15.4644L12.4376 15.4894L12.4378 15.4898L12.5083 15.4644ZM21.4326 27.7239L21.4712 27.7882L21.4712 27.7882L21.4326 27.7239ZM15.0648 26.6282L15.0115 26.6811L15.0648 26.6282ZM15.2951 27.1546L15.3701 27.1516L15.2951 27.1546ZM15.3141 27.6292L15.2391 27.6322L15.3141 27.6292ZM17.011 27.8452L17.0361 27.7745L17.011 27.8452ZM14.1928 17.4829L14.1441 17.4259L14.1928 17.4829ZM12.2674 12.5434L12.193 12.5341L12.2674 12.5434ZM11.4685 14.4937L11.4283 14.5571L11.4685 14.4937ZM23.6329 19.3854L23.691 19.4328L23.6329 19.3854ZM12.4803 15.385L12.4096 15.41L12.4803 15.385ZM12.0762 14.8789L12.1164 14.8156L12.0762 14.8789ZM32.783 18.8121L32.7187 18.8508C33.7368 20.5452 33.1887 22.7436 31.4943 23.7617L31.5329 23.8259L31.5716 23.8902C33.337 22.8295 33.9081 20.5389 32.8473 18.7735L32.783 18.8121ZM24.1858 4.50399L24.1215 4.54261L32.7187 18.8508L32.783 18.8121L32.8473 18.7735L24.2501 4.46536L24.1858 4.50399ZM19.172 3.25393L19.2106 3.31821C20.905 2.30012 23.1034 2.84822 24.1215 4.54261L24.1858 4.50399L24.2501 4.46536C23.1893 2.69996 20.8988 2.12888 19.1334 3.18964L19.172 3.25393ZM4.86387 11.8511L4.9025 11.9154L19.2106 3.31821L19.172 3.25393L19.1334 3.18964L4.82525 11.7868L4.86387 11.8511ZM3.61378 16.8649L3.67807 16.8263C2.65998 15.1319 3.20811 12.9335 4.9025 11.9154L4.86387 11.8511L4.82525 11.7868C3.05985 12.8476 2.48874 15.1381 3.5495 16.9035L3.61378 16.8649ZM12.211 31.1731L12.2753 31.1344L3.67807 16.8263L3.61378 16.8649L3.5495 16.9035L12.1467 31.2117L12.211 31.1731ZM17.2248 32.4231L17.1862 32.3589C15.4918 33.3769 13.2934 32.8288 12.2753 31.1344L12.211 31.1731L12.1467 31.2117C13.2075 32.9771 15.498 33.5482 17.2634 32.4874L17.2248 32.4231ZM31.5329 23.8259L31.4943 23.7617L17.1862 32.3589L17.2248 32.4231L17.2634 32.4874L31.5716 23.8902L31.5329 23.8259ZM12.5084 15.4646L12.4376 15.4895C12.6779 16.1715 12.8919 16.7797 13.2812 17.4277L13.3455 17.3891L13.4098 17.3504C13.0294 16.7173 12.8198 16.1229 12.5791 15.4397L12.5084 15.4646ZM12.5083 15.4644L12.4378 15.4898L12.4378 15.49L12.5084 15.4646L12.579 15.4392L12.5789 15.4391L12.5083 15.4644ZM12.4803 15.385L12.4096 15.41C12.419 15.4365 12.4283 15.463 12.4376 15.4894L12.5083 15.4644L12.5791 15.4395C12.5698 15.4132 12.5605 15.3867 12.5511 15.3601L12.4803 15.385ZM11.4685 14.4937L11.4283 14.5571L12.0361 14.9423L12.0762 14.8789L12.1164 14.8156L11.5086 14.4304L11.4685 14.4937ZM14.8746 8.1465L14.8359 8.08221C13.2705 9.02285 12.4369 10.5907 12.193 12.5341L12.2674 12.5434L12.3419 12.5527C12.5816 10.6426 13.3968 9.12192 14.9132 8.21079L14.8746 8.1465ZM23.7505 11.1371L23.8147 11.0985C21.7798 7.71175 17.791 6.30662 14.8359 8.08221L14.8746 8.1465L14.9132 8.21079C17.7778 6.48956 21.6811 7.83883 23.6862 11.1758L23.7505 11.1371ZM23.6329 19.3854L23.691 19.4328C25.4178 17.3157 25.4927 13.8911 23.8147 11.0985L23.7505 11.1371L23.6862 11.1758C25.3387 13.926 25.2535 17.2798 23.5747 19.338L23.6329 19.3854ZM14.881 16.9867L14.9197 17.0509C17.5521 15.4692 21.0543 16.443 22.781 19.3167L22.8453 19.2781L22.9096 19.2394C21.1452 16.303 17.5538 15.2932 14.8424 16.9224L14.881 16.9867ZM14.1928 17.4829L14.2415 17.54C14.4509 17.3612 14.6765 17.197 14.9197 17.0509L14.881 16.9867L14.8424 16.9224C14.5919 17.0729 14.3596 17.242 14.1441 17.4259L14.1928 17.4829ZM21.4326 27.7239L21.394 27.6597C20.1488 28.4078 18.5693 28.3196 17.0361 27.7745L17.011 27.8452L16.9859 27.9159C18.5395 28.4682 20.1714 28.5692 21.4712 27.7882L21.4326 27.7239ZM22.7496 19.8623L22.6853 19.901C24.3217 22.6244 23.7937 26.2178 21.394 27.6597L21.4326 27.7239L21.4712 27.7882C23.9618 26.2917 24.4799 22.5965 22.8138 19.8237L22.7496 19.8623ZM15.1858 17.3274L15.2244 17.3917C17.6252 15.9492 20.9524 17.0171 22.6853 19.901L22.7496 19.8623L22.8138 19.8237C21.0498 16.8879 17.6366 15.7673 15.1471 17.2631L15.1858 17.3274ZM13.873 25.1959L13.9373 25.1573C12.2044 22.2733 12.8194 18.8368 15.2244 17.3917L15.1858 17.3274L15.1471 17.2631C12.6534 18.7616 12.0448 22.2988 13.8087 25.2345L13.873 25.1959ZM15.0648 26.6282L15.118 26.5753C14.6723 26.1266 14.247 25.6727 13.9373 25.1573L13.873 25.1959L13.8087 25.2345C14.1286 25.7669 14.5654 26.2319 15.0115 26.6811L15.0648 26.6282ZM15.3141 27.6292L15.389 27.6262L15.3701 27.1516L15.2951 27.1546L15.2202 27.1576L15.2391 27.6322L15.3141 27.6292ZM15.0648 26.6282L15.0115 26.6811C15.1382 26.8086 15.213 26.9785 15.2202 27.1576L15.2951 27.1546L15.3701 27.1516C15.3614 26.9345 15.2708 26.7292 15.118 26.5753L15.0648 26.6282ZM16.3454 28.0043L16.2899 27.9538C15.9783 28.2969 15.4075 28.0893 15.389 27.6262L15.3141 27.6292L15.2391 27.6322C15.263 28.2294 15.9991 28.4971 16.4009 28.0547L16.3454 28.0043ZM16.3454 28.0043L16.4009 28.0547C16.5466 27.8944 16.7781 27.842 16.9859 27.9159L17.011 27.8452L17.0361 27.7745C16.7751 27.6817 16.4788 27.7459 16.2899 27.9538L16.3454 28.0043ZM14.1928 17.4829L14.1441 17.4259C13.9094 17.6261 13.5577 17.5965 13.4098 17.3504L13.3455 17.3891L13.2812 17.4277C13.4876 17.7711 13.953 17.7861 14.2415 17.54L14.1928 17.4829ZM11.6953 13.1913L11.7116 13.2645C12.0539 13.1879 12.2988 12.8957 12.3419 12.5527L12.2674 12.5434L12.193 12.5341C12.1572 12.8193 11.9546 13.0564 11.6789 13.1181L11.6953 13.1913ZM11.4685 14.4937L11.5086 14.4304C11.0266 14.1249 11.1547 13.389 11.7116 13.2645L11.6953 13.1913L11.6789 13.1181C10.9915 13.2718 10.8334 14.18 11.4283 14.5571L11.4685 14.4937ZM23.6329 19.3854L23.5747 19.338C23.4863 19.4464 23.3607 19.4846 23.2359 19.4649C23.1097 19.4451 22.9855 19.3658 22.9096 19.2394L22.8453 19.2781L22.781 19.3167C22.8796 19.4807 23.0421 19.5863 23.2126 19.6131C23.3844 19.6402 23.5653 19.5868 23.691 19.4328L23.6329 19.3854ZM12.4803 15.385L12.5511 15.3601C12.4716 15.1346 12.318 14.9433 12.1164 14.8156L12.0762 14.8789L12.0361 14.9423C12.2096 15.0522 12.3414 15.2166 12.4096 15.41L12.4803 15.385Z" fill="url(#paint15_linear_0_195)"/>
<g filter="url(#filter8_i_0_195)">
<path fill-rule="evenodd" clip-rule="evenodd" d="M22.1464 16.5331C21.6599 16.8255 21.1561 16.7235 20.8865 16.2748C20.6181 15.8281 20.6739 15.1845 21.1604 14.8922C21.6481 14.5992 22.2386 14.8545 22.5069 15.3011C22.7766 15.7499 22.634 16.2401 22.1464 16.5331ZM19.934 23.1412C20.2573 22.9469 20.761 23.0488 20.9381 23.3435C21.2065 23.7902 21.0612 24.2849 20.7379 24.4792C20.41 24.6762 19.9095 24.5695 19.6411 24.1228C19.464 23.8281 19.606 23.3383 19.934 23.1412Z" fill="url(#paint16_linear_0_195)" fill-opacity="0.5"/>
</g>
<path d="M19.6411 24.1228L19.7054 24.0842L19.7054 24.0842L19.6411 24.1228ZM20.8865 16.2748L20.8222 16.3134C20.9668 16.5541 21.1772 16.7057 21.4201 16.7553C21.6622 16.8048 21.9287 16.7514 22.185 16.5974L22.1464 16.5331L22.1077 16.4689C21.8775 16.6072 21.6489 16.649 21.4501 16.6084C21.2521 16.5679 21.0758 16.4442 20.9508 16.2362L20.8865 16.2748ZM21.1604 14.8922L21.1218 14.828C20.5902 15.1474 20.5388 15.8417 20.8222 16.3134L20.8865 16.2748L20.9508 16.2362C20.6974 15.8146 20.7577 15.2217 21.199 14.9565L21.1604 14.8922ZM22.5069 15.3011L22.5712 15.2625C22.288 14.7912 21.6549 14.5076 21.1218 14.828L21.1604 14.8922L21.199 14.9565C21.6412 14.6908 22.1891 14.9178 22.4426 15.3397L22.5069 15.3011ZM22.1464 16.5331L22.185 16.5974C22.4418 16.4431 22.6135 16.2332 22.6826 15.9966C22.752 15.7592 22.7157 15.5029 22.5712 15.2625L22.5069 15.3011L22.4426 15.3397C22.5678 15.548 22.5951 15.7613 22.5386 15.9545C22.482 16.1484 22.3386 16.3302 22.1077 16.4689L22.1464 16.5331ZM20.9381 23.3435L21.0024 23.3049C20.9 23.1344 20.7082 23.0263 20.5057 22.9855C20.3026 22.9445 20.076 22.9684 19.8953 23.0769L19.934 23.1412L19.9726 23.2055C20.1152 23.1198 20.3022 23.0974 20.4761 23.1325C20.6506 23.1677 20.7992 23.2579 20.8738 23.3821L20.9381 23.3435ZM20.7379 24.4792L20.7765 24.5435C21.1396 24.3253 21.2895 23.7827 21.0024 23.3049L20.9381 23.3435L20.8738 23.3821C21.1235 23.7977 20.9829 24.2445 20.6992 24.4149L20.7379 24.4792ZM19.6411 24.1228L19.5768 24.1614C19.8637 24.639 20.4086 24.7645 20.7765 24.5435L20.7379 24.4792L20.6992 24.4149C20.4114 24.5879 19.9553 24.5 19.7054 24.0842L19.6411 24.1228ZM19.934 23.1412L19.8953 23.0769C19.7125 23.1868 19.5849 23.3756 19.5262 23.5741C19.4678 23.772 19.4745 23.9912 19.5768 24.1614L19.6411 24.1228L19.7054 24.0842C19.6306 23.9597 19.6199 23.7866 19.6701 23.6167C19.7201 23.4473 19.8275 23.2927 19.9726 23.2055L19.934 23.1412Z" fill="url(#paint17_linear_0_195)"/>
</g>
<defs>
<filter id="filter0_i_0_195" x="17.9392" y="27.644" width="21.2759" height="22.9531" filterUnits="userSpaceOnUse" color-interpolation-filters="sRGB">
<feFlood flood-opacity="0" result="BackgroundImageFix"/>
<feBlend mode="normal" in="SourceGraphic" in2="BackgroundImageFix" result="shape"/>
<feColorMatrix in="SourceAlpha" type="matrix" values="0 0 0 0 0 0 0 0 0 0 0 0 0 0 0 0 0 0 127 0" result="hardAlpha"/>
<feOffset dx="1" dy="1"/>
<feGaussianBlur stdDeviation="1.5"/>
<feComposite in2="hardAlpha" operator="arithmetic" k2="-1" k3="1"/>
<feColorMatrix type="matrix" values="0 0 0 0 0.0901961 0 0 0 0 0.584314 0 0 0 0 0.639216 0 0 0 0.5 0"/>
<feBlend mode="normal" in2="shape" result="effect1_innerShadow_0_195"/>
</filter>
<filter id="filter1_i_0_195" x="29.7797" y="44.9404" width="24.6799" height="26.7114" filterUnits="userSpaceOnUse" color-interpolation-filters="sRGB">
<feFlood flood-opacity="0" result="BackgroundImageFix"/>
<feBlend mode="normal" in="SourceGraphic" in2="BackgroundImageFix" result="shape"/>
<feColorMatrix in="SourceAlpha" type="matrix" values="0 0 0 0 0 0 0 0 0 0 0 0 0 0 0 0 0 0 127 0" result="hardAlpha"/>
<feOffset dx="1" dy="1"/>
<feGaussianBlur stdDeviation="1.5"/>
<feComposite in2="hardAlpha" operator="arithmetic" k2="-1" k3="1"/>
<feColorMatrix type="matrix" values="0 0 0 0 0.0901961 0 0 0 0 0.584314 0 0 0 0 0.639216 0 0 0 0.5 0"/>
<feBlend mode="normal" in2="shape" result="effect1_innerShadow_0_195"/>
</filter>
<filter id="filter2_i_0_195" x="42.3383" y="69.4946" width="23.6917" height="14.4375" filterUnits="userSpaceOnUse" color-interpolation-filters="sRGB">
<feFlood flood-opacity="0" result="BackgroundImageFix"/>
<feBlend mode="normal" in="SourceGraphic" in2="BackgroundImageFix" result="shape"/>
<feColorMatrix in="SourceAlpha" type="matrix" values="0 0 0 0 0 0 0 0 0 0 0 0 0 0 0 0 0 0 127 0" result="hardAlpha"/>
<feOffset dx="1" dy="1"/>
<feGaussianBlur stdDeviation="1.5"/>
<feComposite in2="hardAlpha" operator="arithmetic" k2="-1" k3="1"/>
<feColorMatrix type="matrix" values="0 0 0 0 0.0901961 0 0 0 0 0.584314 0 0 0 0 0.639216 0 0 0 0.5 0"/>
<feBlend mode="normal" in2="shape" result="effect1_innerShadow_0_195"/>
</filter>
<filter id="filter3_i_0_195" x="48.1486" y="81.251" width="21.0178" height="20.4961" filterUnits="userSpaceOnUse" color-interpolation-filters="sRGB">
<feFlood flood-opacity="0" result="BackgroundImageFix"/>
<feBlend mode="normal" in="SourceGraphic" in2="BackgroundImageFix" result="shape"/>
<feColorMatrix in="SourceAlpha" type="matrix" values="0 0 0 0 0 0 0 0 0 0 0 0 0 0 0 0 0 0 127 0" result="hardAlpha"/>
<feOffset dx="1" dy="1"/>
<feGaussianBlur stdDeviation="1.5"/>
<feComposite in2="hardAlpha" operator="arithmetic" k2="-1" k3="1"/>
<feColorMatrix type="matrix" values="0 0 0 0 0.0901961 0 0 0 0 0.584314 0 0 0 0 0.639216 0 0 0 0.5 0"/>
<feBlend mode="normal" in2="shape" result="effect1_innerShadow_0_195"/>
</filter>
<filter id="filter4_i_0_195" x="57.3446" y="95.6577" width="19.1554" height="20.3496" filterUnits="userSpaceOnUse" color-interpolation-filters="sRGB">
<feFlood flood-opacity="0" result="BackgroundImageFix"/>
<feBlend mode="normal" in="SourceGraphic" in2="BackgroundImageFix" result="shape"/>
<feColorMatrix in="SourceAlpha" type="matrix" values="0 0 0 0 0 0 0 0 0 0 0 0 0 0 0 0 0 0 127 0" result="hardAlpha"/>
<feOffset dx="1" dy="1"/>
<feGaussianBlur stdDeviation="1.5"/>
<feComposite in2="hardAlpha" operator="arithmetic" k2="-1" k3="1"/>
<feColorMatrix type="matrix" values="0 0 0 0 0.0901961 0 0 0 0 0.584314 0 0 0 0 0.639216 0 0 0 0.5 0"/>
<feBlend mode="normal" in2="shape" result="effect1_innerShadow_0_195"/>
</filter>
<filter id="filter5_i_0_195" x="66.8613" y="108.596" width="24.6799" height="26.7114" filterUnits="userSpaceOnUse" color-interpolation-filters="sRGB">
<feFlood flood-opacity="0" result="BackgroundImageFix"/>
<feBlend mode="normal" in="SourceGraphic" in2="BackgroundImageFix" result="shape"/>
<feColorMatrix in="SourceAlpha" type="matrix" values="0 0 0 0 0 0 0 0 0 0 0 0 0 0 0 0 0 0 127 0" result="hardAlpha"/>
<feOffset dx="1" dy="1"/>
<feGaussianBlur stdDeviation="1.5"/>
<feComposite in2="hardAlpha" operator="arithmetic" k2="-1" k3="1"/>
<feColorMatrix type="matrix" values="0 0 0 0 0.0901961 0 0 0 0 0.584314 0 0 0 0 0.639216 0 0 0 0.5 0"/>
<feBlend mode="normal" in2="shape" result="effect1_innerShadow_0_195"/>
</filter>
<filter id="filter6_i_0_195" x="17.431" y="10.4053" width="3.70728" height="11.8159" filterUnits="userSpaceOnUse" color-interpolation-filters="sRGB">
<feFlood flood-opacity="0" result="BackgroundImageFix"/>
<feBlend mode="normal" in="SourceGraphic" in2="BackgroundImageFix" result="shape"/>
<feColorMatrix in="SourceAlpha" type="matrix" values="0 0 0 0 0 0 0 0 0 0 0 0 0 0 0 0 0 0 127 0" result="hardAlpha"/>
<feOffset dx="1" dy="1"/>
<feGaussianBlur stdDeviation="0.5"/>
<feComposite in2="hardAlpha" operator="arithmetic" k2="-1" k3="1"/>
<feColorMatrix type="matrix" values="0 0 0 0 0.0901961 0 0 0 0 0.584314 0 0 0 0 0.639216 0 0 0 0.5 0"/>
<feBlend mode="normal" in2="shape" result="effect1_innerShadow_0_195"/>
</filter>
<filter id="filter7_i_0_195" x="3.01624" y="2.65625" width="31.3643" height="31.3643" filterUnits="userSpaceOnUse" color-interpolation-filters="sRGB">
<feFlood flood-opacity="0" result="BackgroundImageFix"/>
<feBlend mode="normal" in="SourceGraphic" in2="BackgroundImageFix" result="shape"/>
<feColorMatrix in="SourceAlpha" type="matrix" values="0 0 0 0 0 0 0 0 0 0 0 0 0 0 0 0 0 0 127 0" result="hardAlpha"/>
<feOffset dx="1" dy="1"/>
<feGaussianBlur stdDeviation="0.5"/>
<feComposite in2="hardAlpha" operator="arithmetic" k2="-1" k3="1"/>
<feColorMatrix type="matrix" values="0 0 0 0 0.0901961 0 0 0 0 0.584314 0 0 0 0 0.639216 0 0 0 0.5 0"/>
<feBlend mode="normal" in2="shape" result="effect1_innerShadow_0_195"/>
</filter>
<filter id="filter8_i_0_195" x="19.4893" y="14.6914" width="4.22742" height="10.9575" filterUnits="userSpaceOnUse" color-interpolation-filters="sRGB">
<feFlood flood-opacity="0" result="BackgroundImageFix"/>
<feBlend mode="normal" in="SourceGraphic" in2="BackgroundImageFix" result="shape"/>
<feColorMatrix in="SourceAlpha" type="matrix" values="0 0 0 0 0 0 0 0 0 0 0 0 0 0 0 0 0 0 127 0" result="hardAlpha"/>
<feOffset dx="1" dy="1"/>
<feGaussianBlur stdDeviation="0.5"/>
<feComposite in2="hardAlpha" operator="arithmetic" k2="-1" k3="1"/>
<feColorMatrix type="matrix" values="0 0 0 0 0.0901961 0 0 0 0 0.584314 0 0 0 0 0.639216 0 0 0 0.5 0"/>
<feBlend mode="normal" in2="shape" result="effect1_innerShadow_0_195"/>
</filter>
<linearGradient id="paint0_linear_0_195" x1="36.2636" y1="27.1948" x2="17.2469" y2="37.3894" gradientUnits="userSpaceOnUse">
<stop stop-color="#FF0000"/>
<stop offset="1" stop-color="#004EFF"/>
</linearGradient>
<linearGradient id="paint1_linear_0_195" x1="35.9271" y1="27.397" x2="17.4344" y2="38.5085" gradientUnits="userSpaceOnUse">
<stop stop-color="#FF0000"/>
<stop offset="1" stop-color="#0059FF"/>
</linearGradient>
<linearGradient id="paint2_linear_0_195" x1="40.6376" y1="44.2468" x2="27.2969" y2="51.8804" gradientUnits="userSpaceOnUse">
<stop stop-color="#FF0000"/>
<stop offset="1" stop-color="#004EFF"/>
</linearGradient>
<linearGradient id="paint3_linear_0_195" x1="40.3982" y1="44.3906" x2="27.2377" y2="52.2983" gradientUnits="userSpaceOnUse">
<stop stop-color="#FF0000"/>
<stop offset="1" stop-color="#0059FF"/>
</linearGradient>
<linearGradient id="paint4_linear_0_195" x1="59.6928" y1="65.9278" x2="40.665" y2="75.7013" gradientUnits="userSpaceOnUse">
<stop stop-color="#FF0000"/>
<stop offset="1" stop-color="#004EFF"/>
</linearGradient>
<linearGradient id="paint5_linear_0_195" x1="59.3589" y1="66.1284" x2="41.0068" y2="77.1555" gradientUnits="userSpaceOnUse">
<stop stop-color="#FF0000"/>
<stop offset="1" stop-color="#0059FF"/>
</linearGradient>
<linearGradient id="paint6_linear_0_195" x1="61.3014" y1="80.5788" x2="47.837" y2="87.9754" gradientUnits="userSpaceOnUse">
<stop stop-color="#FF0000"/>
<stop offset="1" stop-color="#004EFF"/>
</linearGradient>
<linearGradient id="paint7_linear_0_195" x1="61.062" y1="80.7227" x2="47.9015" y2="88.6303" gradientUnits="userSpaceOnUse">
<stop stop-color="#FF0000"/>
<stop offset="1" stop-color="#0059FF"/>
</linearGradient>
<linearGradient id="paint8_linear_0_195" x1="69.7934" y1="93.8326" x2="55.5876" y2="101.641" gradientUnits="userSpaceOnUse">
<stop stop-color="#FF0000"/>
<stop offset="1" stop-color="#004EFF"/>
</linearGradient>
<linearGradient id="paint9_linear_0_195" x1="69.5408" y1="93.9844" x2="55.6537" y2="102.329" gradientUnits="userSpaceOnUse">
<stop stop-color="#FF0000"/>
<stop offset="1" stop-color="#0059FF"/>
</linearGradient>
<linearGradient id="paint10_linear_0_195" x1="77.7193" y1="107.903" x2="64.3785" y2="115.536" gradientUnits="userSpaceOnUse">
<stop stop-color="#FF0000"/>
<stop offset="1" stop-color="#004EFF"/>
</linearGradient>
<linearGradient id="paint11_linear_0_195" x1="77.4799" y1="108.046" x2="64.3193" y2="115.954" gradientUnits="userSpaceOnUse">
<stop stop-color="#FF0000"/>
<stop offset="1" stop-color="#0059FF"/>
</linearGradient>
<linearGradient id="paint12_linear_0_195" x1="19.394" y1="10.1201" x2="13.3939" y2="13.7254" gradientUnits="userSpaceOnUse">
<stop stop-color="#FF0000"/>
<stop offset="1" stop-color="#0049FF"/>
</linearGradient>
<linearGradient id="paint13_linear_0_195" x1="19.394" y1="10.1201" x2="13.3939" y2="13.7254" gradientUnits="userSpaceOnUse">
<stop stop-color="#FF0000"/>
<stop offset="1" stop-color="#0009FF"/>
</linearGradient>
<linearGradient id="paint14_linear_0_195" x1="22.304" y1="1.37207" x2="1.73194" y2="13.733" gradientUnits="userSpaceOnUse">
<stop stop-color="#FF0000"/>
<stop offset="1" stop-color="#0049FF"/>
</linearGradient>
<linearGradient id="paint15_linear_0_195" x1="22.304" y1="1.37207" x2="1.73194" y2="13.733" gradientUnits="userSpaceOnUse">
<stop stop-color="#FF0000"/>
<stop offset="1" stop-color="#0009FF"/>
</linearGradient>
<linearGradient id="paint16_linear_0_195" x1="21.9692" y1="14.4062" x2="15.9691" y2="18.0115" gradientUnits="userSpaceOnUse">
<stop stop-color="#FF0000"/>
<stop offset="1" stop-color="#0049FF"/>
</linearGradient>
<linearGradient id="paint17_linear_0_195" x1="21.9692" y1="14.4062" x2="15.9691" y2="18.0115" gradientUnits="userSpaceOnUse">
<stop stop-color="#FF0000"/>
<stop offset="1" stop-color="#0009FF"/>
</linearGradient>
</defs>
</svg>
