<svg width="102" height="138" viewBox="0 0 102 138" fill="none" xmlns="http://www.w3.org/2000/svg">
<g filter="url(#filter0_i_0_185)">
<path d="M26.0511 98.2188C26.7532 98.6747 27.6974 98.1126 27.7565 97.2776C27.7725 97.051 27.7953 96.8277 27.8248 96.6075C27.9408 95.7427 28.2793 94.8784 28.8402 94.0147C29.8976 92.3865 31.2984 91.5138 33.0426 91.3967C34.7869 91.2797 36.691 91.8913 38.7549 93.2316C40.7806 94.5471 42.0681 96.1793 42.6174 98.1282C43.1667 100.077 42.8978 101.889 41.8107 103.563C41.344 104.281 40.8581 104.862 40.3527 105.306C39.9724 105.639 39.563 105.933 39.1244 106.185C38.9064 106.311 38.8495 106.607 39.0178 106.794V106.794C39.1329 106.922 39.1478 107.111 39.0541 107.255L37.1885 110.128C36.8877 110.591 36.2684 110.723 35.8052 110.422L19.6412 99.9248C19.178 99.624 19.0463 99.0046 19.3471 98.5415L20.9385 96.091C21.2393 95.6278 21.8586 95.4961 22.3218 95.7969L26.0511 98.2188ZM30.7602 97.8861C30.507 98.2759 30.3056 98.7157 30.156 99.2055C30.0616 99.5146 29.9927 99.8295 29.9493 100.15C29.9019 100.5 30.0811 100.836 30.3775 101.028L35.7763 104.534C36.1302 104.764 36.5983 104.755 36.8996 104.459C36.9834 104.377 37.0619 104.294 37.1351 104.21C37.3471 103.968 37.5747 103.659 37.818 103.285C38.5278 102.191 38.7355 101.169 38.4408 100.217C38.1462 99.2647 37.3568 98.3717 36.0726 97.5377C34.926 96.7931 33.9165 96.4146 33.0441 96.4024C32.1718 96.3901 31.4105 96.8847 30.7602 97.8861Z" fill="url(#paint0_linear_0_185)" fill-opacity="0.5"/>
</g>
<path d="M40.3527 105.306L40.2868 105.23L40.3527 105.306ZM37.1351 104.21L37.2105 104.276L37.1351 104.21ZM29.9493 100.15L29.8502 100.137L29.9493 100.15ZM22.3218 95.7969L22.2673 95.8808L22.3218 95.7969ZM26.0511 98.2188L25.9967 98.3027L26.0511 98.2188ZM39.0541 107.255L39.138 107.309L39.0541 107.255ZM39.1244 106.185L39.0745 106.099L39.0745 106.099L39.1244 106.185ZM37.1885 110.128L37.1047 110.073L37.1885 110.128ZM27.7565 97.2776L27.8562 97.2846C27.8721 97.0601 27.8947 96.8388 27.9239 96.6208L27.8248 96.6075L27.7257 96.5942C27.6959 96.8165 27.6729 97.0419 27.6567 97.2705L27.7565 97.2776ZM27.8248 96.6075L27.9239 96.6208C28.0376 95.7731 28.3698 94.9227 28.9241 94.0691L28.8402 94.0147L28.7563 93.9602C28.1888 94.8342 27.844 95.7123 27.7257 96.5942L27.8248 96.6075ZM28.8402 94.0147L28.9241 94.0691C29.9665 92.464 31.3403 91.6112 33.0493 91.4965L33.0426 91.3967L33.0359 91.297C31.2565 91.4164 29.8287 92.3089 28.7563 93.9602L28.8402 94.0147ZM33.0426 91.3967L33.0493 91.4965C34.7648 91.3814 36.6474 91.9823 38.7004 93.3155L38.7549 93.2316L38.8094 93.1477C36.7345 91.8003 34.809 91.178 33.0359 91.297L33.0426 91.3967ZM38.7549 93.2316L38.7004 93.3155C40.7099 94.6204 41.9796 96.2341 42.5212 98.1553L42.6174 98.1282L42.7137 98.1011C42.1565 96.1245 40.8513 94.4738 38.8094 93.1477L38.7549 93.2316ZM42.6174 98.1282L42.5212 98.1553C43.0628 100.077 42.798 101.859 41.7268 103.508L41.8107 103.563L41.8945 103.617C42.9976 101.918 43.2707 100.077 42.7137 98.1011L42.6174 98.1282ZM41.8107 103.563L41.7268 103.508C41.2639 104.221 40.7836 104.794 40.2868 105.23L40.3527 105.306L40.4187 105.381C40.9325 104.93 41.4242 104.341 41.8945 103.617L41.8107 103.563ZM40.3527 105.306L40.2868 105.23C39.9114 105.56 39.5073 105.849 39.0745 106.099L39.1244 106.185L39.1743 106.272C39.6186 106.016 40.0334 105.719 40.4187 105.381L40.3527 105.306ZM39.0541 107.255L38.9703 107.201L37.1047 110.073L37.1885 110.128L37.2724 110.182L39.138 107.309L39.0541 107.255ZM35.8052 110.422L35.8597 110.338L19.6956 99.8409L19.6412 99.9248L19.5867 100.009L35.7508 110.506L35.8052 110.422ZM19.3471 98.5415L19.431 98.5959L21.0224 96.1454L20.9385 96.091L20.8546 96.0365L19.2633 98.487L19.3471 98.5415ZM22.3218 95.7969L22.2673 95.8808L25.9967 98.3027L26.0511 98.2188L26.1056 98.1349L22.3763 95.7131L22.3218 95.7969ZM30.7602 97.8861L30.6763 97.8316C30.4176 98.2301 30.2124 98.6785 30.0604 99.1762L30.156 99.2055L30.2517 99.2347C30.3988 98.753 30.5964 98.3218 30.844 97.9406L30.7602 97.8861ZM30.156 99.2055L30.0604 99.1762C29.9644 99.4905 29.8943 99.8107 29.8502 100.137L29.9493 100.15L30.0484 100.163C30.0911 99.8482 30.1588 99.5386 30.2517 99.2347L30.156 99.2055ZM30.3775 101.028L30.3231 101.112L35.7218 104.618L35.7763 104.534L35.8307 104.45L30.432 100.945L30.3775 101.028ZM36.8996 104.459L36.9696 104.531C37.0552 104.447 37.1355 104.362 37.2105 104.276L37.1351 104.21L37.0598 104.145C36.9884 104.227 36.9117 104.308 36.8296 104.388L36.8996 104.459ZM37.1351 104.21L37.2105 104.276C37.4265 104.029 37.6569 103.716 37.9018 103.339L37.818 103.285L37.7341 103.23C37.4925 103.602 37.2677 103.907 37.0598 104.145L37.1351 104.21ZM37.818 103.285L37.9018 103.339C38.6225 102.229 38.8423 101.176 38.5364 100.187L38.4408 100.217L38.3453 100.246C38.6286 101.162 38.4331 102.154 37.7341 103.23L37.818 103.285ZM38.4408 100.217L38.5364 100.187C38.232 99.2035 37.4209 98.294 36.1271 97.4538L36.0726 97.5377L36.0181 97.6216C37.2928 98.4493 38.0605 99.3259 38.3453 100.246L38.4408 100.217ZM36.0726 97.5377L36.1271 97.4538C34.9729 96.7043 33.9446 96.315 33.0456 96.3024L33.0441 96.4024L33.0427 96.5024C33.8884 96.5142 34.8791 96.8819 36.0181 97.6216L36.0726 97.5377ZM33.0441 96.4024L33.0456 96.3024C32.1268 96.2895 31.3377 96.8132 30.6763 97.8316L30.7602 97.8861L30.844 97.9406C31.4833 96.9562 32.2168 96.4908 33.0427 96.5024L33.0441 96.4024ZM35.7763 104.534L35.7218 104.618C36.1081 104.869 36.6293 104.865 36.9696 104.531L36.8996 104.459L36.8296 104.388C36.5673 104.645 36.1523 104.659 35.8307 104.45L35.7763 104.534ZM29.9493 100.15L29.8502 100.137C29.7969 100.53 29.9988 100.902 30.3231 101.112L30.3775 101.028L30.432 100.945C30.1634 100.77 30.0069 100.47 30.0484 100.163L29.9493 100.15ZM20.9385 96.091L21.0224 96.1454C21.2931 95.7286 21.8505 95.6101 22.2673 95.8808L22.3218 95.7969L22.3763 95.7131C21.8668 95.3822 21.1855 95.527 20.8546 96.0365L20.9385 96.091ZM27.7565 97.2776L27.6567 97.2705C27.6298 97.6514 27.4006 97.9723 27.0956 98.1453C26.7915 98.3179 26.4205 98.3394 26.1056 98.1349L26.0511 98.2188L25.9967 98.3027C26.3839 98.5541 26.836 98.5226 27.1943 98.3193C27.5517 98.1165 27.8241 97.7387 27.8562 97.2846L27.7565 97.2776ZM19.6412 99.9248L19.6956 99.8409C19.2788 99.5702 19.1603 99.0128 19.431 98.5959L19.3471 98.5415L19.2633 98.487C18.9324 98.9965 19.0772 99.6778 19.5867 100.009L19.6412 99.9248ZM39.0178 106.794L38.9435 106.861C39.0283 106.955 39.0392 107.094 38.9703 107.201L39.0541 107.255L39.138 107.309C39.2563 107.127 39.2375 106.889 39.0922 106.727L39.0178 106.794ZM39.1244 106.185L39.0745 106.099C38.8053 106.254 38.7296 106.623 38.9435 106.861L39.0178 106.794L39.0922 106.727C38.9694 106.591 39.0075 106.368 39.1743 106.272L39.1244 106.185ZM37.1885 110.128L37.1047 110.073C36.834 110.49 36.2766 110.609 35.8597 110.338L35.8052 110.422L35.7508 110.506C36.2603 110.837 36.9415 110.692 37.2724 110.182L37.1885 110.128Z" fill="url(#paint1_linear_0_185)" style="mix-blend-mode:exclusion"/>
<g filter="url(#filter1_i_0_185)">
<path d="M45.6442 67.0807C46.0111 66.5157 46.8203 66.4677 47.2514 66.9854L56.1968 77.7287C56.4773 78.0655 56.5057 78.5457 56.267 78.9132L54.2282 82.0527C53.9882 82.4224 53.5344 82.5912 53.1111 82.4685L46.6418 80.5928C45.6889 80.3165 44.9587 81.4469 45.6023 82.202L49.9594 87.3131C50.2465 87.6499 50.2781 88.1354 50.0371 88.5065L47.9641 91.6986C47.725 92.0669 47.2735 92.236 46.8511 92.1156L33.4176 88.2833C32.7708 88.0987 32.487 87.3411 32.8533 86.777L34.5048 84.2338C34.7551 83.8484 35.2359 83.6832 35.6702 83.8333L41.8457 85.9679C42.8025 86.2987 43.5886 85.1612 42.941 84.3831L38.6191 79.1907C38.3387 78.8539 38.3103 78.3739 38.549 78.0064L40.1157 75.5939C40.3572 75.222 40.8148 75.0536 41.2398 75.1801L47.5357 77.0554C48.5151 77.3471 49.2497 76.1554 48.5492 75.4115L44.1664 70.7569C43.8504 70.4213 43.8047 69.9133 44.0557 69.5267L45.6442 67.0807Z" fill="url(#paint2_linear_0_185)" fill-opacity="0.5"/>
</g>
<path d="M45.6442 67.0807C46.0111 66.5157 46.8203 66.4677 47.2514 66.9854L56.1968 77.7287C56.4773 78.0655 56.5057 78.5457 56.267 78.9132L54.2282 82.0527C53.9882 82.4224 53.5344 82.5912 53.1111 82.4685L46.6418 80.5928C45.6889 80.3165 44.9587 81.4469 45.6023 82.202L49.9594 87.3131C50.2465 87.6499 50.2781 88.1354 50.0371 88.5065L47.9641 91.6986C47.725 92.0669 47.2735 92.236 46.8511 92.1156L33.4176 88.2833C32.7708 88.0987 32.487 87.3411 32.8533 86.777L34.5048 84.2338C34.7551 83.8484 35.2359 83.6832 35.6702 83.8333L41.8457 85.9679C42.8025 86.2987 43.5886 85.1612 42.941 84.3831L38.6191 79.1907C38.3387 78.8539 38.3103 78.3739 38.549 78.0064L40.1157 75.5939C40.3572 75.222 40.8148 75.0536 41.2398 75.1801L47.5357 77.0554C48.5151 77.3471 49.2497 76.1554 48.5492 75.4115L44.1664 70.7569C43.8504 70.4213 43.8047 69.9133 44.0557 69.5267L45.6442 67.0807Z" stroke="url(#paint3_linear_0_185)" stroke-width="0.2" style="mix-blend-mode:exclusion"/>
<g filter="url(#filter2_i_0_185)">
<path d="M52.5797 53.4018C52.7293 53.499 52.7718 53.699 52.6746 53.8486V53.8486C52.658 53.8743 52.6377 53.8974 52.6146 53.9175C52.448 54.0626 52.2434 54.2517 52.0007 54.4848C51.7407 54.7344 51.5016 55.0274 51.2831 55.3638C50.7569 56.174 50.546 56.8168 50.6503 57.2921C50.7547 57.7674 51.2234 58.2756 52.0566 58.8167V58.8167C52.1136 58.8537 52.1898 58.8375 52.2268 58.7805L53.6852 56.5348C53.986 56.0716 54.6054 55.94 55.0685 56.2408L56.189 56.9684C56.6521 57.2692 56.7838 57.8885 56.483 58.3517L55.5916 59.7243C55.2908 60.1875 55.4224 60.8068 55.8856 61.1076L64.287 66.5636C64.7502 66.8644 64.8819 67.4837 64.5811 67.9469L62.9897 70.3974C62.6889 70.8606 62.0696 70.9922 61.6064 70.6914L53.205 65.2355C52.7418 64.9347 52.1224 65.0663 51.8216 65.5295L51.7642 65.618C51.4634 66.0811 50.8441 66.2128 50.3809 65.912L49.2605 65.1844C48.7973 64.8836 48.6657 64.2643 48.9665 63.8011L49.3377 63.2294C49.4652 63.0331 49.4094 62.7706 49.2131 62.6431V62.6431C47.6384 61.6205 46.7292 60.435 46.4854 59.0867C46.2416 57.7383 46.6708 56.2157 47.7728 54.5187C48.1699 53.9071 48.5509 53.3666 48.9156 52.897C49.0767 52.6895 49.2332 52.4949 49.3851 52.3132C49.6954 51.9419 50.2335 51.8782 50.6393 52.1417L52.5797 53.4018Z" fill="url(#paint4_linear_0_185)" fill-opacity="0.5"/>
</g>
<path d="M52.5797 53.4018C52.7293 53.499 52.7718 53.699 52.6746 53.8486V53.8486C52.658 53.8743 52.6377 53.8974 52.6146 53.9175C52.448 54.0626 52.2434 54.2517 52.0007 54.4848C51.7407 54.7344 51.5016 55.0274 51.2831 55.3638C50.7569 56.174 50.546 56.8168 50.6503 57.2921C50.7547 57.7674 51.2234 58.2756 52.0566 58.8167V58.8167C52.1136 58.8537 52.1898 58.8375 52.2268 58.7805L53.6852 56.5348C53.986 56.0716 54.6054 55.94 55.0685 56.2408L56.189 56.9684C56.6521 57.2692 56.7838 57.8885 56.483 58.3517L55.5916 59.7243C55.2908 60.1875 55.4224 60.8068 55.8856 61.1076L64.287 66.5636C64.7502 66.8644 64.8819 67.4837 64.5811 67.9469L62.9897 70.3974C62.6889 70.8606 62.0696 70.9922 61.6064 70.6914L53.205 65.2355C52.7418 64.9347 52.1224 65.0663 51.8216 65.5295L51.7642 65.618C51.4634 66.0811 50.8441 66.2128 50.3809 65.912L49.2605 65.1844C48.7973 64.8836 48.6657 64.2643 48.9665 63.8011L49.3377 63.2294C49.4652 63.0331 49.4094 62.7706 49.2131 62.6431V62.6431C47.6384 61.6205 46.7292 60.435 46.4854 59.0867C46.2416 57.7383 46.6708 56.2157 47.7728 54.5187C48.1699 53.9071 48.5509 53.3666 48.9156 52.897C49.0767 52.6895 49.2332 52.4949 49.3851 52.3132C49.6954 51.9419 50.2335 51.8782 50.6393 52.1417L52.5797 53.4018Z" stroke="url(#paint5_linear_0_185)" stroke-width="0.2" style="mix-blend-mode:exclusion"/>
<g filter="url(#filter3_i_0_185)">
<path d="M75.6064 49.1334C76.0696 49.4342 76.2012 50.0535 75.9005 50.5167L69.1339 60.9362C68.8332 61.3994 68.2138 61.531 67.7506 61.2302L66.2732 60.2708C66.0596 60.132 65.9069 59.917 65.8465 59.6695L63.6861 50.8313C63.478 49.98 62.3533 49.7891 61.876 50.5241L59.4517 54.2572C59.1509 54.7204 58.5316 54.852 58.0684 54.5513L56.7301 53.6822C56.267 53.3814 56.1353 52.762 56.4361 52.2989L62.942 42.2807C63.2428 41.8175 63.8621 41.6859 64.3253 41.9866L65.7602 42.9185C65.9718 43.0559 66.1237 43.2683 66.1853 43.513L68.3894 52.2699C68.6025 53.1166 69.7223 53.3027 70.1978 52.5704L72.8275 48.5211C73.1283 48.0579 73.7476 47.9263 74.2108 48.2271L75.6064 49.1334Z" fill="url(#paint6_linear_0_185)" fill-opacity="0.5"/>
</g>
<path d="M75.6064 49.1334C76.0696 49.4342 76.2012 50.0535 75.9005 50.5167L69.1339 60.9362C68.8332 61.3994 68.2138 61.531 67.7506 61.2302L66.2732 60.2708C66.0596 60.132 65.9069 59.917 65.8465 59.6695L63.6861 50.8313C63.478 49.98 62.3533 49.7891 61.876 50.5241L59.4517 54.2572C59.1509 54.7204 58.5316 54.852 58.0684 54.5513L56.7301 53.6822C56.267 53.3814 56.1353 52.762 56.4361 52.2989L62.942 42.2807C63.2428 41.8175 63.8621 41.6859 64.3253 41.9866L65.7602 42.9185C65.9718 43.0559 66.1237 43.2683 66.1853 43.513L68.3894 52.2699C68.6025 53.1166 69.7223 53.3027 70.1978 52.5704L72.8275 48.5211C73.1283 48.0579 73.7476 47.9263 74.2108 48.2271L75.6064 49.1334Z" stroke="url(#paint7_linear_0_185)" stroke-width="0.2" style="mix-blend-mode:exclusion"/>
<g filter="url(#filter4_i_0_185)">
<path fill-rule="evenodd" clip-rule="evenodd" d="M81.5549 40.1529C81.5527 40.1072 81.5504 40.0621 81.5482 40.0178C81.5258 39.5721 82.0208 39.2817 82.395 39.5247V39.5247C82.6451 39.6871 82.9794 39.616 83.1418 39.366L84.9615 36.564C85.2623 36.1008 85.1306 35.4815 84.6674 35.1807L76.7459 30.0364C75.2018 29.0336 73.7298 28.8194 72.3298 29.3937C70.9298 29.968 69.4678 31.4286 67.9438 33.7753C67.3034 34.7614 66.7427 35.7965 66.2615 36.8805C65.9669 37.5441 65.731 38.1002 65.5536 38.5488C65.3866 38.9712 65.5528 39.4443 65.9338 39.6917L68.0757 41.0826C68.2518 41.197 68.4873 41.147 68.6017 40.9708V40.9708C68.6272 40.9315 68.6451 40.888 68.6551 40.8422C68.7476 40.4183 68.9172 39.7667 69.1639 38.8876C69.4245 37.9592 69.7757 37.1548 70.2175 36.4745C70.9522 35.3432 71.6439 34.5751 72.2925 34.1704C72.9412 33.7657 73.6209 33.7941 74.3318 34.2558V34.2558C74.3704 34.2809 74.3827 34.3318 74.3599 34.3718C73.6554 35.6075 73.014 36.8266 72.4357 38.0291C71.8462 39.2548 71.4753 40.3615 71.3229 41.3493C71.1655 42.3447 71.2484 43.2463 71.5716 44.0539C71.8948 44.8615 72.5265 45.5706 73.4667 46.1812C74.6439 46.9457 75.879 47.1609 77.1719 46.8268C78.4648 46.4927 79.5084 45.7141 80.3026 44.491C80.6402 43.9712 80.9065 43.4649 81.1016 42.9721C81.2966 42.4793 81.4339 41.9708 81.5136 41.4465C81.5646 41.0667 81.5784 40.6354 81.5549 40.1529ZM76.3019 36.8564C76.5672 36.3355 77.2253 36.1674 77.7155 36.4858L79.1025 37.3865C79.3473 37.5455 79.5168 37.8034 79.5248 38.0952C79.5346 38.4509 79.5021 38.8148 79.4272 39.1868C79.3199 39.7203 79.1322 40.1934 78.8641 40.6062C78.5266 41.126 78.242 41.4846 78.0106 41.6821C77.7791 41.8795 77.5298 42.0165 77.2628 42.0931C76.9907 42.1772 76.7558 42.1876 76.5578 42.1243C76.3598 42.061 76.1271 41.9424 75.8596 41.7687C75.4544 41.5056 75.1984 41.1844 75.0914 40.8052C74.9845 40.426 75 39.9878 75.1381 39.4907C75.2496 39.0848 75.4761 38.531 75.8178 37.8291C75.9821 37.4917 76.1434 37.1674 76.3019 36.8564Z" fill="url(#paint8_linear_0_185)" fill-opacity="0.5"/>
</g>
<path d="M66.2615 36.8805L66.3529 36.9211L66.2615 36.8805ZM69.1639 38.8876L69.2602 38.9146L69.2602 38.9146L69.1639 38.8876ZM72.2925 34.1704L72.2396 34.0856L72.2396 34.0856L72.2925 34.1704ZM71.3229 41.3493L71.4216 41.3649L71.4217 41.3645L71.3229 41.3493ZM71.5716 44.0539L71.6644 44.0167L71.6644 44.0167L71.5716 44.0539ZM81.1016 42.9721L81.0086 42.9353L81.0086 42.9353L81.1016 42.9721ZM81.5136 41.4465L81.6125 41.4615L81.6127 41.4598L81.5136 41.4465ZM77.2628 42.0931L77.2352 41.9969L77.2332 41.9975L77.2628 42.0931ZM75.1381 39.4907L75.2345 39.5174L75.2346 39.5171L75.1381 39.4907ZM75.8178 37.8291L75.9077 37.8729L75.9077 37.8729L75.8178 37.8291ZM74.3599 34.3718L74.4468 34.4213L74.3599 34.3718ZM68.6551 40.8422L68.5574 40.8209L68.6551 40.8422ZM76.3019 36.8564L76.2128 36.811L76.3019 36.8564ZM84.9615 36.564L84.8776 36.5095L84.9615 36.564ZM79.5248 38.0952L79.6248 38.0925L79.5248 38.0952ZM83.1418 39.366L83.0579 39.3115L83.1418 39.366ZM81.5482 40.0178L81.6481 40.0128L81.5482 40.0178ZM81.5482 40.0178L81.4483 40.0228C81.4506 40.0671 81.4528 40.1121 81.455 40.1577L81.5549 40.1529L81.6548 40.148C81.6525 40.1022 81.6503 40.0572 81.6481 40.0128L81.5482 40.0178ZM84.9615 36.564L84.8776 36.5095L83.0579 39.3115L83.1418 39.366L83.2257 39.4205L85.0453 36.6184L84.9615 36.564ZM76.7459 30.0364L76.6915 30.1203L84.613 35.2645L84.6674 35.1807L84.7219 35.0968L76.8004 29.9525L76.7459 30.0364ZM72.3298 29.3937L72.3677 29.4862C73.7306 28.9272 75.1681 29.131 76.6915 30.1203L76.7459 30.0364L76.8004 29.9525C75.2355 28.9363 73.7289 28.7116 72.2918 29.3012L72.3298 29.3937ZM67.9438 33.7753L68.0277 33.8298C69.5487 31.4876 70.9968 30.0486 72.3677 29.4862L72.3298 29.3937L72.2918 29.3012C70.8628 29.8874 69.3869 31.3695 67.86 33.7208L67.9438 33.7753ZM66.2615 36.8805L66.3529 36.9211C66.8319 35.8418 67.3902 34.8114 68.0277 33.8298L67.9438 33.7753L67.86 33.7208C67.2167 34.7114 66.6534 35.7511 66.1701 36.8399L66.2615 36.8805ZM65.5536 38.5488L65.6466 38.5855C65.8233 38.1387 66.0586 37.584 66.3529 36.9211L66.2615 36.8805L66.1701 36.8399C65.8752 37.5042 65.6386 38.0617 65.4606 38.512L65.5536 38.5488ZM68.0757 41.0826L68.1301 40.9988L65.9882 39.6078L65.9338 39.6917L65.8793 39.7755L68.0212 41.1665L68.0757 41.0826ZM69.1639 38.8876L69.0676 38.8606C68.8208 39.74 68.6505 40.3939 68.5574 40.8209L68.6551 40.8422L68.7528 40.8635C68.8446 40.4426 69.0135 39.7935 69.2602 38.9146L69.1639 38.8876ZM70.2175 36.4745L70.1336 36.42C69.6854 37.1102 69.3304 37.9242 69.0676 38.8606L69.1639 38.8876L69.2602 38.9146C69.5185 37.9942 69.866 37.1994 70.3014 36.529L70.2175 36.4745ZM72.2925 34.1704L72.2396 34.0856C71.5724 34.5018 70.8711 35.2844 70.1336 36.42L70.2175 36.4745L70.3014 36.529C71.0333 35.4019 71.7153 34.6484 72.3454 34.2552L72.2925 34.1704ZM74.3318 34.2558L74.3863 34.1719C74.0195 33.9337 73.6547 33.8034 73.293 33.7883C72.9306 33.7731 72.5788 33.8739 72.2396 34.0856L72.2925 34.1704L72.3454 34.2552C72.6549 34.0622 72.9673 33.9748 73.2846 33.9881C73.6027 34.0014 73.9333 34.1162 74.2774 34.3397L74.3318 34.2558ZM72.4357 38.0291L72.5258 38.0724C73.1031 36.8721 73.7434 35.6551 74.4468 34.4213L74.3599 34.3718L74.2731 34.3222C73.5675 35.5598 72.925 36.781 72.3456 37.9858L72.4357 38.0291ZM71.3229 41.3493L71.4217 41.3645C71.5722 40.3893 71.9392 39.2922 72.5258 38.0724L72.4357 38.0291L72.3456 37.9858C71.7533 39.2173 71.3784 40.3337 71.224 41.334L71.3229 41.3493ZM71.5716 44.0539L71.6644 44.0167C71.3489 43.2283 71.2666 42.3454 71.4216 41.3649L71.3229 41.3493L71.2241 41.3337C71.0643 42.344 71.1478 43.2642 71.4787 44.0911L71.5716 44.0539ZM73.4667 46.1812L73.5212 46.0974C72.5933 45.4948 71.978 44.8004 71.6644 44.0167L71.5716 44.0539L71.4787 44.0911C71.8116 44.9227 72.4597 45.6465 73.4123 46.2651L73.4667 46.1812ZM77.1719 46.8268L77.1469 46.73C75.8826 47.0567 74.6763 46.8475 73.5212 46.0974L73.4667 46.1812L73.4123 46.2651C74.6116 47.044 75.8753 47.2651 77.1969 46.9236L77.1719 46.8268ZM80.3026 44.491L80.2188 44.4366C79.4368 45.6407 78.4132 46.4027 77.1469 46.73L77.1719 46.8268L77.1969 46.9236C78.5164 46.5826 79.58 45.7874 80.3865 44.5455L80.3026 44.491ZM81.1016 42.9721L81.0086 42.9353C80.8163 43.421 80.5533 43.9214 80.2188 44.4366L80.3026 44.491L80.3865 44.5455C80.7271 44.021 80.9967 43.5088 81.1945 43.0089L81.1016 42.9721ZM81.5136 41.4465L81.4147 41.4315C81.3362 41.9483 81.2008 42.4495 81.0086 42.9353L81.1016 42.9721L81.1945 43.0089C81.3924 42.5091 81.5317 41.9932 81.6125 41.4615L81.5136 41.4465ZM81.5549 40.1529L81.455 40.1577C81.4783 40.6357 81.4645 41.0607 81.4145 41.4332L81.5136 41.4465L81.6127 41.4598C81.6647 41.0726 81.6785 40.6352 81.6548 40.148L81.5549 40.1529ZM79.1025 37.3865L79.1569 37.3026L77.77 36.4019L77.7155 36.4858L77.6611 36.5697L79.048 37.4704L79.1025 37.3865ZM79.4272 39.1868L79.5253 39.2066C79.6015 38.8276 79.6348 38.4562 79.6248 38.0925L79.5248 38.0952L79.4249 38.098C79.4344 38.4456 79.4027 38.802 79.3292 39.1671L79.4272 39.1868ZM78.8641 40.6062L78.948 40.6607C79.2236 40.2362 79.4157 39.7511 79.5253 39.2066L79.4272 39.1868L79.3292 39.1671C79.2241 39.6895 79.0408 40.1506 78.7803 40.5517L78.8641 40.6062ZM78.0106 41.6821L78.0755 41.7582C78.3185 41.5509 78.6094 41.182 78.948 40.6607L78.8641 40.6062L78.7803 40.5517C78.4437 41.07 78.1656 41.4184 77.9457 41.606L78.0106 41.6821ZM77.2628 42.0931L77.2903 42.1892C77.5724 42.1084 77.8342 41.964 78.0755 41.7582L78.0106 41.6821L77.9457 41.606C77.724 41.7951 77.4873 41.9247 77.2352 41.9969L77.2628 42.0931ZM76.5578 42.1243L76.5273 42.2195C76.7508 42.2911 77.0078 42.2766 77.2923 42.1886L77.2628 42.0931L77.2332 41.9975C76.9737 42.0778 76.7607 42.0842 76.5883 42.0291L76.5578 42.1243ZM75.8596 41.7687L75.8051 41.8525C76.0766 42.0288 76.3177 42.1525 76.5273 42.2195L76.5578 42.1243L76.5883 42.0291C76.402 41.9695 76.1776 41.856 75.914 41.6848L75.8596 41.7687ZM75.0914 40.8052L74.9952 40.8324C75.1101 41.2399 75.3844 41.5793 75.8051 41.8525L75.8596 41.7687L75.914 41.6848C75.5244 41.4318 75.2866 41.1289 75.1877 40.7781L75.0914 40.8052ZM75.1381 39.4907L75.0418 39.4639C74.9003 39.9734 74.8819 40.4309 74.9952 40.8324L75.0914 40.8052L75.1877 40.7781C75.087 40.4212 75.0998 40.0023 75.2345 39.5174L75.1381 39.4907ZM75.8178 37.8291L75.7279 37.7853C75.3854 38.4889 75.1556 39.0494 75.0417 39.4642L75.1381 39.4907L75.2346 39.5171C75.3435 39.1203 75.5668 38.573 75.9077 37.8729L75.8178 37.8291ZM76.3019 36.8564L76.2128 36.811C76.054 37.1226 75.8924 37.4474 75.7279 37.7853L75.8178 37.8291L75.9077 37.8729C76.0717 37.5359 76.2328 37.2122 76.391 36.9018L76.3019 36.8564ZM74.3318 34.2558L74.2774 34.3397C74.2714 34.3358 74.2697 34.3282 74.2731 34.3222L74.3599 34.3718L74.4468 34.4213C74.4958 34.3354 74.4694 34.2259 74.3863 34.1719L74.3318 34.2558ZM68.6017 40.9708L68.6856 41.0253C68.7178 40.9756 68.7403 40.9208 68.7528 40.8635L68.6551 40.8422L68.5574 40.8209C68.5499 40.8552 68.5366 40.8875 68.5178 40.9164L68.6017 40.9708ZM68.0757 41.0826L68.0212 41.1665C68.2437 41.311 68.5411 41.2477 68.6856 41.0253L68.6017 40.9708L68.5178 40.9164C68.4335 41.0462 68.2599 41.0831 68.1301 40.9988L68.0757 41.0826ZM65.5536 38.5488L65.4606 38.512C65.2751 38.9814 65.4609 39.5038 65.8793 39.7755L65.9338 39.6917L65.9882 39.6078C65.6447 39.3847 65.4982 38.9611 65.6466 38.5855L65.5536 38.5488ZM77.7155 36.4858L77.77 36.4019C77.2312 36.052 76.5057 36.2359 76.2128 36.811L76.3019 36.8564L76.391 36.9018C76.6287 36.4351 77.2193 36.2828 77.6611 36.5697L77.7155 36.4858ZM84.9615 36.564L85.0453 36.6184C85.3762 36.1089 85.2314 35.4277 84.7219 35.0968L84.6674 35.1807L84.613 35.2645C85.0298 35.5353 85.1483 36.0927 84.8776 36.5095L84.9615 36.564ZM79.1025 37.3865L79.048 37.4704C79.2702 37.6147 79.4179 37.8446 79.4249 38.098L79.5248 38.0952L79.6248 38.0925C79.6157 37.7623 79.4243 37.4763 79.1569 37.3026L79.1025 37.3865ZM82.395 39.5247L82.3406 39.6086C82.6369 39.8011 83.0332 39.7168 83.2257 39.4205L83.1418 39.366L83.0579 39.3115C82.9256 39.5153 82.6532 39.5732 82.4495 39.4409L82.395 39.5247ZM81.5482 40.0178L81.6481 40.0128C81.6297 39.6469 82.0363 39.411 82.3406 39.6086L82.395 39.5247L82.4495 39.4409C82.0054 39.1524 81.4219 39.4974 81.4483 40.0228L81.5482 40.0178Z" fill="url(#paint9_linear_0_185)" style="mix-blend-mode:exclusion"/>
<g filter="url(#filter5_i_0_185)">
<path d="M86.6022 5.84714C86.9691 5.28217 87.7783 5.23422 88.2094 5.7519L97.1549 16.4952C97.4353 16.832 97.4637 17.3122 97.225 17.6797L95.1863 20.8192C94.9462 21.1888 94.4924 21.3577 94.0691 21.235L87.5998 19.3593C86.6469 19.083 85.9167 20.2134 86.5603 20.9685L90.9174 26.0796C91.2045 26.4164 91.2361 26.9018 90.9951 27.273L88.9222 30.465C88.683 30.8334 88.2315 31.0025 87.8091 30.882L74.3756 27.0497C73.7288 26.8652 73.445 26.1076 73.8113 25.5435L75.4629 23.0003C75.7131 22.6149 76.1939 22.4497 76.6282 22.5998L82.8037 24.7344C83.7606 25.0652 84.5467 23.9277 83.899 23.1495L79.5771 17.9572C79.2968 17.6204 79.2684 17.1403 79.507 16.7728L81.0737 14.3604C81.3152 13.9885 81.7728 13.82 82.1978 13.9466L88.4937 15.8219C89.4731 16.1136 90.2077 14.9219 89.5072 14.178L85.1244 9.52338C84.8084 9.18782 84.7627 8.67976 85.0137 8.2932L86.6022 5.84714Z" fill="url(#paint10_linear_0_185)" fill-opacity="0.5"/>
</g>
<path d="M86.6022 5.84714C86.9691 5.28217 87.7783 5.23422 88.2094 5.7519L97.1549 16.4952C97.4353 16.832 97.4637 17.3122 97.225 17.6797L95.1863 20.8192C94.9462 21.1888 94.4924 21.3577 94.0691 21.235L87.5998 19.3593C86.6469 19.083 85.9167 20.2134 86.5603 20.9685L90.9174 26.0796C91.2045 26.4164 91.2361 26.9018 90.9951 27.273L88.9222 30.465C88.683 30.8334 88.2315 31.0025 87.8091 30.882L74.3756 27.0497C73.7288 26.8652 73.445 26.1076 73.8113 25.5435L75.4629 23.0003C75.7131 22.6149 76.1939 22.4497 76.6282 22.5998L82.8037 24.7344C83.7606 25.0652 84.5467 23.9277 83.899 23.1495L79.5771 17.9572C79.2968 17.6204 79.2684 17.1403 79.507 16.7728L81.0737 14.3604C81.3152 13.9885 81.7728 13.82 82.1978 13.9466L88.4937 15.8219C89.4731 16.1136 90.2077 14.9219 89.5072 14.178L85.1244 9.52338C84.8084 9.18782 84.7627 8.67976 85.0137 8.2932L86.6022 5.84714Z" stroke="url(#paint11_linear_0_185)" stroke-width="0.2" style="mix-blend-mode:exclusion"/>
<g filter="url(#filter6_i_0_185)">
<path fill-rule="evenodd" clip-rule="evenodd" d="M11.3132 122.328C10.8361 122.018 10.8069 121.375 11.0893 120.94C11.3717 120.505 11.874 120.42 12.3511 120.729C12.827 121.038 12.9572 121.535 12.6748 121.969C12.3924 122.404 11.7892 122.637 11.3132 122.328ZM19.8112 118.973C19.4949 118.767 19.366 118.269 19.5536 117.98C19.8386 117.541 20.3434 117.461 20.6598 117.666C20.9806 117.874 21.1077 118.365 20.8226 118.804C20.635 119.093 20.1321 119.181 19.8112 118.973Z" fill="url(#paint12_linear_0_185)" fill-opacity="0.5"/>
</g>
<path d="M20.8226 118.804L20.7388 118.75L20.7388 118.75L20.8226 118.804ZM11.0893 120.94L11.0054 120.885C10.7021 121.352 10.7224 122.063 11.2588 122.411L11.3132 122.328L11.3677 122.244C10.9498 121.972 10.9117 121.397 11.1732 120.994L11.0893 120.94ZM12.3511 120.729L12.4055 120.646C12.1501 120.48 11.8803 120.415 11.6306 120.457C11.3799 120.499 11.1604 120.647 11.0054 120.885L11.0893 120.94L11.1732 120.994C11.3006 120.798 11.4734 120.686 11.6637 120.654C11.8551 120.622 12.0749 120.669 12.2966 120.813L12.3511 120.729ZM12.6748 121.969L12.7586 122.024C12.9138 121.785 12.9585 121.523 12.8941 121.277C12.8299 121.032 12.6604 120.811 12.4055 120.646L12.3511 120.729L12.2966 120.813C12.5177 120.957 12.6513 121.139 12.7006 121.328C12.7496 121.515 12.7181 121.719 12.5909 121.915L12.6748 121.969ZM11.3132 122.328L11.2588 122.411C11.7935 122.759 12.455 122.492 12.7586 122.024L12.6748 121.969L12.5909 121.915C12.3298 122.317 11.7849 122.515 11.3677 122.244L11.3132 122.328ZM19.5536 117.98L19.4698 117.926C19.3564 118.1 19.3435 118.328 19.3966 118.533C19.4499 118.738 19.5737 118.938 19.7568 119.056L19.8112 118.973L19.8657 118.889C19.7324 118.802 19.6335 118.65 19.5902 118.483C19.5467 118.315 19.5633 118.149 19.6375 118.035L19.5536 117.98ZM20.6598 117.666L20.7142 117.582C20.3467 117.343 19.7816 117.446 19.4698 117.926L19.5536 117.98L19.6375 118.035C19.8957 117.637 20.3401 117.578 20.6053 117.75L20.6598 117.666ZM20.8226 118.804L20.9065 118.859C21.2181 118.379 21.0866 117.824 20.7142 117.582L20.6598 117.666L20.6053 117.75C20.8746 117.925 20.9972 118.352 20.7388 118.75L20.8226 118.804ZM19.8112 118.973L19.7568 119.056C19.9419 119.177 20.1743 119.209 20.3836 119.174C20.592 119.138 20.7934 119.033 20.9065 118.859L20.8226 118.804L20.7388 118.75C20.6643 118.865 20.5204 118.948 20.3502 118.976C20.1809 119.005 20.0014 118.977 19.8657 118.889L19.8112 118.973Z" fill="url(#paint13_linear_0_185)"/>
<g filter="url(#filter7_i_0_185)">
<path fill-rule="evenodd" clip-rule="evenodd" d="M17.519 104.895C15.8264 103.796 13.5638 104.277 12.4646 105.969L3.3733 119.969C2.27414 121.661 2.75509 123.924 4.44765 125.023L18.447 134.114C20.1396 135.214 22.4022 134.733 23.5014 133.04L32.5927 119.041C33.6919 117.348 33.2109 115.085 31.5184 113.986L17.519 104.895ZM19.7064 124.063C19.2994 124.69 18.8518 125.144 18.3437 125.66L18.3436 125.66C18.3239 125.68 18.3042 125.7 18.2844 125.72C18.1286 125.878 18.0313 126.084 18.0067 126.305L17.9269 127.02C17.8562 127.653 17.0547 127.885 16.6569 127.387V127.387C16.4593 127.14 16.1234 127.054 15.8238 127.157C13.986 127.784 12.2366 127.72 10.7289 126.741C7.88189 124.892 7.38988 120.742 9.52597 117.452C11.2869 114.741 14.3682 113.327 16.991 113.942C17.3208 114.02 17.4243 114.413 17.2398 114.697V114.697C15.3939 117.539 16.0573 121.162 18.6716 122.86C18.9131 123.017 19.1632 123.149 19.4193 123.261C19.7346 123.398 19.8937 123.775 19.7064 124.063V124.063ZM28.0472 117.805C28.5144 117.554 28.4415 116.862 27.9322 116.714V116.714C27.6934 116.644 27.5253 116.433 27.4975 116.185C27.314 114.558 26.6952 113.073 25.4502 112.264C23.0578 110.711 19.553 111.838 17.8069 114.527C15.958 117.374 16.4519 120.883 18.8443 122.436C21.2408 123.993 24.643 123.014 26.4919 120.167C26.8248 119.654 27.0488 119.066 27.2568 118.468C27.322 118.281 27.4543 118.124 27.629 118.03L28.0472 117.805Z" fill="url(#paint14_linear_0_185)" fill-opacity="0.5"/>
</g>
<path d="M12.4646 105.969L12.5485 106.024L12.4646 105.969ZM17.519 104.895L17.4645 104.979L17.519 104.895ZM3.3733 119.969L3.28943 119.914L3.3733 119.969ZM23.5014 133.04L23.4175 132.986L23.5014 133.04ZM32.5927 119.041L32.6766 119.095L32.5927 119.041ZM31.5184 113.986L31.5728 113.902L31.5184 113.986ZM18.3437 125.66L18.2725 125.589L18.272 125.59L18.3437 125.66ZM18.3436 125.66L18.4148 125.73L18.4152 125.729L18.3436 125.66ZM25.4502 112.264L25.5046 112.18L25.5046 112.18L25.4502 112.264ZM27.629 118.03L27.5816 117.942L27.629 118.03ZM28.0472 117.805L28.0946 117.893L28.0472 117.805ZM27.4975 116.185L27.5968 116.174L27.4975 116.185ZM19.4193 123.261L19.3794 123.353L19.4193 123.261ZM15.8238 127.157L15.7914 127.062L15.8238 127.157ZM17.9269 127.02L18.0263 127.031L17.9269 127.02ZM16.991 113.942L17.0138 113.845L16.991 113.942ZM18.2844 125.72L18.2132 125.649L18.2844 125.72ZM18.0067 126.305L17.9073 126.294L18.0067 126.305ZM12.4646 105.969L12.5485 106.024C13.6176 104.378 15.8183 103.91 17.4645 104.979L17.519 104.895L17.5735 104.811C15.8346 103.682 13.51 104.176 12.3808 105.915L12.4646 105.969ZM3.3733 119.969L3.45717 120.023L12.5485 106.024L12.4646 105.969L12.3808 105.915L3.28943 119.914L3.3733 119.969ZM4.44765 125.023L4.50212 124.939C2.85587 123.87 2.38808 121.669 3.45717 120.023L3.3733 119.969L3.28943 119.914C2.16019 121.653 2.65431 123.978 4.39319 125.107L4.44765 125.023ZM18.447 134.114L18.5015 134.031L4.50212 124.939L4.44765 125.023L4.39319 125.107L18.3926 134.198L18.447 134.114ZM23.5014 133.04L23.4175 132.986C22.3484 134.632 20.1478 135.1 18.5015 134.031L18.447 134.114L18.3926 134.198C20.1315 135.328 22.456 134.833 23.5853 133.095L23.5014 133.04ZM32.5927 119.041L32.5088 118.986L23.4175 132.986L23.5014 133.04L23.5853 133.095L32.6766 119.095L32.5927 119.041ZM31.5184 113.986L31.4639 114.07C33.1102 115.139 33.5779 117.34 32.5088 118.986L32.5927 119.041L32.6766 119.095C33.8058 117.356 33.3117 115.032 31.5728 113.902L31.5184 113.986ZM17.519 104.895L17.4645 104.979L31.4639 114.07L31.5184 113.986L31.5728 113.902L17.5735 104.811L17.519 104.895ZM18.3437 125.66L18.4149 125.73C18.9224 125.215 19.3769 124.754 19.7903 124.118L19.7064 124.063L19.6225 124.009C19.2218 124.626 18.7812 125.073 18.2725 125.589L18.3437 125.66ZM18.3436 125.66L18.4152 125.729L18.4154 125.729L18.3437 125.66L18.272 125.59L18.2719 125.59L18.3436 125.66ZM18.2844 125.72L18.3557 125.79C18.3755 125.77 18.3952 125.75 18.4148 125.73L18.3436 125.66L18.2724 125.589C18.2527 125.609 18.233 125.629 18.2132 125.649L18.2844 125.72ZM17.9269 127.02L18.0263 127.031L18.1061 126.316L18.0067 126.305L17.9073 126.294L17.8275 127.009L17.9269 127.02ZM10.7289 126.741L10.6745 126.825C12.2142 127.825 13.9972 127.886 15.8561 127.251L15.8238 127.157L15.7914 127.062C13.9748 127.682 12.2591 127.615 10.7834 126.657L10.7289 126.741ZM9.52597 117.452L9.4421 117.398C7.28491 120.72 7.7684 124.937 10.6745 126.825L10.7289 126.741L10.7834 126.657C7.99538 124.846 7.49485 120.764 9.60983 117.507L9.52597 117.452ZM16.991 113.942L17.0138 113.845C14.3417 113.218 11.221 114.659 9.4421 117.398L9.52597 117.452L9.60983 117.507C11.3529 114.823 14.3947 113.436 16.9682 114.04L16.991 113.942ZM18.6716 122.86L18.7261 122.776C16.1633 121.112 15.5044 117.553 17.3236 114.752L17.2398 114.697L17.1559 114.643C15.2835 117.526 15.9514 121.212 18.6171 122.944L18.6716 122.86ZM19.4193 123.261L19.4593 123.169C19.2079 123.06 18.9627 122.93 18.7261 122.776L18.6716 122.86L18.6171 122.944C18.8635 123.104 19.1185 123.239 19.3794 123.353L19.4193 123.261ZM25.4502 112.264L25.3957 112.348C26.6051 113.134 27.2163 114.583 27.3981 116.197L27.4975 116.185L27.5968 116.174C27.4118 114.532 26.7853 113.012 25.5046 112.18L25.4502 112.264ZM17.8069 114.527L17.8908 114.581C19.616 111.925 23.0626 110.833 25.3957 112.348L25.4502 112.264L25.5046 112.18C23.053 110.588 19.4901 111.752 17.723 114.473L17.8069 114.527ZM18.8443 122.436L18.8988 122.353C16.5643 120.837 16.0638 117.395 17.8908 114.581L17.8069 114.527L17.723 114.473C15.8522 117.353 16.3396 120.929 18.7898 122.52L18.8443 122.436ZM26.4919 120.167L26.408 120.113C24.5811 122.926 21.2373 123.871 18.8988 122.353L18.8443 122.436L18.7898 122.52C21.2443 124.114 24.7049 123.102 26.5758 120.222L26.4919 120.167ZM27.2568 118.468L27.1624 118.435C26.9545 119.032 26.7338 119.611 26.408 120.113L26.4919 120.167L26.5758 120.222C26.9158 119.698 27.1431 119.099 27.3513 118.501L27.2568 118.468ZM28.0472 117.805L27.9999 117.717L27.5816 117.942L27.629 118.03L27.6764 118.118L28.0946 117.893L28.0472 117.805ZM27.2568 118.468L27.3513 118.501C27.4083 118.337 27.5241 118.2 27.6764 118.118L27.629 118.03L27.5816 117.942C27.3846 118.048 27.2357 118.225 27.1624 118.435L27.2568 118.468ZM27.9322 116.714L27.9042 116.81C28.3277 116.933 28.3883 117.508 27.9999 117.717L28.0472 117.805L28.0946 117.893C28.6406 117.599 28.5554 116.791 27.9602 116.618L27.9322 116.714ZM27.9322 116.714L27.9602 116.618C27.7625 116.56 27.6205 116.384 27.5968 116.174L27.4975 116.185L27.3981 116.197C27.4302 116.481 27.6242 116.728 27.9042 116.81L27.9322 116.714ZM19.4193 123.261L19.3794 123.353C19.6515 123.471 19.7686 123.784 19.6225 124.009L19.7064 124.063L19.7903 124.118C20.0188 123.766 19.8177 123.325 19.4593 123.169L19.4193 123.261ZM16.6569 127.387L16.735 127.325C16.5091 127.042 16.1278 126.947 15.7914 127.062L15.8238 127.157L15.8561 127.251C16.1189 127.162 16.4096 127.237 16.5787 127.449L16.6569 127.387ZM17.9269 127.02L17.8275 127.009C17.7667 127.554 17.0772 127.753 16.735 127.325L16.6569 127.387L16.5787 127.449C17.0322 128.017 17.9457 127.753 18.0263 127.031L17.9269 127.02ZM16.991 113.942L16.9682 114.04C17.0949 114.069 17.1779 114.158 17.2126 114.271C17.2479 114.386 17.2322 114.525 17.1559 114.643L17.2398 114.697L17.3236 114.752C17.4318 114.585 17.4566 114.385 17.4038 114.213C17.3505 114.039 17.2169 113.892 17.0138 113.845L16.991 113.942ZM18.2844 125.72L18.2132 125.649C18.0414 125.824 17.9344 126.051 17.9073 126.294L18.0067 126.305L18.1061 126.316C18.1283 126.117 18.2158 125.932 18.3557 125.79L18.2844 125.72Z" fill="url(#paint15_linear_0_185)"/>
<g filter="url(#filter8_i_0_185)">
<path fill-rule="evenodd" clip-rule="evenodd" d="M15.079 116.529C15.555 116.838 15.6842 117.335 15.3991 117.774C15.1153 118.211 14.5123 118.443 14.0364 118.134C13.5592 117.824 13.5298 117.182 13.8136 116.745C14.0987 116.306 14.6019 116.219 15.079 116.529ZM21.9882 115.62C21.6718 115.415 21.5425 114.918 21.7298 114.629C22.0136 114.192 22.5219 114.106 22.8383 114.311C23.1591 114.52 23.2826 115.016 22.9988 115.453C22.8115 115.742 22.309 115.829 21.9882 115.62Z" fill="url(#paint16_linear_0_185)" fill-opacity="0.5"/>
</g>
<path d="M22.9988 115.453L22.9149 115.399L22.9149 115.399L22.9988 115.453ZM15.3991 117.774L15.4829 117.829C15.6393 117.588 15.6851 117.325 15.6213 117.078C15.5578 116.831 15.3884 116.61 15.1334 116.445L15.079 116.529L15.0245 116.613C15.2455 116.756 15.3788 116.938 15.4276 117.128C15.4762 117.316 15.4439 117.522 15.3152 117.72L15.3991 117.774ZM14.0364 118.134L13.9819 118.218C14.5168 118.565 15.1779 118.298 15.4829 117.829L15.3991 117.774L15.3152 117.72C15.0526 118.124 14.5079 118.321 14.0908 118.05L14.0364 118.134ZM13.8136 116.745L13.7297 116.69C13.425 117.159 13.4455 117.87 13.9819 118.218L14.0364 118.134L14.0908 118.05C13.673 117.779 13.6345 117.204 13.8975 116.799L13.8136 116.745ZM15.079 116.529L15.1334 116.445C14.8779 116.279 14.6077 116.214 14.3574 116.257C14.1061 116.3 13.8859 116.45 13.7297 116.69L13.8136 116.745L13.8975 116.799C14.0264 116.601 14.2003 116.487 14.3912 116.454C14.583 116.422 14.8029 116.469 15.0245 116.613L15.079 116.529ZM21.7298 114.629L21.6459 114.575C21.5326 114.749 21.5201 114.977 21.5733 115.181C21.6268 115.386 21.7507 115.585 21.9337 115.704L21.9882 115.62L22.0426 115.537C21.9093 115.45 21.8103 115.297 21.7669 115.131C21.7232 114.963 21.7396 114.798 21.8136 114.684L21.7298 114.629ZM22.8383 114.311L22.8928 114.227C22.5245 113.988 21.9561 114.097 21.6459 114.575L21.7298 114.629L21.8136 114.684C22.0711 114.287 22.5193 114.223 22.7838 114.395L22.8383 114.311ZM22.9988 115.453L23.0826 115.508C23.3926 115.03 23.2658 114.47 22.8928 114.227L22.8383 114.311L22.7838 114.395C23.0525 114.57 23.1726 115.002 22.9149 115.399L22.9988 115.453ZM21.9882 115.62L21.9337 115.704C22.1188 115.824 22.351 115.857 22.5601 115.822C22.7684 115.787 22.9696 115.682 23.0826 115.508L22.9988 115.453L22.9149 115.399C22.8407 115.513 22.697 115.596 22.527 115.624C22.3579 115.653 22.1784 115.625 22.0426 115.537L21.9882 115.62Z" fill="url(#paint17_linear_0_185)"/>
<defs>
<filter id="filter0_i_0_185" x="19.0857" y="91.2826" width="24.9083" height="20.4008" filterUnits="userSpaceOnUse" color-interpolation-filters="sRGB">
<feFlood flood-opacity="0" result="BackgroundImageFix"/>
<feBlend mode="normal" in="SourceGraphic" in2="BackgroundImageFix" result="shape"/>
<feColorMatrix in="SourceAlpha" type="matrix" values="0 0 0 0 0 0 0 0 0 0 0 0 0 0 0 0 0 0 127 0" result="hardAlpha"/>
<feOffset dx="1" dy="1"/>
<feGaussianBlur stdDeviation="0.5"/>
<feComposite in2="hardAlpha" operator="arithmetic" k2="-1" k3="1"/>
<feColorMatrix type="matrix" values="0 0 0 0 0.201489 0 0 0 0 0.391578 0 0 0 0 0.719914 0 0 0 0.5 0"/>
<feBlend mode="normal" in2="shape" result="effect1_innerShadow_0_185"/>
</filter>
<filter id="filter1_i_0_185" x="32.5913" y="66.5253" width="24.937" height="26.7288" filterUnits="userSpaceOnUse" color-interpolation-filters="sRGB">
<feFlood flood-opacity="0" result="BackgroundImageFix"/>
<feBlend mode="normal" in="SourceGraphic" in2="BackgroundImageFix" result="shape"/>
<feColorMatrix in="SourceAlpha" type="matrix" values="0 0 0 0 0 0 0 0 0 0 0 0 0 0 0 0 0 0 127 0" result="hardAlpha"/>
<feOffset dx="1" dy="1"/>
<feGaussianBlur stdDeviation="0.5"/>
<feComposite in2="hardAlpha" operator="arithmetic" k2="-1" k3="1"/>
<feColorMatrix type="matrix" values="0 0 0 0 0.201489 0 0 0 0 0.391578 0 0 0 0 0.719914 0 0 0 0.5 0"/>
<feBlend mode="normal" in2="shape" result="effect1_innerShadow_0_185"/>
</filter>
<filter id="filter2_i_0_185" x="46.3191" y="51.8812" width="19.5234" height="20.0717" filterUnits="userSpaceOnUse" color-interpolation-filters="sRGB">
<feFlood flood-opacity="0" result="BackgroundImageFix"/>
<feBlend mode="normal" in="SourceGraphic" in2="BackgroundImageFix" result="shape"/>
<feColorMatrix in="SourceAlpha" type="matrix" values="0 0 0 0 0 0 0 0 0 0 0 0 0 0 0 0 0 0 127 0" result="hardAlpha"/>
<feOffset dx="1" dy="1"/>
<feGaussianBlur stdDeviation="0.5"/>
<feComposite in2="hardAlpha" operator="arithmetic" k2="-1" k3="1"/>
<feColorMatrix type="matrix" values="0 0 0 0 0.201489 0 0 0 0 0.391578 0 0 0 0 0.719914 0 0 0 0.5 0"/>
<feBlend mode="normal" in2="shape" result="effect1_innerShadow_0_185"/>
</filter>
<filter id="filter3_i_0_185" x="56.1747" y="41.7252" width="20.9872" height="20.7665" filterUnits="userSpaceOnUse" color-interpolation-filters="sRGB">
<feFlood flood-opacity="0" result="BackgroundImageFix"/>
<feBlend mode="normal" in="SourceGraphic" in2="BackgroundImageFix" result="shape"/>
<feColorMatrix in="SourceAlpha" type="matrix" values="0 0 0 0 0 0 0 0 0 0 0 0 0 0 0 0 0 0 127 0" result="hardAlpha"/>
<feOffset dx="1" dy="1"/>
<feGaussianBlur stdDeviation="0.5"/>
<feComposite in2="hardAlpha" operator="arithmetic" k2="-1" k3="1"/>
<feColorMatrix type="matrix" values="0 0 0 0 0.201489 0 0 0 0 0.391578 0 0 0 0 0.719914 0 0 0 0.5 0"/>
<feBlend mode="normal" in2="shape" result="effect1_innerShadow_0_185"/>
</filter>
<filter id="filter4_i_0_185" x="65.3888" y="28.98" width="20.8341" height="19.0992" filterUnits="userSpaceOnUse" color-interpolation-filters="sRGB">
<feFlood flood-opacity="0" result="BackgroundImageFix"/>
<feBlend mode="normal" in="SourceGraphic" in2="BackgroundImageFix" result="shape"/>
<feColorMatrix in="SourceAlpha" type="matrix" values="0 0 0 0 0 0 0 0 0 0 0 0 0 0 0 0 0 0 127 0" result="hardAlpha"/>
<feOffset dx="1" dy="1"/>
<feGaussianBlur stdDeviation="0.5"/>
<feComposite in2="hardAlpha" operator="arithmetic" k2="-1" k3="1"/>
<feColorMatrix type="matrix" values="0 0 0 0 0.201489 0 0 0 0 0.391578 0 0 0 0 0.719914 0 0 0 0.5 0"/>
<feBlend mode="normal" in2="shape" result="effect1_innerShadow_0_185"/>
</filter>
<filter id="filter5_i_0_185" x="73.5493" y="5.29175" width="24.937" height="26.7288" filterUnits="userSpaceOnUse" color-interpolation-filters="sRGB">
<feFlood flood-opacity="0" result="BackgroundImageFix"/>
<feBlend mode="normal" in="SourceGraphic" in2="BackgroundImageFix" result="shape"/>
<feColorMatrix in="SourceAlpha" type="matrix" values="0 0 0 0 0 0 0 0 0 0 0 0 0 0 0 0 0 0 127 0" result="hardAlpha"/>
<feOffset dx="1" dy="1"/>
<feGaussianBlur stdDeviation="0.5"/>
<feComposite in2="hardAlpha" operator="arithmetic" k2="-1" k3="1"/>
<feColorMatrix type="matrix" values="0 0 0 0 0.201489 0 0 0 0 0.391578 0 0 0 0 0.719914 0 0 0 0.5 0"/>
<feBlend mode="normal" in2="shape" result="effect1_innerShadow_0_185"/>
</filter>
<filter id="filter6_i_0_185" x="10.8087" y="117.458" width="11.2722" height="6.11133" filterUnits="userSpaceOnUse" color-interpolation-filters="sRGB">
<feFlood flood-opacity="0" result="BackgroundImageFix"/>
<feBlend mode="normal" in="SourceGraphic" in2="BackgroundImageFix" result="shape"/>
<feColorMatrix in="SourceAlpha" type="matrix" values="0 0 0 0 0 0 0 0 0 0 0 0 0 0 0 0 0 0 127 0" result="hardAlpha"/>
<feOffset dx="1" dy="1"/>
<feGaussianBlur stdDeviation="0.5"/>
<feComposite in2="hardAlpha" operator="arithmetic" k2="-1" k3="1"/>
<feColorMatrix type="matrix" values="0 0 0 0 0.2 0 0 0 0 0.392157 0 0 0 0 0.721569 0 0 0 0.5 0"/>
<feBlend mode="normal" in2="shape" result="effect1_innerShadow_0_185"/>
</filter>
<filter id="filter7_i_0_185" x="2.68335" y="104.205" width="31.5994" height="31.5995" filterUnits="userSpaceOnUse" color-interpolation-filters="sRGB">
<feFlood flood-opacity="0" result="BackgroundImageFix"/>
<feBlend mode="normal" in="SourceGraphic" in2="BackgroundImageFix" result="shape"/>
<feColorMatrix in="SourceAlpha" type="matrix" values="0 0 0 0 0 0 0 0 0 0 0 0 0 0 0 0 0 0 127 0" result="hardAlpha"/>
<feOffset dx="1" dy="1"/>
<feGaussianBlur stdDeviation="0.5"/>
<feComposite in2="hardAlpha" operator="arithmetic" k2="-1" k3="1"/>
<feColorMatrix type="matrix" values="0 0 0 0 0.2 0 0 0 0 0.392157 0 0 0 0 0.721569 0 0 0 0.5 0"/>
<feBlend mode="normal" in2="shape" result="effect1_innerShadow_0_185"/>
</filter>
<filter id="filter8_i_0_185" x="13.532" y="114.105" width="10.7253" height="5.27124" filterUnits="userSpaceOnUse" color-interpolation-filters="sRGB">
<feFlood flood-opacity="0" result="BackgroundImageFix"/>
<feBlend mode="normal" in="SourceGraphic" in2="BackgroundImageFix" result="shape"/>
<feColorMatrix in="SourceAlpha" type="matrix" values="0 0 0 0 0 0 0 0 0 0 0 0 0 0 0 0 0 0 127 0" result="hardAlpha"/>
<feOffset dx="1" dy="1"/>
<feGaussianBlur stdDeviation="0.5"/>
<feComposite in2="hardAlpha" operator="arithmetic" k2="-1" k3="1"/>
<feColorMatrix type="matrix" values="0 0 0 0 0.2 0 0 0 0 0.392157 0 0 0 0 0.721569 0 0 0 0.5 0"/>
<feBlend mode="normal" in2="shape" result="effect1_innerShadow_0_185"/>
</filter>
<linearGradient id="paint0_linear_0_185" x1="18.4733" y1="99.1664" x2="35.9725" y2="111.789" gradientUnits="userSpaceOnUse">
<stop stop-color="#FF0000"/>
<stop offset="1" stop-color="#004EFF"/>
</linearGradient>
<linearGradient id="paint1_linear_0_185" x1="18.8025" y1="99.3801" x2="36.8962" y2="111.13" gradientUnits="userSpaceOnUse">
<stop stop-color="#FF0000"/>
<stop offset="1" stop-color="#0059FF"/>
</linearGradient>
<linearGradient id="paint2_linear_0_185" x1="31.8819" y1="87.7599" x2="44.5912" y2="96.4041" gradientUnits="userSpaceOnUse">
<stop stop-color="#FF0000"/>
<stop offset="1" stop-color="#004EFF"/>
</linearGradient>
<linearGradient id="paint3_linear_0_185" x1="32.1162" y1="87.912" x2="44.9928" y2="96.2741" gradientUnits="userSpaceOnUse">
<stop stop-color="#FF0000"/>
<stop offset="1" stop-color="#0059FF"/>
</linearGradient>
<linearGradient id="paint4_linear_0_185" x1="43.0156" y1="61.1289" x2="60.1412" y2="73.9465" gradientUnits="userSpaceOnUse">
<stop stop-color="#FF0000"/>
<stop offset="1" stop-color="#004EFF"/>
</linearGradient>
<linearGradient id="paint5_linear_0_185" x1="43.3423" y1="61.3411" x2="61.2984" y2="73.0019" gradientUnits="userSpaceOnUse">
<stop stop-color="#FF0000"/>
<stop offset="1" stop-color="#0059FF"/>
</linearGradient>
<linearGradient id="paint6_linear_0_185" x1="55.4785" y1="53.2606" x2="68.029" y2="62.1199" gradientUnits="userSpaceOnUse">
<stop stop-color="#FF0000"/>
<stop offset="1" stop-color="#004EFF"/>
</linearGradient>
<linearGradient id="paint7_linear_0_185" x1="55.7128" y1="53.4127" x2="68.5893" y2="61.7748" gradientUnits="userSpaceOnUse">
<stop stop-color="#FF0000"/>
<stop offset="1" stop-color="#0059FF"/>
</linearGradient>
<linearGradient id="paint8_linear_0_185" x1="63.6682" y1="39.818" x2="76.9142" y2="49.163" gradientUnits="userSpaceOnUse">
<stop stop-color="#FF0000"/>
<stop offset="1" stop-color="#004EFF"/>
</linearGradient>
<linearGradient id="paint9_linear_0_185" x1="63.9154" y1="39.9785" x2="77.5029" y2="48.8023" gradientUnits="userSpaceOnUse">
<stop stop-color="#FF0000"/>
<stop offset="1" stop-color="#0059FF"/>
</linearGradient>
<linearGradient id="paint10_linear_0_185" x1="72.84" y1="26.5263" x2="85.5492" y2="35.1706" gradientUnits="userSpaceOnUse">
<stop stop-color="#FF0000"/>
<stop offset="1" stop-color="#004EFF"/>
</linearGradient>
<linearGradient id="paint11_linear_0_185" x1="73.0742" y1="26.6785" x2="85.9508" y2="35.0406" gradientUnits="userSpaceOnUse">
<stop stop-color="#FF0000"/>
<stop offset="1" stop-color="#0059FF"/>
</linearGradient>
<linearGradient id="paint12_linear_0_185" x1="10.5219" y1="121.814" x2="16.3925" y2="125.626" gradientUnits="userSpaceOnUse">
<stop stop-color="#FF0000"/>
<stop offset="1" stop-color="#0049FF"/>
</linearGradient>
<linearGradient id="paint13_linear_0_185" x1="10.5219" y1="121.814" x2="16.3925" y2="125.626" gradientUnits="userSpaceOnUse">
<stop stop-color="#FF0000"/>
<stop offset="1" stop-color="#0009FF"/>
</linearGradient>
<linearGradient id="paint14_linear_0_185" x1="1.3833" y1="123.033" x2="21.5114" y2="136.104" gradientUnits="userSpaceOnUse">
<stop stop-color="#FF0000"/>
<stop offset="1" stop-color="#0049FF"/>
</linearGradient>
<linearGradient id="paint15_linear_0_185" x1="1.3833" y1="123.033" x2="21.5114" y2="136.104" gradientUnits="userSpaceOnUse">
<stop stop-color="#FF0000"/>
<stop offset="1" stop-color="#0009FF"/>
</linearGradient>
<linearGradient id="paint16_linear_0_185" x1="13.245" y1="117.62" x2="19.1157" y2="121.433" gradientUnits="userSpaceOnUse">
<stop stop-color="#FF0000"/>
<stop offset="1" stop-color="#0049FF"/>
</linearGradient>
<linearGradient id="paint17_linear_0_185" x1="13.245" y1="117.62" x2="19.1157" y2="121.433" gradientUnits="userSpaceOnUse">
<stop stop-color="#FF0000"/>
<stop offset="1" stop-color="#0009FF"/>
</linearGradient>
</defs>
</svg>
