<svg width="153" height="177" viewBox="0 0 153 177" fill="none" xmlns="http://www.w3.org/2000/svg">
<g filter="url(#filter0_i_0_185)">
<path d="M48.6468 44.8563C47.9962 45.3831 48.2391 46.4484 49.0288 46.7261C49.5504 46.9096 50.0504 47.1161 50.5289 47.3458C51.5878 47.854 52.5538 48.6468 53.4263 49.7243C55.0709 51.7552 55.605 53.9115 55.0294 56.1932C54.4537 58.4749 52.8791 60.6587 50.3048 62.7435C47.778 64.7896 45.1523 65.7593 42.4287 65.6519C39.7051 65.5445 37.4976 64.4459 35.8066 62.3577C35.0809 61.4615 34.5395 60.5978 34.182 59.7665C33.913 59.1409 33.7079 58.4949 33.5667 57.8285C33.4964 57.4969 33.1409 57.3007 32.8313 57.4386C32.6198 57.5327 32.3714 57.4731 32.2257 57.2932L29.1061 53.4408C28.7585 53.0116 28.8247 52.3819 29.2539 52.0343L49.9553 35.2707C50.3845 34.9231 51.0142 34.9893 51.3617 35.4185L54.273 39.0136C54.6205 39.4428 54.5543 40.0725 54.1251 40.42L48.6468 44.8563ZM47.6715 50.572C47.2777 50.0858 46.7983 49.6447 46.2336 49.2495C45.8234 48.9625 45.3892 48.7156 44.9313 48.5087C44.6092 48.3632 44.2355 48.4285 43.9609 48.6509L36.884 54.3816C36.5561 54.6472 36.4234 55.0933 36.5974 55.4778C36.6983 55.7005 36.8066 55.9087 36.9223 56.1023C37.1449 56.4746 37.4448 56.8949 37.8231 57.3621C38.9272 58.7256 40.1505 59.4174 41.492 59.4363C42.8334 59.4552 44.3056 58.8154 45.9075 57.5181C47.3375 56.3601 48.2419 55.2252 48.6205 54.1136C48.9991 53.0019 48.6828 51.821 47.6715 50.572Z" fill="url(#paint0_linear_0_185)" fill-opacity="0.5"/>
</g>
<path d="M50.5289 47.3458L50.6371 47.1204L50.6371 47.1204L50.5289 47.3458ZM53.4263 49.7243L53.6206 49.567L53.6206 49.567L53.4263 49.7243ZM55.0294 56.1932L55.2718 56.2544L55.2718 56.2544L55.0294 56.1932ZM50.3048 62.7435L50.4621 62.9378L50.4621 62.9378L50.3048 62.7435ZM42.4287 65.6519L42.4189 65.9017L42.4189 65.9017L42.4287 65.6519ZM35.8066 62.3577L35.6123 62.515L35.6123 62.515L35.8066 62.3577ZM34.182 59.7665L33.9523 59.8652L33.9523 59.8652L34.182 59.7665ZM47.6715 50.572L47.8657 50.4147L47.8657 50.4147L47.6715 50.572ZM46.2336 49.2495L46.377 49.0447L46.3769 49.0447L46.2336 49.2495ZM36.9223 56.1023L36.7077 56.2306L36.7077 56.2306L36.9223 56.1023ZM37.8231 57.3621L37.6288 57.5194L37.6288 57.5194L37.8231 57.3621ZM41.492 59.4363L41.4885 59.6863L41.4885 59.6863L41.492 59.4363ZM45.9075 57.5181L46.0648 57.7124L46.0648 57.7124L45.9075 57.5181ZM48.6205 54.1136L48.8572 54.1942L48.8572 54.1942L48.6205 54.1136ZM36.5974 55.4778L36.8252 55.3747L36.5974 55.4778ZM44.9313 48.5087L45.0342 48.2809L44.9313 48.5087ZM43.9609 48.6509L43.8035 48.4566L43.9609 48.6509ZM32.2257 57.2932L32.0314 57.4505L32.2257 57.2932ZM33.5667 57.8285L33.3221 57.8803L33.5667 57.8285ZM29.1061 53.4408L29.3004 53.2835L29.1061 53.4408ZM49.0288 46.7261L48.9459 46.962C49.4592 47.1425 49.9508 47.3456 50.4207 47.5712L50.5289 47.3458L50.6371 47.1204C50.1501 46.8867 49.6416 46.6766 49.1118 46.4903L49.0288 46.7261ZM50.5289 47.3458L50.4207 47.5712C51.4407 48.0607 52.3787 48.8278 53.2321 49.8816L53.4263 49.7243L53.6206 49.567C52.7289 48.4658 51.7348 47.6473 50.6371 47.1204L50.5289 47.3458ZM53.4263 49.7243L53.2321 49.8816C54.8333 51.8591 55.341 53.9359 54.787 56.1321L55.0294 56.1932L55.2718 56.2544C55.869 53.8872 55.3084 51.6513 53.6206 49.567L53.4263 49.7243ZM55.0294 56.1932L54.787 56.1321C54.229 58.3439 52.6964 60.485 50.1474 62.5492L50.3048 62.7435L50.4621 62.9378C53.0618 60.8325 54.6785 58.606 55.2718 56.2544L55.0294 56.1932ZM50.3048 62.7435L50.1474 62.5492C47.6582 64.5649 45.0902 65.5066 42.4386 65.4021L42.4287 65.6519L42.4189 65.9017C45.2143 66.0119 47.8977 65.0144 50.4621 62.9378L50.3048 62.7435ZM42.4287 65.6519L42.4386 65.4021C39.7858 65.2975 37.6459 64.2317 36.0009 62.2003L35.8066 62.3577L35.6123 62.515C37.3493 64.66 39.6245 65.7915 42.4189 65.9017L42.4287 65.6519ZM35.8066 62.3577L36.0009 62.2003C35.2859 61.3174 34.758 60.4731 34.4117 59.6677L34.182 59.7665L33.9523 59.8652C34.3209 60.7224 34.8759 61.6056 35.6123 62.515L35.8066 62.3577ZM34.182 59.7665L34.4117 59.6677C34.1492 59.0573 33.9491 58.427 33.8113 57.7767L33.5667 57.8285L33.3221 57.8803C33.4668 58.5628 33.6768 59.2245 33.9523 59.8652L34.182 59.7665ZM32.2257 57.2932L32.42 57.1358L29.3004 53.2835L29.1061 53.4408L28.9118 53.5981L32.0314 57.4505L32.2257 57.2932ZM29.2539 52.0343L29.4112 52.2286L50.1126 35.465L49.9553 35.2707L49.7979 35.0764L29.0966 51.84L29.2539 52.0343ZM51.3617 35.4185L51.1675 35.5758L54.0787 39.1709L54.273 39.0136L54.4673 38.8562L51.556 35.2612L51.3617 35.4185ZM54.1251 40.42L53.9678 40.2257L48.4894 44.662L48.6468 44.8563L48.8041 45.0506L54.2825 40.6143L54.1251 40.42ZM47.6715 50.572L47.8657 50.4147C47.4559 49.9086 46.9588 49.4519 46.377 49.0447L46.2336 49.2495L46.0903 49.4543C46.6377 49.8375 47.0995 50.263 47.4772 50.7293L47.6715 50.572ZM46.2336 49.2495L46.3769 49.0447C45.9539 48.7487 45.5062 48.4941 45.0342 48.2809L44.9313 48.5087L44.8284 48.7366C45.2722 48.9371 45.6929 49.1763 46.0903 49.4544L46.2336 49.2495ZM43.9609 48.6509L43.8035 48.4566L36.7267 54.1873L36.884 54.3816L37.0414 54.5759L44.1182 48.8452L43.9609 48.6509ZM36.5974 55.4778L36.3697 55.5809C36.4741 55.8115 36.5867 56.0282 36.7077 56.2306L36.9223 56.1023L37.1369 55.974C37.0264 55.7892 36.9225 55.5895 36.8252 55.3747L36.5974 55.4778ZM36.9223 56.1023L36.7077 56.2306C36.938 56.6159 37.2455 57.0461 37.6288 57.5194L37.8231 57.3621L38.0174 57.2047C37.6441 56.7438 37.3517 56.3333 37.1369 55.974L36.9223 56.1023ZM37.8231 57.3621L37.6288 57.5194C38.7642 58.9215 40.0514 59.6661 41.4885 59.6863L41.492 59.4363L41.4955 59.1863C40.2497 59.1688 39.0903 58.5297 38.0174 57.2047L37.8231 57.3621ZM41.492 59.4363L41.4885 59.6863C42.9126 59.7063 44.4408 59.0276 46.0648 57.7124L45.9075 57.5181L45.7502 57.3239C44.1704 58.6031 42.7542 59.204 41.4955 59.1863L41.492 59.4363ZM45.9075 57.5181L46.0648 57.7124C47.5125 56.5401 48.4571 55.369 48.8572 54.1942L48.6205 54.1136L48.3839 54.033C48.0268 55.0814 47.1626 56.18 45.7502 57.3239L45.9075 57.5181ZM48.6205 54.1136L48.8572 54.1942C49.2731 52.9728 48.9091 51.7032 47.8657 50.4147L47.6715 50.572L47.4772 50.7293C48.4565 51.9388 48.7251 53.0311 48.3839 54.033L48.6205 54.1136ZM36.884 54.3816L36.7267 54.1873C36.3214 54.5155 36.1431 55.0805 36.3697 55.5809L36.5974 55.4778L36.8252 55.3747C36.7036 55.1062 36.7908 54.7788 37.0414 54.5759L36.884 54.3816ZM44.9313 48.5087L45.0342 48.2809C44.6173 48.0926 44.1439 48.181 43.8035 48.4566L43.9609 48.6509L44.1182 48.8452C44.3271 48.676 44.6011 48.6339 44.8284 48.7366L44.9313 48.5087ZM54.273 39.0136L54.0787 39.1709C54.3394 39.4928 54.2897 39.9651 53.9678 40.2257L54.1251 40.42L54.2825 40.6143C54.819 40.1799 54.9017 39.3927 54.4673 38.8562L54.273 39.0136ZM49.0288 46.7261L49.1118 46.4903C48.4815 46.2686 48.3258 45.4379 48.8041 45.0506L48.6468 44.8563L48.4894 44.662C47.6666 45.3284 47.9968 46.6282 48.9459 46.962L49.0288 46.7261ZM49.9553 35.2707L50.1126 35.465C50.4345 35.2043 50.9068 35.2539 51.1675 35.5758L51.3617 35.4185L51.556 35.2612C51.1216 34.7247 50.3345 34.6419 49.7979 35.0764L49.9553 35.2707ZM32.8313 57.4386L32.7296 57.2102C32.6215 57.2583 32.4945 57.2278 32.42 57.1358L32.2257 57.2932L32.0314 57.4505C32.2483 57.7184 32.6181 57.8071 32.933 57.667L32.8313 57.4386ZM33.5667 57.8285L33.8113 57.7767C33.7104 57.3007 33.1948 57.0031 32.7296 57.2102L32.8313 57.4386L32.933 57.667C33.087 57.5984 33.2825 57.6931 33.3221 57.8803L33.5667 57.8285ZM29.1061 53.4408L29.3004 53.2835C29.0397 52.9616 29.0893 52.4893 29.4112 52.2286L29.2539 52.0343L29.0966 51.84C28.5601 52.2745 28.4773 53.0616 28.9118 53.5981L29.1061 53.4408Z" fill="url(#paint1_linear_0_185)" fill-opacity="0.5"/>
<g filter="url(#filter1_i_0_185)">
<path d="M81.214 82.807C81.638 83.3306 81.4335 84.115 80.808 84.365L62.6595 91.6175C62.2525 91.7801 61.787 91.6588 61.5112 91.3182L58.0177 87.0041C57.7403 86.6615 57.7199 86.1778 57.9675 85.8131L63.8526 77.1432C64.4099 76.3223 63.5604 75.2785 62.6434 75.6574L52.9817 79.6489C52.5727 79.8178 52.1013 79.6979 51.8228 79.3539L48.2749 74.9727C47.9985 74.6314 47.9772 74.1497 48.2223 73.7853L59.121 57.58C59.4963 57.0219 60.3046 56.986 60.7279 57.5088L63.762 61.2556C64.0512 61.6128 64.0598 62.121 63.7828 62.4877L57.5695 70.7127C56.9592 71.5205 57.7981 72.6196 58.7383 72.2441L68.5736 68.3157C68.9805 68.1532 69.4459 68.2745 69.7216 68.6151L72.482 72.0238C72.761 72.3684 72.7798 72.8557 72.5281 73.2208L66.6314 81.7728C66.0514 82.6141 66.9577 83.6811 67.8817 83.2447L77.0724 78.9047C77.4892 78.7079 77.9865 78.8214 78.2766 79.1796L81.214 82.807Z" fill="url(#paint2_linear_0_185)" fill-opacity="0.5"/>
</g>
<path d="M81.214 82.807C81.638 83.3306 81.4335 84.115 80.808 84.365L62.6595 91.6175C62.2525 91.7801 61.787 91.6588 61.5112 91.3182L58.0177 87.0041C57.7403 86.6615 57.7199 86.1778 57.9675 85.8131L63.8526 77.1432C64.4099 76.3223 63.5604 75.2785 62.6434 75.6574L52.9817 79.6489C52.5727 79.8178 52.1013 79.6979 51.8228 79.3539L48.2749 74.9727C47.9985 74.6314 47.9772 74.1497 48.2223 73.7853L59.121 57.58C59.4963 57.0219 60.3046 56.986 60.7279 57.5088L63.762 61.2556C64.0512 61.6128 64.0598 62.121 63.7828 62.4877L57.5695 70.7127C56.9592 71.5205 57.7981 72.6196 58.7383 72.2441L68.5736 68.3157C68.9805 68.1532 69.4459 68.2745 69.7216 68.6151L72.482 72.0238C72.761 72.3684 72.7798 72.8557 72.5281 73.2208L66.6314 81.7728C66.0514 82.6141 66.9577 83.6811 67.8817 83.2447L77.0724 78.9047C77.4892 78.7079 77.9865 78.8214 78.2766 79.1796L81.214 82.807Z" stroke="url(#paint3_linear_0_185)" stroke-opacity="0.5" stroke-width="0.5"/>
<g filter="url(#filter2_i_0_185)">
<path d="M95.5461 97.0115C95.3595 97.1626 95.0857 97.1338 94.9346 96.9472C94.9087 96.9152 94.8875 96.8797 94.8713 96.8418C94.7549 96.5681 94.5979 96.2274 94.4005 95.8197C94.189 95.3831 93.9134 94.955 93.5736 94.5355C92.7552 93.5247 92.02 92.9873 91.3681 92.9231C90.7162 92.859 89.8705 93.2477 88.8312 94.0894C88.7601 94.1469 88.7491 94.2512 88.8067 94.3223L91.293 97.3927C91.6406 97.8219 91.5744 98.4516 91.1452 98.7991L89.2096 100.367C88.7804 100.714 88.1507 100.648 87.8031 100.219L85.9809 97.9685C85.6333 97.5393 85.0036 97.4731 84.5744 97.8206L73.5564 106.743C73.1272 107.09 72.4975 107.024 72.1499 106.595L69.239 103C68.8914 102.571 68.9576 101.941 69.3868 101.594L80.4048 92.6716C80.834 92.324 80.9002 91.6943 80.5526 91.2651L80.0276 90.6168C79.68 90.1875 79.7462 89.5578 80.1754 89.2103L82.111 87.6428C82.5402 87.2953 83.1699 87.3615 83.5175 87.7907L84.3128 88.7728C84.5111 89.0177 84.8703 89.0554 85.1152 88.8571C87.0795 87.2665 88.9755 86.5956 90.8031 86.8444C92.6307 87.0932 94.4017 88.276 96.1158 90.3928C96.7336 91.1556 97.2671 91.8682 97.7166 92.5304C97.9763 92.9132 98.2112 93.2765 98.4211 93.6205C98.6732 94.0336 98.5675 94.5648 98.1914 94.8694L95.5461 97.0115Z" fill="url(#paint4_linear_0_185)" fill-opacity="0.5"/>
</g>
<path d="M95.5461 97.0115C95.3595 97.1626 95.0857 97.1338 94.9346 96.9472C94.9087 96.9152 94.8875 96.8797 94.8713 96.8418C94.7549 96.5681 94.5979 96.2274 94.4005 95.8197C94.189 95.3831 93.9134 94.955 93.5736 94.5355C92.7552 93.5247 92.02 92.9873 91.3681 92.9231C90.7162 92.859 89.8705 93.2477 88.8312 94.0894C88.7601 94.1469 88.7491 94.2512 88.8067 94.3223L91.293 97.3927C91.6406 97.8219 91.5744 98.4516 91.1452 98.7991L89.2096 100.367C88.7804 100.714 88.1507 100.648 87.8031 100.219L85.9809 97.9685C85.6333 97.5393 85.0036 97.4731 84.5744 97.8206L73.5564 106.743C73.1272 107.09 72.4975 107.024 72.1499 106.595L69.239 103C68.8914 102.571 68.9576 101.941 69.3868 101.594L80.4048 92.6716C80.834 92.324 80.9002 91.6943 80.5526 91.2651L80.0276 90.6168C79.68 90.1875 79.7462 89.5578 80.1754 89.2103L82.111 87.6428C82.5402 87.2953 83.1699 87.3615 83.5175 87.7907L84.3128 88.7728C84.5111 89.0177 84.8703 89.0554 85.1152 88.8571C87.0795 87.2665 88.9755 86.5956 90.8031 86.8444C92.6307 87.0932 94.4017 88.276 96.1158 90.3928C96.7336 91.1556 97.2671 91.8682 97.7166 92.5304C97.9763 92.9132 98.2112 93.2765 98.4211 93.6205C98.6732 94.0336 98.5675 94.5648 98.1914 94.8694L95.5461 97.0115Z" stroke="url(#paint5_linear_0_185)" stroke-opacity="0.5" stroke-width="0.5"/>
<g filter="url(#filter3_i_0_185)">
<path d="M91.1631 128.485C90.7339 128.833 90.1042 128.767 89.7567 128.337L78.796 114.802C78.4484 114.373 78.5146 113.743 78.9438 113.396L81.1625 111.599C81.3604 111.439 81.6121 111.36 81.8661 111.379L95.0159 112.359C95.8899 112.425 96.4189 111.414 95.8674 110.733L91.3745 105.185C91.0269 104.755 91.0931 104.126 91.5223 103.778L93.7297 101.991C94.1589 101.643 94.7886 101.709 95.1362 102.138L105.691 115.173C106.039 115.602 105.973 116.232 105.544 116.58L103.379 118.332C103.183 118.491 102.934 118.57 102.682 118.553L89.6269 117.669C88.7558 117.61 88.2328 118.618 88.7822 119.296L93.5899 125.233C93.9374 125.663 93.8712 126.292 93.442 126.64L91.1631 128.485Z" fill="url(#paint6_linear_0_185)" fill-opacity="0.5"/>
</g>
<path d="M91.1631 128.485C90.7339 128.833 90.1042 128.767 89.7567 128.337L78.796 114.802C78.4484 114.373 78.5146 113.743 78.9438 113.396L81.1625 111.599C81.3604 111.439 81.6121 111.36 81.8661 111.379L95.0159 112.359C95.8899 112.425 96.4189 111.414 95.8674 110.733L91.3745 105.185C91.0269 104.755 91.0931 104.126 91.5223 103.778L93.7297 101.991C94.1589 101.643 94.7886 101.709 95.1362 102.138L105.691 115.173C106.039 115.602 105.973 116.232 105.544 116.58L103.379 118.332C103.183 118.491 102.934 118.57 102.682 118.553L89.6269 117.669C88.7558 117.61 88.2328 118.618 88.7822 119.296L93.5899 125.233C93.9374 125.663 93.8712 126.292 93.442 126.64L91.1631 128.485Z" stroke="url(#paint7_linear_0_185)" stroke-opacity="0.5" stroke-width="0.5"/>
<g filter="url(#filter4_i_0_185)">
<path fill-rule="evenodd" clip-rule="evenodd" d="M100.455 139.619C100.515 139.635 100.573 139.651 100.631 139.667C101.211 139.823 101.377 140.578 100.91 140.956C100.598 141.208 100.55 141.666 100.802 141.978L103.851 145.742C104.198 146.171 104.828 146.238 105.257 145.89L115.407 137.67C117.334 136.111 118.22 134.315 118.067 132.284C117.914 130.253 116.653 127.773 114.282 124.846C113.286 123.616 112.194 122.467 111.006 121.4C110.176 120.654 109.493 120.065 108.959 119.631C108.606 119.345 108.104 119.358 107.751 119.644L104.872 121.975C104.652 122.153 104.618 122.475 104.796 122.695C104.836 122.744 104.884 122.785 104.939 122.817C105.443 123.112 106.207 123.6 107.229 124.281C108.31 125.001 109.193 125.786 109.881 126.634C111.023 128.045 111.719 129.25 111.967 130.249C112.216 131.248 111.896 132.106 111.01 132.825C110.961 132.864 110.891 132.858 110.85 132.812C109.561 131.396 108.267 130.068 106.968 128.827C105.644 127.563 104.381 126.628 103.18 126.021C101.971 125.406 100.782 125.137 99.6137 125.215C98.4452 125.293 97.2746 125.806 96.1018 126.756C94.6333 127.945 93.8441 129.437 93.734 131.231C93.6239 133.025 94.1866 134.685 95.4221 136.211C95.9471 136.859 96.4846 137.411 97.0343 137.866C97.5841 138.32 98.1781 138.708 98.8161 139.028C99.2812 139.251 99.8275 139.448 100.455 139.619ZM107.126 134.531C107.537 134.947 107.493 135.625 107.039 135.992L104.893 137.73C104.666 137.914 104.369 137.994 104.087 137.919C103.575 137.783 103.072 137.575 102.577 137.297C101.939 136.937 101.411 136.5 100.994 135.985C100.469 135.337 100.128 134.824 99.9717 134.445C99.8152 134.067 99.7435 133.69 99.7566 133.317C99.762 132.933 99.8464 132.628 100.01 132.401C100.173 132.174 100.422 131.925 100.756 131.655C101.261 131.246 101.779 131.052 102.309 131.073C102.839 131.093 103.393 131.296 103.972 131.679C104.445 131.991 105.06 132.511 105.817 133.241C106.278 133.686 106.715 134.116 107.126 134.531Z" fill="url(#paint8_linear_0_185)" fill-opacity="0.5"/>
</g>
<path d="M100.455 139.619L100.521 139.378L100.521 139.378L100.455 139.619ZM118.067 132.284L118.317 132.265L118.067 132.284ZM111.006 121.4L111.174 121.215L111.006 121.4ZM107.229 124.281L107.368 124.073L107.368 124.073L107.229 124.281ZM111.967 130.249L111.725 130.31L111.967 130.249ZM106.968 128.827L107.14 128.647L106.968 128.827ZM103.18 126.021L103.066 126.244L103.067 126.245L103.18 126.021ZM99.6137 125.215L99.5971 124.965L99.6137 125.215ZM93.734 131.231L93.4845 131.216L93.4845 131.216L93.734 131.231ZM97.0343 137.866L97.1937 137.673L97.0343 137.866ZM98.8161 139.028L98.704 139.251L98.7079 139.253L98.8161 139.028ZM99.9717 134.445L99.7407 134.541L99.9717 134.445ZM99.7566 133.317L100.007 133.326L100.007 133.32L99.7566 133.317ZM100.01 132.401L99.807 132.255L100.01 132.401ZM102.309 131.073L102.299 131.322L102.309 131.073ZM103.972 131.679L103.834 131.888L103.835 131.888L103.972 131.679ZM105.817 133.241L105.643 133.42L105.643 133.42L105.817 133.241ZM110.85 132.812L111.034 132.644L110.85 132.812ZM104.939 122.817L105.065 122.601L104.939 122.817ZM104.872 121.975L104.715 121.781L104.872 121.975ZM107.039 135.992L106.882 135.798L107.039 135.992ZM104.893 137.73L104.736 137.536L104.893 137.73ZM104.087 137.919L104.151 137.677L104.087 137.919ZM100.631 139.667L100.696 139.425C100.638 139.41 100.58 139.394 100.521 139.378L100.455 139.619L100.39 139.86C100.449 139.876 100.508 139.892 100.566 139.908L100.631 139.667ZM103.851 145.742L104.045 145.585L100.997 141.821L100.802 141.978L100.608 142.135L103.656 145.899L103.851 145.742ZM115.407 137.67L115.25 137.476L105.1 145.696L105.257 145.89L105.414 146.084L115.565 137.865L115.407 137.67ZM118.067 132.284L117.818 132.303C117.963 134.234 117.128 135.955 115.25 137.476L115.407 137.67L115.565 137.865C117.539 136.266 118.477 134.396 118.317 132.265L118.067 132.284ZM114.282 124.846L114.088 125.003C116.45 127.92 117.671 130.35 117.818 132.303L118.067 132.284L118.317 132.265C118.158 130.156 116.856 127.627 114.476 124.689L114.282 124.846ZM111.006 121.4L110.839 121.586C112.017 122.645 113.1 123.784 114.088 125.003L114.282 124.846L114.476 124.689C113.472 123.448 112.371 122.29 111.174 121.215L111.006 121.4ZM108.959 119.631L108.801 119.825C109.331 120.255 110.011 120.842 110.839 121.586L111.006 121.4L111.174 121.215C110.342 120.467 109.656 119.874 109.116 119.437L108.959 119.631ZM104.872 121.975L105.029 122.169L107.908 119.838L107.751 119.644L107.594 119.449L104.715 121.781L104.872 121.975ZM107.229 124.281L107.368 124.073C106.345 123.391 105.576 122.9 105.065 122.601L104.939 122.817L104.813 123.033C105.31 123.324 106.069 123.808 107.091 124.489L107.229 124.281ZM109.881 126.634L110.075 126.477C109.369 125.605 108.465 124.805 107.368 124.073L107.229 124.281L107.091 124.489C108.154 125.198 109.018 125.966 109.686 126.791L109.881 126.634ZM111.967 130.249L112.21 130.189C111.948 129.137 111.226 127.898 110.075 126.477L109.881 126.634L109.686 126.791C110.821 128.193 111.49 129.364 111.725 130.31L111.967 130.249ZM111.01 132.825L111.167 133.019C111.637 132.638 111.97 132.21 112.148 131.729C112.328 131.247 112.345 130.731 112.21 130.189L111.967 130.249L111.725 130.31C111.838 130.766 111.82 131.179 111.68 131.555C111.539 131.933 111.269 132.293 110.852 132.63L111.01 132.825ZM106.968 128.827L106.795 129.008C108.089 130.245 109.379 131.569 110.665 132.981L110.85 132.812L111.034 132.644C109.742 131.224 108.444 129.891 107.14 128.647L106.968 128.827ZM103.18 126.021L103.067 126.245C104.24 126.836 105.483 127.755 106.795 129.008L106.968 128.827L107.14 128.647C105.804 127.371 104.522 126.419 103.292 125.798L103.18 126.021ZM99.6137 125.215L99.6303 125.464C100.747 125.39 101.891 125.646 103.066 126.244L103.18 126.021L103.293 125.799C102.051 125.166 100.817 124.884 99.5971 124.965L99.6137 125.215ZM96.1018 126.756L96.2591 126.95C97.4034 126.024 98.5264 125.538 99.6303 125.464L99.6137 125.215L99.5971 124.965C98.3641 125.048 97.1458 125.589 95.9444 126.562L96.1018 126.756ZM93.734 131.231L93.9835 131.247C94.0891 129.526 94.842 128.098 96.2591 126.95L96.1018 126.756L95.9444 126.562C94.4247 127.793 93.5991 129.348 93.4845 131.216L93.734 131.231ZM95.4221 136.211L95.6164 136.054C94.4163 134.572 93.8777 132.972 93.9835 131.247L93.734 131.231L93.4845 131.216C93.3702 133.079 93.9569 134.799 95.2278 136.368L95.4221 136.211ZM97.0343 137.866L97.1937 137.673C96.6586 137.231 96.1327 136.691 95.6164 136.054L95.4221 136.211L95.2278 136.368C95.7616 137.028 96.3105 137.592 96.875 138.058L97.0343 137.866ZM98.8161 139.028L98.9282 138.804C98.307 138.493 97.7289 138.116 97.1937 137.673L97.0343 137.866L96.875 138.058C97.4393 138.525 98.0491 138.923 98.7041 139.251L98.8161 139.028ZM100.455 139.619L100.521 139.378C99.9042 139.21 99.3727 139.018 98.9244 138.803L98.8161 139.028L98.7079 139.253C99.1897 139.485 99.7509 139.686 100.39 139.86L100.455 139.619ZM104.893 137.73L105.051 137.924L107.196 136.187L107.039 135.992L106.882 135.798L104.736 137.536L104.893 137.73ZM102.577 137.297L102.454 137.515C102.966 137.803 103.489 138.018 104.023 138.16L104.087 137.919L104.151 137.677C103.661 137.547 103.177 137.348 102.7 137.079L102.577 137.297ZM100.994 135.985L100.8 136.143C101.239 136.685 101.791 137.141 102.454 137.515L102.577 137.297L102.7 137.079C102.086 136.733 101.583 136.316 101.188 135.828L100.994 135.985ZM99.9717 134.445L99.7407 134.541C99.9117 134.954 100.272 135.491 100.8 136.143L100.994 135.985L101.188 135.828C100.666 135.183 100.345 134.693 100.203 134.35L99.9717 134.445ZM99.7566 133.317L99.5068 133.308C99.4923 133.721 99.5718 134.132 99.7407 134.541L99.9717 134.445L100.203 134.35C100.059 134.001 99.9947 133.66 100.006 133.326L99.7566 133.317ZM100.01 132.401L99.807 132.255C99.6044 132.537 99.5125 132.897 99.5067 133.313L99.7566 133.317L100.007 133.32C100.012 132.97 100.089 132.72 100.213 132.547L100.01 132.401ZM100.756 131.655L100.598 131.461C100.255 131.739 99.9884 132.003 99.807 132.255L100.01 132.401L100.213 132.547C100.358 132.345 100.588 132.112 100.913 131.849L100.756 131.655ZM102.309 131.073L102.318 130.823C101.715 130.799 101.14 131.022 100.598 131.461L100.756 131.655L100.913 131.849C101.382 131.469 101.842 131.304 102.299 131.322L102.309 131.073ZM103.972 131.679L104.11 131.471C103.505 131.07 102.906 130.846 102.318 130.823L102.309 131.073L102.299 131.322C102.771 131.341 103.282 131.522 103.834 131.888L103.972 131.679ZM105.817 133.241L105.99 133.061C105.23 132.328 104.602 131.795 104.11 131.47L103.972 131.679L103.835 131.888C104.288 132.187 104.89 132.694 105.643 133.42L105.817 133.241ZM107.126 134.531L107.303 134.355C106.891 133.938 106.453 133.507 105.99 133.061L105.817 133.241L105.643 133.42C106.104 133.864 106.538 134.293 106.948 134.707L107.126 134.531ZM111.01 132.825L110.852 132.63C110.907 132.586 110.987 132.592 111.034 132.644L110.85 132.812L110.665 132.981C110.795 133.124 111.016 133.141 111.167 133.019L111.01 132.825ZM104.796 122.695L104.602 122.852C104.661 122.926 104.733 122.986 104.813 123.033L104.939 122.817L105.065 122.601C105.036 122.584 105.011 122.563 104.991 122.538L104.796 122.695ZM104.872 121.975L104.715 121.781C104.388 122.046 104.337 122.525 104.602 122.852L104.796 122.695L104.991 122.538C104.9 122.425 104.917 122.26 105.029 122.169L104.872 121.975ZM108.959 119.631L109.116 119.437C108.667 119.073 108.034 119.093 107.594 119.449L107.751 119.644L107.908 119.838C108.175 119.622 108.545 119.618 108.801 119.825L108.959 119.631ZM107.039 135.992L107.196 136.187C107.763 135.728 107.821 134.878 107.303 134.355L107.126 134.531L106.948 134.707C107.253 135.015 107.223 135.522 106.882 135.798L107.039 135.992ZM103.851 145.742L103.656 145.899C104.091 146.436 104.878 146.519 105.414 146.084L105.257 145.89L105.1 145.696C104.778 145.956 104.306 145.907 104.045 145.585L103.851 145.742ZM104.893 137.73L104.736 137.536C104.563 137.676 104.346 137.729 104.151 137.677L104.087 137.919L104.023 138.16C104.392 138.259 104.77 138.151 105.051 137.924L104.893 137.73ZM100.91 140.956L100.753 140.762C100.333 141.101 100.269 141.716 100.608 142.135L100.802 141.978L100.997 141.821C100.831 141.616 100.863 141.316 101.067 141.15L100.91 140.956ZM100.631 139.667L100.566 139.908C100.953 140.012 101.057 140.515 100.753 140.762L100.91 140.956L101.067 141.15C101.696 140.641 101.469 139.634 100.696 139.425L100.631 139.667Z" fill="url(#paint9_linear_0_185)" fill-opacity="0.5"/>
<g filter="url(#filter5_i_0_185)">
<path d="M142.572 160.716C142.996 161.24 142.791 162.024 142.166 162.274L124.017 169.527C123.61 169.69 123.145 169.568 122.869 169.228L119.375 164.913C119.098 164.571 119.078 164.087 119.325 163.723L125.21 155.053C125.768 154.232 124.918 153.188 124.001 153.567L114.339 157.558C113.93 157.727 113.459 157.607 113.18 157.263L109.633 152.882C109.356 152.541 109.335 152.059 109.58 151.695L120.479 135.489C120.854 134.931 121.662 134.895 122.086 135.418L125.12 139.165C125.409 139.522 125.417 140.03 125.14 140.397L118.927 148.622C118.317 149.43 119.156 150.529 120.096 150.154L129.931 146.225C130.338 146.063 130.804 146.184 131.079 146.525L133.84 149.933C134.119 150.278 134.137 150.765 133.886 151.13L127.989 159.682C127.409 160.524 128.315 161.59 129.239 161.154L138.43 156.814C138.847 156.617 139.344 156.731 139.634 157.089L142.572 160.716Z" fill="url(#paint10_linear_0_185)" fill-opacity="0.5"/>
</g>
<path d="M142.572 160.716C142.996 161.24 142.791 162.024 142.166 162.274L124.017 169.527C123.61 169.69 123.145 169.568 122.869 169.228L119.375 164.913C119.098 164.571 119.078 164.087 119.325 163.723L125.21 155.053C125.768 154.232 124.918 153.188 124.001 153.567L114.339 157.558C113.93 157.727 113.459 157.607 113.18 157.263L109.633 152.882C109.356 152.541 109.335 152.059 109.58 151.695L120.479 135.489C120.854 134.931 121.662 134.895 122.086 135.418L125.12 139.165C125.409 139.522 125.417 140.03 125.14 140.397L118.927 148.622C118.317 149.43 119.156 150.529 120.096 150.154L129.931 146.225C130.338 146.063 130.804 146.184 131.079 146.525L133.84 149.933C134.119 150.278 134.137 150.765 133.886 151.13L127.989 159.682C127.409 160.524 128.315 161.59 129.239 161.154L138.43 156.814C138.847 156.617 139.344 156.731 139.634 157.089L142.572 160.716Z" stroke="url(#paint11_linear_0_185)" stroke-opacity="0.5" stroke-width="0.5"/>
<g filter="url(#filter6_i_0_185)">
<path fill-rule="evenodd" clip-rule="evenodd" d="M44.2057 30.704C46.317 28.9943 46.6425 25.8975 44.9328 23.7862L30.7916 6.3233C29.0819 4.212 25.9851 3.88653 23.8738 5.59623L6.41097 19.7374C4.29966 21.4471 3.97415 24.5439 5.68385 26.6552L19.825 44.1181C21.5347 46.2294 24.6316 46.5549 26.7429 44.8452L44.2057 30.704ZM25.6002 38.7826C25.2721 38.7154 24.9312 38.8425 24.7427 39.1193C24.3408 39.7096 23.4252 39.5153 23.2977 38.8126L23.1793 38.1603C23.1343 37.9125 22.9972 37.6912 22.7965 37.5391C22.1114 37.0197 21.4433 36.4841 20.9208 35.8388C18.0449 32.2874 18.2072 27.5246 21.1966 25.1038C24.1808 22.6872 28.8785 23.5145 31.7544 27.0659C34.4704 30.4199 34.456 35.376 31.4717 37.7925C29.9187 39.0502 27.7604 39.2248 25.6002 38.7826ZM24.469 15.5073C25.0642 15.0254 25.8995 15.2554 26.3388 15.7979C26.7781 16.3404 26.6784 17.0189 26.0833 17.5008C25.4896 17.9816 24.8004 17.9419 24.3611 17.3994C23.9218 16.857 23.8753 15.9881 24.469 15.5073ZM26.6068 27.8656C26.315 27.5053 25.6238 27.4631 25.2291 27.7826C24.8289 28.1067 24.732 28.7871 25.0239 29.1475C25.4672 29.695 26.1488 29.7366 26.549 29.4125C26.9437 29.093 27.0502 28.4131 26.6068 27.8656ZM17.2785 23.1222C17.7269 23.987 18.1219 24.7489 18.755 25.5307C19.0463 25.8904 19.5951 25.8436 19.902 25.4971C20.1513 25.2155 20.4253 24.9506 20.7265 24.7066C23.9875 22.0659 28.9014 22.7235 31.7726 26.2691C32.0596 26.6234 32.6063 26.6546 32.8425 26.2646C34.7214 23.1627 34.1931 18.6297 31.454 15.2472C28.1314 11.1441 22.6131 10.0475 19.0617 12.9234C17.181 14.4464 16.3714 16.6594 16.41 19.2732C16.4163 19.6993 16.1676 20.094 15.7687 20.244C14.9654 20.5461 14.9286 21.6687 15.7103 22.0227L16.7007 22.4713C16.9029 22.5629 17.0691 22.7191 17.1715 22.9161C17.2076 22.9854 17.2432 23.0541 17.2785 23.1222ZM28.5987 22.6324C29.0422 23.1801 29.7328 23.2216 30.3266 22.7408C30.9217 22.2588 31.0199 21.5786 30.5764 21.0309C30.135 20.4858 29.3 20.2561 28.7048 20.7381C28.1111 21.2189 28.1572 22.0873 28.5987 22.6324ZM28.6153 31.9642C29.01 31.6446 29.7006 31.6861 29.9918 32.0457C30.4333 32.5909 30.3323 33.2776 29.9377 33.5972C29.5375 33.9213 28.8503 33.8728 28.4088 33.3276C28.1176 32.9679 28.2151 32.2883 28.6153 31.9642Z" fill="url(#paint12_linear_0_185)" fill-opacity="0.5"/>
</g>
<path d="M44.2057 30.704L44.1113 30.5875L44.2057 30.704ZM23.8738 5.59623L23.9682 5.7128L23.8738 5.59623ZM6.41097 19.7374L6.31657 19.6208L6.41097 19.7374ZM26.7429 44.8452L26.8373 44.9617L26.7429 44.8452ZM31.4717 37.7925L31.5661 37.9091L31.5661 37.9091L31.4717 37.7925ZM17.2785 23.1222L17.1453 23.1912L17.1453 23.1912L17.2785 23.1222ZM16.7007 22.4713L16.6388 22.6079L16.7007 22.4713ZM17.1715 22.9161L17.0385 22.9853L17.1715 22.9161ZM19.902 25.4971L19.7897 25.3977L19.902 25.4971ZM15.7103 22.0227L15.6484 22.1594L15.7103 22.0227ZM22.7965 37.5391L22.8871 37.4196L22.7965 37.5391ZM16.41 19.2732L16.56 19.271L16.41 19.2732ZM25.6002 38.7826L25.6303 38.6356L25.6002 38.7826ZM32.8425 26.2646L32.7142 26.1869L32.8425 26.2646ZM44.9328 23.7862L44.8162 23.8806C46.4738 25.9275 46.1582 28.9299 44.1113 30.5875L44.2057 30.704L44.3001 30.8206C46.4758 29.0588 46.8112 25.8675 45.0494 23.6918L44.9328 23.7862ZM30.7916 6.3233L30.6751 6.4177L44.8162 23.8806L44.9328 23.7862L45.0494 23.6918L30.9082 6.2289L30.7916 6.3233ZM23.8738 5.59623L23.9682 5.7128C26.0151 4.05524 29.0175 4.37078 30.6751 6.4177L30.7916 6.3233L30.9082 6.2289C29.1464 4.05322 25.9551 3.71783 23.7794 5.47966L23.8738 5.59623ZM6.41097 19.7374L6.50537 19.8539L23.9682 5.7128L23.8738 5.59623L23.7794 5.47966L6.31657 19.6208L6.41097 19.7374ZM5.68385 26.6552L5.80043 26.5608C4.14286 24.5139 4.45844 21.5115 6.50537 19.8539L6.41097 19.7374L6.31657 19.6208C4.14089 21.3826 3.80544 24.5739 5.56728 26.7496L5.68385 26.6552ZM19.825 44.1181L19.9416 44.0237L5.80043 26.5608L5.68385 26.6552L5.56728 26.7496L19.7084 44.2125L19.825 44.1181ZM26.7429 44.8452L26.6485 44.7286C24.6015 46.3862 21.5991 46.0706 19.9416 44.0237L19.825 44.1181L19.7084 44.2125C21.4703 46.3881 24.6616 46.7236 26.8373 44.9617L26.7429 44.8452ZM44.2057 30.704L44.1113 30.5875L26.6485 44.7286L26.7429 44.8452L26.8373 44.9617L44.3001 30.8206L44.2057 30.704ZM23.1793 38.1603L23.0317 38.1871L23.1501 38.8394L23.2977 38.8126L23.4452 38.7858L23.3268 38.1335L23.1793 38.1603ZM20.9208 35.8388L20.8042 35.9332C21.3393 36.594 22.0204 37.139 22.7059 37.6586L22.7965 37.5391L22.8871 37.4196C22.2023 36.9004 21.5474 36.3743 21.0373 35.7444L20.9208 35.8388ZM21.1966 25.1038L21.1022 24.9872C18.0322 27.4732 17.8903 32.3348 20.8042 35.9332L20.9208 35.8388L21.0373 35.7444C18.1995 32.2399 18.3821 27.5759 21.291 25.2204L21.1966 25.1038ZM31.7544 27.0659L31.871 26.9715C28.957 23.373 24.1669 22.5055 21.1022 24.9872L21.1966 25.1038L21.291 25.2204C24.1948 22.8689 28.8 23.6559 31.6378 27.1603L31.7544 27.0659ZM31.4717 37.7925L31.5661 37.9091C34.6328 35.4258 34.6232 30.3702 31.871 26.9715L31.7544 27.0659L31.6378 27.1603C34.3176 30.4695 34.2792 35.3261 31.3773 37.676L31.4717 37.7925ZM25.6002 38.7826L25.5701 38.9295C27.7516 39.3761 29.9635 39.2069 31.5661 37.9091L31.4717 37.7925L31.3773 37.676C29.8738 38.8934 27.7693 39.0735 25.6303 38.6356L25.6002 38.7826ZM26.3388 15.7979L26.4554 15.7035C25.9798 15.1162 25.0521 14.8421 24.3746 15.3907L24.469 15.5073L24.5634 15.6239C25.0762 15.2086 25.8192 15.3946 26.2222 15.8923L26.3388 15.7979ZM26.0833 17.5008L26.1777 17.6174C26.4987 17.3575 26.6964 17.0357 26.7473 16.6942C26.7985 16.3511 26.6989 16.0042 26.4554 15.7035L26.3388 15.7979L26.2222 15.8923C26.418 16.134 26.4882 16.3977 26.4506 16.6499C26.4128 16.9038 26.2631 17.1622 25.9889 17.3842L26.0833 17.5008ZM24.3611 17.3994L24.2445 17.4938C24.4884 17.795 24.8084 17.9633 25.1555 17.9836C25.5009 18.0038 25.8574 17.8768 26.1777 17.6174L26.0833 17.5008L25.9889 17.3842C25.7155 17.6057 25.4305 17.6992 25.173 17.6841C24.9173 17.6691 24.673 17.5463 24.4776 17.305L24.3611 17.3994ZM24.469 15.5073L24.3746 15.3907C23.6991 15.9377 23.7683 16.9058 24.2445 17.4938L24.3611 17.3994L24.4776 17.305C24.0752 16.8081 24.0514 16.0385 24.5634 15.6239L24.469 15.5073ZM25.2291 27.7826L25.3235 27.8992C25.4863 27.7674 25.7186 27.705 25.9475 27.7189C26.1776 27.7328 26.3783 27.8218 26.4903 27.96L26.6068 27.8656L26.7234 27.7712C26.5436 27.5491 26.2527 27.4368 25.9656 27.4194C25.6772 27.402 25.3666 27.4783 25.1347 27.6661L25.2291 27.7826ZM25.0239 29.1475L25.1404 29.0531C25.028 28.9143 24.9819 28.7002 25.0154 28.4734C25.0487 28.2478 25.1578 28.0334 25.3235 27.8992L25.2291 27.7826L25.1347 27.6661C24.9003 27.8559 24.7608 28.1438 24.7186 28.4295C24.6766 28.714 24.7279 29.0203 24.9073 29.2419L25.0239 29.1475ZM26.549 29.4125L26.4546 29.296C26.126 29.5621 25.5377 29.5437 25.1404 29.0531L25.0239 29.1475L24.9073 29.2419C25.3967 29.8463 26.1716 29.9112 26.6434 29.5291L26.549 29.4125ZM26.6068 27.8656L26.4903 27.96C26.8871 28.4501 26.7782 29.034 26.4546 29.296L26.549 29.4125L26.6434 29.5291C27.1091 29.152 27.2133 28.3762 26.7234 27.7712L26.6068 27.8656ZM18.755 25.5307L18.8716 25.4363C18.2493 24.6679 17.8607 23.9191 17.4117 23.0531L17.2785 23.1222L17.1453 23.1912C17.5931 24.0549 17.9944 24.8298 18.6384 25.6251L18.755 25.5307ZM20.7265 24.7066L20.6321 24.59C20.3241 24.8394 20.0442 25.1102 19.7897 25.3977L19.902 25.4971L20.0143 25.5965C20.2584 25.3209 20.5264 25.0617 20.8209 24.8232L20.7265 24.7066ZM31.7726 26.2691L31.8892 26.1747C28.9719 22.5722 23.9647 21.8913 20.6321 24.59L20.7265 24.7066L20.8209 24.8232C24.0103 22.2405 28.8309 22.8747 31.656 26.3635L31.7726 26.2691ZM31.454 15.2472L31.3374 15.3416C34.0454 18.6857 34.5537 23.15 32.7142 26.1869L32.8425 26.2646L32.9708 26.3423C34.8891 23.1753 34.3408 18.5737 31.5706 15.1528L31.454 15.2472ZM19.0617 12.9234L19.1561 13.04C22.6255 10.2305 28.0514 11.2837 31.3374 15.3416L31.454 15.2472L31.5706 15.1528C28.2114 11.0046 22.6008 9.86453 18.9673 12.8068L19.0617 12.9234ZM16.41 19.2732L16.56 19.271C16.5219 16.6907 17.3199 14.5269 19.1561 13.04L19.0617 12.9234L18.9673 12.8068C17.0421 14.3658 16.2209 16.6281 16.26 19.2754L16.41 19.2732ZM16.7007 22.4713L16.7626 22.3347L15.7722 21.8861L15.7103 22.0227L15.6484 22.1594L16.6388 22.6079L16.7007 22.4713ZM17.2785 23.1222L17.4117 23.0531C17.3764 22.9851 17.3407 22.9163 17.3046 22.8469L17.1715 22.9161L17.0385 22.9853C17.0745 23.0546 17.11 23.1231 17.1453 23.1912L17.2785 23.1222ZM30.3266 22.7408L30.2322 22.6242C29.9589 22.8455 29.6738 22.9386 29.4156 22.9226C29.1589 22.9067 28.913 22.7823 28.7152 22.538L28.5987 22.6324L28.4821 22.7268C28.7278 23.0303 29.049 23.2004 29.397 23.222C29.7434 23.2435 30.1005 23.1169 30.421 22.8574L30.3266 22.7408ZM30.5764 21.0309L30.4598 21.1253C30.658 21.37 30.7294 21.6356 30.6925 21.8889C30.6554 22.1436 30.5062 22.4023 30.2322 22.6242L30.3266 22.7408L30.421 22.8574C30.7421 22.5973 30.9395 22.2749 30.9894 21.9321C31.0395 21.5878 30.9383 21.2395 30.693 20.9365L30.5764 21.0309ZM28.7048 20.7381L28.7992 20.8547C29.3119 20.4395 30.0546 20.6249 30.4598 21.1253L30.5764 21.0309L30.693 20.9365C30.2153 20.3467 29.288 20.0728 28.6104 20.6215L28.7048 20.7381ZM28.5987 22.6324L28.7152 22.538C28.3106 22.0383 28.2873 21.2692 28.7992 20.8547L28.7048 20.7381L28.6104 20.6215C27.9348 21.1686 28.0039 22.1363 28.4821 22.7268L28.5987 22.6324ZM29.9918 32.0457L30.1084 31.9513C29.9287 31.7295 29.6381 31.6176 29.3512 31.6005C29.0631 31.5834 28.7527 31.6599 28.5209 31.8477L28.6153 31.9642L28.7097 32.0808C28.8725 31.949 29.1048 31.8864 29.3334 31.9C29.5633 31.9137 29.7636 32.0023 29.8752 32.1401L29.9918 32.0457ZM29.9377 33.5972L30.0321 33.7138C30.4988 33.3358 30.5956 32.553 30.1084 31.9513L29.9918 32.0457L29.8752 32.1401C30.271 32.6289 30.1659 33.2194 29.8433 33.4806L29.9377 33.5972ZM28.4088 33.3276L28.2923 33.422C28.779 34.0231 29.5593 34.0966 30.0321 33.7138L29.9377 33.5972L29.8433 33.4806C29.5156 33.746 28.9216 33.7225 28.5254 33.2332L28.4088 33.3276ZM28.6153 31.9642L28.5209 31.8477C28.2866 32.0374 28.1469 32.325 28.1044 32.6105C28.0621 32.8947 28.113 33.2007 28.2923 33.422L28.4088 33.3276L28.5254 33.2332C28.4134 33.0949 28.3674 32.8812 28.4011 32.6546C28.4347 32.4294 28.5439 32.2151 28.7097 32.0808L28.6153 31.9642ZM16.7007 22.4713L16.6388 22.6079C16.8108 22.6858 16.9517 22.8185 17.0385 22.9853L17.1715 22.9161L17.3046 22.8469C17.1865 22.6197 16.9951 22.4399 16.7626 22.3347L16.7007 22.4713ZM18.755 25.5307L18.6384 25.6251C19.0012 26.0731 19.6606 25.9959 20.0143 25.5965L19.902 25.4971L19.7897 25.3977C19.5296 25.6913 19.0914 25.7078 18.8716 25.4363L18.755 25.5307ZM15.7687 20.244L15.7159 20.1036C14.7875 20.4527 14.7449 21.7502 15.6484 22.1594L15.7103 22.0227L15.7722 21.8861C15.1122 21.5872 15.1433 20.6394 15.8215 20.3844L15.7687 20.244ZM23.1793 38.1603L23.3268 38.1335C23.2751 37.8484 23.1174 37.5941 22.8871 37.4196L22.7965 37.5391L22.7059 37.6586C22.877 37.7883 22.9935 37.9767 23.0317 38.1871L23.1793 38.1603ZM16.41 19.2732L16.26 19.2754C16.2655 19.6433 16.0509 19.9776 15.7159 20.1036L15.7687 20.244L15.8215 20.3844C16.2842 20.2104 16.5671 19.7553 16.56 19.271L16.41 19.2732ZM24.7427 39.1193L24.8667 39.2037C25.019 38.9801 25.2974 38.8737 25.5701 38.9295L25.6002 38.7826L25.6303 38.6356C25.2468 38.5571 24.8435 38.7049 24.6188 39.0349L24.7427 39.1193ZM31.7726 26.2691L31.656 26.3635C31.8272 26.5748 32.0772 26.6919 32.3241 26.696C32.5738 26.7001 32.8223 26.5876 32.9708 26.3423L32.8425 26.2646L32.7142 26.1869C32.6266 26.3316 32.4835 26.3985 32.3291 26.396C32.1718 26.3934 32.005 26.3177 31.8892 26.1747L31.7726 26.2691ZM24.7427 39.1193L24.6188 39.0349C24.2923 39.5143 23.5488 39.3565 23.4452 38.7858L23.2977 38.8126L23.1501 38.8394C23.3016 39.6742 24.3892 39.905 24.8667 39.2037L24.7427 39.1193Z" fill="url(#paint13_linear_0_185)" fill-opacity="0.5"/>
<defs>
<filter id="filter0_i_0_185" x="28.6332" y="34.7977" width="27.8702" height="32.1122" filterUnits="userSpaceOnUse" color-interpolation-filters="sRGB">
<feFlood flood-opacity="0" result="BackgroundImageFix"/>
<feBlend mode="normal" in="SourceGraphic" in2="BackgroundImageFix" result="shape"/>
<feColorMatrix in="SourceAlpha" type="matrix" values="0 0 0 0 0 0 0 0 0 0 0 0 0 0 0 0 0 0 127 0" result="hardAlpha"/>
<feOffset dx="1" dy="1"/>
<feGaussianBlur stdDeviation="0.5"/>
<feComposite in2="hardAlpha" operator="arithmetic" k2="-1" k3="1"/>
<feColorMatrix type="matrix" values="0 0 0 0 0.201489 0 0 0 0 0.391578 0 0 0 0 0.719914 0 0 0 0.5 0"/>
<feBlend mode="normal" in2="shape" result="effect1_innerShadow_0_185"/>
</filter>
<filter id="filter1_i_0_185" x="47.8021" y="56.8881" width="34.8853" height="36.0509" filterUnits="userSpaceOnUse" color-interpolation-filters="sRGB">
<feFlood flood-opacity="0" result="BackgroundImageFix"/>
<feBlend mode="normal" in="SourceGraphic" in2="BackgroundImageFix" result="shape"/>
<feColorMatrix in="SourceAlpha" type="matrix" values="0 0 0 0 0 0 0 0 0 0 0 0 0 0 0 0 0 0 127 0" result="hardAlpha"/>
<feOffset dx="1" dy="1"/>
<feGaussianBlur stdDeviation="0.5"/>
<feComposite in2="hardAlpha" operator="arithmetic" k2="-1" k3="1"/>
<feColorMatrix type="matrix" values="0 0 0 0 0.201489 0 0 0 0 0.391578 0 0 0 0 0.719914 0 0 0 0.5 0"/>
<feBlend mode="normal" in2="shape" result="effect1_innerShadow_0_185"/>
</filter>
<filter id="filter2_i_0_185" x="68.7661" y="86.5438" width="31.0425" height="21.6719" filterUnits="userSpaceOnUse" color-interpolation-filters="sRGB">
<feFlood flood-opacity="0" result="BackgroundImageFix"/>
<feBlend mode="normal" in="SourceGraphic" in2="BackgroundImageFix" result="shape"/>
<feColorMatrix in="SourceAlpha" type="matrix" values="0 0 0 0 0 0 0 0 0 0 0 0 0 0 0 0 0 0 127 0" result="hardAlpha"/>
<feOffset dx="1" dy="1"/>
<feGaussianBlur stdDeviation="0.5"/>
<feComposite in2="hardAlpha" operator="arithmetic" k2="-1" k3="1"/>
<feColorMatrix type="matrix" values="0 0 0 0 0.201489 0 0 0 0 0.391578 0 0 0 0 0.719914 0 0 0 0.5 0"/>
<feBlend mode="normal" in2="shape" result="effect1_innerShadow_0_185"/>
</filter>
<filter id="filter3_i_0_185" x="78.3231" y="101.518" width="28.8413" height="28.4403" filterUnits="userSpaceOnUse" color-interpolation-filters="sRGB">
<feFlood flood-opacity="0" result="BackgroundImageFix"/>
<feBlend mode="normal" in="SourceGraphic" in2="BackgroundImageFix" result="shape"/>
<feColorMatrix in="SourceAlpha" type="matrix" values="0 0 0 0 0 0 0 0 0 0 0 0 0 0 0 0 0 0 127 0" result="hardAlpha"/>
<feOffset dx="1" dy="1"/>
<feGaussianBlur stdDeviation="0.5"/>
<feComposite in2="hardAlpha" operator="arithmetic" k2="-1" k3="1"/>
<feColorMatrix type="matrix" values="0 0 0 0 0.201489 0 0 0 0 0.391578 0 0 0 0 0.719914 0 0 0 0.5 0"/>
<feBlend mode="normal" in2="shape" result="effect1_innerShadow_0_185"/>
</filter>
<filter id="filter4_i_0_185" x="93.4705" y="119.173" width="25.8636" height="28.1901" filterUnits="userSpaceOnUse" color-interpolation-filters="sRGB">
<feFlood flood-opacity="0" result="BackgroundImageFix"/>
<feBlend mode="normal" in="SourceGraphic" in2="BackgroundImageFix" result="shape"/>
<feColorMatrix in="SourceAlpha" type="matrix" values="0 0 0 0 0 0 0 0 0 0 0 0 0 0 0 0 0 0 127 0" result="hardAlpha"/>
<feOffset dx="1" dy="1"/>
<feGaussianBlur stdDeviation="0.5"/>
<feComposite in2="hardAlpha" operator="arithmetic" k2="-1" k3="1"/>
<feColorMatrix type="matrix" values="0 0 0 0 0.201489 0 0 0 0 0.391578 0 0 0 0 0.719914 0 0 0 0.5 0"/>
<feBlend mode="normal" in2="shape" result="effect1_innerShadow_0_185"/>
</filter>
<filter id="filter5_i_0_185" x="109.16" y="134.797" width="34.8853" height="36.0509" filterUnits="userSpaceOnUse" color-interpolation-filters="sRGB">
<feFlood flood-opacity="0" result="BackgroundImageFix"/>
<feBlend mode="normal" in="SourceGraphic" in2="BackgroundImageFix" result="shape"/>
<feColorMatrix in="SourceAlpha" type="matrix" values="0 0 0 0 0 0 0 0 0 0 0 0 0 0 0 0 0 0 127 0" result="hardAlpha"/>
<feOffset dx="1" dy="1"/>
<feGaussianBlur stdDeviation="0.5"/>
<feComposite in2="hardAlpha" operator="arithmetic" k2="-1" k3="1"/>
<feColorMatrix type="matrix" values="0 0 0 0 0.201489 0 0 0 0 0.391578 0 0 0 0 0.719914 0 0 0 0.5 0"/>
<feBlend mode="normal" in2="shape" result="effect1_innerShadow_0_185"/>
</filter>
<filter id="filter6_i_0_185" x="4.43738" y="4.34973" width="42.7418" height="42.7418" filterUnits="userSpaceOnUse" color-interpolation-filters="sRGB">
<feFlood flood-opacity="0" result="BackgroundImageFix"/>
<feBlend mode="normal" in="SourceGraphic" in2="BackgroundImageFix" result="shape"/>
<feColorMatrix in="SourceAlpha" type="matrix" values="0 0 0 0 0 0 0 0 0 0 0 0 0 0 0 0 0 0 127 0" result="hardAlpha"/>
<feOffset dx="1" dy="1"/>
<feGaussianBlur stdDeviation="0.5"/>
<feComposite in2="hardAlpha" operator="arithmetic" k2="-1" k3="1"/>
<feColorMatrix type="matrix" values="0 0 0 0 0.201489 0 0 0 0 0.391578 0 0 0 0 0.719914 0 0 0 0.5 0"/>
<feBlend mode="normal" in2="shape" result="effect1_innerShadow_0_185"/>
</filter>
<linearGradient id="paint0_linear_0_185" x1="51.143" y1="34.3088" x2="27.703" y2="51.4614" gradientUnits="userSpaceOnUse">
<stop stop-color="#FF0000"/>
<stop offset="1" stop-color="#004EFF"/>
</linearGradient>
<linearGradient id="paint1_linear_0_185" x1="50.6543" y1="35.3845" x2="31.302" y2="56.0918" gradientUnits="userSpaceOnUse">
<stop stop-color="#FF0000"/>
<stop offset="1" stop-color="#004EFF"/>
</linearGradient>
<linearGradient id="paint2_linear_0_185" x1="60.1684" y1="56.2204" x2="43.8146" y2="68.8958" gradientUnits="userSpaceOnUse">
<stop stop-color="#FF0000"/>
<stop offset="1" stop-color="#004EFF"/>
</linearGradient>
<linearGradient id="paint3_linear_0_185" x1="60.1276" y1="57.365" x2="45.1337" y2="71.0915" gradientUnits="userSpaceOnUse">
<stop stop-color="#FF0000"/>
<stop offset="1" stop-color="#004EFF"/>
</linearGradient>
<linearGradient id="paint4_linear_0_185" x1="89.6319" y1="81.5526" x2="66.0979" y2="98.146" gradientUnits="userSpaceOnUse">
<stop stop-color="#FF0000"/>
<stop offset="1" stop-color="#004EFF"/>
</linearGradient>
<linearGradient id="paint5_linear_0_185" x1="89.0594" y1="82.5121" x2="71.0275" y2="103.805" gradientUnits="userSpaceOnUse">
<stop stop-color="#FF0000"/>
<stop offset="1" stop-color="#004EFF"/>
</linearGradient>
<linearGradient id="paint6_linear_0_185" x1="94.5211" y1="100.781" x2="77.958" y2="113.164" gradientUnits="userSpaceOnUse">
<stop stop-color="#FF0000"/>
<stop offset="1" stop-color="#004EFF"/>
</linearGradient>
<linearGradient id="paint7_linear_0_185" x1="94.236" y1="101.624" x2="79.9947" y2="116.011" gradientUnits="userSpaceOnUse">
<stop stop-color="#FF0000"/>
<stop offset="1" stop-color="#004EFF"/>
</linearGradient>
<linearGradient id="paint8_linear_0_185" x1="108.324" y1="116.858" x2="90.8503" y2="129.93" gradientUnits="userSpaceOnUse">
<stop stop-color="#FF0000"/>
<stop offset="1" stop-color="#004EFF"/>
</linearGradient>
<linearGradient id="paint9_linear_0_185" x1="108.026" y1="117.751" x2="92.9856" y2="132.921" gradientUnits="userSpaceOnUse">
<stop stop-color="#FF0000"/>
<stop offset="1" stop-color="#004EFF"/>
</linearGradient>
<linearGradient id="paint10_linear_0_185" x1="121.526" y1="134.13" x2="105.172" y2="146.805" gradientUnits="userSpaceOnUse">
<stop stop-color="#FF0000"/>
<stop offset="1" stop-color="#004EFF"/>
</linearGradient>
<linearGradient id="paint11_linear_0_185" x1="121.485" y1="135.274" x2="106.491" y2="149.001" gradientUnits="userSpaceOnUse">
<stop stop-color="#FF0000"/>
<stop offset="1" stop-color="#004EFF"/>
</linearGradient>
<linearGradient id="paint12_linear_0_185" x1="28.1531" y1="2.13095" x2="2.30548" y2="21.5492" gradientUnits="userSpaceOnUse">
<stop stop-color="#FF0000"/>
<stop offset="1" stop-color="#004EFF"/>
</linearGradient>
<linearGradient id="paint13_linear_0_185" x1="27.7375" y1="3.48578" x2="5.31246" y2="25.8422" gradientUnits="userSpaceOnUse">
<stop stop-color="#FF0000"/>
<stop offset="1" stop-color="#004EFF"/>
</linearGradient>
</defs>
</svg>
