<svg width="102" height="138" viewBox="0 0 102 138" fill="none" xmlns="http://www.w3.org/2000/svg">
<g opacity="0.702916">
<g filter="url(#filter0_i_0_185)">
<path d="M26.051 98.2188C26.7531 98.6747 27.6973 98.1126 27.7563 97.2776C27.7724 97.051 27.7951 96.8277 27.8247 96.6075C27.9407 95.7427 28.2791 94.8784 28.8401 94.0147C29.8975 92.3865 31.2983 91.5138 33.0425 91.3967C34.7868 91.2797 36.6909 91.8913 38.7548 93.2316C40.7805 94.5471 42.068 96.1793 42.6173 98.1282C43.1666 100.077 42.8977 101.889 41.8105 103.563C41.3439 104.281 40.8579 104.862 40.3526 105.306C39.9723 105.639 39.5628 105.933 39.1243 106.185C38.9063 106.311 38.8493 106.607 39.0177 106.794V106.794C39.1327 106.922 39.1476 107.111 39.054 107.255L37.1884 110.128C36.8876 110.591 36.2683 110.723 35.8051 110.422L19.641 99.9248C19.1779 99.624 19.0462 99.0046 19.347 98.5415L20.9384 96.091C21.2392 95.6278 21.8585 95.4961 22.3217 95.7969L26.051 98.2188ZM30.76 97.8861C30.5069 98.2759 30.3055 98.7157 30.1559 99.2055C30.0615 99.5146 29.9926 99.8295 29.9492 100.15C29.9018 100.5 30.081 100.836 30.3774 101.028L35.7761 104.534C36.1301 104.764 36.5982 104.755 36.8995 104.459C36.9833 104.377 37.0618 104.294 37.135 104.21C37.347 103.968 37.5746 103.659 37.8178 103.285C38.5277 102.191 38.7353 101.169 38.4407 100.217C38.1461 99.2647 37.3567 98.3717 36.0725 97.5377C34.9259 96.7931 33.9164 96.4146 33.044 96.4024C32.1717 96.3901 31.4104 96.8847 30.76 97.8861Z" fill="url(#paint0_linear_0_185)" fill-opacity="0.5"/>
</g>
<path d="M40.3526 105.306L40.2701 105.212L40.3526 105.306ZM37.135 104.21L37.2292 104.293L37.135 104.21ZM29.9492 100.15L29.8253 100.133L29.9492 100.15ZM39.1243 106.185L39.0619 106.077L39.1243 106.185ZM27.7563 97.2776L27.881 97.2864C27.8969 97.0624 27.9194 96.8416 27.9486 96.6241L27.8247 96.6075L27.7008 96.5908C27.6709 96.8137 27.6479 97.0397 27.6317 97.2687L27.7563 97.2776ZM27.8247 96.6075L27.9486 96.6241C28.0617 95.7807 28.3923 94.9338 28.9449 94.0827L28.8401 94.0147L28.7353 93.9466C28.166 94.8231 27.8196 95.7047 27.7008 96.5908L27.8247 96.6075ZM28.8401 94.0147L28.9449 94.0827C29.9836 92.4834 31.3507 91.6356 33.0509 91.5215L33.0425 91.3967L33.0341 91.272C31.2459 91.3921 29.8113 92.2896 28.7353 93.9466L28.8401 94.0147ZM33.0425 91.3967L33.0509 91.5215C34.7591 91.4068 36.6364 92.005 38.6867 93.3364L38.7548 93.2316L38.8228 93.1268C36.7453 91.7776 34.8144 91.1525 33.0341 91.272L33.0425 91.3967ZM38.7548 93.2316L38.6867 93.3364C40.6921 94.6388 41.9574 96.2478 42.497 98.1621L42.6173 98.1282L42.7376 98.0943C42.1785 96.1108 40.8688 94.4554 38.8228 93.1268L38.7548 93.2316ZM42.6173 98.1282L42.497 98.1621C43.0367 100.077 42.7729 101.851 41.7057 103.495L41.8105 103.563L41.9154 103.631C43.0225 101.926 43.2965 100.077 42.7376 98.0943L42.6173 98.1282ZM41.8105 103.563L41.7057 103.495C41.2437 104.206 40.7649 104.777 40.2701 105.212L40.3526 105.306L40.435 105.4C40.951 104.947 41.4441 104.356 41.9154 103.631L41.8105 103.563ZM40.3526 105.306L40.2701 105.212C39.896 105.54 39.4933 105.828 39.0619 106.077L39.1243 106.185L39.1867 106.294C39.6324 106.037 40.0485 105.739 40.435 105.4L40.3526 105.306ZM39.054 107.255L38.9492 107.187L37.0836 110.06L37.1884 110.128L37.2932 110.196L39.1589 107.323L39.054 107.255ZM35.8051 110.422L35.8732 110.317L19.7091 99.8199L19.641 99.9248L19.573 100.03L35.737 110.527L35.8051 110.422ZM19.347 98.5415L19.4518 98.6095L21.0432 96.159L20.9384 96.091L20.8335 96.0229L19.2422 98.4734L19.347 98.5415ZM22.3217 95.7969L22.2536 95.9018L25.9829 98.3236L26.051 98.2188L26.1191 98.114L22.3898 95.6921L22.3217 95.7969ZM30.76 97.8861L30.6552 97.818C30.3951 98.2186 30.189 98.6692 30.0364 99.1689L30.1559 99.2055L30.2755 99.242C30.422 98.7623 30.6187 98.3333 30.8649 97.9542L30.76 97.8861ZM30.1559 99.2055L30.0364 99.1689C29.94 99.4845 29.8696 99.806 29.8253 100.133L29.9492 100.15L30.073 100.167C30.1156 99.8529 30.183 99.5446 30.2755 99.242L30.1559 99.2055ZM30.3774 101.028L30.3093 101.133L35.7081 104.639L35.7761 104.534L35.8442 104.43L30.4455 100.924L30.3774 101.028ZM36.8995 104.459L36.987 104.549C37.073 104.464 37.1537 104.379 37.2292 104.293L37.135 104.21L37.0409 104.128C36.9699 104.21 36.8936 104.29 36.812 104.37L36.8995 104.459ZM37.135 104.21L37.2292 104.293C37.4462 104.044 37.6773 103.73 37.9227 103.353L37.8178 103.285L37.713 103.216C37.4718 103.588 37.2478 103.891 37.0409 104.128L37.135 104.21ZM37.8178 103.285L37.9227 103.353C38.6461 102.239 38.8689 101.178 38.5601 100.18L38.4407 100.217L38.3213 100.254C38.6018 101.16 38.4093 102.144 37.713 103.216L37.8178 103.285ZM38.4407 100.217L38.5601 100.18C38.2533 99.1882 37.4367 98.2746 36.1406 97.4329L36.0725 97.5377L36.0044 97.6425C37.2766 98.4687 38.0389 99.3411 38.3213 100.254L38.4407 100.217ZM36.0725 97.5377L36.1406 97.4329C34.9844 96.6821 33.9515 96.2901 33.0458 96.2774L33.044 96.4024L33.0423 96.5274C33.8812 96.5392 34.8673 96.9041 36.0044 97.6425L36.0725 97.5377ZM33.044 96.4024L33.0458 96.2774C32.1155 96.2643 31.3193 96.7953 30.6552 97.818L30.76 97.8861L30.8649 97.9542C31.5014 96.9741 32.2279 96.5159 33.0423 96.5274L33.044 96.4024ZM35.7761 104.534L35.7081 104.639C36.1024 104.895 36.6369 104.892 36.987 104.549L36.8995 104.459L36.812 104.37C36.5594 104.618 36.1577 104.633 35.8442 104.43L35.7761 104.534ZM29.9492 100.15L29.8253 100.133C29.7705 100.538 29.9781 100.918 30.3093 101.133L30.3774 101.028L30.4455 100.924C30.1839 100.754 30.033 100.463 30.073 100.167L29.9492 100.15ZM20.9384 96.091L21.0432 96.159C21.3064 95.7538 21.8483 95.6386 22.2536 95.9018L22.3217 95.7969L22.3898 95.6921C21.8687 95.3537 21.1719 95.5018 20.8335 96.0229L20.9384 96.091ZM27.7563 97.2776L27.6317 97.2687C27.6054 97.6405 27.3816 97.9543 27.0831 98.1236C26.7858 98.2923 26.4249 98.3125 26.1191 98.114L26.051 98.2188L25.9829 98.3236C26.3792 98.581 26.8415 98.5481 27.2065 98.341C27.5705 98.1345 27.8483 97.7496 27.881 97.2864L27.7563 97.2776ZM19.641 99.9248L19.7091 99.8199C19.3038 99.5567 19.1886 99.0148 19.4518 98.6095L19.347 98.5415L19.2422 98.4734C18.9038 98.9945 19.0519 99.6912 19.573 100.03L19.641 99.9248ZM39.0177 106.794L38.9248 106.878C39.002 106.963 39.012 107.09 38.9492 107.187L39.054 107.255L39.1589 107.323C39.2833 107.131 39.2635 106.88 39.1106 106.71L39.0177 106.794ZM39.1243 106.185L39.0619 106.077C38.7799 106.24 38.6995 106.627 38.9248 106.878L39.0177 106.794L39.1106 106.71C38.9992 106.587 39.0327 106.383 39.1867 106.294L39.1243 106.185ZM37.1884 110.128L37.0836 110.06C36.8204 110.465 36.2785 110.58 35.8732 110.317L35.8051 110.422L35.737 110.527C36.2581 110.865 36.9549 110.717 37.2932 110.196L37.1884 110.128Z" fill="url(#paint1_linear_0_185)" style="mix-blend-mode:exclusion"/>
<g filter="url(#filter1_i_0_185)">
<path d="M45.6442 67.0808C46.0111 66.5158 46.8203 66.4679 47.2514 66.9855L56.1968 77.7288C56.4773 78.0656 56.5057 78.5458 56.267 78.9134L54.2282 82.0528C53.9882 82.4225 53.5344 82.5914 53.1111 82.4686L46.6418 80.5929C45.6889 80.3166 44.9587 81.4471 45.6023 82.2021L49.9594 87.3133C50.2465 87.65 50.2781 88.1355 50.0371 88.5066L47.9641 91.6987C47.725 92.067 47.2735 92.2362 46.8511 92.1157L33.4176 88.2834C32.7708 88.0989 32.487 87.3412 32.8533 86.7771L34.5048 84.2339C34.7551 83.8485 35.2359 83.6833 35.6702 83.8334L41.8457 85.9681C42.8025 86.2988 43.5886 85.1613 42.941 84.3832L38.6191 79.1909C38.3387 78.8541 38.3103 78.374 38.549 78.0065L40.1157 75.594C40.3572 75.2221 40.8148 75.0537 41.2398 75.1803L47.5357 77.0555C48.5151 77.3472 49.2497 76.1556 48.5492 75.4116L44.1664 70.757C43.8504 70.4215 43.8047 69.9134 44.0557 69.5268L45.6442 67.0808Z" fill="url(#paint2_linear_0_185)" fill-opacity="0.5"/>
</g>
<path d="M45.6442 67.0808C46.0111 66.5158 46.8203 66.4679 47.2514 66.9855L56.1968 77.7288C56.4773 78.0656 56.5057 78.5458 56.267 78.9134L54.2282 82.0528C53.9882 82.4225 53.5344 82.5914 53.1111 82.4686L46.6418 80.5929C45.6889 80.3166 44.9587 81.4471 45.6023 82.2021L49.9594 87.3133C50.2465 87.65 50.2781 88.1355 50.0371 88.5066L47.9641 91.6987C47.725 92.067 47.2735 92.2362 46.8511 92.1157L33.4176 88.2834C32.7708 88.0989 32.487 87.3412 32.8533 86.7771L34.5048 84.2339C34.7551 83.8485 35.2359 83.6833 35.6702 83.8334L41.8457 85.9681C42.8025 86.2988 43.5886 85.1613 42.941 84.3832L38.6191 79.1909C38.3387 78.8541 38.3103 78.374 38.549 78.0065L40.1157 75.594C40.3572 75.2221 40.8148 75.0537 41.2398 75.1803L47.5357 77.0555C48.5151 77.3472 49.2497 76.1556 48.5492 75.4116L44.1664 70.757C43.8504 70.4215 43.8047 69.9134 44.0557 69.5268L45.6442 67.0808Z" stroke="url(#paint3_linear_0_185)" stroke-width="0.25" style="mix-blend-mode:exclusion"/>
<g filter="url(#filter2_i_0_185)">
<path d="M52.5797 53.4018C52.7293 53.499 52.7718 53.699 52.6746 53.8486V53.8486C52.658 53.8743 52.6377 53.8974 52.6146 53.9175C52.448 54.0626 52.2434 54.2517 52.0007 54.4848C51.7407 54.7344 51.5016 55.0274 51.2831 55.3638C50.7569 56.174 50.546 56.8168 50.6503 57.2921C50.7547 57.7674 51.2234 58.2756 52.0566 58.8167V58.8167C52.1136 58.8537 52.1898 58.8375 52.2268 58.7805L53.6852 56.5348C53.986 56.0716 54.6054 55.94 55.0685 56.2408L56.189 56.9684C56.6521 57.2692 56.7838 57.8885 56.483 58.3517L55.5916 59.7243C55.2908 60.1875 55.4224 60.8068 55.8856 61.1076L64.287 66.5636C64.7502 66.8644 64.8819 67.4837 64.5811 67.9469L62.9897 70.3974C62.6889 70.8606 62.0696 70.9922 61.6064 70.6914L53.205 65.2355C52.7418 64.9347 52.1224 65.0663 51.8216 65.5295L51.7642 65.618C51.4634 66.0811 50.8441 66.2128 50.3809 65.912L49.2605 65.1844C48.7973 64.8836 48.6657 64.2643 48.9665 63.8011L49.3377 63.2294C49.4652 63.0331 49.4094 62.7706 49.2131 62.6431V62.6431C47.6384 61.6205 46.7292 60.435 46.4854 59.0867C46.2416 57.7383 46.6708 56.2157 47.7728 54.5187C48.1699 53.9071 48.5509 53.3666 48.9156 52.897C49.0767 52.6895 49.2332 52.4949 49.3851 52.3132C49.6954 51.9419 50.2335 51.8782 50.6393 52.1417L52.5797 53.4018Z" fill="url(#paint4_linear_0_185)" fill-opacity="0.5"/>
</g>
<path d="M52.5797 53.4018C52.7293 53.499 52.7718 53.699 52.6746 53.8486V53.8486C52.658 53.8743 52.6377 53.8974 52.6146 53.9175C52.448 54.0626 52.2434 54.2517 52.0007 54.4848C51.7407 54.7344 51.5016 55.0274 51.2831 55.3638C50.7569 56.174 50.546 56.8168 50.6503 57.2921C50.7547 57.7674 51.2234 58.2756 52.0566 58.8167V58.8167C52.1136 58.8537 52.1898 58.8375 52.2268 58.7805L53.6852 56.5348C53.986 56.0716 54.6054 55.94 55.0685 56.2408L56.189 56.9684C56.6521 57.2692 56.7838 57.8885 56.483 58.3517L55.5916 59.7243C55.2908 60.1875 55.4224 60.8068 55.8856 61.1076L64.287 66.5636C64.7502 66.8644 64.8819 67.4837 64.5811 67.9469L62.9897 70.3974C62.6889 70.8606 62.0696 70.9922 61.6064 70.6914L53.205 65.2355C52.7418 64.9347 52.1224 65.0663 51.8216 65.5295L51.7642 65.618C51.4634 66.0811 50.8441 66.2128 50.3809 65.912L49.2605 65.1844C48.7973 64.8836 48.6657 64.2643 48.9665 63.8011L49.3377 63.2294C49.4652 63.0331 49.4094 62.7706 49.2131 62.6431V62.6431C47.6384 61.6205 46.7292 60.435 46.4854 59.0867C46.2416 57.7383 46.6708 56.2157 47.7728 54.5187C48.1699 53.9071 48.5509 53.3666 48.9156 52.897C49.0767 52.6895 49.2332 52.4949 49.3851 52.3132C49.6954 51.9419 50.2335 51.8782 50.6393 52.1417L52.5797 53.4018Z" stroke="url(#paint5_linear_0_185)" stroke-width="0.25" style="mix-blend-mode:exclusion"/>
<g filter="url(#filter3_i_0_185)">
<path d="M75.6063 49.1334C76.0695 49.4342 76.2011 50.0535 75.9003 50.5167L69.1338 60.9362C68.833 61.3994 68.2137 61.531 67.7505 61.2302L66.2731 60.2708C66.0595 60.132 65.9068 59.917 65.8463 59.6695L63.686 50.8313C63.4779 49.98 62.3532 49.7891 61.8759 50.5241L59.4516 54.2572C59.1508 54.7204 58.5315 54.852 58.0683 54.5513L56.73 53.6822C56.2668 53.3814 56.1352 52.762 56.436 52.2989L62.9419 42.2807C63.2427 41.8175 63.862 41.6859 64.3252 41.9866L65.7601 42.9185C65.9717 43.0559 66.1236 43.2683 66.1852 43.513L68.3893 52.2699C68.6024 53.1166 69.7222 53.3027 70.1977 52.5704L72.8274 48.5211C73.1282 48.0579 73.7475 47.9263 74.2107 48.2271L75.6063 49.1334Z" fill="url(#paint6_linear_0_185)" fill-opacity="0.5"/>
</g>
<path d="M75.6063 49.1334C76.0695 49.4342 76.2011 50.0535 75.9003 50.5167L69.1338 60.9362C68.833 61.3994 68.2137 61.531 67.7505 61.2302L66.2731 60.2708C66.0595 60.132 65.9068 59.917 65.8463 59.6695L63.686 50.8313C63.4779 49.98 62.3532 49.7891 61.8759 50.5241L59.4516 54.2572C59.1508 54.7204 58.5315 54.852 58.0683 54.5513L56.73 53.6822C56.2668 53.3814 56.1352 52.762 56.436 52.2989L62.9419 42.2807C63.2427 41.8175 63.862 41.6859 64.3252 41.9866L65.7601 42.9185C65.9717 43.0559 66.1236 43.2683 66.1852 43.513L68.3893 52.2699C68.6024 53.1166 69.7222 53.3027 70.1977 52.5704L72.8274 48.5211C73.1282 48.0579 73.7475 47.9263 74.2107 48.2271L75.6063 49.1334Z" stroke="url(#paint7_linear_0_185)" stroke-width="0.25" style="mix-blend-mode:exclusion"/>
<g filter="url(#filter4_i_0_185)">
<path fill-rule="evenodd" clip-rule="evenodd" d="M81.5548 40.1529C81.5525 40.1072 81.5503 40.0621 81.5481 40.0178C81.5256 39.5721 82.0207 39.2817 82.3949 39.5247V39.5247C82.645 39.6871 82.9793 39.616 83.1417 39.366L84.9613 36.564C85.2621 36.1008 85.1305 35.4815 84.6673 35.1807L76.7458 30.0364C75.2017 29.0336 73.7296 28.8194 72.3297 29.3937C70.9297 29.968 69.4677 31.4286 67.9437 33.7753C67.3033 34.7614 66.7425 35.7965 66.2613 36.8805C65.9668 37.5441 65.7308 38.1002 65.5535 38.5488C65.3865 38.9712 65.5527 39.4443 65.9336 39.6917L68.0755 41.0826C68.2517 41.197 68.4872 41.147 68.6016 40.9708V40.9708C68.6271 40.9315 68.645 40.888 68.655 40.8422C68.7474 40.4183 68.917 39.7667 69.1638 38.8876C69.4244 37.9592 69.7756 37.1548 70.2174 36.4745C70.9521 35.3432 71.6437 34.5751 72.2924 34.1704C72.941 33.7657 73.6208 33.7941 74.3317 34.2558V34.2558C74.3703 34.2809 74.3826 34.3318 74.3598 34.3718C73.6553 35.6075 73.0139 36.8266 72.4356 38.0291C71.8461 39.2548 71.4752 40.3615 71.3227 41.3493C71.1653 42.3447 71.2483 43.2463 71.5715 44.0539C71.8947 44.8615 72.5264 45.5706 73.4666 46.1812C74.6438 46.9457 75.8789 47.1609 77.1718 46.8268C78.4647 46.4927 79.5082 45.7141 80.3025 44.491C80.6401 43.9712 80.9064 43.4649 81.1014 42.9721C81.2965 42.4793 81.4338 41.9708 81.5135 41.4465C81.5645 41.0667 81.5783 40.6354 81.5548 40.1529ZM76.3017 36.8564C76.5671 36.3355 77.2251 36.1674 77.7154 36.4858L79.1023 37.3865C79.3472 37.5455 79.5167 37.8034 79.5247 38.0952C79.5345 38.4509 79.502 38.8148 79.4271 39.1868C79.3198 39.7203 79.1321 40.1934 78.864 40.6062C78.5264 41.126 78.2419 41.4846 78.0104 41.6821C77.779 41.8795 77.5297 42.0165 77.2626 42.0931C76.9906 42.1772 76.7556 42.1876 76.5577 42.1243C76.3597 42.061 76.127 41.9424 75.8594 41.7687C75.4543 41.5056 75.1982 41.1844 75.0913 40.8052C74.9843 40.426 74.9999 39.9878 75.138 39.4907C75.2494 39.0848 75.476 38.531 75.8177 37.8291C75.9819 37.4917 76.1433 37.1674 76.3017 36.8564Z" fill="url(#paint8_linear_0_185)" fill-opacity="0.5"/>
</g>
<path d="M66.2613 36.8805L66.3756 36.9312L66.2613 36.8805ZM69.1638 38.8876L69.2841 38.9214L69.2841 38.9214L69.1638 38.8876ZM72.2924 34.1704L72.2262 34.0644L72.2262 34.0644L72.2924 34.1704ZM71.3227 41.3493L71.4462 41.3688L71.4463 41.3683L71.3227 41.3493ZM71.5715 44.0539L71.6875 44.0075L71.6875 44.0075L71.5715 44.0539ZM81.1014 42.9721L80.9852 42.9261L80.9852 42.9261L81.1014 42.9721ZM81.5135 41.4465L81.6371 41.4653L81.6374 41.4631L81.5135 41.4465ZM77.2626 42.0931L77.2282 41.9729L77.2257 41.9736L77.2626 42.0931ZM75.138 39.4907L75.2585 39.5241L75.2586 39.5238L75.138 39.4907ZM75.8177 37.8291L75.9301 37.8838L75.9301 37.8838L75.8177 37.8291ZM68.655 40.8422L68.7771 40.8688L68.655 40.8422ZM76.3017 36.8564L76.1904 36.7996L76.3017 36.8564ZM81.5481 40.0178L81.4232 40.0241C81.4255 40.0684 81.4277 40.1133 81.4299 40.1589L81.5548 40.1529L81.6796 40.1468C81.6774 40.101 81.6752 40.0559 81.6729 40.0115L81.5481 40.0178ZM84.9613 36.564L84.8565 36.4959L83.0368 39.2979L83.1417 39.366L83.2465 39.4341L85.0662 36.6321L84.9613 36.564ZM76.7458 30.0364L76.6777 30.1412L84.5992 35.2855L84.6673 35.1807L84.7354 35.0758L76.8139 29.9316L76.7458 30.0364ZM72.3297 29.3937L72.3771 29.5094C73.7307 28.9541 75.1595 29.1553 76.6777 30.1412L76.7458 30.0364L76.8139 29.9316C75.2438 28.912 73.7286 28.6847 72.2822 29.2781L72.3297 29.3937ZM67.9437 33.7753L68.0485 33.8434C69.5688 31.5024 71.0134 30.0688 72.3771 29.5094L72.3297 29.3937L72.2822 29.2781C70.846 29.8673 69.3666 31.3547 67.8389 33.7072L67.9437 33.7753ZM66.2613 36.8805L66.3756 36.9312C66.8541 35.8531 67.4118 34.8239 68.0485 33.8434L67.9437 33.7753L67.8389 33.7072C67.1949 34.6989 66.6309 35.7398 66.1471 36.8298L66.2613 36.8805ZM65.5535 38.5488L65.6698 38.5947C65.8462 38.1483 66.0814 37.594 66.3756 36.9312L66.2613 36.8805L66.1471 36.8298C65.8521 37.4943 65.6154 38.0521 65.4373 38.5028L65.5535 38.5488ZM68.0755 41.0826L68.1436 40.9778L66.0017 39.5868L65.9336 39.6917L65.8656 39.7965L68.0075 41.1875L68.0755 41.0826ZM69.1638 38.8876L69.0434 38.8538C68.7966 39.7334 68.6261 40.3878 68.5329 40.8156L68.655 40.8422L68.7771 40.8688C68.8687 40.4487 69.0375 39.8001 69.2841 38.9214L69.1638 38.8876ZM70.2174 36.4745L70.1125 36.4064C69.6627 37.0991 69.3068 37.9155 69.0434 38.8538L69.1638 38.8876L69.2841 38.9214C69.5419 38.0029 69.8884 37.2105 70.3222 36.5426L70.2174 36.4745ZM72.2924 34.1704L72.2262 34.0644C71.5544 34.4835 70.8507 35.2697 70.1125 36.4064L70.2174 36.4745L70.3222 36.5426C71.0534 35.4166 71.7331 34.6667 72.3586 34.2764L72.2924 34.1704ZM74.3317 34.2558L74.3998 34.151C74.0301 33.9109 73.6611 33.7787 73.2939 33.7633C72.9258 33.7479 72.5692 33.8504 72.2262 34.0644L72.2924 34.1704L72.3586 34.2764C72.6643 34.0857 72.9718 34 73.2835 34.0131C73.5961 34.0262 73.9224 34.139 74.2636 34.3606L74.3317 34.2558ZM72.4356 38.0291L72.5482 38.0833C73.1252 36.8835 73.7653 35.667 74.4684 34.4337L74.3598 34.3718L74.2512 34.3098C73.5454 35.5479 72.9026 36.7696 72.3229 37.9749L72.4356 38.0291ZM71.3227 41.3493L71.4463 41.3683C71.5963 40.3962 71.9623 39.3015 72.5482 38.0833L72.4356 38.0291L72.3229 37.9749C71.7299 39.208 71.354 40.3267 71.1992 41.3302L71.3227 41.3493ZM71.5715 44.0539L71.6875 44.0075C71.3739 43.2239 71.2918 42.3456 71.4462 41.3688L71.3227 41.3493L71.1993 41.3298C71.0389 42.3439 71.1226 43.2687 71.4554 44.1003L71.5715 44.0539ZM73.4666 46.1812L73.5347 46.0764C72.6099 45.4758 71.9987 44.7851 71.6875 44.0075L71.5715 44.0539L71.4554 44.1003C71.7906 44.938 72.4429 45.6655 73.3985 46.2861L73.4666 46.1812ZM77.1718 46.8268L77.1405 46.7058C75.8834 47.0306 74.6842 46.8229 73.5347 46.0764L73.4666 46.1812L73.3985 46.2861C74.6034 47.0685 75.8743 47.2912 77.203 46.9478L77.1718 46.8268ZM80.3025 44.491L80.1977 44.4229C79.4187 45.6224 78.4002 46.3802 77.1405 46.7058L77.1718 46.8268L77.203 46.9478C78.5291 46.6051 79.5978 45.8058 80.4073 44.5591L80.3025 44.491ZM81.1014 42.9721L80.9852 42.9261C80.7937 43.41 80.5315 43.909 80.1977 44.4229L80.3025 44.491L80.4073 44.5591C80.7487 44.0335 81.0191 43.5198 81.2177 43.0181L81.1014 42.9721ZM81.5135 41.4465L81.3899 41.4277C81.3117 41.9427 81.1768 42.4421 80.9852 42.9261L81.1014 42.9721L81.2177 43.0181C81.4162 42.5165 81.556 41.9989 81.6371 41.4653L81.5135 41.4465ZM81.5548 40.1529L81.4299 40.1589C81.4531 40.6358 81.4394 41.0592 81.3896 41.4298L81.5135 41.4465L81.6374 41.4631C81.6896 41.0741 81.7034 40.6351 81.6796 40.1468L81.5548 40.1529ZM79.1023 37.3865L79.1704 37.2817L77.7835 36.381L77.7154 36.4858L77.6473 36.5907L79.0343 37.4913L79.1023 37.3865ZM79.4271 39.1868L79.5496 39.2115C79.6262 38.8308 79.6597 38.4575 79.6497 38.0918L79.5247 38.0952L79.3998 38.0987C79.4093 38.4443 79.3777 38.7988 79.3046 39.1622L79.4271 39.1868ZM78.864 40.6062L78.9688 40.6743C79.2463 40.2469 79.4395 39.7588 79.5496 39.2115L79.4271 39.1868L79.3046 39.1622C79.2 39.6818 79.0178 40.1399 78.7592 40.5381L78.864 40.6062ZM78.0104 41.6821L78.0916 41.7772C78.3375 41.5674 78.63 41.196 78.9688 40.6743L78.864 40.6062L78.7592 40.5381C78.4228 41.056 78.1464 41.4018 77.9293 41.587L78.0104 41.6821ZM77.2626 42.0931L77.2971 42.2132C77.5829 42.1313 77.8478 41.9851 78.0916 41.7772L78.0104 41.6821L77.9293 41.587C77.7101 41.774 77.4765 41.9017 77.2282 41.9729L77.2626 42.0931ZM76.5577 42.1243L76.5196 42.2434C76.7495 42.3169 77.0119 42.3015 77.2996 42.2125L77.2626 42.0931L77.2257 41.9736C76.9693 42.053 76.7618 42.0584 76.5958 42.0052L76.5577 42.1243ZM75.8594 41.7687L75.7914 41.8735C76.0638 42.0504 76.307 42.1753 76.5196 42.2434L76.5577 42.1243L76.5958 42.0052C76.4125 41.9466 76.1901 41.8344 75.9275 41.6638L75.8594 41.7687ZM75.0913 40.8052L74.971 40.8392C75.0879 41.2537 75.3668 41.5978 75.7914 41.8735L75.8594 41.7687L75.9275 41.6638C75.5418 41.4134 75.3086 41.1151 75.2116 40.7713L75.0913 40.8052ZM75.138 39.4907L75.0176 39.4572C74.8752 39.9698 74.8562 40.4321 74.971 40.8392L75.0913 40.8052L75.2116 40.7713C75.1125 40.42 75.1246 40.0059 75.2585 39.5241L75.138 39.4907ZM75.8177 37.8291L75.7053 37.7744C75.3626 38.4784 75.132 39.0405 75.0175 39.4576L75.138 39.4907L75.2586 39.5238C75.3669 39.1292 75.5894 38.5836 75.9301 37.8838L75.8177 37.8291ZM76.3017 36.8564L76.1904 36.7996C76.0315 37.1114 75.8698 37.4363 75.7053 37.7744L75.8177 37.8291L75.9301 37.8838C76.094 37.547 76.255 37.2235 76.4131 36.9131L76.3017 36.8564ZM74.3317 34.2558L74.2636 34.3606C74.2466 34.3496 74.2413 34.3272 74.2512 34.3098L74.3598 34.3718L74.4684 34.4337C74.5239 34.3363 74.4941 34.2122 74.3998 34.151L74.3317 34.2558ZM68.6016 40.9708L68.7064 41.0389C68.7404 40.9866 68.764 40.929 68.7771 40.8688L68.655 40.8422L68.5329 40.8156C68.526 40.847 68.5138 40.8764 68.4967 40.9028L68.6016 40.9708ZM68.0755 41.0826L68.0075 41.1875C68.2415 41.3395 68.5544 41.2729 68.7064 41.0389L68.6016 40.9708L68.4967 40.9028C68.42 41.021 68.2619 41.0546 68.1436 40.9778L68.0755 41.0826ZM65.5535 38.5488L65.4373 38.5028C65.2471 38.9839 65.4378 39.5187 65.8656 39.7965L65.9336 39.6917L66.0017 39.5868C65.6676 39.3698 65.526 38.9585 65.6698 38.5947L65.5535 38.5488ZM77.7154 36.4858L77.7835 36.381C77.2325 36.0232 76.4902 36.211 76.1904 36.7996L76.3017 36.8564L76.4131 36.9131C76.6439 36.46 77.2177 36.3117 77.6473 36.5907L77.7154 36.4858ZM84.9613 36.564L85.0662 36.6321C85.4046 36.111 85.2565 35.4142 84.7354 35.0758L84.6673 35.1807L84.5992 35.2855C85.0045 35.5487 85.1197 36.0906 84.8565 36.4959L84.9613 36.564ZM79.1023 37.3865L79.0343 37.4913C79.2509 37.632 79.393 37.8549 79.3998 38.0987L79.5247 38.0952L79.6497 38.0918C79.6403 37.752 79.4435 37.459 79.1704 37.2817L79.1023 37.3865ZM82.3949 39.5247L82.3268 39.6296C82.6348 39.8295 83.0465 39.742 83.2465 39.4341L83.1417 39.366L83.0368 39.2979C82.9121 39.4901 82.6552 39.5447 82.463 39.4199L82.3949 39.5247ZM81.5481 40.0178L81.6729 40.0115C81.6555 39.6656 82.04 39.4433 82.3268 39.6296L82.3949 39.5247L82.463 39.4199C82.0014 39.1201 81.3958 39.4787 81.4232 40.0241L81.5481 40.0178Z" fill="url(#paint9_linear_0_185)" style="mix-blend-mode:exclusion"/>
<g filter="url(#filter5_i_0_185)">
<path d="M86.6021 5.84714C86.969 5.28217 87.7782 5.23422 88.2093 5.7519L97.1547 16.4952C97.4352 16.832 97.4636 17.3122 97.2249 17.6797L95.1861 20.8192C94.9461 21.1888 94.4923 21.3577 94.069 21.235L87.5997 19.3593C86.6468 19.083 85.9165 20.2134 86.5602 20.9685L90.9173 26.0796C91.2044 26.4164 91.236 26.9018 90.995 27.273L88.922 30.465C88.6828 30.8334 88.2313 31.0025 87.809 30.882L74.3755 27.0497C73.7287 26.8652 73.4448 26.1076 73.8112 25.5435L75.4627 23.0003C75.713 22.6149 76.1938 22.4497 76.6281 22.5998L82.8036 24.7344C83.7604 25.0652 84.5465 23.9277 83.8988 23.1495L79.577 17.9572C79.2966 17.6204 79.2682 17.1403 79.5069 16.7728L81.0736 14.3604C81.3151 13.9885 81.7727 13.82 82.1977 13.9466L88.4936 15.8219C89.4729 16.1136 90.2076 14.9219 89.5071 14.178L85.1243 9.52338C84.8083 9.18782 84.7626 8.67976 85.0136 8.2932L86.6021 5.84714Z" fill="url(#paint10_linear_0_185)" fill-opacity="0.5"/>
</g>
<path d="M86.6021 5.84714C86.969 5.28217 87.7782 5.23422 88.2093 5.7519L97.1547 16.4952C97.4352 16.832 97.4636 17.3122 97.2249 17.6797L95.1861 20.8192C94.9461 21.1888 94.4923 21.3577 94.069 21.235L87.5997 19.3593C86.6468 19.083 85.9165 20.2134 86.5602 20.9685L90.9173 26.0796C91.2044 26.4164 91.236 26.9018 90.995 27.273L88.922 30.465C88.6828 30.8334 88.2313 31.0025 87.809 30.882L74.3755 27.0497C73.7287 26.8652 73.4448 26.1076 73.8112 25.5435L75.4627 23.0003C75.713 22.6149 76.1938 22.4497 76.6281 22.5998L82.8036 24.7344C83.7604 25.0652 84.5465 23.9277 83.8988 23.1495L79.577 17.9572C79.2966 17.6204 79.2682 17.1403 79.5069 16.7728L81.0736 14.3604C81.3151 13.9885 81.7727 13.82 82.1977 13.9466L88.4936 15.8219C89.4729 16.1136 90.2076 14.9219 89.5071 14.178L85.1243 9.52338C84.8083 9.18782 84.7626 8.67976 85.0136 8.2932L86.6021 5.84714Z" stroke="url(#paint11_linear_0_185)" stroke-width="0.25" style="mix-blend-mode:exclusion"/>
</g>
<g opacity="0.5">
<g filter="url(#filter6_i_0_185)">
<path fill-rule="evenodd" clip-rule="evenodd" d="M11.3132 122.327C10.8361 122.018 10.8069 121.375 11.0893 120.94C11.3717 120.505 11.874 120.419 12.3511 120.729C12.827 121.038 12.9572 121.534 12.6748 121.969C12.3924 122.404 11.7892 122.637 11.3132 122.327ZM19.8112 118.972C19.4949 118.767 19.366 118.269 19.5536 117.98C19.8386 117.541 20.3434 117.46 20.6598 117.666C20.9806 117.874 21.1077 118.365 20.8226 118.804C20.635 119.093 20.1321 119.181 19.8112 118.972Z" fill="url(#paint12_linear_0_185)" fill-opacity="0.5"/>
</g>
<path d="M20.8226 118.804L20.7597 118.763L20.7597 118.763L20.8226 118.804ZM11.0893 120.94L11.0264 120.899C10.7283 121.358 10.7508 122.052 11.2724 122.39L11.3132 122.327L11.3541 122.264C10.9214 121.984 10.8855 121.391 11.1522 120.981L11.0893 120.94ZM12.3511 120.729L12.3919 120.666C12.1407 120.503 11.8771 120.441 11.6348 120.481C11.3916 120.522 11.1779 120.665 11.0264 120.899L11.0893 120.94L11.1522 120.981C11.2831 120.779 11.4617 120.662 11.6596 120.629C11.8582 120.596 12.0843 120.645 12.3102 120.792L12.3511 120.729ZM12.6748 121.969L12.7377 122.01C12.8894 121.777 12.9324 121.522 12.8699 121.283C12.8076 121.045 12.6425 120.829 12.3919 120.666L12.3511 120.729L12.3102 120.792C12.5355 120.939 12.6736 121.125 12.7248 121.321C12.7757 121.516 12.7426 121.727 12.6119 121.928L12.6748 121.969ZM11.3132 122.327L11.2724 122.39C11.7925 122.728 12.4393 122.47 12.7377 122.01L12.6748 121.969L12.6119 121.928C12.3454 122.339 11.7859 122.545 11.3541 122.264L11.3132 122.327ZM19.5536 117.98L19.4907 117.939C19.3822 118.106 19.3689 118.326 19.4208 118.526C19.4729 118.727 19.5935 118.921 19.7704 119.035L19.8112 118.972L19.8521 118.91C19.7126 118.819 19.6106 118.661 19.566 118.489C19.5213 118.316 19.5374 118.143 19.6165 118.021L19.5536 117.98ZM20.6598 117.666L20.7006 117.603C20.3459 117.373 19.7959 117.469 19.4907 117.939L19.5536 117.98L19.6165 118.021C19.8814 117.613 20.3409 117.548 20.6189 117.729L20.6598 117.666ZM20.8226 118.804L20.8855 118.845C21.1905 118.375 21.0601 117.836 20.7006 117.603L20.6598 117.666L20.6189 117.729C20.9011 117.912 21.0248 118.355 20.7597 118.763L20.8226 118.804ZM19.8112 118.972L19.7704 119.035C19.9493 119.152 20.1751 119.183 20.3794 119.149C20.5831 119.114 20.7772 119.012 20.8855 118.845L20.8226 118.804L20.7597 118.763C20.6804 118.885 20.5293 118.971 20.3544 119.001C20.1801 119.03 19.994 119.002 19.8521 118.91L19.8112 118.972Z" fill="url(#paint13_linear_0_185)"/>
<g filter="url(#filter7_i_0_185)">
<path fill-rule="evenodd" clip-rule="evenodd" d="M17.519 104.895C15.8264 103.796 13.5638 104.277 12.4646 105.969L3.3733 119.969C2.27414 121.661 2.75509 123.924 4.44765 125.023L18.447 134.114C20.1396 135.214 22.4022 134.733 23.5014 133.04L32.5927 119.041C33.6919 117.348 33.2109 115.085 31.5184 113.986L17.519 104.895ZM19.7064 124.063C19.2994 124.69 18.8518 125.144 18.3437 125.66L18.3436 125.66C18.3239 125.68 18.3042 125.7 18.2844 125.72C18.1286 125.878 18.0313 126.084 18.0067 126.305L17.9269 127.02C17.8562 127.653 17.0547 127.885 16.6569 127.387V127.387C16.4593 127.14 16.1234 127.054 15.8238 127.157C13.986 127.784 12.2366 127.72 10.7289 126.741C7.88189 124.892 7.38988 120.742 9.52597 117.452C11.2869 114.741 14.3682 113.327 16.991 113.942C17.3208 114.02 17.4243 114.413 17.2398 114.697V114.697C15.3939 117.539 16.0573 121.162 18.6716 122.86C18.9131 123.017 19.1632 123.149 19.4193 123.261C19.7346 123.398 19.8937 123.775 19.7064 124.063V124.063ZM28.0472 117.805C28.5144 117.554 28.4415 116.862 27.9322 116.714V116.714C27.6934 116.644 27.5253 116.433 27.4975 116.185C27.314 114.558 26.6952 113.073 25.4502 112.264C23.0578 110.711 19.553 111.838 17.8069 114.527C15.958 117.374 16.4519 120.883 18.8443 122.436C21.2408 123.993 24.643 123.014 26.4919 120.167C26.8248 119.654 27.0488 119.066 27.2568 118.468C27.322 118.281 27.4543 118.124 27.629 118.03L28.0472 117.805Z" fill="url(#paint14_linear_0_185)" fill-opacity="0.5"/>
</g>
<path d="M17.519 104.895L17.4781 104.958L17.519 104.895ZM4.44765 125.023L4.4068 125.086L4.44765 125.023ZM18.447 134.114L18.4879 134.052L18.447 134.114ZM31.5184 113.986L31.5592 113.923L31.5184 113.986ZM18.3437 125.66L18.2903 125.607L18.2899 125.607L18.3437 125.66ZM18.3436 125.66L18.397 125.712L18.3973 125.712L18.3436 125.66ZM25.4502 112.264L25.491 112.201L25.491 112.201L25.4502 112.264ZM27.2568 118.468L27.3276 118.493L27.2568 118.468ZM27.629 118.03L27.6645 118.096L27.6645 118.096L27.629 118.03ZM28.0472 117.805L28.0828 117.871L28.0472 117.805ZM27.4975 116.185L27.4229 116.194L27.4975 116.185ZM19.4193 123.261L19.3894 123.33L19.4193 123.261ZM15.8238 127.157L15.7995 127.086L15.8238 127.157ZM17.9269 127.02L18.0015 127.028L17.9269 127.02ZM16.991 113.942L16.9739 114.015L16.991 113.942ZM18.2844 125.72L18.3379 125.772L18.2844 125.72ZM18.0067 126.305L18.0813 126.313L18.0067 126.305ZM12.4646 105.969L12.5275 106.01C13.6041 104.352 15.8203 103.881 17.4781 104.958L17.519 104.895L17.5598 104.832C15.8325 103.71 13.5234 104.201 12.4017 105.928L12.4646 105.969ZM3.3733 119.969L3.4362 120.01L12.5275 106.01L12.4646 105.969L12.4017 105.928L3.3104 119.928L3.3733 119.969ZM4.44765 125.023L4.4885 124.96C2.83068 123.884 2.3596 121.667 3.4362 120.01L3.3733 119.969L3.3104 119.928C2.18868 121.655 2.6795 123.964 4.4068 125.086L4.44765 125.023ZM18.447 134.114L18.4879 134.052L4.4885 124.96L4.44765 125.023L4.4068 125.086L18.4062 134.177L18.447 134.114ZM23.5014 133.04L23.4385 132.999C22.3619 134.657 20.1457 135.128 18.4879 134.052L18.447 134.114L18.4062 134.177C20.1335 135.299 22.4426 134.808 23.5643 133.081L23.5014 133.04ZM32.5927 119.041L32.5298 119L23.4385 132.999L23.5014 133.04L23.5643 133.081L32.6556 119.082L32.5927 119.041ZM31.5184 113.986L31.4775 114.049C33.1354 115.126 33.6064 117.342 32.5298 119L32.5927 119.041L32.6556 119.082C33.7773 117.354 33.2865 115.045 31.5592 113.923L31.5184 113.986ZM17.519 104.895L17.4781 104.958L31.4775 114.049L31.5184 113.986L31.5592 113.923L17.5598 104.832L17.519 104.895ZM18.3437 125.66L18.3971 125.712C18.9047 125.197 19.3576 124.738 19.7693 124.104L19.7064 124.063L19.6435 124.023C19.2412 124.642 18.7988 125.091 18.2903 125.607L18.3437 125.66ZM18.3436 125.66L18.3973 125.712L18.3974 125.712L18.3437 125.66L18.2899 125.607L18.2898 125.607L18.3436 125.66ZM18.2844 125.72L18.3379 125.772C18.3577 125.752 18.3774 125.732 18.397 125.712L18.3436 125.66L18.2902 125.607C18.2705 125.627 18.2508 125.647 18.231 125.667L18.2844 125.72ZM17.9269 127.02L18.0015 127.028L18.0813 126.313L18.0067 126.305L17.9322 126.296L17.8524 127.011L17.9269 127.02ZM10.7289 126.741L10.6881 126.804C12.2198 127.798 13.9944 127.86 15.848 127.228L15.8238 127.157L15.7995 127.086C13.9776 127.708 12.2535 127.641 10.7698 126.678L10.7289 126.741ZM9.52597 117.452L9.46307 117.411C7.31115 120.725 7.79677 124.926 10.6881 126.804L10.7289 126.741L10.7698 126.678C7.96701 124.858 7.46861 120.758 9.58887 117.493L9.52597 117.452ZM16.991 113.942L17.0081 113.869C14.3483 113.245 11.2375 114.679 9.46307 117.411L9.52597 117.452L9.58887 117.493C11.3364 114.802 14.3881 113.409 16.9739 114.015L16.991 113.942ZM18.6716 122.86L18.7124 122.797C16.1368 121.124 15.4767 117.55 17.3027 114.738L17.2398 114.697L17.1769 114.656C15.3111 117.529 15.9778 121.2 18.6307 122.923L18.6716 122.86ZM19.4193 123.261L19.4493 123.192C19.1967 123.082 18.9503 122.951 18.7124 122.797L18.6716 122.86L18.6307 122.923C18.8759 123.082 19.1297 123.217 19.3894 123.33L19.4193 123.261ZM25.4502 112.264L25.4093 112.327C26.6276 113.118 27.2407 114.577 27.4229 116.194L27.4975 116.185L27.572 116.177C27.3873 114.538 26.7628 113.027 25.491 112.201L25.4502 112.264ZM17.8069 114.527L17.8698 114.568C19.6002 111.903 23.0614 110.802 25.4093 112.327L25.4502 112.264L25.491 112.201C23.0542 110.619 19.5058 111.773 17.744 114.486L17.8069 114.527ZM18.8443 122.436L18.8851 122.374C16.5362 120.848 16.0374 117.39 17.8698 114.568L17.8069 114.527L17.744 114.486C15.8786 117.359 16.3677 120.918 18.8035 122.499L18.8443 122.436ZM26.4919 120.167L26.429 120.126C24.5965 122.948 21.2382 123.902 18.8851 122.374L18.8443 122.436L18.8035 122.499C21.2434 124.084 24.6894 123.08 26.5548 120.208L26.4919 120.167ZM27.2568 118.468L27.186 118.443C26.9781 119.041 26.7565 119.622 26.429 120.126L26.4919 120.167L26.5548 120.208C26.8931 119.687 27.1195 119.091 27.3276 118.493L27.2568 118.468ZM28.0472 117.805L28.0117 117.739L27.5934 117.964L27.629 118.03L27.6645 118.096L28.0828 117.871L28.0472 117.805ZM27.2568 118.468L27.3276 118.493C27.3868 118.323 27.5066 118.181 27.6645 118.096L27.629 118.03L27.5934 117.964C27.4021 118.067 27.2573 118.239 27.186 118.443L27.2568 118.468ZM27.9322 116.714L27.9112 116.786C28.3561 116.915 28.4198 117.519 28.0117 117.739L28.0472 117.805L28.0828 117.871C28.6091 117.588 28.527 116.809 27.9532 116.642L27.9322 116.714ZM27.9322 116.714L27.9532 116.642C27.7452 116.581 27.5967 116.396 27.572 116.177L27.4975 116.185L27.4229 116.194C27.454 116.469 27.6415 116.707 27.9112 116.786L27.9322 116.714ZM19.4193 123.261L19.3894 123.33C19.6723 123.453 19.7998 123.782 19.6435 124.023L19.7064 124.063L19.7693 124.104C19.9875 123.768 19.7969 123.343 19.4493 123.192L19.4193 123.261ZM16.6569 127.387L16.7155 127.34C16.4966 127.066 16.1267 126.974 15.7995 127.086L15.8238 127.157L15.848 127.228C16.1201 127.135 16.422 127.213 16.5983 127.434L16.6569 127.387ZM17.9269 127.02L17.8524 127.011C17.7891 127.579 17.0716 127.786 16.7155 127.34L16.6569 127.387L16.5983 127.434C17.0378 127.984 17.9234 127.728 18.0015 127.028L17.9269 127.02ZM16.991 113.942L16.9739 114.015C17.1101 114.047 17.1995 114.143 17.2365 114.264C17.274 114.386 17.2572 114.533 17.1769 114.656L17.2398 114.697L17.3027 114.738C17.4069 114.577 17.4305 114.385 17.3799 114.22C17.3289 114.054 17.2017 113.915 17.0081 113.869L16.991 113.942ZM18.2844 125.72L18.231 125.667C18.0632 125.837 17.9586 126.059 17.9322 126.296L18.0067 126.305L18.0813 126.313C18.104 126.109 18.194 125.918 18.3379 125.772L18.2844 125.72Z" fill="url(#paint15_linear_0_185)"/>
<g filter="url(#filter8_i_0_185)">
<path fill-rule="evenodd" clip-rule="evenodd" d="M15.079 116.529C15.555 116.838 15.6842 117.335 15.3991 117.774C15.1153 118.211 14.5123 118.443 14.0364 118.134C13.5592 117.824 13.5298 117.182 13.8136 116.745C14.0987 116.306 14.6019 116.219 15.079 116.529ZM21.9882 115.62C21.6718 115.415 21.5425 114.918 21.7298 114.629C22.0136 114.192 22.5219 114.106 22.8383 114.311C23.1591 114.52 23.2826 115.016 22.9988 115.453C22.8115 115.742 22.309 115.829 21.9882 115.62Z" fill="url(#paint16_linear_0_185)" fill-opacity="0.5"/>
</g>
<path d="M22.9988 115.453L22.9359 115.412L22.9359 115.412L22.9988 115.453ZM15.3991 117.774L15.462 117.815C15.6149 117.58 15.659 117.324 15.5971 117.084C15.5354 116.845 15.3706 116.629 15.1198 116.466L15.079 116.529L15.0381 116.592C15.2634 116.738 15.4012 116.925 15.4518 117.121C15.5023 117.317 15.4684 117.53 15.3362 117.733L15.3991 117.774ZM14.0364 118.134L13.9955 118.197C14.5157 118.535 15.1623 118.277 15.462 117.815L15.3991 117.774L15.3362 117.733C15.0683 118.146 14.509 118.352 14.0772 118.071L14.0364 118.134ZM13.8136 116.745L13.7507 116.704C13.4512 117.165 13.4739 117.858 13.9955 118.197L14.0364 118.134L14.0772 118.071C13.6446 117.79 13.6084 117.198 13.8765 116.786L13.8136 116.745ZM15.079 116.529L15.1198 116.466C14.8686 116.303 14.6046 116.24 14.3616 116.282C14.1179 116.324 13.9035 116.469 13.7507 116.704L13.8136 116.745L13.8765 116.786C14.0088 116.582 14.1886 116.464 14.3869 116.43C14.5861 116.396 14.8123 116.445 15.0381 116.592L15.079 116.529ZM21.7298 114.629L21.6669 114.588C21.5585 114.755 21.5455 114.975 21.5975 115.175C21.6497 115.375 21.7705 115.568 21.9473 115.683L21.9882 115.62L22.029 115.557C21.8894 115.467 21.7874 115.309 21.7427 115.137C21.6978 114.965 21.7138 114.792 21.7927 114.67L21.7298 114.629ZM22.8383 114.311L22.8791 114.248C22.5239 114.018 21.9705 114.121 21.6669 114.588L21.7298 114.629L21.7927 114.67C22.0567 114.263 22.5199 114.194 22.7974 114.374L22.8383 114.311ZM22.9988 115.453L23.0617 115.494C23.3651 115.027 23.2391 114.482 22.8791 114.248L22.8383 114.311L22.7974 114.374C23.0791 114.557 23.2001 115.006 22.9359 115.412L22.9988 115.453ZM21.9882 115.62L21.9473 115.683C22.1262 115.799 22.3518 115.831 22.556 115.797C22.7595 115.763 22.9535 115.661 23.0617 115.494L22.9988 115.453L22.9359 115.412C22.8568 115.534 22.7059 115.62 22.5311 115.649C22.357 115.678 22.1709 115.65 22.029 115.557L21.9882 115.62Z" fill="url(#paint17_linear_0_185)"/>
</g>
<defs>
<filter id="filter0_i_0_185" x="19.0605" y="91.2576" width="24.9584" height="20.4507" filterUnits="userSpaceOnUse" color-interpolation-filters="sRGB">
<feFlood flood-opacity="0" result="BackgroundImageFix"/>
<feBlend mode="normal" in="SourceGraphic" in2="BackgroundImageFix" result="shape"/>
<feColorMatrix in="SourceAlpha" type="matrix" values="0 0 0 0 0 0 0 0 0 0 0 0 0 0 0 0 0 0 127 0" result="hardAlpha"/>
<feOffset dx="1" dy="1"/>
<feGaussianBlur stdDeviation="1.5"/>
<feComposite in2="hardAlpha" operator="arithmetic" k2="-1" k3="1"/>
<feColorMatrix type="matrix" values="0 0 0 0 0.0901961 0 0 0 0 0.584314 0 0 0 0 0.639216 0 0 0 0.5 0"/>
<feBlend mode="normal" in2="shape" result="effect1_innerShadow_0_185"/>
</filter>
<filter id="filter1_i_0_185" x="32.5663" y="66.5004" width="24.9871" height="26.7788" filterUnits="userSpaceOnUse" color-interpolation-filters="sRGB">
<feFlood flood-opacity="0" result="BackgroundImageFix"/>
<feBlend mode="normal" in="SourceGraphic" in2="BackgroundImageFix" result="shape"/>
<feColorMatrix in="SourceAlpha" type="matrix" values="0 0 0 0 0 0 0 0 0 0 0 0 0 0 0 0 0 0 127 0" result="hardAlpha"/>
<feOffset dx="1" dy="1"/>
<feGaussianBlur stdDeviation="1.5"/>
<feComposite in2="hardAlpha" operator="arithmetic" k2="-1" k3="1"/>
<feColorMatrix type="matrix" values="0 0 0 0 0.0901961 0 0 0 0 0.584314 0 0 0 0 0.639216 0 0 0 0.5 0"/>
<feBlend mode="normal" in2="shape" result="effect1_innerShadow_0_185"/>
</filter>
<filter id="filter2_i_0_185" x="46.2941" y="51.8563" width="19.5735" height="20.1216" filterUnits="userSpaceOnUse" color-interpolation-filters="sRGB">
<feFlood flood-opacity="0" result="BackgroundImageFix"/>
<feBlend mode="normal" in="SourceGraphic" in2="BackgroundImageFix" result="shape"/>
<feColorMatrix in="SourceAlpha" type="matrix" values="0 0 0 0 0 0 0 0 0 0 0 0 0 0 0 0 0 0 127 0" result="hardAlpha"/>
<feOffset dx="1" dy="1"/>
<feGaussianBlur stdDeviation="1.5"/>
<feComposite in2="hardAlpha" operator="arithmetic" k2="-1" k3="1"/>
<feColorMatrix type="matrix" values="0 0 0 0 0.0901961 0 0 0 0 0.584314 0 0 0 0 0.639216 0 0 0 0.5 0"/>
<feBlend mode="normal" in2="shape" result="effect1_innerShadow_0_185"/>
</filter>
<filter id="filter3_i_0_185" x="56.1495" y="41.7002" width="21.0372" height="20.8165" filterUnits="userSpaceOnUse" color-interpolation-filters="sRGB">
<feFlood flood-opacity="0" result="BackgroundImageFix"/>
<feBlend mode="normal" in="SourceGraphic" in2="BackgroundImageFix" result="shape"/>
<feColorMatrix in="SourceAlpha" type="matrix" values="0 0 0 0 0 0 0 0 0 0 0 0 0 0 0 0 0 0 127 0" result="hardAlpha"/>
<feOffset dx="1" dy="1"/>
<feGaussianBlur stdDeviation="1.5"/>
<feComposite in2="hardAlpha" operator="arithmetic" k2="-1" k3="1"/>
<feColorMatrix type="matrix" values="0 0 0 0 0.0901961 0 0 0 0 0.584314 0 0 0 0 0.639216 0 0 0 0.5 0"/>
<feBlend mode="normal" in2="shape" result="effect1_innerShadow_0_185"/>
</filter>
<filter id="filter4_i_0_185" x="65.3636" y="28.955" width="20.8842" height="19.1493" filterUnits="userSpaceOnUse" color-interpolation-filters="sRGB">
<feFlood flood-opacity="0" result="BackgroundImageFix"/>
<feBlend mode="normal" in="SourceGraphic" in2="BackgroundImageFix" result="shape"/>
<feColorMatrix in="SourceAlpha" type="matrix" values="0 0 0 0 0 0 0 0 0 0 0 0 0 0 0 0 0 0 127 0" result="hardAlpha"/>
<feOffset dx="1" dy="1"/>
<feGaussianBlur stdDeviation="1.5"/>
<feComposite in2="hardAlpha" operator="arithmetic" k2="-1" k3="1"/>
<feColorMatrix type="matrix" values="0 0 0 0 0.0901961 0 0 0 0 0.584314 0 0 0 0 0.639216 0 0 0 0.5 0"/>
<feBlend mode="normal" in2="shape" result="effect1_innerShadow_0_185"/>
</filter>
<filter id="filter5_i_0_185" x="73.5242" y="5.26672" width="24.9871" height="26.7788" filterUnits="userSpaceOnUse" color-interpolation-filters="sRGB">
<feFlood flood-opacity="0" result="BackgroundImageFix"/>
<feBlend mode="normal" in="SourceGraphic" in2="BackgroundImageFix" result="shape"/>
<feColorMatrix in="SourceAlpha" type="matrix" values="0 0 0 0 0 0 0 0 0 0 0 0 0 0 0 0 0 0 127 0" result="hardAlpha"/>
<feOffset dx="1" dy="1"/>
<feGaussianBlur stdDeviation="1.5"/>
<feComposite in2="hardAlpha" operator="arithmetic" k2="-1" k3="1"/>
<feColorMatrix type="matrix" values="0 0 0 0 0.0901961 0 0 0 0 0.584314 0 0 0 0 0.639216 0 0 0 0.5 0"/>
<feBlend mode="normal" in2="shape" result="effect1_innerShadow_0_185"/>
</filter>
<filter id="filter6_i_0_185" x="10.8336" y="117.483" width="11.2223" height="6.06104" filterUnits="userSpaceOnUse" color-interpolation-filters="sRGB">
<feFlood flood-opacity="0" result="BackgroundImageFix"/>
<feBlend mode="normal" in="SourceGraphic" in2="BackgroundImageFix" result="shape"/>
<feColorMatrix in="SourceAlpha" type="matrix" values="0 0 0 0 0 0 0 0 0 0 0 0 0 0 0 0 0 0 127 0" result="hardAlpha"/>
<feOffset dx="1" dy="1"/>
<feGaussianBlur stdDeviation="0.5"/>
<feComposite in2="hardAlpha" operator="arithmetic" k2="-1" k3="1"/>
<feColorMatrix type="matrix" values="0 0 0 0 0.0901961 0 0 0 0 0.584314 0 0 0 0 0.639216 0 0 0 0.5 0"/>
<feBlend mode="normal" in2="shape" result="effect1_innerShadow_0_185"/>
</filter>
<filter id="filter7_i_0_185" x="2.70825" y="104.23" width="31.5494" height="31.5494" filterUnits="userSpaceOnUse" color-interpolation-filters="sRGB">
<feFlood flood-opacity="0" result="BackgroundImageFix"/>
<feBlend mode="normal" in="SourceGraphic" in2="BackgroundImageFix" result="shape"/>
<feColorMatrix in="SourceAlpha" type="matrix" values="0 0 0 0 0 0 0 0 0 0 0 0 0 0 0 0 0 0 127 0" result="hardAlpha"/>
<feOffset dx="1" dy="1"/>
<feGaussianBlur stdDeviation="0.5"/>
<feComposite in2="hardAlpha" operator="arithmetic" k2="-1" k3="1"/>
<feColorMatrix type="matrix" values="0 0 0 0 0.0901961 0 0 0 0 0.584314 0 0 0 0 0.639216 0 0 0 0.5 0"/>
<feBlend mode="normal" in2="shape" result="effect1_innerShadow_0_185"/>
</filter>
<filter id="filter8_i_0_185" x="13.5569" y="114.13" width="10.6754" height="5.22119" filterUnits="userSpaceOnUse" color-interpolation-filters="sRGB">
<feFlood flood-opacity="0" result="BackgroundImageFix"/>
<feBlend mode="normal" in="SourceGraphic" in2="BackgroundImageFix" result="shape"/>
<feColorMatrix in="SourceAlpha" type="matrix" values="0 0 0 0 0 0 0 0 0 0 0 0 0 0 0 0 0 0 127 0" result="hardAlpha"/>
<feOffset dx="1" dy="1"/>
<feGaussianBlur stdDeviation="0.5"/>
<feComposite in2="hardAlpha" operator="arithmetic" k2="-1" k3="1"/>
<feColorMatrix type="matrix" values="0 0 0 0 0.0901961 0 0 0 0 0.584314 0 0 0 0 0.639216 0 0 0 0.5 0"/>
<feBlend mode="normal" in2="shape" result="effect1_innerShadow_0_185"/>
</filter>
<linearGradient id="paint0_linear_0_185" x1="18.4732" y1="99.1664" x2="35.9724" y2="111.789" gradientUnits="userSpaceOnUse">
<stop stop-color="#FF0000"/>
<stop offset="1" stop-color="#004EFF"/>
</linearGradient>
<linearGradient id="paint1_linear_0_185" x1="18.8024" y1="99.3801" x2="36.896" y2="111.13" gradientUnits="userSpaceOnUse">
<stop stop-color="#FF0000"/>
<stop offset="1" stop-color="#0059FF"/>
</linearGradient>
<linearGradient id="paint2_linear_0_185" x1="31.8819" y1="87.76" x2="44.5912" y2="96.4042" gradientUnits="userSpaceOnUse">
<stop stop-color="#FF0000"/>
<stop offset="1" stop-color="#004EFF"/>
</linearGradient>
<linearGradient id="paint3_linear_0_185" x1="32.1162" y1="87.9121" x2="44.9928" y2="96.2742" gradientUnits="userSpaceOnUse">
<stop stop-color="#FF0000"/>
<stop offset="1" stop-color="#0059FF"/>
</linearGradient>
<linearGradient id="paint4_linear_0_185" x1="43.0156" y1="61.1289" x2="60.1412" y2="73.9465" gradientUnits="userSpaceOnUse">
<stop stop-color="#FF0000"/>
<stop offset="1" stop-color="#004EFF"/>
</linearGradient>
<linearGradient id="paint5_linear_0_185" x1="43.3423" y1="61.3411" x2="61.2984" y2="73.0019" gradientUnits="userSpaceOnUse">
<stop stop-color="#FF0000"/>
<stop offset="1" stop-color="#0059FF"/>
</linearGradient>
<linearGradient id="paint6_linear_0_185" x1="55.4784" y1="53.2606" x2="68.0288" y2="62.1199" gradientUnits="userSpaceOnUse">
<stop stop-color="#FF0000"/>
<stop offset="1" stop-color="#004EFF"/>
</linearGradient>
<linearGradient id="paint7_linear_0_185" x1="55.7126" y1="53.4127" x2="68.5892" y2="61.7748" gradientUnits="userSpaceOnUse">
<stop stop-color="#FF0000"/>
<stop offset="1" stop-color="#0059FF"/>
</linearGradient>
<linearGradient id="paint8_linear_0_185" x1="63.6681" y1="39.818" x2="76.9141" y2="49.163" gradientUnits="userSpaceOnUse">
<stop stop-color="#FF0000"/>
<stop offset="1" stop-color="#004EFF"/>
</linearGradient>
<linearGradient id="paint9_linear_0_185" x1="63.9153" y1="39.9785" x2="77.5027" y2="48.8023" gradientUnits="userSpaceOnUse">
<stop stop-color="#FF0000"/>
<stop offset="1" stop-color="#0059FF"/>
</linearGradient>
<linearGradient id="paint10_linear_0_185" x1="72.8398" y1="26.5263" x2="85.5491" y2="35.1706" gradientUnits="userSpaceOnUse">
<stop stop-color="#FF0000"/>
<stop offset="1" stop-color="#004EFF"/>
</linearGradient>
<linearGradient id="paint11_linear_0_185" x1="73.0741" y1="26.6785" x2="85.9506" y2="35.0406" gradientUnits="userSpaceOnUse">
<stop stop-color="#FF0000"/>
<stop offset="1" stop-color="#0059FF"/>
</linearGradient>
<linearGradient id="paint12_linear_0_185" x1="10.5219" y1="121.813" x2="16.3925" y2="125.626" gradientUnits="userSpaceOnUse">
<stop stop-color="#FF0000"/>
<stop offset="1" stop-color="#0049FF"/>
</linearGradient>
<linearGradient id="paint13_linear_0_185" x1="10.5219" y1="121.813" x2="16.3925" y2="125.626" gradientUnits="userSpaceOnUse">
<stop stop-color="#FF0000"/>
<stop offset="1" stop-color="#0009FF"/>
</linearGradient>
<linearGradient id="paint14_linear_0_185" x1="1.3833" y1="123.033" x2="21.5114" y2="136.104" gradientUnits="userSpaceOnUse">
<stop stop-color="#FF0000"/>
<stop offset="1" stop-color="#0049FF"/>
</linearGradient>
<linearGradient id="paint15_linear_0_185" x1="1.3833" y1="123.033" x2="21.5114" y2="136.104" gradientUnits="userSpaceOnUse">
<stop stop-color="#FF0000"/>
<stop offset="1" stop-color="#0009FF"/>
</linearGradient>
<linearGradient id="paint16_linear_0_185" x1="13.245" y1="117.62" x2="19.1157" y2="121.433" gradientUnits="userSpaceOnUse">
<stop stop-color="#FF0000"/>
<stop offset="1" stop-color="#0049FF"/>
</linearGradient>
<linearGradient id="paint17_linear_0_185" x1="13.245" y1="117.62" x2="19.1157" y2="121.433" gradientUnits="userSpaceOnUse">
<stop stop-color="#FF0000"/>
<stop offset="1" stop-color="#0009FF"/>
</linearGradient>
</defs>
</svg>
