<svg width="158" height="174" viewBox="0 0 158 174" fill="none" xmlns="http://www.w3.org/2000/svg">
<mask id="path-1-inside-1_35_3316" fill="white">
<path d="M49.5032 43.4475C48.8732 43.9952 49.1495 45.0475 49.9455 45.2991C50.4858 45.4699 51.0047 45.6653 51.5021 45.8854C52.5853 46.3647 53.5868 47.1329 54.5058 48.1901C56.238 50.1828 56.8607 52.3349 56.3747 54.6463C55.8886 56.9577 54.3956 59.2004 51.8956 61.3737C49.4418 63.5068 46.8457 64.5608 44.1079 64.5346C41.37 64.5082 39.1104 63.47 37.3294 61.4211C36.5649 60.5417 35.9864 59.6891 35.5942 58.8639C35.2983 58.2412 35.0661 57.596 34.8975 56.9282C34.8144 56.5989 34.4518 56.4154 34.1462 56.5635C33.937 56.6648 33.6857 56.6134 33.5332 56.4379L30.2391 52.6484C29.8768 52.2316 29.9209 51.6 30.3377 51.2377L50.4415 33.7618C50.8583 33.3994 51.4899 33.4436 51.8522 33.8604L54.932 37.4033C55.2943 37.8201 55.2502 38.4517 54.8333 38.8141L49.5032 43.4475ZM48.7635 49.2145C48.3488 48.7375 47.8501 48.3087 47.2676 47.9283C46.8439 47.6517 46.3977 47.4163 45.9293 47.222C45.6014 47.0859 45.2282 47.1637 44.9603 47.3966L38.0918 53.3672C37.7724 53.6449 37.6559 54.097 37.8445 54.4758C37.9554 54.6983 38.0732 54.9058 38.1979 55.0982C38.4362 55.4658 38.7539 55.8792 39.1523 56.3376C40.3152 57.6753 41.5706 58.3339 42.9177 58.3127C44.2648 58.2915 45.7169 57.6043 47.2725 56.2519C48.6613 55.0446 49.5234 53.8764 49.8587 52.7474C50.194 51.6182 49.8289 50.4402 48.7635 49.2145Z"/>
</mask>
<g filter="url(#filter0_ii_35_3316)">
<path d="M49.5032 43.4475C48.8732 43.9952 49.1495 45.0475 49.9455 45.2991C50.4858 45.4699 51.0047 45.6653 51.5021 45.8854C52.5853 46.3647 53.5868 47.1329 54.5058 48.1901C56.238 50.1828 56.8607 52.3349 56.3747 54.6463C55.8886 56.9577 54.3956 59.2004 51.8956 61.3737C49.4418 63.5068 46.8457 64.5608 44.1079 64.5346C41.37 64.5082 39.1104 63.47 37.3294 61.4211C36.5649 60.5417 35.9864 59.6891 35.5942 58.8639C35.2983 58.2412 35.0661 57.596 34.8975 56.9282C34.8144 56.5989 34.4518 56.4154 34.1462 56.5635C33.937 56.6648 33.6857 56.6134 33.5332 56.4379L30.2391 52.6484C29.8768 52.2316 29.9209 51.6 30.3377 51.2377L50.4415 33.7618C50.8583 33.3994 51.4899 33.4436 51.8522 33.8604L54.932 37.4033C55.2943 37.8201 55.2502 38.4517 54.8333 38.8141L49.5032 43.4475ZM48.7635 49.2145C48.3488 48.7375 47.8501 48.3087 47.2676 47.9283C46.8439 47.6517 46.3977 47.4163 45.9293 47.222C45.6014 47.0859 45.2282 47.1637 44.9603 47.3966L38.0918 53.3672C37.7724 53.6449 37.6559 54.097 37.8445 54.4758C37.9554 54.6983 38.0732 54.9058 38.1979 55.0982C38.4362 55.4658 38.7539 55.8792 39.1523 56.3376C40.3152 57.6753 41.5706 58.3339 42.9177 58.3127C44.2648 58.2915 45.7169 57.6043 47.2725 56.2519C48.6613 55.0446 49.5234 53.8764 49.8587 52.7474C50.194 51.6182 49.8289 50.4402 48.7635 49.2145Z" fill="url(#paint0_linear_35_3316)" fill-opacity="0.25"/>
</g>
<path d="M51.5021 45.8854L51.7449 45.3367L51.7449 45.3367L51.5021 45.8854ZM54.5058 48.1901L54.9586 47.7965L54.9586 47.7965L54.5058 48.1901ZM56.3747 54.6463L56.9618 54.7698L56.9618 54.7698L56.3747 54.6463ZM51.8956 61.3737L52.2892 61.8265L52.2892 61.8265L51.8956 61.3737ZM44.1079 64.5346L44.1021 65.1345L44.1022 65.1345L44.1079 64.5346ZM37.3294 61.4211L36.8765 61.8148L36.8765 61.8148L37.3294 61.4211ZM35.5942 58.8639L35.0523 59.1214L35.0523 59.1214L35.5942 58.8639ZM48.7635 49.2145L49.2163 48.8209L49.2163 48.8209L48.7635 49.2145ZM47.2676 47.9283L47.5956 47.4259L47.5956 47.4259L47.2676 47.9283ZM38.1979 55.0982L37.6944 55.4246L37.6944 55.4246L38.1979 55.0982ZM39.1523 56.3376L38.6995 56.7312L38.6995 56.7312L39.1523 56.3376ZM42.9177 58.3127L42.9271 58.9126L42.9271 58.9126L42.9177 58.3127ZM47.2725 56.2519L47.6662 56.7047L47.6662 56.7047L47.2725 56.2519ZM49.8587 52.7474L50.4339 52.9182L50.4339 52.9182L49.8587 52.7474ZM37.8445 54.4758L37.3075 54.7433L37.8445 54.4758ZM45.9293 47.222L45.6994 47.7762L45.9293 47.222ZM49.9455 45.2991L50.1263 44.727L49.9455 45.2991ZM33.5332 56.4379L33.986 56.0443L33.5332 56.4379ZM34.8975 56.9282L34.3157 57.075L34.8975 56.9282ZM30.2391 52.6484L30.6919 52.2548L30.2391 52.6484ZM49.9455 45.2991L49.7646 45.8712C50.2847 46.0356 50.7829 46.2233 51.2594 46.4341L51.5021 45.8854L51.7449 45.3367C51.2264 45.1073 50.6868 44.9041 50.1263 44.727L49.9455 45.2991ZM51.5021 45.8854L51.2594 46.4341C52.2486 46.8718 53.1814 47.5811 54.053 48.5837L54.5058 48.1901L54.9586 47.7965C53.9922 46.6848 52.9219 45.8575 51.7449 45.3367L51.5021 45.8854ZM54.5058 48.1901L54.053 48.5837C55.6785 50.4537 56.2299 52.4188 55.7875 54.5228L56.3747 54.6463L56.9618 54.7698C57.4915 52.251 56.7975 49.9119 54.9586 47.7965L54.5058 48.1901ZM56.3747 54.6463L55.7875 54.5228C55.3372 56.6639 53.9421 58.7996 51.502 60.9209L51.8956 61.3737L52.2892 61.8265C54.8492 59.6011 56.4399 57.2516 56.9618 54.7698L56.3747 54.6463ZM51.8956 61.3737L51.502 60.9208C49.1368 62.9768 46.6781 63.9592 44.1137 63.9346L44.1079 64.5346L44.1022 65.1345C47.0133 65.1625 49.7467 64.0367 52.2892 61.8265L51.8956 61.3737ZM44.1079 64.5346L44.1137 63.9346C41.5459 63.9099 39.4496 62.9456 37.7822 61.0275L37.3294 61.4211L36.8765 61.8148C38.7713 63.9944 41.1942 65.1066 44.1021 65.1345L44.1079 64.5346ZM37.3294 61.4211L37.7822 61.0275C37.0442 60.1785 36.4996 59.371 36.1361 58.6063L35.5942 58.8639L35.0523 59.1214C35.4733 60.0072 36.0856 60.9049 36.8765 61.8148L37.3294 61.4211ZM35.5942 58.8639L36.1361 58.6063C35.8571 58.0192 35.6382 57.411 35.4792 56.7813L34.8975 56.9282L34.3157 57.075C34.494 57.781 34.7395 58.4633 35.0523 59.1214L35.5942 58.8639ZM33.5332 56.4379L33.986 56.0443L30.6919 52.2548L30.2391 52.6484L29.7863 53.0421L33.0804 56.8315L33.5332 56.4379ZM30.3377 51.2377L30.7314 51.6905L50.8351 34.2146L50.4415 33.7618L50.0478 33.3089L29.9441 50.7848L30.3377 51.2377ZM51.8522 33.8604L51.3994 34.2541L54.4792 37.7969L54.932 37.4033L55.3848 37.0096L52.3051 33.4668L51.8522 33.8604ZM54.8333 38.8141L54.4397 38.3612L49.1096 42.9947L49.5032 43.4475L49.8968 43.9003L55.227 39.2669L54.8333 38.8141ZM48.7635 49.2145L49.2163 48.8209C48.7618 48.2981 48.22 47.8336 47.5956 47.4259L47.2676 47.9283L46.9396 48.4307C47.4803 48.7838 47.9358 49.1769 48.3107 49.6082L48.7635 49.2145ZM47.2676 47.9283L47.5956 47.4259C47.1407 47.1289 46.6617 46.8763 46.1593 46.6678L45.9293 47.222L45.6994 47.7762C46.1337 47.9564 46.5471 48.1745 46.9396 48.4307L47.2676 47.9283ZM44.9603 47.3966L44.5666 46.9438L37.6982 52.9144L38.0918 53.3672L38.4855 53.82L45.3539 47.8494L44.9603 47.3966ZM37.8445 54.4758L37.3075 54.7433C37.4276 54.9844 37.5564 55.2117 37.6944 55.4246L38.1979 55.0982L38.7014 54.7718C38.5899 54.5999 38.4832 54.4122 38.3816 54.2083L37.8445 54.4758ZM38.1979 55.0982L37.6944 55.4246C37.9523 55.8224 38.2887 56.2586 38.6995 56.7312L39.1523 56.3376L39.6052 55.9439C39.2192 55.4999 38.9201 55.1093 38.7014 54.7718L38.1979 55.0982ZM39.1523 56.3376L38.6995 56.7312C39.9394 58.1575 41.351 58.9374 42.9271 58.9126L42.9177 58.3127L42.9082 57.7128C41.7902 57.7303 40.6911 57.1931 39.6052 55.9439L39.1523 56.3376ZM42.9177 58.3127L42.9271 58.9126C44.4738 58.8882 46.0579 58.1028 47.6662 56.7047L47.2725 56.2519L46.8789 55.7991C45.3758 57.1057 44.0558 57.6947 42.9082 57.7128L42.9177 58.3127ZM47.2725 56.2519L47.6662 56.7047C49.0966 55.4613 50.0526 54.2019 50.4339 52.9182L49.8587 52.7474L49.2835 52.5766C48.9941 53.5509 48.2261 54.628 46.8789 55.7991L47.2725 56.2519ZM49.8587 52.7474L50.4339 52.9182C50.8484 51.5223 50.3601 50.1367 49.2163 48.8209L48.7635 49.2145L48.3107 49.6082C49.2977 50.7436 49.5396 51.7142 49.2835 52.5766L49.8587 52.7474ZM38.0918 53.3672L37.6982 52.9144C37.1978 53.3494 36.9825 54.0909 37.3075 54.7433L37.8445 54.4758L38.3816 54.2083C38.3292 54.103 38.3471 53.9403 38.4855 53.82L38.0918 53.3672ZM45.9293 47.222L46.1593 46.6678C45.6001 46.4358 44.9885 46.5771 44.5666 46.9438L44.9603 47.3966L45.3539 47.8494C45.4679 47.7503 45.6028 47.7361 45.6994 47.7762L45.9293 47.222ZM54.932 37.4033L54.4792 37.7969C54.6241 37.9636 54.6064 38.2163 54.4397 38.3612L54.8333 38.8141L55.227 39.2669C55.8939 38.6871 55.9645 37.6766 55.3848 37.0096L54.932 37.4033ZM49.9455 45.2991L50.1263 44.727C49.9465 44.6701 49.8166 44.5204 49.772 44.3402C49.7285 44.1645 49.7748 44.0063 49.8968 43.9003L49.5032 43.4475L49.1096 42.9947C48.0795 43.89 48.5815 45.4972 49.7646 45.8712L49.9455 45.2991ZM50.4415 33.7618L50.8351 34.2146C51.0018 34.0697 51.2545 34.0873 51.3994 34.2541L51.8522 33.8604L52.3051 33.4668C51.7253 32.7999 50.7147 32.7292 50.0478 33.3089L50.4415 33.7618ZM34.1462 56.5635L33.8846 56.0235C33.9193 56.0067 33.9608 56.0152 33.986 56.0443L33.5332 56.4379L33.0804 56.8315C33.4107 57.2115 33.9547 57.3229 34.4078 57.1035L34.1462 56.5635ZM34.8975 56.9282L35.4792 56.7813C35.3097 56.1096 34.5563 55.6981 33.8846 56.0235L34.1462 56.5635L34.4078 57.1035C34.3971 57.1086 34.3832 57.1119 34.3691 57.1116C34.3562 57.1113 34.3466 57.1082 34.3403 57.1052C34.329 57.0996 34.3192 57.0888 34.3157 57.075L34.8975 56.9282ZM30.2391 52.6484L30.6919 52.2548C30.547 52.0881 30.5646 51.8354 30.7314 51.6905L30.3377 51.2377L29.9441 50.7848C29.2772 51.3646 29.2065 52.3752 29.7863 53.0421L30.2391 52.6484Z" fill="#333333" mask="url(#path-1-inside-1_35_3316)"/>
<g filter="url(#filter1_ii_35_3316)">
<path d="M83.7308 80.6276C84.1736 81.1369 83.995 81.9296 83.3767 82.1999L65.4531 90.0362C65.0525 90.2113 64.5846 90.106 64.2978 89.776L60.6052 85.5282C60.3168 85.1964 60.2789 84.715 60.5119 84.3422L66.0915 75.4147C66.6158 74.5758 65.7339 73.5663 64.8322 73.9732L55.2593 78.2925C54.8568 78.4741 54.3829 78.3703 54.0933 78.0371L50.3434 73.7234C50.056 73.3927 50.0173 72.9135 50.2479 72.541L60.5354 55.9205C60.8901 55.3475 61.6984 55.2822 62.1404 55.7907L65.3493 59.4821C65.6502 59.8282 65.677 60.3347 65.4144 60.7107L59.4852 69.2006C58.9071 70.0284 59.7803 71.0938 60.7054 70.6895L70.4581 66.4277C70.8587 66.2526 71.3265 66.358 71.6133 66.6879L74.5336 70.0474C74.8239 70.3813 74.8602 70.8662 74.623 71.2397L69.0248 80.0522C68.4783 80.9125 69.4181 81.9432 70.325 81.4783L79.4129 76.8196C79.8223 76.6097 80.322 76.7062 80.6238 77.0534L83.7308 80.6276Z" fill="url(#paint1_linear_35_3316)" fill-opacity="0.25"/>
</g>
<path d="M61.9142 55.9874L65.1227 59.6784C65.3333 59.9207 65.3522 60.276 65.1684 60.5392L59.2391 69.0293C58.4882 70.1053 59.6228 71.4896 60.8253 70.9643L70.5777 66.7024C70.8581 66.5799 71.1866 66.654 71.3873 66.885L74.3075 70.2443C74.5105 70.478 74.5356 70.818 74.3696 71.0793L68.7715 79.8909C68.0611 81.0092 69.2834 82.3496 70.4624 81.7453L79.5503 77.0866C79.8368 76.94 80.1867 77.0075 80.3979 77.2504L83.5045 80.8243C83.8144 81.1808 83.6893 81.7356 83.2566 81.9249L65.3332 89.7611C65.0528 89.8837 64.725 89.8101 64.5243 89.5792L60.8314 85.331C60.6298 85.0988 60.6033 84.7622 60.7662 84.5013L66.3461 75.5735C67.0273 74.4832 65.8812 73.171 64.7092 73.6995L55.1362 78.0189C54.8545 78.146 54.5222 78.0732 54.3195 77.8399L50.5702 73.5269C50.3691 73.2955 50.3415 72.9599 50.5028 72.6991L60.7906 56.0777C61.039 55.6771 61.6048 55.6316 61.9142 55.9874Z" stroke="#333333" stroke-width="0.6"/>
<g filter="url(#filter2_ii_35_3316)">
<path d="M99.6993 93.5857C99.5159 93.7451 99.2381 93.7257 99.0787 93.5423C99.0517 93.5112 99.0292 93.4764 99.0116 93.439C98.8837 93.1673 98.7124 92.8293 98.4977 92.4251C98.2679 91.9924 97.9741 91.5703 97.6163 91.1586C96.7542 90.1669 95.9947 89.6486 95.3379 89.6036C94.681 89.5587 93.8479 89.9749 92.8386 90.8523C92.7695 90.9123 92.7622 91.017 92.8222 91.086L95.4489 94.1076C95.8112 94.5245 95.7671 95.1561 95.3502 95.5184L93.4705 97.1524C93.0537 97.5148 92.4221 97.4706 92.0597 97.0538L90.1268 94.8303C89.7645 94.4134 89.1329 94.3693 88.7161 94.7316L78.0162 104.033C77.5994 104.395 76.9677 104.351 76.6054 103.934L73.5258 100.392C73.1635 99.9747 73.2076 99.3431 73.6244 98.9808L84.3243 89.6795C84.7411 89.3172 84.7853 88.6855 84.423 88.2687L83.8564 87.617C83.4941 87.2001 83.5383 86.5685 83.9551 86.2062L85.8348 84.5722C86.2516 84.2098 86.8832 84.254 87.2456 84.6708L88.0939 85.6467C88.3006 85.8845 88.661 85.9097 88.8988 85.703C90.8064 84.0448 92.6823 83.3133 94.5266 83.5087C96.371 83.704 98.1959 84.8402 100.001 86.9172C100.652 87.6656 101.216 88.3661 101.694 89.0184C101.971 89.3976 102.223 89.7578 102.449 90.0991C102.716 90.5035 102.629 91.039 102.263 91.3569L99.6993 93.5857Z" fill="url(#paint2_linear_35_3316)" fill-opacity="0.25"/>
</g>
<path d="M99.7748 87.1135C100.421 87.857 100.98 88.5517 101.452 89.196C101.727 89.5717 101.976 89.9278 102.198 90.2644C102.378 90.5367 102.324 90.9064 102.066 91.1308L99.5028 93.3591C99.4446 93.4097 99.3558 93.4041 99.3051 93.346C99.2966 93.3363 99.2888 93.3243 99.2826 93.3112C99.1519 93.0335 98.9784 92.6907 98.7626 92.2842C98.521 91.8294 98.2141 91.3884 97.843 90.9615C96.9739 89.9617 96.1439 89.3581 95.3582 89.3043C94.5723 89.2506 93.6576 89.7423 92.6417 90.6255C92.4476 90.7941 92.4271 91.0885 92.5957 91.2826L95.2225 94.3044C95.4761 94.5962 95.4452 95.0386 95.1534 95.2922L93.274 96.926C92.9823 97.1796 92.5398 97.1487 92.2862 96.8569L90.3533 94.6333C89.8823 94.0916 89.0614 94.0343 88.5195 94.5051L77.8195 103.807C77.5277 104.06 77.0853 104.029 76.8317 103.737L73.7519 100.195C73.4985 99.9028 73.5299 99.4611 73.8216 99.2075L84.5217 89.9061C85.0633 89.435 85.1202 88.6134 84.6493 88.0716L84.0829 87.4201C83.8293 87.1283 83.8602 86.6859 84.152 86.4323L86.0314 84.7985C86.3232 84.5449 86.7656 84.5758 87.0192 84.8676L87.8675 85.8434C88.1828 86.2062 88.7328 86.2451 89.0956 85.93C90.964 84.3059 92.7605 83.6235 94.4953 83.8073C96.2345 83.9916 97.9956 85.0669 99.7748 87.1135Z" stroke="#333333" stroke-width="0.6"/>
<g filter="url(#filter3_ii_35_3316)">
<path d="M96.5608 125.366C96.1439 125.728 95.5123 125.684 95.15 125.267L83.5919 111.971C83.2295 111.555 83.2737 110.923 83.6905 110.561L85.8429 108.69C86.0365 108.521 86.2873 108.434 86.5436 108.445L99.7747 109.037C100.653 109.076 101.151 108.045 100.574 107.381L95.8301 101.924C95.4677 101.507 95.5119 100.876 95.9287 100.513L98.0724 98.65C98.4892 98.2876 99.1208 98.3318 99.4831 98.7486L110.614 111.554C110.977 111.97 110.932 112.602 110.516 112.964L108.416 114.79C108.224 114.956 107.976 115.044 107.722 115.034L94.5895 114.537C93.7146 114.504 93.2226 115.532 93.797 116.193L98.8725 122.032C99.2348 122.448 99.1907 123.08 98.7739 123.442L96.5608 125.366Z" fill="url(#paint3_linear_35_3316)" fill-opacity="0.25"/>
</g>
<path d="M99.2569 98.9453L110.388 111.75C110.642 112.042 110.611 112.485 110.319 112.738L108.219 114.563C108.085 114.68 107.911 114.741 107.734 114.734L94.6005 114.238C93.4634 114.195 92.8238 115.531 93.5702 116.39L98.6457 122.228C98.8992 122.52 98.8688 122.962 98.5773 123.215L96.364 125.139C96.0723 125.393 95.6299 125.362 95.3762 125.07L83.8183 111.775C83.5647 111.483 83.5956 111.04 83.8874 110.787L86.0395 108.916C86.175 108.798 86.3511 108.737 86.5304 108.745L99.7611 109.336C100.902 109.387 101.55 108.047 100.801 107.185L96.0567 101.727C95.8032 101.436 95.8336 100.994 96.1251 100.74L98.2691 98.8762C98.5608 98.6226 99.0033 98.6536 99.2569 98.9453Z" stroke="#333333" stroke-width="0.6"/>
<mask id="path-9-inside-2_35_3316" fill="white">
<path d="M120.634 120.13C123.131 123.003 124.497 125.458 124.732 127.496C124.967 129.533 124.149 131.365 122.279 132.991L112.422 141.56C112.005 141.922 111.373 141.878 111.011 141.461L107.79 137.756C107.526 137.452 107.558 136.991 107.862 136.727C108.316 136.332 108.126 135.583 107.541 135.444C107.478 135.429 107.415 135.414 107.35 135.398C106.713 135.245 106.157 135.064 105.681 134.854C105.028 134.551 104.417 134.179 103.847 133.739C103.277 133.298 102.714 132.759 102.161 132.123C100.86 130.626 100.229 128.974 100.267 127.166C100.306 125.359 101.038 123.836 102.464 122.596C103.603 121.606 104.757 121.055 105.927 120.941C107.096 120.828 108.3 121.063 109.538 121.646C110.768 122.219 112.073 123.122 113.453 124.353C114.806 125.562 116.159 126.859 117.51 128.244C117.553 128.288 117.623 128.291 117.67 128.251C118.531 127.502 118.817 126.629 118.528 125.632C118.238 124.636 117.492 123.445 116.288 122.06C115.565 121.228 114.646 120.466 113.533 119.774C112.478 119.12 111.692 118.651 111.174 118.37C111.118 118.34 111.069 118.301 111.027 118.253C110.84 118.037 110.863 117.71 111.078 117.523L113.869 115.097C114.213 114.798 114.715 114.769 115.078 115.043C115.632 115.463 116.343 116.037 117.208 116.764C118.443 117.801 119.585 118.924 120.634 120.13ZM113.813 131.554C114.254 131.171 114.274 130.492 113.85 130.091C113.418 129.683 112.96 129.261 112.475 128.825C111.687 128.114 111.049 127.609 110.561 127.31C109.965 126.942 109.4 126.755 108.867 126.75C108.335 126.745 107.823 126.956 107.332 127.382C107.008 127.664 106.768 127.922 106.613 128.155C106.458 128.388 106.386 128.697 106.396 129.083C106.397 129.459 106.485 129.835 106.657 130.211C106.83 130.587 107.192 131.093 107.745 131.729C108.184 132.234 108.732 132.658 109.387 133C109.894 133.265 110.408 133.458 110.927 133.58C111.213 133.647 111.509 133.557 111.731 133.364L113.813 131.554Z"/>
</mask>
<g filter="url(#filter4_ii_35_3316)">
<path d="M120.634 120.13C123.131 123.003 124.497 125.458 124.732 127.496C124.967 129.533 124.149 131.365 122.279 132.991L112.422 141.56C112.005 141.922 111.373 141.878 111.011 141.461L107.79 137.756C107.526 137.452 107.558 136.991 107.862 136.727C108.316 136.332 108.126 135.583 107.541 135.444C107.478 135.429 107.415 135.414 107.35 135.398C106.713 135.245 106.157 135.064 105.681 134.854C105.028 134.551 104.417 134.179 103.847 133.739C103.277 133.298 102.714 132.759 102.161 132.123C100.86 130.626 100.229 128.974 100.267 127.166C100.306 125.359 101.038 123.836 102.464 122.596C103.603 121.606 104.757 121.055 105.927 120.941C107.096 120.828 108.3 121.063 109.538 121.646C110.768 122.219 112.073 123.122 113.453 124.353C114.806 125.562 116.159 126.859 117.51 128.244C117.553 128.288 117.623 128.291 117.67 128.251C118.531 127.502 118.817 126.629 118.528 125.632C118.238 124.636 117.492 123.445 116.288 122.06C115.565 121.228 114.646 120.466 113.533 119.774C112.478 119.12 111.692 118.651 111.174 118.37C111.118 118.34 111.069 118.301 111.027 118.253C110.84 118.037 110.863 117.71 111.078 117.523L113.869 115.097C114.213 114.798 114.715 114.769 115.078 115.043C115.632 115.463 116.343 116.037 117.208 116.764C118.443 117.801 119.585 118.924 120.634 120.13ZM113.813 131.554C114.254 131.171 114.274 130.492 113.85 130.091C113.418 129.683 112.96 129.261 112.475 128.825C111.687 128.114 111.049 127.609 110.561 127.31C109.965 126.942 109.4 126.755 108.867 126.75C108.335 126.745 107.823 126.956 107.332 127.382C107.008 127.664 106.768 127.922 106.613 128.155C106.458 128.388 106.386 128.697 106.396 129.083C106.397 129.459 106.485 129.835 106.657 130.211C106.83 130.587 107.192 131.093 107.745 131.729C108.184 132.234 108.732 132.658 109.387 133C109.894 133.265 110.408 133.458 110.927 133.58C111.213 133.647 111.509 133.557 111.731 133.364L113.813 131.554Z" fill="url(#paint4_linear_35_3316)" fill-opacity="0.25"/>
</g>
<path d="M120.634 120.13L121.087 119.737L121.087 119.737L120.634 120.13ZM124.732 127.496L125.328 127.427L125.328 127.427L124.732 127.496ZM107.35 135.398L107.21 135.981L107.21 135.981L107.35 135.398ZM105.681 134.854L105.429 135.398L105.438 135.402L105.681 134.854ZM103.847 133.739L103.48 134.214L103.48 134.214L103.847 133.739ZM102.161 132.123L101.708 132.517L101.708 132.517L102.161 132.123ZM100.267 127.166L99.6672 127.154L99.6672 127.154L100.267 127.166ZM102.464 122.596L102.07 122.144L102.07 122.144L102.464 122.596ZM105.927 120.941L105.869 120.344L105.869 120.344L105.927 120.941ZM109.538 121.646L109.283 122.189L109.285 122.19L109.538 121.646ZM113.453 124.353L113.852 123.906L113.453 124.353ZM118.528 125.632L119.104 125.465L119.104 125.465L118.528 125.632ZM116.288 122.06L116.741 121.667L116.741 121.667L116.288 122.06ZM113.533 119.774L113.849 119.265L113.849 119.265L113.533 119.774ZM117.208 116.764L117.594 116.305L117.594 116.305L117.208 116.764ZM112.475 128.825L112.877 128.379L112.877 128.379L112.475 128.825ZM110.561 127.31L110.246 127.821L110.248 127.822L110.561 127.31ZM108.867 126.75L108.873 126.15L108.873 126.15L108.867 126.75ZM107.332 127.382L106.938 126.929L106.938 126.929L107.332 127.382ZM106.613 128.155L106.113 127.823L106.113 127.823L106.613 128.155ZM106.396 129.083L106.996 129.08L106.995 129.067L106.396 129.083ZM106.657 130.211L106.112 130.461L106.112 130.461L106.657 130.211ZM107.745 131.729L107.292 132.123L107.292 132.123L107.745 131.729ZM109.387 133L109.109 133.532L109.109 133.532L109.387 133ZM110.927 133.58L110.79 134.164L110.927 133.58ZM115.078 115.043L115.44 114.565L115.078 115.043ZM111.174 118.37L111.46 117.843L111.174 118.37ZM107.79 137.756L108.243 137.362L107.79 137.756ZM117.51 128.244L117.08 128.663L117.51 128.244ZM107.541 135.444L107.402 136.027L107.541 135.444ZM111.011 141.461L110.558 141.855L111.011 141.461ZM120.634 120.13L120.181 120.524C122.657 123.372 123.922 125.712 124.136 127.564L124.732 127.496L125.328 127.427C125.072 125.203 123.605 122.633 121.087 119.737L120.634 120.13ZM124.732 127.496L124.136 127.564C124.343 129.363 123.642 131.011 121.885 132.538L122.279 132.991L122.672 133.444C124.657 131.719 125.591 129.704 125.328 127.427L124.732 127.496ZM122.279 132.991L121.885 132.538L112.028 141.107L112.422 141.56L112.815 142.013L122.672 133.444L122.279 132.991ZM111.011 141.461L111.464 141.067L108.243 137.362L107.79 137.756L107.337 138.15L110.558 141.855L111.011 141.461ZM107.541 135.444L107.68 134.86C107.618 134.845 107.554 134.83 107.49 134.815L107.35 135.398L107.21 135.981C107.275 135.997 107.339 136.012 107.402 136.027L107.541 135.444ZM107.35 135.398L107.49 134.815C106.88 134.668 106.359 134.498 105.924 134.305L105.681 134.854L105.438 135.402C105.955 135.631 106.547 135.822 107.21 135.981L107.35 135.398ZM105.681 134.854L105.933 134.309C105.321 134.025 104.748 133.677 104.214 133.264L103.847 133.739L103.48 134.214C104.085 134.682 104.735 135.076 105.429 135.398L105.681 134.854ZM103.847 133.739L104.214 133.264C103.679 132.851 103.145 132.341 102.614 131.729L102.161 132.123L101.708 132.517C102.283 133.178 102.874 133.745 103.48 134.214L103.847 133.739ZM102.161 132.123L102.614 131.729C101.4 130.333 100.832 128.822 100.867 127.179L100.267 127.166L99.6672 127.154C99.6253 129.125 100.32 130.919 101.708 132.517L102.161 132.123ZM100.267 127.166L100.867 127.179C100.902 125.55 101.553 124.183 102.858 123.049L102.464 122.596L102.07 122.144C100.523 123.488 99.7094 125.169 99.6672 127.154L100.267 127.166ZM102.464 122.596L102.858 123.049C103.929 122.118 104.97 121.637 105.984 121.538L105.927 120.941L105.869 120.344C104.544 120.472 103.277 121.095 102.07 122.144L102.464 122.596ZM105.927 120.941L105.984 121.538C107.03 121.437 108.126 121.644 109.283 122.189L109.538 121.646L109.794 121.103C108.475 120.482 107.162 120.219 105.869 120.344L105.927 120.941ZM109.538 121.646L109.285 122.19C110.446 122.731 111.702 123.595 113.053 124.801L113.453 124.353L113.852 123.906C112.444 122.648 111.09 121.707 109.792 121.102L109.538 121.646ZM113.453 124.353L113.053 124.801C114.396 126 115.738 127.287 117.08 128.663L117.51 128.244L117.939 127.825C116.579 126.43 115.217 125.124 113.852 123.906L113.453 124.353ZM117.67 128.251L118.063 128.703C118.556 128.275 118.916 127.783 119.1 127.221C119.286 126.656 119.278 126.064 119.104 125.465L118.528 125.632L117.952 125.8C118.067 126.198 118.061 126.541 117.96 126.848C117.858 127.159 117.645 127.477 117.276 127.798L117.67 128.251ZM118.528 125.632L119.104 125.465C118.778 124.344 117.965 123.074 116.741 121.667L116.288 122.06L115.836 122.454C117.019 123.816 117.698 124.928 117.952 125.8L118.528 125.632ZM116.288 122.06L116.741 121.667C115.971 120.781 115.004 119.982 113.849 119.265L113.533 119.774L113.216 120.284C114.287 120.95 115.158 121.674 115.836 122.454L116.288 122.06ZM113.533 119.774L113.849 119.265C112.793 118.609 111.994 118.133 111.46 117.843L111.174 118.37L110.888 118.898C111.389 119.17 112.163 119.63 113.216 120.284L113.533 119.774ZM111.078 117.523L111.472 117.975L114.263 115.549L113.869 115.097L113.475 114.644L110.685 117.07L111.078 117.523ZM115.078 115.043L114.715 115.522C115.259 115.933 115.96 116.5 116.822 117.224L117.208 116.764L117.594 116.305C116.725 115.575 116.006 114.994 115.44 114.565L115.078 115.043ZM117.208 116.764L116.822 117.224C118.033 118.241 119.153 119.341 120.181 120.524L120.634 120.13L121.087 119.737C120.017 118.506 118.853 117.362 117.594 116.305L117.208 116.764ZM113.85 130.091L114.261 129.655C113.826 129.243 113.365 128.818 112.877 128.379L112.475 128.825L112.074 129.27C112.555 129.704 113.009 130.123 113.438 130.527L113.85 130.091ZM112.475 128.825L112.877 128.379C112.08 127.661 111.41 127.127 110.875 126.799L110.561 127.31L110.248 127.822C110.688 128.092 111.294 128.567 112.074 129.27L112.475 128.825ZM110.561 127.31L110.877 126.8C110.216 126.392 109.544 126.157 108.873 126.15L108.867 126.75L108.862 127.35C109.255 127.354 109.714 127.492 110.246 127.821L110.561 127.31ZM108.867 126.75L108.873 126.15C108.163 126.144 107.514 126.429 106.938 126.929L107.332 127.382L107.726 127.835C108.131 127.483 108.506 127.347 108.862 127.35L108.867 126.75ZM107.332 127.382L106.938 126.929C106.593 127.23 106.309 127.528 106.113 127.823L106.613 128.155L107.113 128.487C107.226 128.316 107.423 128.098 107.726 127.835L107.332 127.382ZM106.613 128.155L106.113 127.823C105.868 128.191 105.784 128.635 105.796 129.098L106.396 129.083L106.995 129.067C106.987 128.76 107.048 128.585 107.113 128.487L106.613 128.155ZM106.396 129.083L105.796 129.086C105.798 129.555 105.908 130.016 106.112 130.461L106.657 130.211L107.203 129.961C107.062 129.655 106.997 129.362 106.996 129.08L106.396 129.083ZM106.657 130.211L106.112 130.461C106.322 130.919 106.732 131.479 107.292 132.123L107.745 131.729L108.198 131.336C107.652 130.708 107.337 130.255 107.203 129.961L106.657 130.211ZM107.745 131.729L107.292 132.123C107.786 132.69 108.395 133.159 109.109 133.532L109.387 133L109.665 132.468C109.069 132.157 108.583 131.778 108.198 131.336L107.745 131.729ZM109.387 133L109.109 133.532C109.658 133.819 110.219 134.03 110.79 134.164L110.927 133.58L111.064 132.996C110.597 132.886 110.131 132.712 109.665 132.468L109.387 133ZM111.731 133.364L112.125 133.817L114.207 132.007L113.813 131.554L113.42 131.101L111.337 132.911L111.731 133.364ZM110.927 133.58L110.79 134.164C111.288 134.281 111.777 134.119 112.125 133.817L111.731 133.364L111.337 132.911C111.241 132.995 111.138 133.013 111.064 132.996L110.927 133.58ZM113.85 130.091L113.438 130.527C113.6 130.68 113.598 130.946 113.42 131.101L113.813 131.554L114.207 132.007C114.91 131.395 114.949 130.304 114.261 129.655L113.85 130.091ZM113.869 115.097L114.263 115.549C114.403 115.427 114.591 115.427 114.715 115.522L115.078 115.043L115.44 114.565C114.839 114.11 114.022 114.169 113.475 114.644L113.869 115.097ZM111.027 118.253L111.48 117.859C111.51 117.894 111.506 117.946 111.472 117.975L111.078 117.523L110.685 117.07C110.219 117.475 110.17 118.181 110.574 118.646L111.027 118.253ZM111.174 118.37L111.46 117.843C111.466 117.846 111.473 117.851 111.48 117.859L111.027 118.253L110.574 118.646C110.664 118.75 110.771 118.834 110.888 118.898L111.174 118.37ZM107.79 137.756L108.243 137.362C108.196 137.308 108.202 137.227 108.256 137.18L107.862 136.727L107.469 136.274C106.914 136.756 106.856 137.596 107.337 138.15L107.79 137.756ZM117.51 128.244L117.08 128.663C117.345 128.934 117.776 128.953 118.063 128.703L117.67 128.251L117.276 127.798C117.47 127.629 117.761 127.642 117.939 127.825L117.51 128.244ZM107.862 136.727L108.256 137.18C109.086 136.458 108.73 135.11 107.68 134.86L107.541 135.444L107.402 136.027C107.457 136.04 107.495 136.078 107.509 136.136C107.524 136.193 107.508 136.24 107.469 136.274L107.862 136.727ZM112.422 141.56L112.028 141.107C111.861 141.252 111.609 141.234 111.464 141.067L111.011 141.461L110.558 141.855C111.138 142.522 112.148 142.592 112.815 142.013L112.422 141.56Z" fill="#333333" mask="url(#path-9-inside-2_35_3316)"/>
<g filter="url(#filter5_ii_35_3316)">
<path d="M149.459 156.239C149.901 156.748 149.723 157.541 149.105 157.811L131.181 165.648C130.78 165.823 130.313 165.717 130.026 165.387L126.333 161.14C126.045 160.808 126.007 160.326 126.24 159.953L131.819 151.026C132.344 150.187 131.462 149.178 130.56 149.584L120.987 153.904C120.585 154.085 120.111 153.982 119.821 153.648L116.071 149.335C115.784 149.004 115.745 148.525 115.976 148.152L126.263 131.532C126.618 130.959 127.426 130.893 127.868 131.402L131.077 135.093C131.378 135.44 131.405 135.946 131.142 136.322L125.213 144.812C124.635 145.64 125.508 146.705 126.433 146.301L136.186 142.039C136.587 141.864 137.054 141.969 137.341 142.299L140.262 145.659C140.552 145.993 140.588 146.478 140.351 146.851L134.753 155.664C134.206 156.524 135.146 157.555 136.053 157.09L145.141 152.431C145.55 152.221 146.05 152.318 146.352 152.665L149.459 156.239Z" fill="url(#paint5_linear_35_3316)" fill-opacity="0.25"/>
</g>
<path d="M127.642 131.599L130.851 135.29C131.061 135.532 131.08 135.887 130.896 136.151L124.967 144.641C124.216 145.717 125.351 147.101 126.553 146.576L136.306 142.314C136.586 142.191 136.914 142.265 137.115 142.496L140.035 145.856C140.238 146.089 140.263 146.429 140.097 146.691L134.499 155.502C133.789 156.621 135.011 157.961 136.19 157.357L145.278 152.698C145.565 152.551 145.915 152.619 146.126 152.862L149.232 156.436C149.542 156.792 149.417 157.347 148.984 157.536L131.061 165.372C130.781 165.495 130.453 165.421 130.252 165.191L126.559 160.942C126.358 160.71 126.331 160.374 126.494 160.113L132.074 151.185C132.755 150.094 131.609 148.782 130.437 149.311L120.864 153.63C120.582 153.757 120.25 153.685 120.047 153.451L116.298 149.138C116.097 148.907 116.069 148.571 116.231 148.31L126.519 131.689C126.767 131.288 127.333 131.243 127.642 131.599Z" stroke="#333333" stroke-width="0.6"/>
<g filter="url(#filter6_ii_35_3316)">
<path fill-rule="evenodd" clip-rule="evenodd" d="M43.994 29.7716C46.0443 27.9893 46.2466 24.8658 44.4458 22.7942L29.5514 5.66015C27.7506 3.58859 24.6294 3.35422 22.579 5.13656L5.62033 19.8785C3.56998 21.6609 3.36768 24.7843 5.16845 26.8559L20.0629 43.99C21.8637 46.0615 24.9849 46.2959 27.0353 44.5136L43.994 29.7716ZM25.6463 38.4524C25.3139 38.3947 24.9746 38.5344 24.7954 38.8203C24.4161 39.4253 23.4941 39.2664 23.3391 38.5694L23.1886 37.8923C23.1344 37.6487 22.9909 37.4346 22.7872 37.2904C22.0766 36.7874 21.3821 36.2677 20.83 35.6327C17.801 32.1481 17.7725 27.3545 20.6756 24.8308C23.5737 22.3116 28.3219 23.0025 31.3509 26.487C34.2116 29.7779 34.3962 34.7614 31.4981 37.2807C29.9902 38.5915 27.8317 38.832 25.6463 38.4524ZM28.3971 31.5063C28.7804 31.1731 29.4752 31.194 29.7819 31.5469C30.2469 32.0818 30.1732 32.7753 29.7899 33.1085C29.4013 33.4463 28.7096 33.4182 28.2447 32.8832C27.9379 32.5304 28.0085 31.8441 28.3971 31.5063ZM26.2167 27.4455C25.9093 27.0919 25.2138 27.0702 24.8306 27.4034C24.4419 27.7412 24.372 28.4283 24.6794 28.7819C25.1463 29.319 25.8321 29.3405 26.2207 29.0026C26.604 28.6694 26.6836 27.9827 26.2167 27.4455ZM16.6636 22.9559L16.6636 22.9559C17.1484 23.812 17.5754 24.5662 18.2423 25.3333C18.5486 25.6858 19.1006 25.6187 19.3977 25.2583C19.6351 24.9703 19.8976 24.6979 20.1879 24.4456C23.3548 21.6927 28.313 22.2065 31.3372 25.6853C31.6393 26.0328 32.1923 26.044 32.4151 25.641C34.1708 22.4662 33.4573 17.929 30.5747 14.6129C27.0751 10.5871 21.4925 9.64996 18.0436 12.648C16.2176 14.2354 15.4938 16.4843 15.6373 19.1107C15.6607 19.5391 15.4243 19.9456 15.0277 20.1093C14.2347 20.4367 14.2331 21.5593 15.0251 21.889L16.0633 22.3212C16.2663 22.4057 16.436 22.5547 16.5446 22.746C16.5848 22.8167 16.6244 22.8866 16.6636 22.9559ZM28.0055 22.124C28.4727 22.6614 29.1675 22.6824 29.7441 22.1812C30.3221 21.6787 30.3933 20.9918 29.9262 20.4544C29.4612 19.9196 28.614 19.7138 28.036 20.2162C27.4594 20.7174 27.5406 21.5892 28.0055 22.124ZM23.5745 15.0839C24.1525 14.5814 25.0002 14.7877 25.4628 15.32C25.9255 15.8522 25.8528 16.5374 25.2748 17.0398C24.6982 17.5411 24.0049 17.5218 23.5422 16.9896C23.0795 16.4573 22.9979 15.5851 23.5745 15.0839Z" fill="url(#paint6_linear_35_3316)" fill-opacity="0.25"/>
</g>
<path d="M31.4981 37.2807L31.6293 37.4316L31.6293 37.4316L31.4981 37.2807ZM16.6636 22.9559L16.8377 22.8573L16.8356 22.8538L16.6636 22.9559ZM16.6636 22.9559L16.4895 23.0544L16.4916 23.058L16.6636 22.9559ZM16.0633 22.3212L16.1402 22.1365L16.0633 22.3212ZM16.5446 22.746L16.3707 22.8448L16.5446 22.746ZM15.0251 21.889L15.1019 21.7043L15.0251 21.889ZM19.3977 25.2583L19.2434 25.1311L19.3977 25.2583ZM15.6373 19.1107L15.837 19.0998L15.6373 19.1107ZM22.7872 37.2904L22.9028 37.1272L22.7872 37.2904ZM32.4151 25.641L32.2401 25.5443L32.4151 25.641ZM23.3391 38.5694L23.1439 38.6128L23.3391 38.5694ZM44.4458 22.7942L44.2949 22.9254C46.0245 24.9151 45.8283 27.9121 43.8627 29.6207L43.994 29.7716L44.1252 29.9226C46.2603 28.0665 46.4687 24.8165 44.5968 22.663L44.4458 22.7942ZM29.5514 5.66015L29.4004 5.79136L44.2949 22.9254L44.4458 22.7942L44.5968 22.663L29.7023 5.52894L29.5514 5.66015ZM22.579 5.13656L22.7102 5.2875C24.6758 3.5789 27.6709 3.8017 29.4004 5.79136L29.5514 5.66015L29.7023 5.52894C27.8304 3.37549 24.583 3.12954 22.4478 4.98562L22.579 5.13656ZM5.62033 19.8785L5.75154 20.0295L22.7102 5.2875L22.579 5.13656L22.4478 4.98562L5.48912 19.7276L5.62033 19.8785ZM5.16845 26.8559L5.3194 26.7247C3.58981 24.735 3.78601 21.7381 5.75154 20.0295L5.62033 19.8785L5.48912 19.7276C3.35395 21.5837 3.14554 24.8337 5.01751 26.9871L5.16845 26.8559ZM20.0629 43.99L20.2138 43.8588L5.3194 26.7247L5.16845 26.8559L5.01751 26.9871L19.9119 44.1212L20.0629 43.99ZM27.0353 44.5136L26.9041 44.3627C24.9385 46.0713 21.9434 45.8484 20.2138 43.8588L20.0629 43.99L19.9119 44.1212C21.7839 46.2746 25.0313 46.5206 27.1665 44.6645L27.0353 44.5136ZM43.994 29.7716L43.8627 29.6207L26.9041 44.3627L27.0353 44.5136L27.1665 44.6645L44.1252 29.9226L43.994 29.7716ZM23.1886 37.8923L22.9933 37.9357L23.1439 38.6128L23.3391 38.5694L23.5343 38.5259L23.3838 37.8489L23.1886 37.8923ZM20.83 35.6327L20.6791 35.7639C21.2484 36.4188 21.9606 36.9504 22.6717 37.4537L22.7872 37.2904L22.9028 37.1272C22.1925 36.6245 21.5158 36.1167 20.981 35.5015L20.83 35.6327ZM20.6756 24.8308L20.5444 24.6799C17.5357 27.2953 17.5985 32.2201 20.6791 35.7639L20.83 35.6327L20.981 35.5015C18.0034 32.0762 18.0093 27.4136 20.8068 24.9818L20.6756 24.8308ZM31.3509 26.487L31.5019 26.3558C28.4212 22.8119 23.548 22.0689 20.5444 24.6799L20.6756 24.8308L20.8068 24.9818C23.5994 22.5542 28.2225 23.193 31.2 26.6182L31.3509 26.487ZM31.4981 37.2807L31.6293 37.4316C34.6354 34.8185 34.4116 29.703 31.5019 26.3558L31.3509 26.487L31.2 26.6182C34.0117 29.8527 34.157 34.7044 31.3669 37.1298L31.4981 37.2807ZM25.6463 38.4524L25.612 38.6495C27.8256 39.0339 30.0566 38.7988 31.6293 37.4316L31.4981 37.2807L31.3669 37.1298C29.9238 38.3842 27.8378 38.63 25.6805 38.2554L25.6463 38.4524ZM29.7819 31.5469L29.9329 31.4157C29.7327 31.1854 29.4223 31.0782 29.1241 31.0694C28.8244 31.0605 28.5027 31.1495 28.2659 31.3553L28.3971 31.5063L28.5283 31.6572C28.6748 31.5299 28.8921 31.4627 29.1123 31.4692C29.334 31.4758 29.5244 31.5555 29.631 31.6781L29.7819 31.5469ZM29.7899 33.1085L29.9211 33.2594C30.3991 32.8439 30.4601 32.0222 29.9329 31.4157L29.7819 31.5469L29.631 31.6781C30.0338 32.1415 29.9473 32.7067 29.6587 32.9575L29.7899 33.1085ZM28.2447 32.8832L28.0937 33.0145C28.6203 33.6202 29.4371 33.6801 29.9211 33.2594L29.7899 33.1085L29.6587 32.9575C29.3654 33.2125 28.799 33.2161 28.3956 32.752L28.2447 32.8832ZM28.3971 31.5063L28.2659 31.3553C28.0267 31.5632 27.8935 31.8693 27.8613 32.1676C27.8292 32.4643 27.8942 32.7849 28.0937 33.0145L28.2447 32.8832L28.3956 32.752C28.2884 32.6287 28.2353 32.4297 28.259 32.2106C28.2825 31.9931 28.3789 31.7871 28.5283 31.6572L28.3971 31.5063ZM24.8306 27.4034L24.9618 27.5543C25.1081 27.4271 25.3255 27.3601 25.5459 27.3668C25.7679 27.3736 25.9587 27.4536 26.0657 27.5767L26.2167 27.4455L26.3676 27.3143C26.1672 27.0838 25.8566 26.9762 25.5582 26.967C25.2583 26.9578 24.9363 27.0465 24.6994 27.2525L24.8306 27.4034ZM24.6794 28.7819L24.8303 28.6507C24.7227 28.5269 24.6693 28.3274 24.6928 28.108C24.7161 27.8902 24.8124 27.6842 24.9618 27.5543L24.8306 27.4034L24.6994 27.2525C24.4601 27.4605 24.3271 27.7669 24.2951 28.0654C24.2633 28.3624 24.3287 28.6833 24.5284 28.9131L24.6794 28.7819ZM26.2207 29.0026L26.0895 28.8517C25.795 29.1077 25.2345 29.1156 24.8303 28.6507L24.6794 28.7819L24.5284 28.9131C25.0582 29.5225 25.8692 29.5732 26.352 29.1536L26.2207 29.0026ZM26.2167 27.4455L26.0657 27.5767C26.4693 28.041 26.3793 28.5998 26.0895 28.8517L26.2207 29.0026L26.352 29.1536C26.8287 28.7391 26.8979 27.9244 26.3676 27.3143L26.2167 27.4455ZM16.6636 22.9559L16.8356 22.8538L16.8356 22.8538L16.6636 22.9559L16.4916 23.058L16.4916 23.058L16.6636 22.9559ZM18.2423 25.3333L18.3932 25.2021C17.7414 24.4522 17.3233 23.715 16.8376 22.8573L16.6636 22.9559L16.4896 23.0544C16.9735 23.9091 17.4095 24.6802 18.0913 25.4645L18.2423 25.3333ZM20.1879 24.4456L20.0567 24.2946C19.7576 24.5546 19.4875 24.835 19.2434 25.1311L19.3977 25.2583L19.552 25.3855C19.7828 25.1056 20.0376 24.8412 20.3191 24.5965L20.1879 24.4456ZM31.3372 25.6853L31.4881 25.5541C28.4013 22.0031 23.3177 21.4599 20.0567 24.2946L20.1879 24.4456L20.3191 24.5965C23.3918 21.9254 28.2248 22.4098 31.1862 25.8165L31.3372 25.6853ZM30.5747 14.6129L30.4237 14.7441C33.264 18.0115 33.9465 22.4586 32.2401 25.5443L32.4151 25.641L32.5901 25.7378C34.3952 22.4738 33.6506 17.8465 30.7256 14.4817L30.5747 14.6129ZM18.0436 12.648L18.1749 12.799C21.5162 9.89439 26.9736 10.7752 30.4237 14.7441L30.5747 14.6129L30.7256 14.4817C27.1765 10.3989 21.4689 9.40553 17.9124 12.4971L18.0436 12.648ZM15.6373 19.1107L15.837 19.0998C15.6959 16.5177 16.4071 14.3357 18.1749 12.799L18.0436 12.648L17.9124 12.4971C16.0281 14.1351 15.2917 16.451 15.4376 19.1216L15.6373 19.1107ZM16.0633 22.3212L16.1402 22.1365L15.1019 21.7043L15.0251 21.889L14.9482 22.0736L15.9864 22.5058L16.0633 22.3212ZM16.6636 22.9559L16.8376 22.8573C16.7984 22.7881 16.7587 22.718 16.7185 22.6472L16.5446 22.746L16.3707 22.8448C16.4108 22.9153 16.4503 22.9851 16.4896 23.0544L16.6636 22.9559ZM29.7441 22.1812L29.6129 22.0302C29.3556 22.2539 29.0853 22.3501 28.8402 22.3422C28.597 22.3344 28.3572 22.2237 28.1565 21.9928L28.0055 22.124L27.8546 22.2552C28.121 22.5617 28.4622 22.7303 28.8274 22.742C29.1906 22.7536 29.5561 22.6097 29.8753 22.3321L29.7441 22.1812ZM29.9262 20.4544L29.7752 20.5857C29.9764 20.8171 30.0534 21.0693 30.0281 21.31C30.0027 21.5525 29.871 21.8059 29.6129 22.0302L29.7441 22.1812L29.8753 22.3321C30.1953 22.054 30.3881 21.7127 30.426 21.3518C30.464 20.9891 30.343 20.6292 30.0771 20.3232L29.9262 20.4544ZM28.036 20.2162L28.1672 20.3671C28.6371 19.9586 29.3592 20.1071 29.7752 20.5857L29.9262 20.4544L30.0771 20.3232C29.5632 19.7321 28.5908 19.4689 27.9048 20.0652L28.036 20.2162ZM28.0055 22.124L28.1565 21.9928C27.7413 21.5152 27.6979 20.7751 28.1672 20.3671L28.036 20.2162L27.9048 20.0652C27.2209 20.6597 27.3399 21.6632 27.8546 22.2552L28.0055 22.124ZM25.4628 15.32L25.6138 15.1888C25.102 14.6 24.1292 14.3367 23.4433 14.9329L23.5745 15.0839L23.7057 15.2348C24.1758 14.8262 24.8983 14.9754 25.3119 15.4512L25.4628 15.32ZM25.2748 17.0398L25.406 17.1908C25.7258 16.9129 25.9189 16.5723 25.9579 16.2127C25.9971 15.8512 25.8779 15.4926 25.6138 15.1888L25.4628 15.32L25.3119 15.4512C25.5105 15.6796 25.5862 15.9298 25.5602 16.1696C25.534 16.4112 25.4019 16.6644 25.1436 16.8889L25.2748 17.0398ZM23.5422 16.9896L23.3913 17.1208C23.6559 17.4251 23.9959 17.5917 24.3601 17.6022C24.7222 17.6126 25.087 17.4682 25.406 17.1908L25.2748 17.0398L25.1436 16.8889C24.8861 17.1128 24.6159 17.2094 24.3715 17.2023C24.1292 17.1954 23.8913 17.0862 23.6932 16.8583L23.5422 16.9896ZM23.5745 15.0839L23.4433 14.9329C22.7596 15.5273 22.8787 16.5311 23.3913 17.1208L23.5422 16.9896L23.6932 16.8583C23.2803 16.3835 23.2363 15.6429 23.7057 15.2348L23.5745 15.0839ZM16.0633 22.3212L15.9864 22.5058C16.149 22.5735 16.2843 22.6926 16.3707 22.8448L16.5446 22.746L16.7185 22.6472C16.5877 22.4169 16.3837 22.2379 16.1402 22.1365L16.0633 22.3212ZM15.0277 20.1093L14.9514 19.9245C13.9938 20.3198 13.9918 21.6754 14.9482 22.0736L15.0251 21.889L15.1019 21.7043C14.4744 21.4431 14.4757 20.5536 15.104 20.2942L15.0277 20.1093ZM18.2423 25.3333L18.0913 25.4645C18.4972 25.9314 19.1952 25.8184 19.552 25.3855L19.3977 25.2583L19.2434 25.1311C19.0061 25.419 18.6001 25.4401 18.3932 25.2021L18.2423 25.3333ZM15.6373 19.1107L15.4376 19.1216C15.4567 19.472 15.2633 19.7957 14.9514 19.9245L15.0277 20.1093L15.104 20.2942C15.5853 20.0955 15.8646 19.6063 15.837 19.0998L15.6373 19.1107ZM23.1886 37.8923L23.3838 37.8489C23.3187 37.5563 23.1465 37.2997 22.9028 37.1272L22.7872 37.2904L22.6717 37.4537C22.8353 37.5695 22.9501 37.7411 22.9933 37.9357L23.1886 37.8923ZM31.3372 25.6853L31.1862 25.8165C31.3758 26.0346 31.6462 26.1499 31.9099 26.1446C32.1775 26.1391 32.4407 26.0081 32.5901 25.7378L32.4151 25.641L32.2401 25.5443C32.1667 25.677 32.042 25.7418 31.9018 25.7447C31.7579 25.7476 31.6006 25.6836 31.4881 25.5541L31.3372 25.6853ZM24.7954 38.8203L24.9649 38.9265C25.0982 38.7139 25.3545 38.6047 25.612 38.6495L25.6463 38.4524L25.6805 38.2554C25.2732 38.1846 24.8511 38.355 24.626 38.714L24.7954 38.8203ZM24.7954 38.8203L24.626 38.714C24.3416 39.1675 23.6505 39.0485 23.5343 38.5259L23.3391 38.5694L23.1439 38.6128C23.3377 39.4844 24.4905 39.683 24.9649 38.9265L24.7954 38.8203Z" fill="#333333"/>
<defs>
<filter id="filter0_ii_35_3316" x="29.3938" y="32.9165" width="27.9406" height="32.4186" filterUnits="userSpaceOnUse" color-interpolation-filters="sRGB">
<feFlood flood-opacity="0" result="BackgroundImageFix"/>
<feBlend mode="normal" in="SourceGraphic" in2="BackgroundImageFix" result="shape"/>
<feColorMatrix in="SourceAlpha" type="matrix" values="0 0 0 0 0 0 0 0 0 0 0 0 0 0 0 0 0 0 127 0" result="hardAlpha"/>
<feOffset dx="-0.6" dy="-0.6"/>
<feGaussianBlur stdDeviation="0.4"/>
<feComposite in2="hardAlpha" operator="arithmetic" k2="-1" k3="1"/>
<feColorMatrix type="matrix" values="0 0 0 0 0 0 0 0 0 0 0 0 0 0 0 0 0 0 0.75 0"/>
<feBlend mode="normal" in2="shape" result="effect1_innerShadow_35_3316"/>
<feColorMatrix in="SourceAlpha" type="matrix" values="0 0 0 0 0 0 0 0 0 0 0 0 0 0 0 0 0 0 127 0" result="hardAlpha"/>
<feOffset dx="0.8" dy="0.8"/>
<feGaussianBlur stdDeviation="0.4"/>
<feComposite in2="hardAlpha" operator="arithmetic" k2="-1" k3="1"/>
<feColorMatrix type="matrix" values="0 0 0 0 0 0 0 0 0 0 0 0 0 0 0 0 0 0 0.85 0"/>
<feBlend mode="normal" in2="effect1_innerShadow_35_3316" result="effect2_innerShadow_35_3316"/>
</filter>
<filter id="filter1_ii_35_3316" x="49.4981" y="54.8468" width="35.2782" height="36.0732" filterUnits="userSpaceOnUse" color-interpolation-filters="sRGB">
<feFlood flood-opacity="0" result="BackgroundImageFix"/>
<feBlend mode="normal" in="SourceGraphic" in2="BackgroundImageFix" result="shape"/>
<feColorMatrix in="SourceAlpha" type="matrix" values="0 0 0 0 0 0 0 0 0 0 0 0 0 0 0 0 0 0 127 0" result="hardAlpha"/>
<feOffset dx="-0.6" dy="-0.6"/>
<feGaussianBlur stdDeviation="0.4"/>
<feComposite in2="hardAlpha" operator="arithmetic" k2="-1" k3="1"/>
<feColorMatrix type="matrix" values="0 0 0 0 0 0 0 0 0 0 0 0 0 0 0 0 0 0 0.75 0"/>
<feBlend mode="normal" in2="shape" result="effect1_innerShadow_35_3316"/>
<feColorMatrix in="SourceAlpha" type="matrix" values="0 0 0 0 0 0 0 0 0 0 0 0 0 0 0 0 0 0 127 0" result="hardAlpha"/>
<feOffset dx="0.8" dy="0.8"/>
<feGaussianBlur stdDeviation="0.4"/>
<feComposite in2="hardAlpha" operator="arithmetic" k2="-1" k3="1"/>
<feColorMatrix type="matrix" values="0 0 0 0 0 0 0 0 0 0 0 0 0 0 0 0 0 0 0.85 0"/>
<feBlend mode="normal" in2="effect1_innerShadow_35_3316" result="effect2_innerShadow_35_3316"/>
</filter>
<filter id="filter2_ii_35_3316" x="72.6805" y="82.8778" width="30.7236" height="22.2004" filterUnits="userSpaceOnUse" color-interpolation-filters="sRGB">
<feFlood flood-opacity="0" result="BackgroundImageFix"/>
<feBlend mode="normal" in="SourceGraphic" in2="BackgroundImageFix" result="shape"/>
<feColorMatrix in="SourceAlpha" type="matrix" values="0 0 0 0 0 0 0 0 0 0 0 0 0 0 0 0 0 0 127 0" result="hardAlpha"/>
<feOffset dx="-0.6" dy="-0.6"/>
<feGaussianBlur stdDeviation="0.4"/>
<feComposite in2="hardAlpha" operator="arithmetic" k2="-1" k3="1"/>
<feColorMatrix type="matrix" values="0 0 0 0 0 0 0 0 0 0 0 0 0 0 0 0 0 0 0.75 0"/>
<feBlend mode="normal" in2="shape" result="effect1_innerShadow_35_3316"/>
<feColorMatrix in="SourceAlpha" type="matrix" values="0 0 0 0 0 0 0 0 0 0 0 0 0 0 0 0 0 0 127 0" result="hardAlpha"/>
<feOffset dx="0.8" dy="0.8"/>
<feGaussianBlur stdDeviation="0.4"/>
<feComposite in2="hardAlpha" operator="arithmetic" k2="-1" k3="1"/>
<feColorMatrix type="matrix" values="0 0 0 0 0 0 0 0 0 0 0 0 0 0 0 0 0 0 0.85 0"/>
<feBlend mode="normal" in2="effect1_innerShadow_35_3316" result="effect2_innerShadow_35_3316"/>
</filter>
<filter id="filter3_ii_35_3316" x="82.7466" y="97.8047" width="28.9131" height="28.6068" filterUnits="userSpaceOnUse" color-interpolation-filters="sRGB">
<feFlood flood-opacity="0" result="BackgroundImageFix"/>
<feBlend mode="normal" in="SourceGraphic" in2="BackgroundImageFix" result="shape"/>
<feColorMatrix in="SourceAlpha" type="matrix" values="0 0 0 0 0 0 0 0 0 0 0 0 0 0 0 0 0 0 127 0" result="hardAlpha"/>
<feOffset dx="-0.6" dy="-0.6"/>
<feGaussianBlur stdDeviation="0.4"/>
<feComposite in2="hardAlpha" operator="arithmetic" k2="-1" k3="1"/>
<feColorMatrix type="matrix" values="0 0 0 0 0 0 0 0 0 0 0 0 0 0 0 0 0 0 0.75 0"/>
<feBlend mode="normal" in2="shape" result="effect1_innerShadow_35_3316"/>
<feColorMatrix in="SourceAlpha" type="matrix" values="0 0 0 0 0 0 0 0 0 0 0 0 0 0 0 0 0 0 127 0" result="hardAlpha"/>
<feOffset dx="0.8" dy="0.8"/>
<feGaussianBlur stdDeviation="0.4"/>
<feComposite in2="hardAlpha" operator="arithmetic" k2="-1" k3="1"/>
<feColorMatrix type="matrix" values="0 0 0 0 0 0 0 0 0 0 0 0 0 0 0 0 0 0 0.85 0"/>
<feBlend mode="normal" in2="effect1_innerShadow_35_3316" result="effect2_innerShadow_35_3316"/>
</filter>
<filter id="filter4_ii_35_3316" x="99.6654" y="114.254" width="25.906" height="28.3513" filterUnits="userSpaceOnUse" color-interpolation-filters="sRGB">
<feFlood flood-opacity="0" result="BackgroundImageFix"/>
<feBlend mode="normal" in="SourceGraphic" in2="BackgroundImageFix" result="shape"/>
<feColorMatrix in="SourceAlpha" type="matrix" values="0 0 0 0 0 0 0 0 0 0 0 0 0 0 0 0 0 0 127 0" result="hardAlpha"/>
<feOffset dx="-0.6" dy="-0.6"/>
<feGaussianBlur stdDeviation="0.4"/>
<feComposite in2="hardAlpha" operator="arithmetic" k2="-1" k3="1"/>
<feColorMatrix type="matrix" values="0 0 0 0 0 0 0 0 0 0 0 0 0 0 0 0 0 0 0.75 0"/>
<feBlend mode="normal" in2="shape" result="effect1_innerShadow_35_3316"/>
<feColorMatrix in="SourceAlpha" type="matrix" values="0 0 0 0 0 0 0 0 0 0 0 0 0 0 0 0 0 0 127 0" result="hardAlpha"/>
<feOffset dx="0.8" dy="0.8"/>
<feGaussianBlur stdDeviation="0.4"/>
<feComposite in2="hardAlpha" operator="arithmetic" k2="-1" k3="1"/>
<feColorMatrix type="matrix" values="0 0 0 0 0 0 0 0 0 0 0 0 0 0 0 0 0 0 0.85 0"/>
<feBlend mode="normal" in2="effect1_innerShadow_35_3316" result="effect2_innerShadow_35_3316"/>
</filter>
<filter id="filter5_ii_35_3316" x="115.226" y="130.458" width="35.2782" height="36.0732" filterUnits="userSpaceOnUse" color-interpolation-filters="sRGB">
<feFlood flood-opacity="0" result="BackgroundImageFix"/>
<feBlend mode="normal" in="SourceGraphic" in2="BackgroundImageFix" result="shape"/>
<feColorMatrix in="SourceAlpha" type="matrix" values="0 0 0 0 0 0 0 0 0 0 0 0 0 0 0 0 0 0 127 0" result="hardAlpha"/>
<feOffset dx="-0.6" dy="-0.6"/>
<feGaussianBlur stdDeviation="0.4"/>
<feComposite in2="hardAlpha" operator="arithmetic" k2="-1" k3="1"/>
<feColorMatrix type="matrix" values="0 0 0 0 0 0 0 0 0 0 0 0 0 0 0 0 0 0 0.75 0"/>
<feBlend mode="normal" in2="shape" result="effect1_innerShadow_35_3316"/>
<feColorMatrix in="SourceAlpha" type="matrix" values="0 0 0 0 0 0 0 0 0 0 0 0 0 0 0 0 0 0 127 0" result="hardAlpha"/>
<feOffset dx="0.8" dy="0.8"/>
<feGaussianBlur stdDeviation="0.4"/>
<feComposite in2="hardAlpha" operator="arithmetic" k2="-1" k3="1"/>
<feColorMatrix type="matrix" values="0 0 0 0 0 0 0 0 0 0 0 0 0 0 0 0 0 0 0.85 0"/>
<feBlend mode="normal" in2="effect1_innerShadow_35_3316" result="effect2_innerShadow_35_3316"/>
</filter>
<filter id="filter6_ii_35_3316" x="3.13987" y="3.13914" width="43.5345" height="43.5719" filterUnits="userSpaceOnUse" color-interpolation-filters="sRGB">
<feFlood flood-opacity="0" result="BackgroundImageFix"/>
<feBlend mode="normal" in="SourceGraphic" in2="BackgroundImageFix" result="shape"/>
<feColorMatrix in="SourceAlpha" type="matrix" values="0 0 0 0 0 0 0 0 0 0 0 0 0 0 0 0 0 0 127 0" result="hardAlpha"/>
<feOffset dx="-0.6" dy="-0.6"/>
<feGaussianBlur stdDeviation="0.4"/>
<feComposite in2="hardAlpha" operator="arithmetic" k2="-1" k3="1"/>
<feColorMatrix type="matrix" values="0 0 0 0 0 0 0 0 0 0 0 0 0 0 0 0 0 0 0.75 0"/>
<feBlend mode="normal" in2="shape" result="effect1_innerShadow_35_3316"/>
<feColorMatrix in="SourceAlpha" type="matrix" values="0 0 0 0 0 0 0 0 0 0 0 0 0 0 0 0 0 0 127 0" result="hardAlpha"/>
<feOffset dx="0.8" dy="0.8"/>
<feGaussianBlur stdDeviation="0.4"/>
<feComposite in2="hardAlpha" operator="arithmetic" k2="-1" k3="1"/>
<feColorMatrix type="matrix" values="0 0 0 0 0 0 0 0 0 0 0 0 0 0 0 0 0 0 0.85 0"/>
<feBlend mode="normal" in2="effect1_innerShadow_35_3316" result="effect2_innerShadow_35_3316"/>
</filter>
<linearGradient id="paint0_linear_35_3316" x1="58.3449" y1="41.3294" x2="36.4265" y2="60.3828" gradientUnits="userSpaceOnUse">
<stop stop-color="white"/>
<stop offset="1" stop-color="#B5B5B5"/>
</linearGradient>
<linearGradient id="paint1_linear_35_3316" x1="72.9368" y1="68.2105" x2="57.3383" y2="81.77" gradientUnits="userSpaceOnUse">
<stop stop-color="white"/>
<stop offset="1" stop-color="#B5B5B5"/>
</linearGradient>
<linearGradient id="paint2_linear_35_3316" x1="97.958" y1="84.5665" x2="76.2062" y2="103.475" gradientUnits="userSpaceOnUse">
<stop stop-color="white"/>
<stop offset="1" stop-color="#B5B5B5"/>
</linearGradient>
<linearGradient id="paint3_linear_35_3316" x1="104.969" y1="105.06" x2="89.3709" y2="118.619" gradientUnits="userSpaceOnUse">
<stop stop-color="white"/>
<stop offset="1" stop-color="#B5B5B5"/>
</linearGradient>
<linearGradient id="paint4_linear_35_3316" x1="120.872" y1="120.404" x2="104.412" y2="134.713" gradientUnits="userSpaceOnUse">
<stop stop-color="white"/>
<stop offset="1" stop-color="#B5B5B5"/>
</linearGradient>
<linearGradient id="paint5_linear_35_3316" x1="138.665" y1="143.822" x2="123.066" y2="157.381" gradientUnits="userSpaceOnUse">
<stop stop-color="white"/>
<stop offset="1" stop-color="#B5B5B5"/>
</linearGradient>
<linearGradient id="paint6_linear_35_3316" x1="36.9986" y1="14.2272" x2="12.6157" y2="35.423" gradientUnits="userSpaceOnUse">
<stop stop-color="white"/>
<stop offset="1" stop-color="#B5B5B5"/>
</linearGradient>
</defs>
</svg>
