<svg width="158" height="174" viewBox="0 0 158 174" fill="none" xmlns="http://www.w3.org/2000/svg">
<mask id="path-1-inside-1_35_3316" fill="white">
<path d="M49.5032 43.4475C48.8732 43.9952 49.1495 45.0475 49.9455 45.2991C50.4858 45.4699 51.0047 45.6653 51.5021 45.8854C52.5853 46.3647 53.5868 47.1329 54.5058 48.1901C56.238 50.1828 56.8607 52.3349 56.3747 54.6463C55.8886 56.9577 54.3956 59.2004 51.8956 61.3737C49.4418 63.5068 46.8457 64.5608 44.1079 64.5346C41.37 64.5082 39.1104 63.47 37.3294 61.4211C36.5649 60.5417 35.9864 59.6891 35.5942 58.8639C35.2983 58.2412 35.0661 57.596 34.8975 56.9282C34.8144 56.5989 34.4518 56.4154 34.1462 56.5635V56.5635C33.937 56.6648 33.6857 56.6134 33.5332 56.4379L30.2391 52.6484C29.8768 52.2316 29.9209 51.6 30.3377 51.2377L50.4415 33.7618C50.8583 33.3994 51.4899 33.4436 51.8522 33.8604L54.932 37.4033C55.2943 37.8201 55.2502 38.4517 54.8333 38.8141L49.5032 43.4475ZM48.7635 49.2145C48.3488 48.7375 47.8501 48.3087 47.2676 47.9283C46.8439 47.6517 46.3977 47.4163 45.9293 47.222C45.6014 47.0859 45.2282 47.1637 44.9603 47.3966L38.0918 53.3672C37.7724 53.6449 37.6559 54.097 37.8445 54.4758C37.9554 54.6983 38.0732 54.9058 38.1979 55.0982C38.4362 55.4658 38.7539 55.8792 39.1523 56.3376C40.3152 57.6753 41.5706 58.3339 42.9177 58.3127C44.2648 58.2915 45.7169 57.6043 47.2725 56.2519C48.6613 55.0446 49.5234 53.8764 49.8587 52.7474C50.194 51.6182 49.8289 50.4402 48.7635 49.2145Z"/>
</mask>
<g filter="url(#filter0_ii_35_3316)">
<path d="M49.5032 43.4475C48.8732 43.9952 49.1495 45.0475 49.9455 45.2991C50.4858 45.4699 51.0047 45.6653 51.5021 45.8854C52.5853 46.3647 53.5868 47.1329 54.5058 48.1901C56.238 50.1828 56.8607 52.3349 56.3747 54.6463C55.8886 56.9577 54.3956 59.2004 51.8956 61.3737C49.4418 63.5068 46.8457 64.5608 44.1079 64.5346C41.37 64.5082 39.1104 63.47 37.3294 61.4211C36.5649 60.5417 35.9864 59.6891 35.5942 58.8639C35.2983 58.2412 35.0661 57.596 34.8975 56.9282C34.8144 56.5989 34.4518 56.4154 34.1462 56.5635V56.5635C33.937 56.6648 33.6857 56.6134 33.5332 56.4379L30.2391 52.6484C29.8768 52.2316 29.9209 51.6 30.3377 51.2377L50.4415 33.7618C50.8583 33.3994 51.4899 33.4436 51.8522 33.8604L54.932 37.4033C55.2943 37.8201 55.2502 38.4517 54.8333 38.8141L49.5032 43.4475ZM48.7635 49.2145C48.3488 48.7375 47.8501 48.3087 47.2676 47.9283C46.8439 47.6517 46.3977 47.4163 45.9293 47.222C45.6014 47.0859 45.2282 47.1637 44.9603 47.3966L38.0918 53.3672C37.7724 53.6449 37.6559 54.097 37.8445 54.4758C37.9554 54.6983 38.0732 54.9058 38.1979 55.0982C38.4362 55.4658 38.7539 55.8792 39.1523 56.3376C40.3152 57.6753 41.5706 58.3339 42.9177 58.3127C44.2648 58.2915 45.7169 57.6043 47.2725 56.2519C48.6613 55.0446 49.5234 53.8764 49.8587 52.7474C50.194 51.6182 49.8289 50.4402 48.7635 49.2145Z" fill="url(#paint0_linear_35_3316)" fill-opacity="0.2"/>
</g>
<path d="M51.5021 45.8854L51.7044 45.4282L51.7044 45.4282L51.5021 45.8854ZM54.5058 48.1901L54.8832 47.8621L54.8832 47.8621L54.5058 48.1901ZM56.3747 54.6463L56.864 54.7492L56.864 54.7492L56.3747 54.6463ZM51.8956 61.3737L52.2236 61.751L52.2236 61.751L51.8956 61.3737ZM44.1079 64.5346L44.1031 65.0345L44.1031 65.0345L44.1079 64.5346ZM37.3294 61.4211L36.952 61.7491L36.952 61.7491L37.3294 61.4211ZM35.5942 58.8639L35.1426 59.0785L35.1426 59.0785L35.5942 58.8639ZM48.7635 49.2145L49.1409 48.8865L49.1408 48.8865L48.7635 49.2145ZM47.2676 47.9283L47.5409 47.5097L47.5409 47.5097L47.2676 47.9283ZM38.1979 55.0982L37.7783 55.3702L37.7783 55.3702L38.1979 55.0982ZM39.1523 56.3376L38.775 56.6656L38.775 56.6656L39.1523 56.3376ZM42.9177 58.3127L42.9255 58.8127L42.9255 58.8127L42.9177 58.3127ZM47.2725 56.2519L47.6006 56.6293L47.6006 56.6293L47.2725 56.2519ZM49.8587 52.7474L50.338 52.8897L50.338 52.8897L49.8587 52.7474ZM37.8445 54.4758L37.397 54.6987L37.8445 54.4758ZM45.9293 47.222L45.7377 47.6838L45.9293 47.222ZM49.9455 45.2991L49.7948 45.7758L49.9455 45.2991ZM33.5332 56.4379L33.9106 56.1099L33.5332 56.4379ZM34.8975 56.9282L34.4127 57.0506L34.8975 56.9282ZM30.2391 52.6484L30.6164 52.3204L30.2391 52.6484ZM49.9455 45.2991L49.7948 45.7758C50.3182 45.9413 50.8199 46.1303 51.2998 46.3427L51.5021 45.8854L51.7044 45.4282C51.1895 45.2003 50.6533 44.9984 50.0962 44.8223L49.9455 45.2991ZM51.5021 45.8854L51.2998 46.3427C52.3047 46.7873 53.2489 47.5064 54.1285 48.5181L54.5058 48.1901L54.8832 47.8621C53.9247 46.7595 52.8658 45.942 51.7044 45.4282L51.5021 45.8854ZM54.5058 48.1901L54.1285 48.5181C55.7718 50.4086 56.3351 52.4048 55.8854 54.5434L56.3747 54.6463L56.864 54.7492C57.3863 52.265 56.7043 49.957 54.8832 47.8621L54.5058 48.1901ZM56.3747 54.6463L55.8854 54.5434C55.4291 56.7128 54.0177 58.8664 51.5676 60.9963L51.8956 61.3737L52.2236 61.751C54.7736 59.5343 56.348 57.2026 56.864 54.7492L56.3747 54.6463ZM51.8956 61.3737L51.5676 60.9963C49.1877 63.0651 46.7061 64.0595 44.1127 64.0346L44.1079 64.5346L44.1031 65.0345C46.9854 65.0622 49.6959 63.9484 52.2236 61.751L51.8956 61.3737ZM44.1079 64.5346L44.1127 64.0346C41.5166 64.0096 39.3931 63.033 37.7067 61.0931L37.3294 61.4211L36.952 61.7491C38.8278 63.907 41.2235 65.0068 44.1031 65.0345L44.1079 64.5346ZM37.3294 61.4211L37.7067 61.0931C36.9643 60.239 36.414 59.424 36.0458 58.6492L35.5942 58.8639L35.1426 59.0785C35.5588 59.9542 36.1655 60.8444 36.952 61.7491L37.3294 61.4211ZM35.5942 58.8639L36.0458 58.6492C35.7639 58.0562 35.5429 57.4419 35.3823 56.8058L34.8975 56.9282L34.4127 57.0506C34.5893 57.7501 34.8326 58.4263 35.1426 59.0785L35.5942 58.8639ZM33.5332 56.4379L33.9106 56.1099L30.6164 52.3204L30.2391 52.6484L29.8617 52.9765L33.1559 56.7659L33.5332 56.4379ZM30.3377 51.2377L30.6658 51.615L50.7695 34.1391L50.4415 33.7618L50.1134 33.3844L30.0097 50.8603L30.3377 51.2377ZM51.8522 33.8604L51.4749 34.1885L54.5546 37.7313L54.932 37.4033L55.3093 37.0753L52.2296 33.5324L51.8522 33.8604ZM54.8333 38.8141L54.5053 38.4367L49.1752 43.0701L49.5032 43.4475L49.8312 43.8248L55.1614 39.1914L54.8333 38.8141ZM48.7635 49.2145L49.1408 48.8865C48.693 48.3713 48.1584 47.9128 47.5409 47.5097L47.2676 47.9283L46.9942 48.347C47.5419 48.7046 48.0046 49.1037 48.3862 49.5426L48.7635 49.2145ZM47.2676 47.9283L47.5409 47.5097C47.0912 47.2161 46.6177 46.9663 46.121 46.7602L45.9293 47.222L45.7377 47.6838C46.1777 47.8664 46.5965 48.0873 46.9942 48.347L47.2676 47.9283ZM44.9603 47.3966L44.6322 47.0192L37.7638 52.9899L38.0918 53.3672L38.4199 53.7446L45.2883 47.7739L44.9603 47.3966ZM37.8445 54.4758L37.397 54.6987C37.5155 54.9367 37.6426 55.1607 37.7783 55.3702L38.1979 55.0982L38.6175 54.8262C38.5038 54.6509 38.3952 54.4599 38.2921 54.2529L37.8445 54.4758ZM38.1979 55.0982L37.7783 55.3702C38.033 55.763 38.3662 56.1954 38.775 56.6656L39.1523 56.3376L39.5297 56.0095C39.1416 55.5631 38.8395 55.1687 38.6175 54.8262L38.1979 55.0982ZM39.1523 56.3376L38.775 56.6656C40.002 58.0771 41.3876 58.8368 42.9255 58.8127L42.9177 58.3127L42.9098 57.8128C41.7536 57.8309 40.6284 57.2735 39.5297 56.0095L39.1523 56.3376ZM42.9177 58.3127L42.9255 58.8127C44.4389 58.7888 46.0011 58.0197 47.6006 56.6293L47.2725 56.2519L46.9445 55.8746C45.4326 57.1888 44.0906 57.7941 42.9098 57.8128L42.9177 58.3127ZM47.2725 56.2519L47.6006 56.6293C49.024 55.3918 49.9644 54.1477 50.338 52.8897L49.8587 52.7474L49.3794 52.605C49.0823 53.6052 48.2986 54.6974 46.9445 55.8746L47.2725 56.2519ZM49.8587 52.7474L50.338 52.8897C50.7393 51.5383 50.2716 50.1873 49.1409 48.8865L48.7635 49.2145L48.3862 49.5426C49.3862 50.693 49.6486 51.6982 49.3794 52.6051L49.8587 52.7474ZM38.0918 53.3672L37.7638 52.9899C37.2935 53.3987 37.0947 54.0919 37.397 54.6987L37.8445 54.4758L38.2921 54.2529C38.217 54.102 38.2513 53.8911 38.4199 53.7446L38.0918 53.3672ZM45.9293 47.222L46.121 46.7602C45.6003 46.5441 45.0284 46.6748 44.6322 47.0192L44.9603 47.3966L45.2883 47.7739C45.428 47.6525 45.6025 47.6277 45.7377 47.6838L45.9293 47.222ZM54.932 37.4033L54.5546 37.7313C54.7358 37.9397 54.7137 38.2555 54.5053 38.4367L54.8333 38.8141L55.1614 39.1914C55.7866 38.6479 55.8528 37.7005 55.3093 37.0753L54.932 37.4033ZM49.9455 45.2991L50.0962 44.8223C49.6228 44.6727 49.5345 44.0827 49.8312 43.8248L49.5032 43.4475L49.1752 43.0701C48.2118 43.9076 48.6761 45.4222 49.7948 45.7758L49.9455 45.2991ZM50.4415 33.7618L50.7695 34.1391C50.9779 33.958 51.2937 33.98 51.4749 34.1885L51.8522 33.8604L52.2296 33.5324C51.6861 32.9072 50.7386 32.8409 50.1134 33.3844L50.4415 33.7618ZM34.1462 56.5635L33.9282 56.1135C33.9222 56.1164 33.915 56.1149 33.9106 56.1099L33.5332 56.4379L33.1559 56.7659C33.4565 57.1118 33.9517 57.2133 34.3642 57.0135L34.1462 56.5635ZM34.8975 56.9282L35.3823 56.8058C35.2271 56.1912 34.5389 55.8177 33.9282 56.1135L34.1462 56.5635L34.3642 57.0135C34.368 57.0116 34.3697 57.0116 34.3711 57.0116C34.3733 57.0116 34.3781 57.0123 34.3845 57.0154C34.3982 57.0222 34.4087 57.0346 34.4127 57.0506L34.8975 56.9282ZM30.2391 52.6484L30.6164 52.3204C30.4353 52.112 30.4574 51.7962 30.6658 51.615L30.3377 51.2377L30.0097 50.8603C29.3845 51.4038 29.3182 52.3512 29.8617 52.9765L30.2391 52.6484Z" fill="black" mask="url(#path-1-inside-1_35_3316)"/>
<g filter="url(#filter1_ii_35_3316)">
<path d="M83.7308 80.6276C84.1736 81.1369 83.995 81.9296 83.3767 82.1999L65.4531 90.0362C65.0525 90.2113 64.5846 90.106 64.2978 89.776L60.6052 85.5282C60.3168 85.1964 60.2789 84.715 60.5119 84.3422L66.0915 75.4147C66.6158 74.5758 65.7339 73.5663 64.8322 73.9732L55.2593 78.2925C54.8568 78.4741 54.3829 78.3703 54.0933 78.0371L50.3434 73.7234C50.056 73.3927 50.0173 72.9135 50.2479 72.541L60.5354 55.9205C60.8901 55.3475 61.6984 55.2822 62.1404 55.7907L65.3493 59.4821C65.6502 59.8282 65.677 60.3347 65.4144 60.7107L59.4852 69.2006C58.9071 70.0284 59.7803 71.0938 60.7054 70.6895L70.4581 66.4277C70.8587 66.2526 71.3265 66.358 71.6133 66.6879L74.5336 70.0474C74.8239 70.3813 74.8602 70.8662 74.623 71.2397L69.0248 80.0522C68.4783 80.9125 69.4181 81.9432 70.325 81.4783L79.4129 76.8196C79.8223 76.6097 80.322 76.7062 80.6238 77.0534L83.7308 80.6276Z" fill="url(#paint1_linear_35_3316)" fill-opacity="0.2"/>
</g>
<path d="M61.9517 55.9547L65.1603 59.6457C65.3859 59.9052 65.4061 60.285 65.2094 60.567L59.2801 69.0571C58.5576 70.0917 59.6487 71.4234 60.805 70.9185L70.5587 66.6568C70.8591 66.5257 71.2099 66.605 71.4249 66.8523L74.3451 70.2116C74.5626 70.4621 74.5899 70.8258 74.412 71.1058L68.8132 79.9181C68.1304 80.9933 69.3056 82.2818 70.4392 81.7007L79.5271 77.0421C79.8341 76.8848 80.2091 76.9574 80.4354 77.2178L83.5421 80.7916C83.8741 81.1735 83.7403 81.7676 83.2769 81.9706L65.3528 89.8074C65.0524 89.9386 64.7017 89.8593 64.4867 89.6119L60.7938 85.3637C60.5778 85.1149 60.5492 84.7543 60.7237 84.4748L66.3036 75.547C66.9588 74.4985 65.8565 73.2368 64.7295 73.7452L55.1566 78.0646C54.8547 78.2008 54.4991 78.1225 54.2819 77.8726L50.5326 73.5596C50.3171 73.3116 50.2875 72.952 50.4603 72.6726L60.7481 56.0526C60.9974 55.6497 61.5457 55.5811 61.8865 55.8885L61.9517 55.9547Z" stroke="black" stroke-width="0.5"/>
<g filter="url(#filter2_ii_35_3316)">
<path d="M99.6993 93.5857C99.5159 93.7451 99.2381 93.7257 99.0787 93.5423V93.5423C99.0517 93.5112 99.0292 93.4764 99.0116 93.439C98.8837 93.1673 98.7124 92.8293 98.4977 92.4251C98.2679 91.9924 97.9741 91.5703 97.6163 91.1586C96.7542 90.1669 95.9947 89.6486 95.3379 89.6036C94.681 89.5587 93.8479 89.9749 92.8386 90.8523V90.8523C92.7695 90.9123 92.7622 91.017 92.8222 91.086L95.4489 94.1076C95.8112 94.5245 95.7671 95.1561 95.3502 95.5184L93.4705 97.1524C93.0537 97.5148 92.4221 97.4706 92.0597 97.0538L90.1268 94.8303C89.7645 94.4134 89.1329 94.3693 88.7161 94.7316L78.0162 104.033C77.5994 104.395 76.9677 104.351 76.6054 103.934L73.5258 100.392C73.1635 99.9747 73.2076 99.3431 73.6244 98.9808L84.3243 89.6795C84.7411 89.3172 84.7853 88.6855 84.423 88.2687L83.8564 87.617C83.4941 87.2001 83.5383 86.5685 83.9551 86.2062L85.8348 84.5722C86.2516 84.2098 86.8832 84.254 87.2456 84.6708L88.0939 85.6467C88.3006 85.8845 88.661 85.9097 88.8988 85.703V85.703C90.8064 84.0448 92.6823 83.3133 94.5266 83.5087C96.371 83.704 98.1959 84.8402 100.001 86.9172C100.652 87.6656 101.216 88.3661 101.694 89.0184C101.971 89.3976 102.223 89.7578 102.449 90.0991C102.716 90.5035 102.629 91.039 102.263 91.3569L99.6993 93.5857Z" fill="url(#paint2_linear_35_3316)" fill-opacity="0.2"/>
</g>
<path d="M99.8124 87.0809C100.459 87.8252 101.019 88.5206 101.492 89.1663C101.768 89.5427 102.017 89.8994 102.24 90.2369C102.435 90.5312 102.375 90.9284 102.099 91.1684L99.5355 93.3967C99.4565 93.4654 99.3363 93.4576 99.2675 93.3787C99.2559 93.3654 99.2456 93.3494 99.2375 93.3323C99.1073 93.0557 98.9342 92.714 98.7187 92.3082C98.4791 91.857 98.1736 91.4192 97.8047 90.9948C96.9368 89.9964 96.119 89.4062 95.3548 89.3539C94.5903 89.3017 93.6898 89.7817 92.675 90.6638C92.5018 90.8143 92.4828 91.0767 92.6333 91.25L95.2601 94.2717C95.5318 94.5844 95.4987 95.0581 95.1861 95.3298L93.3067 96.9636C92.9941 97.2353 92.5204 97.2022 92.2486 96.8896L90.3157 94.666C89.8628 94.1451 89.0732 94.09 88.5522 94.5427L77.8522 103.844C77.5395 104.116 77.0658 104.083 76.7941 103.77L73.7143 100.227C73.4428 99.9146 73.4758 99.4409 73.7883 99.1692L84.4884 89.8677C85.0092 89.4148 85.0645 88.6252 84.6117 88.1043L84.0453 87.4528C83.7736 87.1401 83.8067 86.6664 84.1193 86.3947L85.9987 84.7609C86.3113 84.4892 86.785 84.5223 87.0568 84.8349L87.9051 85.8107C88.2023 86.1527 88.7203 86.1887 89.0623 85.8917C90.9372 84.2619 92.7471 83.5721 94.5001 83.7578C96.2569 83.9438 98.0288 85.0291 99.8124 87.0809Z" stroke="black" stroke-width="0.5"/>
<g filter="url(#filter3_ii_35_3316)">
<path d="M96.5608 125.366C96.1439 125.728 95.5123 125.684 95.15 125.267L83.5919 111.971C83.2295 111.555 83.2737 110.923 83.6905 110.561L85.8429 108.69C86.0365 108.521 86.2873 108.434 86.5436 108.445L99.7747 109.037C100.653 109.076 101.151 108.045 100.574 107.381L95.8301 101.924C95.4677 101.507 95.5119 100.876 95.9287 100.513L98.0724 98.65C98.4892 98.2876 99.1208 98.3318 99.4831 98.7486L110.614 111.554C110.977 111.97 110.932 112.602 110.516 112.964L108.416 114.79C108.224 114.956 107.976 115.044 107.722 115.034L94.5895 114.537C93.7146 114.504 93.2226 115.532 93.797 116.193L98.8725 122.032C99.2348 122.448 99.1907 123.08 98.7739 123.442L96.5608 125.366Z" fill="url(#paint3_linear_35_3316)" fill-opacity="0.2"/>
</g>
<path d="M99.2945 98.9126L110.426 111.718C110.697 112.03 110.664 112.504 110.352 112.776L108.252 114.601C108.108 114.726 107.922 114.791 107.732 114.784L94.599 114.288C93.5055 114.247 92.8908 115.53 93.6085 116.356L98.684 122.195C98.9556 122.508 98.9223 122.981 98.61 123.253L96.3967 125.177C96.0841 125.449 95.6104 125.416 95.3386 125.103L83.7807 111.807C83.509 111.495 83.5421 111.021 83.8547 110.749L86.0068 108.878C86.1519 108.752 86.3399 108.686 86.5319 108.695L99.7631 109.286C100.86 109.336 101.483 108.047 100.763 107.218L96.0184 101.76C95.7468 101.448 95.7801 100.974 96.0924 100.702L98.2364 98.8387C98.549 98.5669 99.0227 98.6 99.2945 98.9126Z" stroke="black" stroke-width="0.5"/>
<mask id="path-9-inside-2_35_3316" fill="white">
<path d="M120.634 120.13C123.131 123.003 124.497 125.458 124.732 127.496C124.967 129.533 124.149 131.365 122.279 132.991L112.422 141.56C112.005 141.922 111.373 141.878 111.011 141.461L107.79 137.756C107.526 137.452 107.558 136.991 107.862 136.727V136.727C108.316 136.332 108.126 135.583 107.541 135.444C107.478 135.429 107.415 135.414 107.35 135.398C106.713 135.245 106.157 135.064 105.681 134.854C105.028 134.551 104.417 134.179 103.847 133.739C103.277 133.298 102.714 132.759 102.161 132.123C100.86 130.626 100.229 128.974 100.267 127.166C100.306 125.359 101.038 123.836 102.464 122.596C103.603 121.606 104.757 121.055 105.927 120.941C107.096 120.828 108.3 121.063 109.538 121.646C110.768 122.219 112.073 123.122 113.453 124.353C114.806 125.562 116.159 126.859 117.51 128.244C117.553 128.288 117.623 128.291 117.67 128.251V128.251C118.531 127.502 118.817 126.629 118.528 125.632C118.238 124.636 117.492 123.445 116.288 122.06C115.565 121.228 114.646 120.466 113.533 119.774C112.478 119.12 111.692 118.651 111.174 118.37C111.118 118.34 111.069 118.301 111.027 118.253V118.253C110.84 118.037 110.863 117.71 111.078 117.523L113.869 115.097C114.213 114.798 114.715 114.769 115.078 115.043C115.632 115.463 116.343 116.037 117.208 116.764C118.443 117.801 119.585 118.924 120.634 120.13ZM113.813 131.554C114.254 131.171 114.274 130.492 113.85 130.091C113.418 129.683 112.96 129.261 112.475 128.825C111.687 128.114 111.049 127.609 110.561 127.31C109.965 126.942 109.4 126.755 108.867 126.75C108.335 126.745 107.823 126.956 107.332 127.382C107.008 127.664 106.768 127.922 106.613 128.155C106.458 128.388 106.386 128.697 106.396 129.083C106.397 129.459 106.485 129.835 106.657 130.211C106.83 130.587 107.192 131.093 107.745 131.729C108.184 132.234 108.732 132.658 109.387 133C109.894 133.265 110.408 133.458 110.927 133.58C111.213 133.647 111.509 133.557 111.731 133.364L113.813 131.554Z"/>
</mask>
<g filter="url(#filter4_ii_35_3316)">
<path d="M120.634 120.13C123.131 123.003 124.497 125.458 124.732 127.496C124.967 129.533 124.149 131.365 122.279 132.991L112.422 141.56C112.005 141.922 111.373 141.878 111.011 141.461L107.79 137.756C107.526 137.452 107.558 136.991 107.862 136.727V136.727C108.316 136.332 108.126 135.583 107.541 135.444C107.478 135.429 107.415 135.414 107.35 135.398C106.713 135.245 106.157 135.064 105.681 134.854C105.028 134.551 104.417 134.179 103.847 133.739C103.277 133.298 102.714 132.759 102.161 132.123C100.86 130.626 100.229 128.974 100.267 127.166C100.306 125.359 101.038 123.836 102.464 122.596C103.603 121.606 104.757 121.055 105.927 120.941C107.096 120.828 108.3 121.063 109.538 121.646C110.768 122.219 112.073 123.122 113.453 124.353C114.806 125.562 116.159 126.859 117.51 128.244C117.553 128.288 117.623 128.291 117.67 128.251V128.251C118.531 127.502 118.817 126.629 118.528 125.632C118.238 124.636 117.492 123.445 116.288 122.06C115.565 121.228 114.646 120.466 113.533 119.774C112.478 119.12 111.692 118.651 111.174 118.37C111.118 118.34 111.069 118.301 111.027 118.253V118.253C110.84 118.037 110.863 117.71 111.078 117.523L113.869 115.097C114.213 114.798 114.715 114.769 115.078 115.043C115.632 115.463 116.343 116.037 117.208 116.764C118.443 117.801 119.585 118.924 120.634 120.13ZM113.813 131.554C114.254 131.171 114.274 130.492 113.85 130.091C113.418 129.683 112.96 129.261 112.475 128.825C111.687 128.114 111.049 127.609 110.561 127.31C109.965 126.942 109.4 126.755 108.867 126.75C108.335 126.745 107.823 126.956 107.332 127.382C107.008 127.664 106.768 127.922 106.613 128.155C106.458 128.388 106.386 128.697 106.396 129.083C106.397 129.459 106.485 129.835 106.657 130.211C106.83 130.587 107.192 131.093 107.745 131.729C108.184 132.234 108.732 132.658 109.387 133C109.894 133.265 110.408 133.458 110.927 133.58C111.213 133.647 111.509 133.557 111.731 133.364L113.813 131.554Z" fill="url(#paint4_linear_35_3316)" fill-opacity="0.2"/>
</g>
<path d="M120.634 120.13L121.011 119.802L121.011 119.802L120.634 120.13ZM124.732 127.496L125.229 127.438L125.229 127.438L124.732 127.496ZM107.35 135.398L107.234 135.884L107.234 135.884L107.35 135.398ZM105.681 134.854L105.471 135.307L105.479 135.311L105.681 134.854ZM103.847 133.739L103.541 134.134L103.541 134.134L103.847 133.739ZM102.161 132.123L101.784 132.451L101.784 132.451L102.161 132.123ZM100.267 127.166L99.7672 127.156L99.7672 127.156L100.267 127.166ZM102.464 122.596L102.136 122.219L102.136 122.219L102.464 122.596ZM105.927 120.941L105.878 120.443L105.878 120.443L105.927 120.941ZM109.538 121.646L109.326 122.098L109.327 122.099L109.538 121.646ZM113.453 124.353L113.786 123.98L113.786 123.98L113.453 124.353ZM118.528 125.632L119.008 125.493L119.008 125.493L118.528 125.632ZM116.288 122.06L116.666 121.732L116.666 121.732L116.288 122.06ZM113.533 119.774L113.796 119.35L113.796 119.35L113.533 119.774ZM117.208 116.764L117.53 116.381L117.53 116.381L117.208 116.764ZM112.475 128.825L112.81 128.453L112.81 128.453L112.475 128.825ZM110.561 127.31L110.299 127.736L110.3 127.737L110.561 127.31ZM108.867 126.75L108.872 126.25L108.872 126.25L108.867 126.75ZM107.332 127.382L107.004 127.005L107.004 127.005L107.332 127.382ZM106.613 128.155L106.196 127.878L106.196 127.878L106.613 128.155ZM106.396 129.083L106.896 129.08L106.895 129.07L106.396 129.083ZM106.657 130.211L106.203 130.42L106.203 130.42L106.657 130.211ZM107.745 131.729L107.368 132.057L107.368 132.057L107.745 131.729ZM109.387 133L109.155 133.443L109.155 133.443L109.387 133ZM110.927 133.58L110.813 134.067L110.927 133.58ZM115.078 115.043L115.379 114.645L115.078 115.043ZM111.174 118.37L111.413 117.931L111.174 118.37ZM107.79 137.756L108.168 137.428L107.79 137.756ZM117.51 128.244L117.152 128.593L117.51 128.244ZM107.541 135.444L107.425 135.93L107.541 135.444ZM111.011 141.461L110.634 141.789L111.011 141.461ZM120.634 120.13L120.257 120.458C122.736 123.31 124.018 125.67 124.235 127.553L124.732 127.496L125.229 127.438C124.976 125.246 123.526 122.695 121.011 119.802L120.634 120.13ZM124.732 127.496L124.235 127.553C124.447 129.391 123.726 131.07 121.951 132.614L122.279 132.991L122.607 133.369C124.572 131.66 125.487 129.675 125.229 127.438L124.732 127.496ZM122.279 132.991L121.951 132.614L112.094 141.182L112.422 141.56L112.75 141.937L122.607 133.369L122.279 132.991ZM111.011 141.461L111.388 141.133L108.168 137.428L107.79 137.756L107.413 138.084L110.634 141.789L111.011 141.461ZM107.541 135.444L107.657 134.957C107.595 134.942 107.531 134.927 107.467 134.912L107.35 135.398L107.234 135.884C107.298 135.9 107.362 135.915 107.425 135.93L107.541 135.444ZM107.35 135.398L107.467 134.912C106.852 134.764 106.325 134.592 105.884 134.396L105.681 134.854L105.479 135.311C105.988 135.536 106.575 135.726 107.234 135.884L107.35 135.398ZM105.681 134.854L105.891 134.4C105.272 134.113 104.693 133.761 104.152 133.343L103.847 133.739L103.541 134.134C104.14 134.598 104.784 134.989 105.471 135.307L105.681 134.854ZM103.847 133.739L104.152 133.343C103.612 132.926 103.073 132.41 102.539 131.795L102.161 132.123L101.784 132.451C102.355 133.108 102.941 133.671 103.541 134.134L103.847 133.739ZM102.161 132.123L102.539 131.795C101.31 130.382 100.731 128.848 100.767 127.177L100.267 127.166L99.7672 127.156C99.7259 129.1 100.41 130.87 101.784 132.451L102.161 132.123ZM100.267 127.166L100.767 127.177C100.802 125.518 101.467 124.126 102.792 122.974L102.464 122.596L102.136 122.219C100.609 123.546 99.8088 125.201 99.7672 127.156L100.267 127.166ZM102.464 122.596L102.792 122.974C103.875 122.033 104.935 121.54 105.975 121.439L105.927 120.941L105.878 120.443C104.579 120.569 103.331 121.18 102.136 122.219L102.464 122.596ZM105.927 120.941L105.975 121.439C107.041 121.336 108.155 121.547 109.326 122.098L109.538 121.646L109.751 121.193C108.446 120.579 107.151 120.32 105.878 120.443L105.927 120.941ZM109.538 121.646L109.327 122.099C110.5 122.646 111.764 123.516 113.12 124.726L113.453 124.353L113.786 123.98C112.382 122.727 111.037 121.793 109.75 121.193L109.538 121.646ZM113.453 124.353L113.12 124.726C114.464 125.927 115.808 127.215 117.152 128.593L117.51 128.244L117.867 127.895C116.509 126.502 115.148 125.197 113.786 123.98L113.453 124.353ZM117.67 128.251L117.998 128.628C118.48 128.209 118.828 127.731 119.005 127.19C119.184 126.646 119.177 126.075 119.008 125.493L118.528 125.632L118.048 125.772C118.168 126.186 118.163 126.55 118.055 126.879C117.946 127.211 117.721 127.544 117.342 127.873L117.67 128.251ZM118.528 125.632L119.008 125.493C118.688 124.392 117.886 123.136 116.666 121.732L116.288 122.06L115.911 122.388C117.098 123.754 117.788 124.879 118.048 125.772L118.528 125.632ZM116.288 122.06L116.666 121.732C115.904 120.856 114.944 120.062 113.796 119.35L113.533 119.774L113.269 120.199C114.347 120.869 115.226 121.6 115.911 122.388L116.288 122.06ZM113.533 119.774L113.796 119.35C112.741 118.694 111.944 118.219 111.413 117.931L111.174 118.37L110.935 118.81C111.44 119.083 112.216 119.545 113.269 120.199L113.533 119.774ZM111.078 117.523L111.406 117.9L114.197 115.474L113.869 115.097L113.541 114.719L110.75 117.145L111.078 117.523ZM115.078 115.043L114.776 115.442C115.321 115.855 116.024 116.422 116.887 117.147L117.208 116.764L117.53 116.381C116.661 115.652 115.944 115.072 115.379 114.645L115.078 115.043ZM117.208 116.764L116.887 117.147C118.102 118.167 119.225 119.271 120.257 120.458L120.634 120.13L121.011 119.802C119.945 118.576 118.785 117.435 117.53 116.381L117.208 116.764ZM113.85 130.091L114.193 129.727C113.758 129.317 113.297 128.892 112.81 128.453L112.475 128.825L112.141 129.196C112.622 129.63 113.078 130.05 113.506 130.454L113.85 130.091ZM112.475 128.825L112.81 128.453C112.015 127.736 111.35 127.207 110.823 126.884L110.561 127.31L110.3 127.737C110.748 128.011 111.359 128.492 112.141 129.196L112.475 128.825ZM110.561 127.31L110.824 126.885C110.174 126.483 109.52 126.257 108.872 126.25L108.867 126.75L108.862 127.25C109.28 127.254 109.756 127.401 110.299 127.736L110.561 127.31ZM108.867 126.75L108.872 126.25C108.192 126.244 107.566 126.517 107.004 127.005L107.332 127.382L107.66 127.76C108.08 127.395 108.477 127.247 108.863 127.25L108.867 126.75ZM107.332 127.382L107.004 127.005C106.662 127.302 106.386 127.593 106.196 127.878L106.613 128.155L107.029 128.432C107.15 128.25 107.354 128.026 107.66 127.76L107.332 127.382ZM106.613 128.155L106.196 127.878C105.967 128.224 105.884 128.645 105.896 129.096L106.396 129.083L106.895 129.07C106.887 128.749 106.949 128.552 107.029 128.432L106.613 128.155ZM106.396 129.083L105.896 129.085C105.898 129.539 106.004 129.986 106.203 130.42L106.657 130.211L107.112 130.003C106.966 129.685 106.897 129.378 106.896 129.08L106.396 129.083ZM106.657 130.211L106.203 130.42C106.406 130.864 106.809 131.414 107.368 132.057L107.745 131.729L108.123 131.401C107.575 130.772 107.253 130.31 107.112 130.003L106.657 130.211ZM107.745 131.729L107.368 132.057C107.852 132.614 108.451 133.075 109.155 133.443L109.387 133L109.618 132.557C109.013 132.241 108.517 131.854 108.123 131.401L107.745 131.729ZM109.387 133L109.155 133.443C109.697 133.726 110.25 133.935 110.813 134.067L110.927 133.58L111.041 133.093C110.565 132.982 110.091 132.804 109.618 132.557L109.387 133ZM111.731 133.364L112.059 133.741L114.141 131.931L113.813 131.554L113.485 131.177L111.403 132.987L111.731 133.364ZM110.927 133.58L110.813 134.067C111.276 134.175 111.733 134.025 112.059 133.741L111.731 133.364L111.403 132.987C111.286 133.088 111.15 133.119 111.041 133.093L110.927 133.58ZM113.85 130.091L113.506 130.454C113.712 130.649 113.707 130.983 113.485 131.177L113.813 131.554L114.141 131.931C114.801 131.358 114.837 130.336 114.193 129.727L113.85 130.091ZM113.869 115.097L114.197 115.474C114.372 115.322 114.611 115.317 114.776 115.442L115.078 115.043L115.379 114.645C114.818 114.22 114.054 114.274 113.541 114.719L113.869 115.097ZM111.027 118.253L111.405 117.925C111.398 117.917 111.399 117.906 111.406 117.9L111.078 117.523L110.75 117.145C110.326 117.514 110.281 118.157 110.65 118.581L111.027 118.253ZM111.174 118.37L111.413 117.931C111.408 117.928 111.406 117.926 111.405 117.925L111.027 118.253L110.65 118.581C110.732 118.675 110.829 118.752 110.935 118.81L111.174 118.37ZM107.79 137.756L108.168 137.428C108.084 137.332 108.095 137.187 108.19 137.104L107.862 136.727L107.534 136.35C107.022 136.795 106.967 137.572 107.413 138.084L107.79 137.756ZM117.51 128.244L117.152 128.593C117.379 128.827 117.751 128.843 117.998 128.628L117.67 128.251L117.342 127.873C117.496 127.739 117.726 127.75 117.867 127.895L117.51 128.244ZM107.862 136.727L108.19 137.104C108.957 136.437 108.63 135.189 107.657 134.957L107.541 135.444L107.425 135.93C107.622 135.977 107.675 136.227 107.534 136.35L107.862 136.727ZM112.422 141.56L112.094 141.182C111.885 141.364 111.57 141.341 111.388 141.133L111.011 141.461L110.634 141.789C111.177 142.414 112.125 142.481 112.75 141.937L112.422 141.56Z" fill="black" mask="url(#path-9-inside-2_35_3316)"/>
<g filter="url(#filter5_ii_35_3316)">
<path d="M149.459 156.239C149.901 156.748 149.723 157.541 149.105 157.811L131.181 165.648C130.78 165.823 130.313 165.717 130.026 165.387L126.333 161.14C126.045 160.808 126.007 160.326 126.24 159.953L131.819 151.026C132.344 150.187 131.462 149.178 130.56 149.584L120.987 153.904C120.585 154.085 120.111 153.982 119.821 153.648L116.071 149.335C115.784 149.004 115.745 148.525 115.976 148.152L126.263 131.532C126.618 130.959 127.426 130.893 127.868 131.402L131.077 135.093C131.378 135.44 131.405 135.946 131.142 136.322L125.213 144.812C124.635 145.64 125.508 146.705 126.433 146.301L136.186 142.039C136.587 141.864 137.054 141.969 137.341 142.299L140.262 145.659C140.552 145.993 140.588 146.478 140.351 146.851L134.753 155.664C134.206 156.524 135.146 157.555 136.053 157.09L145.141 152.431C145.55 152.221 146.05 152.318 146.352 152.665L149.459 156.239Z" fill="url(#paint5_linear_35_3316)" fill-opacity="0.2"/>
</g>
<path d="M127.68 131.566L130.888 135.257C131.114 135.517 131.134 135.896 130.937 136.178L125.008 144.668C124.285 145.703 125.377 147.035 126.533 146.53L136.287 142.268C136.587 142.137 136.938 142.216 137.153 142.464L140.073 145.823C140.291 146.073 140.318 146.437 140.14 146.717L134.541 155.529C133.858 156.605 135.034 157.893 136.167 157.312L145.255 152.653C145.562 152.496 145.937 152.569 146.163 152.829L149.27 156.403C149.602 156.785 149.468 157.379 149.005 157.582L131.081 165.419C130.78 165.55 130.43 165.471 130.215 165.223L126.522 160.975C126.306 160.726 126.277 160.366 126.452 160.086L132.032 151.158C132.687 150.11 131.584 148.848 130.457 149.357L120.884 153.676C120.583 153.812 120.227 153.734 120.01 153.484L116.261 149.171C116.045 148.923 116.015 148.563 116.188 148.284L126.476 131.664C126.725 131.261 127.274 131.192 127.614 131.5L127.68 131.566Z" stroke="black" stroke-width="0.5"/>
<g filter="url(#filter6_ii_35_3316)">
<path fill-rule="evenodd" clip-rule="evenodd" d="M43.994 29.7716C46.0443 27.9893 46.2466 24.8658 44.4458 22.7942L29.5514 5.66015C27.7506 3.58859 24.6294 3.35422 22.579 5.13656L5.62033 19.8785C3.56998 21.6609 3.36768 24.7843 5.16845 26.8559L20.0629 43.99C21.8637 46.0615 24.9849 46.2959 27.0353 44.5136L43.994 29.7716ZM25.6463 38.4524C25.3139 38.3947 24.9746 38.5344 24.7954 38.8203V38.8203C24.4161 39.4253 23.4941 39.2664 23.3391 38.5694L23.1886 37.8923C23.1344 37.6487 22.9909 37.4346 22.7872 37.2904C22.0766 36.7874 21.3821 36.2677 20.83 35.6327C17.801 32.1481 17.7725 27.3545 20.6756 24.8308C23.5737 22.3116 28.3219 23.0025 31.3509 26.487C34.2116 29.7779 34.3962 34.7614 31.4981 37.2807C29.9902 38.5915 27.8317 38.832 25.6463 38.4524ZM28.3971 31.5063C28.7804 31.1731 29.4752 31.194 29.7819 31.5469C30.2469 32.0818 30.1732 32.7753 29.7899 33.1085C29.4013 33.4463 28.7096 33.4182 28.2447 32.8832C27.9379 32.5304 28.0085 31.8441 28.3971 31.5063ZM26.2167 27.4455C25.9093 27.0919 25.2138 27.0702 24.8306 27.4034C24.4419 27.7412 24.372 28.4283 24.6794 28.7819C25.1463 29.319 25.8321 29.3405 26.2207 29.0026C26.604 28.6694 26.6836 27.9827 26.2167 27.4455ZM16.6636 22.9559L16.6636 22.9559C17.1484 23.812 17.5754 24.5662 18.2423 25.3333V25.3333C18.5486 25.6858 19.1006 25.6187 19.3977 25.2583C19.6351 24.9703 19.8976 24.6979 20.1879 24.4456C23.3548 21.6927 28.313 22.2065 31.3372 25.6853V25.6853C31.6393 26.0328 32.1923 26.044 32.4151 25.641C34.1708 22.4662 33.4573 17.929 30.5747 14.6129C27.0751 10.5871 21.4925 9.64996 18.0436 12.648C16.2176 14.2354 15.4938 16.4843 15.6373 19.1107C15.6607 19.5391 15.4243 19.9456 15.0277 20.1093V20.1093C14.2347 20.4367 14.2331 21.5593 15.0251 21.889L16.0633 22.3212C16.2663 22.4057 16.436 22.5547 16.5446 22.746C16.5848 22.8167 16.6244 22.8866 16.6636 22.9559ZM28.0055 22.124C28.4727 22.6614 29.1675 22.6824 29.7441 22.1812C30.3221 21.6787 30.3933 20.9918 29.9262 20.4544C29.4612 19.9196 28.614 19.7138 28.036 20.2162C27.4594 20.7174 27.5406 21.5892 28.0055 22.124ZM23.5745 15.0839C24.1525 14.5814 25.0002 14.7877 25.4628 15.32C25.9255 15.8522 25.8528 16.5374 25.2748 17.0398C24.6982 17.5411 24.0049 17.5218 23.5422 16.9896C23.0795 16.4573 22.9979 15.5851 23.5745 15.0839Z" fill="url(#paint6_linear_35_3316)" fill-opacity="0.2"/>
</g>
<path d="M31.4981 37.2807L31.6293 37.4316L31.6293 37.4316L31.4981 37.2807ZM16.6636 22.9559L16.8377 22.8573L16.8356 22.8538L16.6636 22.9559ZM16.6636 22.9559L16.4895 23.0544L16.4916 23.058L16.6636 22.9559ZM16.0633 22.3212L16.1402 22.1365L16.0633 22.3212ZM16.5446 22.746L16.7185 22.6472L16.5446 22.746ZM15.0251 21.889L15.1019 21.7043L15.0251 21.889ZM19.3977 25.2583L19.2434 25.1311L19.3977 25.2583ZM15.6373 19.1107L15.837 19.0998L15.6373 19.1107ZM23.1886 37.8923L22.9933 37.9357L23.1886 37.8923ZM22.7872 37.2904L22.6717 37.4537L22.7872 37.2904ZM32.4151 25.641L32.2401 25.5443L32.4151 25.641ZM25.6463 38.4524L25.6805 38.2554L25.6463 38.4524ZM23.3391 38.5694L23.1439 38.6128L23.3391 38.5694ZM44.4458 22.7942L44.2949 22.9254C46.0245 24.9151 45.8283 27.9121 43.8627 29.6207L43.994 29.7716L44.1252 29.9226C46.2603 28.0665 46.4687 24.8165 44.5968 22.663L44.4458 22.7942ZM29.5514 5.66015L29.4004 5.79136L44.2949 22.9254L44.4458 22.7942L44.5968 22.663L29.7023 5.52894L29.5514 5.66015ZM22.579 5.13656L22.7102 5.2875C24.6758 3.5789 27.6709 3.8017 29.4004 5.79136L29.5514 5.66015L29.7023 5.52894C27.8304 3.37549 24.583 3.12954 22.4478 4.98562L22.579 5.13656ZM5.62033 19.8785L5.75154 20.0295L22.7102 5.2875L22.579 5.13656L22.4478 4.98562L5.48912 19.7276L5.62033 19.8785ZM5.16845 26.8559L5.3194 26.7247C3.58981 24.735 3.78601 21.7381 5.75154 20.0295L5.62033 19.8785L5.48912 19.7276C3.35395 21.5837 3.14555 24.8337 5.01751 26.9871L5.16845 26.8559ZM20.0629 43.99L20.2138 43.8588L5.3194 26.7247L5.16845 26.8559L5.01751 26.9871L19.9119 44.1212L20.0629 43.99ZM27.0353 44.5136L26.9041 44.3627C24.9385 46.0713 21.9434 45.8484 20.2138 43.8588L20.0629 43.99L19.9119 44.1212C21.7839 46.2746 25.0313 46.5206 27.1665 44.6645L27.0353 44.5136ZM43.994 29.7716L43.8627 29.6207L26.9041 44.3627L27.0353 44.5136L27.1665 44.6645L44.1252 29.9226L43.994 29.7716ZM23.1886 37.8923L22.9933 37.9357L23.1439 38.6128L23.3391 38.5694L23.5343 38.5259L23.3838 37.8489L23.1886 37.8923ZM20.83 35.6327L20.6791 35.7639C21.2484 36.4188 21.9606 36.9504 22.6717 37.4537L22.7872 37.2904L22.9028 37.1272C22.1925 36.6245 21.5158 36.1167 20.981 35.5015L20.83 35.6327ZM20.6756 24.8308L20.5444 24.6799C17.5357 27.2953 17.5985 32.2201 20.6791 35.7639L20.83 35.6327L20.981 35.5015C18.0034 32.0762 18.0093 27.4136 20.8068 24.9818L20.6756 24.8308ZM31.3509 26.487L31.5019 26.3558C28.4212 22.8119 23.548 22.0689 20.5444 24.6799L20.6756 24.8308L20.8068 24.9818C23.5994 22.5542 28.2225 23.193 31.2 26.6182L31.3509 26.487ZM31.4981 37.2807L31.6293 37.4316C34.6354 34.8185 34.4116 29.703 31.5019 26.3558L31.3509 26.487L31.2 26.6182C34.0117 29.8527 34.157 34.7044 31.3669 37.1298L31.4981 37.2807ZM25.6463 38.4524L25.612 38.6495C27.8256 39.0339 30.0566 38.7988 31.6293 37.4316L31.4981 37.2807L31.3669 37.1298C29.9238 38.3842 27.8378 38.63 25.6805 38.2554L25.6463 38.4524ZM29.7819 31.5469L29.9329 31.4157C29.7327 31.1854 29.4223 31.0782 29.1241 31.0694C28.8244 31.0605 28.5027 31.1495 28.2659 31.3553L28.3971 31.5063L28.5283 31.6572C28.6748 31.5299 28.8921 31.4627 29.1123 31.4692C29.334 31.4758 29.5244 31.5555 29.631 31.6781L29.7819 31.5469ZM29.7899 33.1085L29.9211 33.2594C30.3991 32.8439 30.4601 32.0222 29.9329 31.4157L29.7819 31.5469L29.631 31.6781C30.0338 32.1415 29.9473 32.7067 29.6587 32.9575L29.7899 33.1085ZM28.2447 32.8832L28.0937 33.0145C28.6203 33.6202 29.4371 33.6801 29.9211 33.2594L29.7899 33.1085L29.6587 32.9575C29.3654 33.2125 28.799 33.2161 28.3956 32.752L28.2447 32.8832ZM28.3971 31.5063L28.2659 31.3553C28.0267 31.5632 27.8935 31.8693 27.8613 32.1676C27.8292 32.4643 27.8942 32.7849 28.0937 33.0145L28.2447 32.8832L28.3956 32.752C28.2884 32.6287 28.2353 32.4297 28.259 32.2106C28.2825 31.9931 28.3789 31.7871 28.5283 31.6572L28.3971 31.5063ZM24.8306 27.4034L24.9618 27.5543C25.1081 27.4271 25.3255 27.3601 25.5459 27.3668C25.7679 27.3736 25.9587 27.4536 26.0657 27.5767L26.2167 27.4455L26.3676 27.3143C26.1672 27.0838 25.8566 26.9762 25.5582 26.967C25.2583 26.9578 24.9363 27.0465 24.6994 27.2525L24.8306 27.4034ZM24.6794 28.7819L24.8303 28.6507C24.7227 28.5269 24.6693 28.3274 24.6928 28.108C24.7161 27.8902 24.8124 27.6842 24.9618 27.5543L24.8306 27.4034L24.6994 27.2525C24.4601 27.4605 24.3271 27.7669 24.2951 28.0654C24.2633 28.3624 24.3287 28.6833 24.5284 28.9131L24.6794 28.7819ZM26.2207 29.0026L26.0895 28.8517C25.795 29.1077 25.2345 29.1156 24.8303 28.6507L24.6794 28.7819L24.5284 28.9131C25.0582 29.5225 25.8692 29.5732 26.352 29.1536L26.2207 29.0026ZM26.2167 27.4455L26.0657 27.5767C26.4693 28.041 26.3793 28.5998 26.0895 28.8517L26.2207 29.0026L26.352 29.1536C26.8287 28.7391 26.8979 27.9244 26.3676 27.3143L26.2167 27.4455ZM16.6636 22.9559L16.8356 22.8538L16.8356 22.8538L16.6636 22.9559L16.4916 23.058L16.4916 23.058L16.6636 22.9559ZM18.2423 25.3333L18.3932 25.2021C17.7414 24.4522 17.3233 23.715 16.8376 22.8573L16.6636 22.9559L16.4896 23.0544C16.9735 23.9091 17.4095 24.6802 18.0913 25.4645L18.2423 25.3333ZM20.1879 24.4456L20.0567 24.2946C19.7576 24.5546 19.4875 24.835 19.2434 25.1311L19.3977 25.2583L19.552 25.3855C19.7827 25.1056 20.0376 24.8412 20.3191 24.5965L20.1879 24.4456ZM31.3372 25.6853L31.4881 25.5541C28.4013 22.0031 23.3177 21.4599 20.0567 24.2946L20.1879 24.4456L20.3191 24.5965C23.3918 21.9254 28.2248 22.4098 31.1862 25.8165L31.3372 25.6853ZM30.5747 14.6129L30.4237 14.7441C33.264 18.0115 33.9465 22.4586 32.2401 25.5443L32.4151 25.641L32.5901 25.7378C34.3952 22.4738 33.6506 17.8465 30.7256 14.4817L30.5747 14.6129ZM18.0436 12.648L18.1749 12.799C21.5162 9.89439 26.9736 10.7752 30.4237 14.7441L30.5747 14.6129L30.7256 14.4817C27.1765 10.3989 21.4689 9.40553 17.9124 12.4971L18.0436 12.648ZM15.6373 19.1107L15.837 19.0998C15.6959 16.5177 16.4071 14.3357 18.1749 12.799L18.0436 12.648L17.9124 12.4971C16.0281 14.1351 15.2917 16.451 15.4376 19.1216L15.6373 19.1107ZM16.0633 22.3212L16.1402 22.1365L15.1019 21.7043L15.0251 21.889L14.9482 22.0736L15.9864 22.5058L16.0633 22.3212ZM16.6636 22.9559L16.8376 22.8573C16.7984 22.7881 16.7587 22.718 16.7185 22.6472L16.5446 22.746L16.3707 22.8448C16.4108 22.9153 16.4503 22.9851 16.4896 23.0544L16.6636 22.9559ZM29.7441 22.1812L29.6129 22.0302C29.3556 22.2539 29.0853 22.3501 28.8402 22.3422C28.597 22.3344 28.3572 22.2237 28.1565 21.9928L28.0055 22.124L27.8546 22.2552C28.121 22.5617 28.4622 22.7303 28.8274 22.742C29.1906 22.7536 29.5561 22.6097 29.8753 22.3321L29.7441 22.1812ZM29.9262 20.4544L29.7752 20.5857C29.9764 20.8171 30.0534 21.0693 30.0281 21.31C30.0027 21.5525 29.871 21.8059 29.6129 22.0302L29.7441 22.1812L29.8753 22.3321C30.1953 22.054 30.3881 21.7127 30.426 21.3518C30.464 20.9891 30.343 20.6291 30.0771 20.3232L29.9262 20.4544ZM28.036 20.2162L28.1672 20.3671C28.6371 19.9586 29.3592 20.1071 29.7752 20.5857L29.9262 20.4544L30.0771 20.3232C29.5632 19.7321 28.5908 19.4689 27.9048 20.0652L28.036 20.2162ZM28.0055 22.124L28.1565 21.9928C27.7413 21.5152 27.6979 20.7751 28.1672 20.3671L28.036 20.2162L27.9048 20.0652C27.2209 20.6597 27.3399 21.6632 27.8546 22.2552L28.0055 22.124ZM25.4628 15.32L25.6138 15.1888C25.102 14.6 24.1292 14.3367 23.4433 14.9329L23.5745 15.0839L23.7057 15.2348C24.1758 14.8262 24.8983 14.9754 25.3119 15.4512L25.4628 15.32ZM25.2748 17.0398L25.406 17.1908C25.7258 16.9129 25.9189 16.5723 25.9579 16.2127C25.9971 15.8512 25.8779 15.4926 25.6138 15.1888L25.4628 15.32L25.3119 15.4512C25.5105 15.6796 25.5862 15.9298 25.5602 16.1696C25.534 16.4112 25.4019 16.6644 25.1436 16.8889L25.2748 17.0398ZM23.5422 16.9896L23.3913 17.1208C23.6559 17.4251 23.9959 17.5917 24.3601 17.6022C24.7222 17.6126 25.087 17.4682 25.406 17.1908L25.2748 17.0398L25.1436 16.8889C24.8861 17.1128 24.6159 17.2094 24.3715 17.2023C24.1292 17.1954 23.8913 17.0862 23.6932 16.8583L23.5422 16.9896ZM23.5745 15.0839L23.4433 14.9329C22.7596 15.5273 22.8787 16.5311 23.3913 17.1208L23.5422 16.9896L23.6932 16.8583C23.2803 16.3835 23.2363 15.6429 23.7057 15.2348L23.5745 15.0839ZM16.0633 22.3212L15.9864 22.5058C16.149 22.5735 16.2843 22.6926 16.3707 22.8448L16.5446 22.746L16.7185 22.6472C16.5877 22.4169 16.3837 22.2379 16.1402 22.1365L16.0633 22.3212ZM15.0277 20.1093L14.9514 19.9245C13.9938 20.3198 13.9917 21.6754 14.9482 22.0736L15.0251 21.889L15.1019 21.7043C14.4744 21.4431 14.4757 20.5536 15.104 20.2942L15.0277 20.1093ZM18.2423 25.3333L18.0913 25.4645C18.4972 25.9314 19.1952 25.8184 19.552 25.3855L19.3977 25.2583L19.2434 25.1311C19.0061 25.419 18.6001 25.4401 18.3932 25.2021L18.2423 25.3333ZM15.6373 19.1107L15.4376 19.1216C15.4567 19.472 15.2633 19.7957 14.9514 19.9245L15.0277 20.1093L15.104 20.2942C15.5853 20.0955 15.8646 19.6063 15.837 19.0998L15.6373 19.1107ZM23.1886 37.8923L23.3838 37.8489C23.3188 37.5563 23.1465 37.2997 22.9028 37.1272L22.7872 37.2904L22.6717 37.4537C22.8353 37.5695 22.9501 37.7411 22.9933 37.9357L23.1886 37.8923ZM31.3372 25.6853L31.1862 25.8165C31.3758 26.0346 31.6462 26.1499 31.9099 26.1446C32.1775 26.1391 32.4407 26.0081 32.5901 25.7378L32.4151 25.641L32.2401 25.5443C32.1667 25.677 32.042 25.7418 31.9018 25.7447C31.7579 25.7476 31.6006 25.6836 31.4881 25.5541L31.3372 25.6853ZM24.7954 38.8203L24.9649 38.9265C25.0982 38.7139 25.3545 38.6047 25.612 38.6495L25.6463 38.4524L25.6805 38.2554C25.2732 38.1846 24.8511 38.355 24.626 38.714L24.7954 38.8203ZM24.7954 38.8203L24.626 38.714C24.3416 39.1675 23.6505 39.0485 23.5343 38.5259L23.3391 38.5694L23.1439 38.6128C23.3377 39.4844 24.4905 39.683 24.9649 38.9265L24.7954 38.8203Z" fill="black"/>
<defs>
<filter id="filter0_ii_35_3316" x="29.3938" y="32.9165" width="27.9406" height="32.4186" filterUnits="userSpaceOnUse" color-interpolation-filters="sRGB">
<feFlood flood-opacity="0" result="BackgroundImageFix"/>
<feBlend mode="normal" in="SourceGraphic" in2="BackgroundImageFix" result="shape"/>
<feColorMatrix in="SourceAlpha" type="matrix" values="0 0 0 0 0 0 0 0 0 0 0 0 0 0 0 0 0 0 127 0" result="hardAlpha"/>
<feOffset dx="-0.6" dy="-0.6"/>
<feGaussianBlur stdDeviation="0.4"/>
<feComposite in2="hardAlpha" operator="arithmetic" k2="-1" k3="1"/>
<feColorMatrix type="matrix" values="0 0 0 0 0 0 0 0 0 0 0 0 0 0 0 0 0 0 0.75 0"/>
<feBlend mode="normal" in2="shape" result="effect1_innerShadow_35_3316"/>
<feColorMatrix in="SourceAlpha" type="matrix" values="0 0 0 0 0 0 0 0 0 0 0 0 0 0 0 0 0 0 127 0" result="hardAlpha"/>
<feOffset dx="0.8" dy="0.8"/>
<feGaussianBlur stdDeviation="0.4"/>
<feComposite in2="hardAlpha" operator="arithmetic" k2="-1" k3="1"/>
<feColorMatrix type="matrix" values="0 0 0 0 0 0 0 0 0 0 0 0 0 0 0 0 0 0 0.85 0"/>
<feBlend mode="normal" in2="effect1_innerShadow_35_3316" result="effect2_innerShadow_35_3316"/>
</filter>
<filter id="filter1_ii_35_3316" x="49.4981" y="54.8468" width="35.2782" height="36.0732" filterUnits="userSpaceOnUse" color-interpolation-filters="sRGB">
<feFlood flood-opacity="0" result="BackgroundImageFix"/>
<feBlend mode="normal" in="SourceGraphic" in2="BackgroundImageFix" result="shape"/>
<feColorMatrix in="SourceAlpha" type="matrix" values="0 0 0 0 0 0 0 0 0 0 0 0 0 0 0 0 0 0 127 0" result="hardAlpha"/>
<feOffset dx="-0.6" dy="-0.6"/>
<feGaussianBlur stdDeviation="0.4"/>
<feComposite in2="hardAlpha" operator="arithmetic" k2="-1" k3="1"/>
<feColorMatrix type="matrix" values="0 0 0 0 0 0 0 0 0 0 0 0 0 0 0 0 0 0 0.75 0"/>
<feBlend mode="normal" in2="shape" result="effect1_innerShadow_35_3316"/>
<feColorMatrix in="SourceAlpha" type="matrix" values="0 0 0 0 0 0 0 0 0 0 0 0 0 0 0 0 0 0 127 0" result="hardAlpha"/>
<feOffset dx="0.8" dy="0.8"/>
<feGaussianBlur stdDeviation="0.4"/>
<feComposite in2="hardAlpha" operator="arithmetic" k2="-1" k3="1"/>
<feColorMatrix type="matrix" values="0 0 0 0 0 0 0 0 0 0 0 0 0 0 0 0 0 0 0.85 0"/>
<feBlend mode="normal" in2="effect1_innerShadow_35_3316" result="effect2_innerShadow_35_3316"/>
</filter>
<filter id="filter2_ii_35_3316" x="72.6805" y="82.8778" width="30.7236" height="22.2004" filterUnits="userSpaceOnUse" color-interpolation-filters="sRGB">
<feFlood flood-opacity="0" result="BackgroundImageFix"/>
<feBlend mode="normal" in="SourceGraphic" in2="BackgroundImageFix" result="shape"/>
<feColorMatrix in="SourceAlpha" type="matrix" values="0 0 0 0 0 0 0 0 0 0 0 0 0 0 0 0 0 0 127 0" result="hardAlpha"/>
<feOffset dx="-0.6" dy="-0.6"/>
<feGaussianBlur stdDeviation="0.4"/>
<feComposite in2="hardAlpha" operator="arithmetic" k2="-1" k3="1"/>
<feColorMatrix type="matrix" values="0 0 0 0 0 0 0 0 0 0 0 0 0 0 0 0 0 0 0.75 0"/>
<feBlend mode="normal" in2="shape" result="effect1_innerShadow_35_3316"/>
<feColorMatrix in="SourceAlpha" type="matrix" values="0 0 0 0 0 0 0 0 0 0 0 0 0 0 0 0 0 0 127 0" result="hardAlpha"/>
<feOffset dx="0.8" dy="0.8"/>
<feGaussianBlur stdDeviation="0.4"/>
<feComposite in2="hardAlpha" operator="arithmetic" k2="-1" k3="1"/>
<feColorMatrix type="matrix" values="0 0 0 0 0 0 0 0 0 0 0 0 0 0 0 0 0 0 0.85 0"/>
<feBlend mode="normal" in2="effect1_innerShadow_35_3316" result="effect2_innerShadow_35_3316"/>
</filter>
<filter id="filter3_ii_35_3316" x="82.7466" y="97.8047" width="28.9131" height="28.6068" filterUnits="userSpaceOnUse" color-interpolation-filters="sRGB">
<feFlood flood-opacity="0" result="BackgroundImageFix"/>
<feBlend mode="normal" in="SourceGraphic" in2="BackgroundImageFix" result="shape"/>
<feColorMatrix in="SourceAlpha" type="matrix" values="0 0 0 0 0 0 0 0 0 0 0 0 0 0 0 0 0 0 127 0" result="hardAlpha"/>
<feOffset dx="-0.6" dy="-0.6"/>
<feGaussianBlur stdDeviation="0.4"/>
<feComposite in2="hardAlpha" operator="arithmetic" k2="-1" k3="1"/>
<feColorMatrix type="matrix" values="0 0 0 0 0 0 0 0 0 0 0 0 0 0 0 0 0 0 0.75 0"/>
<feBlend mode="normal" in2="shape" result="effect1_innerShadow_35_3316"/>
<feColorMatrix in="SourceAlpha" type="matrix" values="0 0 0 0 0 0 0 0 0 0 0 0 0 0 0 0 0 0 127 0" result="hardAlpha"/>
<feOffset dx="0.8" dy="0.8"/>
<feGaussianBlur stdDeviation="0.4"/>
<feComposite in2="hardAlpha" operator="arithmetic" k2="-1" k3="1"/>
<feColorMatrix type="matrix" values="0 0 0 0 0 0 0 0 0 0 0 0 0 0 0 0 0 0 0.85 0"/>
<feBlend mode="normal" in2="effect1_innerShadow_35_3316" result="effect2_innerShadow_35_3316"/>
</filter>
<filter id="filter4_ii_35_3316" x="99.6654" y="114.254" width="25.906" height="28.3513" filterUnits="userSpaceOnUse" color-interpolation-filters="sRGB">
<feFlood flood-opacity="0" result="BackgroundImageFix"/>
<feBlend mode="normal" in="SourceGraphic" in2="BackgroundImageFix" result="shape"/>
<feColorMatrix in="SourceAlpha" type="matrix" values="0 0 0 0 0 0 0 0 0 0 0 0 0 0 0 0 0 0 127 0" result="hardAlpha"/>
<feOffset dx="-0.6" dy="-0.6"/>
<feGaussianBlur stdDeviation="0.4"/>
<feComposite in2="hardAlpha" operator="arithmetic" k2="-1" k3="1"/>
<feColorMatrix type="matrix" values="0 0 0 0 0 0 0 0 0 0 0 0 0 0 0 0 0 0 0.75 0"/>
<feBlend mode="normal" in2="shape" result="effect1_innerShadow_35_3316"/>
<feColorMatrix in="SourceAlpha" type="matrix" values="0 0 0 0 0 0 0 0 0 0 0 0 0 0 0 0 0 0 127 0" result="hardAlpha"/>
<feOffset dx="0.8" dy="0.8"/>
<feGaussianBlur stdDeviation="0.4"/>
<feComposite in2="hardAlpha" operator="arithmetic" k2="-1" k3="1"/>
<feColorMatrix type="matrix" values="0 0 0 0 0 0 0 0 0 0 0 0 0 0 0 0 0 0 0.85 0"/>
<feBlend mode="normal" in2="effect1_innerShadow_35_3316" result="effect2_innerShadow_35_3316"/>
</filter>
<filter id="filter5_ii_35_3316" x="115.226" y="130.458" width="35.2782" height="36.0732" filterUnits="userSpaceOnUse" color-interpolation-filters="sRGB">
<feFlood flood-opacity="0" result="BackgroundImageFix"/>
<feBlend mode="normal" in="SourceGraphic" in2="BackgroundImageFix" result="shape"/>
<feColorMatrix in="SourceAlpha" type="matrix" values="0 0 0 0 0 0 0 0 0 0 0 0 0 0 0 0 0 0 127 0" result="hardAlpha"/>
<feOffset dx="-0.6" dy="-0.6"/>
<feGaussianBlur stdDeviation="0.4"/>
<feComposite in2="hardAlpha" operator="arithmetic" k2="-1" k3="1"/>
<feColorMatrix type="matrix" values="0 0 0 0 0 0 0 0 0 0 0 0 0 0 0 0 0 0 0.75 0"/>
<feBlend mode="normal" in2="shape" result="effect1_innerShadow_35_3316"/>
<feColorMatrix in="SourceAlpha" type="matrix" values="0 0 0 0 0 0 0 0 0 0 0 0 0 0 0 0 0 0 127 0" result="hardAlpha"/>
<feOffset dx="0.8" dy="0.8"/>
<feGaussianBlur stdDeviation="0.4"/>
<feComposite in2="hardAlpha" operator="arithmetic" k2="-1" k3="1"/>
<feColorMatrix type="matrix" values="0 0 0 0 0 0 0 0 0 0 0 0 0 0 0 0 0 0 0.85 0"/>
<feBlend mode="normal" in2="effect1_innerShadow_35_3316" result="effect2_innerShadow_35_3316"/>
</filter>
<filter id="filter6_ii_35_3316" x="3.13987" y="3.13914" width="43.5345" height="43.5719" filterUnits="userSpaceOnUse" color-interpolation-filters="sRGB">
<feFlood flood-opacity="0" result="BackgroundImageFix"/>
<feBlend mode="normal" in="SourceGraphic" in2="BackgroundImageFix" result="shape"/>
<feColorMatrix in="SourceAlpha" type="matrix" values="0 0 0 0 0 0 0 0 0 0 0 0 0 0 0 0 0 0 127 0" result="hardAlpha"/>
<feOffset dx="-0.6" dy="-0.6"/>
<feGaussianBlur stdDeviation="0.4"/>
<feComposite in2="hardAlpha" operator="arithmetic" k2="-1" k3="1"/>
<feColorMatrix type="matrix" values="0 0 0 0 0 0 0 0 0 0 0 0 0 0 0 0 0 0 0.75 0"/>
<feBlend mode="normal" in2="shape" result="effect1_innerShadow_35_3316"/>
<feColorMatrix in="SourceAlpha" type="matrix" values="0 0 0 0 0 0 0 0 0 0 0 0 0 0 0 0 0 0 127 0" result="hardAlpha"/>
<feOffset dx="0.8" dy="0.8"/>
<feGaussianBlur stdDeviation="0.4"/>
<feComposite in2="hardAlpha" operator="arithmetic" k2="-1" k3="1"/>
<feColorMatrix type="matrix" values="0 0 0 0 0 0 0 0 0 0 0 0 0 0 0 0 0 0 0.85 0"/>
<feBlend mode="normal" in2="effect1_innerShadow_35_3316" result="effect2_innerShadow_35_3316"/>
</filter>
<linearGradient id="paint0_linear_35_3316" x1="58.3449" y1="41.3294" x2="36.4265" y2="60.3828" gradientUnits="userSpaceOnUse">
<stop stop-color="white"/>
<stop offset="1" stop-color="#ADADAD"/>
</linearGradient>
<linearGradient id="paint1_linear_35_3316" x1="72.9368" y1="68.2105" x2="57.3383" y2="81.77" gradientUnits="userSpaceOnUse">
<stop stop-color="white"/>
<stop offset="1" stop-color="#ADADAD"/>
</linearGradient>
<linearGradient id="paint2_linear_35_3316" x1="97.958" y1="84.5665" x2="76.2062" y2="103.475" gradientUnits="userSpaceOnUse">
<stop stop-color="white"/>
<stop offset="1" stop-color="#ADADAD"/>
</linearGradient>
<linearGradient id="paint3_linear_35_3316" x1="104.969" y1="105.06" x2="89.3709" y2="118.619" gradientUnits="userSpaceOnUse">
<stop stop-color="white"/>
<stop offset="1" stop-color="#ADADAD"/>
</linearGradient>
<linearGradient id="paint4_linear_35_3316" x1="120.872" y1="120.404" x2="104.412" y2="134.713" gradientUnits="userSpaceOnUse">
<stop stop-color="white"/>
<stop offset="1" stop-color="#ADADAD"/>
</linearGradient>
<linearGradient id="paint5_linear_35_3316" x1="138.665" y1="143.822" x2="123.066" y2="157.381" gradientUnits="userSpaceOnUse">
<stop stop-color="white"/>
<stop offset="1" stop-color="#ADADAD"/>
</linearGradient>
<linearGradient id="paint6_linear_35_3316" x1="36.9986" y1="14.2272" x2="12.6157" y2="35.423" gradientUnits="userSpaceOnUse">
<stop stop-color="white"/>
<stop offset="1" stop-color="#ADADAD"/>
</linearGradient>
</defs>
</svg>
