<svg width="101" height="139" viewBox="0 0 101 139" fill="none" xmlns="http://www.w3.org/2000/svg">
<g opacity="0.6">
<g filter="url(#filter0_i_0_189)">
<path fill-rule="evenodd" clip-rule="evenodd" d="M26.1388 49.8042C28.1372 50.1299 30.1606 49.6528 32.2089 48.3729C34.2959 47.0688 35.6549 45.6016 36.286 43.9713C36.917 42.341 36.7182 40.7026 35.6894 39.0562C35.1436 38.1828 34.5033 37.5108 33.7686 37.0402C33.3022 36.7414 32.8002 36.4725 32.2627 36.2333C31.8803 36.0631 31.8239 35.5227 32.1789 35.3009L37.2529 32.1304C37.4871 31.984 37.5583 31.6756 37.412 31.4414L35.3337 28.1154C35.1874 27.8812 34.8789 27.81 34.6447 27.9564L17.4519 38.6997C17.2177 38.846 17.1465 39.1545 17.2928 39.3886L19.3729 42.7176C19.464 42.8633 19.6416 42.9297 19.806 42.8795V42.8795C20.0466 42.8059 20.2909 42.9826 20.3126 43.2333C20.3564 43.7376 20.4492 44.2326 20.5909 44.7183C20.7792 45.3637 21.1004 46.0497 21.5544 46.7763C22.6122 48.4691 24.1403 49.4784 26.1388 49.8042ZM31.7487 41.8572C31.3689 42.6426 30.5993 43.3976 29.4399 44.1221C28.1413 44.9335 26.9983 45.2716 26.0109 45.1362C25.0236 45.0009 24.1845 44.3805 23.4938 43.2752C23.2572 42.8964 23.0736 42.5597 22.9432 42.265C22.8544 42.0642 22.7772 41.8462 22.7117 41.6109C22.6551 41.4076 22.7467 41.1948 22.9257 41.083L28.9249 37.3343C29.0747 37.2406 29.2637 37.2317 29.4167 37.3201C29.7808 37.5305 30.1181 37.7755 30.4288 38.055C30.8094 38.3976 31.1229 38.7659 31.3692 39.1602C32.002 40.1727 32.1285 41.0717 31.7487 41.8572Z" fill="url(#paint0_linear_0_189)" fill-opacity="0.1"/>
</g>
<path d="M36.286 43.9713L36.3792 44.0074L36.3792 44.0074L36.286 43.9713ZM33.7686 37.0402L33.7147 37.1244L33.7147 37.1244L33.7686 37.0402ZM20.3126 43.2333L20.4122 43.2246L20.3126 43.2333ZM29.4167 37.3201L29.3666 37.4067L29.4167 37.3201ZM22.7117 41.6109L22.6153 41.6377L22.7117 41.6109ZM32.2627 36.2333L32.3034 36.1419L32.2627 36.2333ZM32.1789 35.3009L32.1259 35.2161L32.1789 35.3009ZM32.2089 48.3729L32.1559 48.2881C30.124 49.5578 28.1249 50.0266 26.1548 49.7055L26.1388 49.8042L26.1227 49.9028C28.1495 50.2333 30.1972 49.7479 32.2619 48.4577L32.2089 48.3729ZM36.286 43.9713L36.1927 43.9352C35.5721 45.5386 34.2319 46.9909 32.1559 48.2881L32.2089 48.3729L32.2619 48.4577C34.36 47.1467 35.7378 45.6646 36.3792 44.0074L36.286 43.9713ZM35.6894 39.0562L35.6046 39.1092C36.6188 40.7323 36.811 42.3378 36.1927 43.9352L36.286 43.9713L36.3792 44.0074C37.023 42.3442 36.8175 40.6729 35.7742 39.0032L35.6894 39.0562ZM33.7686 37.0402L33.7147 37.1244C34.4349 37.5857 35.0652 38.2461 35.6046 39.1092L35.6894 39.0562L35.7742 39.0032C35.2219 38.1195 34.5718 37.4359 33.8226 36.956L33.7686 37.0402ZM32.2627 36.2333L32.2221 36.3246C32.7553 36.5619 33.2528 36.8285 33.7147 37.1244L33.7686 37.0402L33.8226 36.956C33.3516 36.6543 32.8452 36.383 32.3034 36.1419L32.2627 36.2333ZM37.2529 32.1304L37.1999 32.0455L32.1259 35.2161L32.1789 35.3009L32.2319 35.3857L37.3059 32.2152L37.2529 32.1304ZM35.3337 28.1154L35.2489 28.1684L37.3272 31.4944L37.412 31.4414L37.4968 31.3884L35.4185 28.0624L35.3337 28.1154ZM17.4519 38.6997L17.5048 38.7845L34.6977 28.0412L34.6447 27.9564L34.5917 27.8716L17.3989 38.6148L17.4519 38.6997ZM19.3729 42.7176L19.4577 42.6646L17.3776 39.3356L17.2928 39.3886L17.208 39.4416L19.2881 42.7706L19.3729 42.7176ZM20.5909 44.7183L20.6869 44.6903C20.547 44.2109 20.4555 43.7224 20.4122 43.2246L20.3126 43.2333L20.213 43.2419C20.2573 43.7528 20.3513 44.2543 20.4949 44.7463L20.5909 44.7183ZM21.5544 46.7763L21.6392 46.7233C21.1888 46.0025 20.8721 45.3249 20.6869 44.6903L20.5909 44.7183L20.4949 44.7463C20.6864 45.4026 21.012 46.097 21.4696 46.8293L21.5544 46.7763ZM26.1388 49.8042L26.1548 49.7055C24.1844 49.3842 22.6815 48.3913 21.6392 46.7233L21.5544 46.7763L21.4696 46.8293C22.5429 48.5469 24.0963 49.5725 26.1227 49.9028L26.1388 49.8042ZM29.4399 44.1221L29.4929 44.2069C30.66 43.4776 31.4473 42.7102 31.8387 41.9007L31.7487 41.8572L31.6587 41.8136C31.2905 42.575 30.5386 43.3176 29.3869 44.0373L29.4399 44.1221ZM26.0109 45.1362L25.9974 45.2353C27.0175 45.3751 28.1846 45.0244 29.4929 44.2069L29.4399 44.1221L29.3869 44.0373C28.098 44.8427 26.9791 45.168 26.0245 45.0371L26.0109 45.1362ZM23.4938 43.2752L23.409 43.3282C24.1102 44.4504 24.9721 45.0947 25.9974 45.2353L26.0109 45.1362L26.0245 45.0371C25.075 44.907 24.2588 44.3107 23.5786 43.2222L23.4938 43.2752ZM22.9432 42.265L22.8518 42.3055C22.9847 42.6058 23.1707 42.9468 23.409 43.3282L23.4938 43.2752L23.5786 43.2222C23.3436 42.846 23.1626 42.5136 23.0347 42.2246L22.9432 42.265ZM22.7117 41.6109L22.6153 41.6377C22.682 41.8772 22.7608 42.0998 22.8518 42.3055L22.9432 42.265L23.0347 42.2246C22.948 42.0287 22.8724 41.8152 22.808 41.584L22.7117 41.6109ZM28.9249 37.3343L28.8719 37.2495L22.8727 40.9982L22.9257 41.083L22.9787 41.1678L28.9779 37.4191L28.9249 37.3343ZM30.4288 38.055L30.4957 37.9807C30.1798 37.6964 29.8368 37.4474 29.4667 37.2335L29.4167 37.3201L29.3666 37.4067C29.7247 37.6136 30.0565 37.8545 30.3619 38.1294L30.4288 38.055ZM31.3692 39.1602L31.4541 39.1072C31.2023 38.7043 30.8826 38.3289 30.4957 37.9807L30.4288 38.055L30.3619 38.1294C30.7363 38.4663 31.0435 38.8276 31.2844 39.2131L31.3692 39.1602ZM31.7487 41.8572L31.8387 41.9007C32.2387 41.0735 32.0975 40.137 31.4541 39.1072L31.3692 39.1602L31.2844 39.2131C31.9064 40.2085 32.0182 41.07 31.6587 41.8136L31.7487 41.8572ZM19.806 42.8795L19.8353 42.9751C20.0107 42.9214 20.1963 43.0501 20.213 43.2419L20.3126 43.2333L20.4122 43.2246C20.3854 42.9151 20.0825 42.6903 19.7768 42.7838L19.806 42.8795ZM19.3729 42.7176L19.2881 42.7706C19.4032 42.9547 19.6276 43.0386 19.8353 42.9751L19.806 42.8795L19.7768 42.7838C19.6557 42.8209 19.5248 42.7719 19.4577 42.6646L19.3729 42.7176ZM28.9249 37.3343L28.9779 37.4191C29.0986 37.3437 29.2479 37.3381 29.3666 37.4067L29.4167 37.3201L29.4667 37.2335C29.2795 37.1253 29.0509 37.1376 28.8719 37.2495L28.9249 37.3343ZM17.4519 38.6997L17.3989 38.6148C17.1178 38.7904 17.0324 39.1606 17.208 39.4416L17.2928 39.3886L17.3776 39.3356C17.2605 39.1483 17.3175 38.9015 17.5048 38.7845L17.4519 38.6997ZM22.7117 41.6109L22.808 41.584C22.7642 41.4268 22.8343 41.258 22.9787 41.1678L22.9257 41.083L22.8727 40.9982C22.6592 41.1316 22.5459 41.3884 22.6153 41.6377L22.7117 41.6109ZM35.3337 28.1154L35.4185 28.0624C35.2429 27.7814 34.8727 27.696 34.5917 27.8716L34.6447 27.9564L34.6977 28.0412C34.885 27.9241 35.1318 27.9811 35.2489 28.1684L35.3337 28.1154ZM37.2529 32.1304L37.3059 32.2152C37.5869 32.0396 37.6724 31.6694 37.4968 31.3884L37.412 31.4414L37.3272 31.4944C37.4442 31.6817 37.3873 31.9285 37.1999 32.0455L37.2529 32.1304ZM32.2627 36.2333L32.3034 36.1419C31.9876 36.0014 31.9509 35.5613 32.2319 35.3857L32.1789 35.3009L32.1259 35.2161C31.697 35.4841 31.773 36.1248 32.2221 36.3246L32.2627 36.2333Z" fill="black" style="mix-blend-mode:exclusion"/>
<g filter="url(#filter1_i_0_189)">
<path d="M53.3576 66.2436C53.5361 66.5292 53.3868 66.906 53.0611 66.992L38.5316 70.8261C38.3198 70.882 38.0962 70.7935 37.98 70.6076L35.6044 66.8058C35.4876 66.6189 35.507 66.3776 35.652 66.2117L41.428 59.6067C41.7545 59.2333 41.3966 58.6635 40.9184 58.7956L32.478 61.1279C32.2648 61.1868 32.0381 61.0986 31.9208 60.9109L29.5105 57.0535C29.3941 56.8673 29.4129 56.627 29.5567 56.461L39.3925 45.1153C39.6127 44.8612 40.0161 44.8926 40.1943 45.1779L42.367 48.655C42.4888 48.8499 42.4621 49.1026 42.3023 49.2677L36.2385 55.532C35.8864 55.8957 36.2358 56.4923 36.7253 56.3632L45.3479 54.0894C45.5597 54.0336 45.7833 54.1221 45.8994 54.3079L47.8171 57.377C47.9346 57.565 47.9142 57.808 47.7671 57.9738L41.9258 64.5561C41.5867 64.9383 41.9714 65.523 42.4566 65.3628L50.6637 62.6521C50.8825 62.5798 51.1224 62.6665 51.2445 62.8619L53.3576 66.2436Z" fill="url(#paint1_linear_0_189)" fill-opacity="0.1"/>
</g>
<path d="M53.3576 66.2436C53.5361 66.5292 53.3868 66.906 53.0611 66.992L38.5316 70.8261C38.3198 70.882 38.0962 70.7935 37.98 70.6076L35.6044 66.8058C35.4876 66.6189 35.507 66.3776 35.652 66.2117L41.428 59.6067C41.7545 59.2333 41.3966 58.6635 40.9184 58.7956L32.478 61.1279C32.2648 61.1868 32.0381 61.0986 31.9208 60.9109L29.5105 57.0535C29.3941 56.8673 29.4129 56.627 29.5567 56.461L39.3925 45.1153C39.6127 44.8612 40.0161 44.8926 40.1943 45.1779L42.367 48.655C42.4888 48.8499 42.4621 49.1026 42.3023 49.2677L36.2385 55.532C35.8864 55.8957 36.2358 56.4923 36.7253 56.3632L45.3479 54.0894C45.5597 54.0336 45.7833 54.1221 45.8994 54.3079L47.8171 57.377C47.9346 57.565 47.9142 57.808 47.7671 57.9738L41.9258 64.5561C41.5867 64.9383 41.9714 65.523 42.4566 65.3628L50.6637 62.6521C50.8825 62.5798 51.1224 62.6665 51.2445 62.8619L53.3576 66.2436Z" stroke="black" stroke-width="0.2" style="mix-blend-mode:exclusion"/>
<g filter="url(#filter2_i_0_189)">
<path d="M63.3124 77.2052C63.1611 77.2997 62.9618 77.2537 62.8673 77.1025V77.1025C62.8511 77.0765 62.8387 77.0484 62.8302 77.019C62.7691 76.8066 62.6842 76.5412 62.5756 76.2228C62.4592 75.8817 62.2947 75.5411 62.0822 75.201C61.5702 74.3817 61.0768 73.9188 60.602 73.8125C60.1271 73.7062 59.4684 73.9163 58.6259 74.4427V74.4427C58.5683 74.4788 58.5507 74.5547 58.5867 74.6123L60.2707 77.3072C60.417 77.5414 60.3458 77.8498 60.1116 77.9962L58.1306 79.234C57.8965 79.3803 57.588 79.3091 57.4416 79.0749L56.0444 76.8389C55.8981 76.6047 55.5896 76.5335 55.3554 76.6798L46.012 82.5182C45.7778 82.6646 45.4693 82.5934 45.323 82.3592L43.2447 79.0332C43.0984 78.7991 43.1696 78.4906 43.4038 78.3443L52.7472 72.5058C52.9814 72.3595 53.0526 72.051 52.9063 71.8169L52.3205 70.8794C52.1741 70.6452 52.2454 70.3367 52.4795 70.1904L54.4605 68.9525C54.6947 68.8062 55.0032 68.8774 55.1495 69.1116L55.7757 70.1137C55.8997 70.3122 56.1612 70.3725 56.3597 70.2485V70.2485C57.952 69.2535 59.4107 68.9305 60.7357 69.2794C62.0607 69.6283 63.2594 70.6607 64.3316 72.3767C64.718 72.9951 65.047 73.5687 65.3184 74.0977C65.5113 74.4737 65.6791 74.8247 65.8218 75.1507C65.9188 75.3724 65.8341 75.6294 65.6289 75.7577L63.3124 77.2052Z" fill="url(#paint2_linear_0_189)" fill-opacity="0.1"/>
</g>
<path d="M63.3124 77.2052C63.1611 77.2997 62.9618 77.2537 62.8673 77.1025V77.1025C62.8511 77.0765 62.8387 77.0484 62.8302 77.019C62.7691 76.8066 62.6842 76.5412 62.5756 76.2228C62.4592 75.8817 62.2947 75.5411 62.0822 75.201C61.5702 74.3817 61.0768 73.9188 60.602 73.8125C60.1271 73.7062 59.4684 73.9163 58.6259 74.4427V74.4427C58.5683 74.4788 58.5507 74.5547 58.5867 74.6123L60.2707 77.3072C60.417 77.5414 60.3458 77.8498 60.1116 77.9962L58.1306 79.234C57.8965 79.3803 57.588 79.3091 57.4416 79.0749L56.0444 76.8389C55.8981 76.6047 55.5896 76.5335 55.3554 76.6798L46.012 82.5182C45.7778 82.6646 45.4693 82.5934 45.323 82.3592L43.2447 79.0332C43.0984 78.7991 43.1696 78.4906 43.4038 78.3443L52.7472 72.5058C52.9814 72.3595 53.0526 72.051 52.9063 71.8169L52.3205 70.8794C52.1741 70.6452 52.2454 70.3367 52.4795 70.1904L54.4605 68.9525C54.6947 68.8062 55.0032 68.8774 55.1495 69.1116L55.7757 70.1137C55.8997 70.3122 56.1612 70.3725 56.3597 70.2485V70.2485C57.952 69.2535 59.4107 68.9305 60.7357 69.2794C62.0607 69.6283 63.2594 70.6607 64.3316 72.3767C64.718 72.9951 65.047 73.5687 65.3184 74.0977C65.5113 74.4737 65.6791 74.8247 65.8218 75.1507C65.9188 75.3724 65.8341 75.6294 65.6289 75.7577L63.3124 77.2052Z" stroke="black" stroke-width="0.2" style="mix-blend-mode:exclusion"/>
<g filter="url(#filter3_i_0_189)">
<path d="M57.0254 100.143C56.7912 100.29 56.4827 100.218 56.3364 99.9842L49.2228 88.6002C49.0765 88.366 49.1477 88.0575 49.3819 87.9112L51.468 86.6076C51.576 86.5402 51.7057 86.5164 51.8307 86.5413L62.0832 88.5833C62.5129 88.6689 62.8371 88.1996 62.6049 87.828L59.3679 82.6478C59.2216 82.4136 59.2928 82.1051 59.527 81.9588L61.7282 80.5833C61.9624 80.4369 62.2709 80.5081 62.4172 80.7423L69.2772 91.7206C69.4235 91.9548 69.3523 92.2632 69.1181 92.4096L67.0767 93.6852C66.9697 93.7521 66.8414 93.776 66.7174 93.7522L56.531 91.7958C56.1022 91.7134 55.7813 92.1815 56.0126 92.5517L59.4437 98.0426C59.59 98.2768 59.5188 98.5852 59.2846 98.7316L57.0254 100.143Z" fill="url(#paint3_linear_0_189)" fill-opacity="0.1"/>
</g>
<path d="M57.0254 100.143C56.7912 100.29 56.4827 100.218 56.3364 99.9842L49.2228 88.6002C49.0765 88.366 49.1477 88.0575 49.3819 87.9112L51.468 86.6076C51.576 86.5402 51.7057 86.5164 51.8307 86.5413L62.0832 88.5833C62.5129 88.6689 62.8371 88.1996 62.6049 87.828L59.3679 82.6478C59.2216 82.4136 59.2928 82.1051 59.527 81.9588L61.7282 80.5833C61.9624 80.4369 62.2709 80.5081 62.4172 80.7423L69.2772 91.7206C69.4235 91.9548 69.3523 92.2632 69.1181 92.4096L67.0767 93.6852C66.9697 93.7521 66.8414 93.776 66.7174 93.7522L56.531 91.7958C56.1022 91.7134 55.7813 92.1815 56.0126 92.5517L59.4437 98.0426C59.59 98.2768 59.5188 98.5852 59.2846 98.7316L57.0254 100.143Z" stroke="black" stroke-width="0.2" style="mix-blend-mode:exclusion"/>
<g filter="url(#filter4_i_0_189)">
<path fill-rule="evenodd" clip-rule="evenodd" d="M63.9226 108.535C63.9907 108.563 64.0573 108.59 64.1222 108.616C64.5052 108.771 64.5554 109.3 64.2049 109.519L64.1031 109.583C63.8689 109.729 63.7977 110.038 63.944 110.272L66.0005 113.563C66.1469 113.797 66.4553 113.868 66.6895 113.722L75.1236 108.452C76.685 107.476 77.5013 106.232 77.5724 104.721C77.6436 103.209 76.9377 101.267 75.4549 98.8942C74.8319 97.897 74.1308 96.9514 73.3517 96.0571C72.7378 95.3525 72.2443 94.8112 71.8712 94.4333C71.7117 94.2716 71.4619 94.2474 71.2692 94.3678L68.7765 95.9254C68.5984 96.0367 68.5443 96.2713 68.6555 96.4494V96.4494C68.6804 96.4892 68.7123 96.5238 68.7495 96.5522C69.0947 96.8152 69.6135 97.2442 70.306 97.8394C71.0373 98.4679 71.6179 99.1262 72.0477 99.8141C72.7626 100.958 73.1663 101.91 73.259 102.668C73.3517 103.427 73.0386 104.031 72.3198 104.481V104.481C72.2807 104.505 72.2294 104.495 72.2028 104.457C71.3806 103.296 70.5468 102.2 69.7013 101.167C68.8396 100.115 67.9934 99.3113 67.1625 98.7557C66.3269 98.1924 65.4748 97.8865 64.6062 97.8381C63.7377 97.7897 62.828 98.0626 61.8773 98.6567C60.6869 99.4005 59.9699 100.429 59.7263 101.742C59.4827 103.055 59.7473 104.33 60.5201 105.566C60.8486 106.092 61.1949 106.547 61.5591 106.932C61.9233 107.317 62.3262 107.657 62.7677 107.951C63.0903 108.157 63.4753 108.352 63.9226 108.535ZM69.4623 105.596C69.6398 105.829 69.5769 106.162 69.329 106.317L67.2712 107.603C67.1474 107.68 66.9955 107.701 66.8587 107.65C66.4561 107.5 66.069 107.288 65.6973 107.015C65.2592 106.692 64.9097 106.322 64.6489 105.904C64.3205 105.379 64.1157 104.969 64.0346 104.676C63.9534 104.383 63.9346 104.099 63.9781 103.825C64.0168 103.543 64.1067 103.325 64.2478 103.173C64.3888 103.02 64.5946 102.859 64.8652 102.69C65.2748 102.434 65.6741 102.338 66.063 102.401C66.4518 102.464 66.8424 102.664 67.2346 102.999C67.5553 103.271 67.9616 103.711 68.4533 104.317C68.8146 104.763 69.151 105.189 69.4623 105.596Z" fill="url(#paint4_linear_0_189)" fill-opacity="0.1"/>
</g>
<path d="M73.3517 96.0571L73.2763 96.1228L73.3517 96.0571ZM70.306 97.8394L70.2408 97.9152L70.2408 97.9152L70.306 97.8394ZM73.259 102.668L73.3583 102.656L73.3583 102.656L73.259 102.668ZM67.1625 98.7557L67.1066 98.8386L67.107 98.8388L67.1625 98.7557ZM64.6062 97.8381L64.6006 97.938L64.6006 97.938L64.6062 97.8381ZM61.5591 106.932L61.6318 106.864L61.6318 106.864L61.5591 106.932ZM62.7677 107.951L62.7123 108.034L62.7137 108.035L62.7677 107.951ZM63.9781 103.825L64.0769 103.84L64.0772 103.838L63.9781 103.825ZM67.2346 102.999L67.1696 103.075L67.1699 103.075L67.2346 102.999ZM68.4533 104.317L68.3756 104.38L68.3756 104.38L68.4533 104.317ZM72.2028 104.457L72.1212 104.515L72.2028 104.457ZM68.7495 96.5522L68.8101 96.4727L68.7495 96.5522ZM69.4623 105.596L69.3828 105.657L69.4623 105.596ZM66.8587 107.65L66.8238 107.744L66.8587 107.65ZM64.1222 108.616L64.0847 108.709L64.1222 108.616ZM64.1222 108.616L64.1598 108.523C64.0949 108.497 64.0285 108.47 63.9604 108.442L63.9226 108.535L63.8848 108.627C63.953 108.655 64.0196 108.682 64.0847 108.709L64.1222 108.616ZM64.1031 109.583L64.156 109.668L64.2579 109.604L64.2049 109.519L64.1519 109.434L64.0501 109.498L64.1031 109.583ZM66.0005 113.563L66.0853 113.51L64.0288 110.219L63.944 110.272L63.8592 110.325L65.9157 113.616L66.0005 113.563ZM75.1236 108.452L75.0706 108.367L66.6365 113.637L66.6895 113.722L66.7425 113.807L75.1766 108.537L75.1236 108.452ZM77.5724 104.721L77.4725 104.716C77.4033 106.188 76.611 107.404 75.0706 108.367L75.1236 108.452L75.1766 108.537C76.759 107.548 77.5993 106.277 77.6723 104.726L77.5724 104.721ZM75.4549 98.8942L75.3701 98.9471C76.85 101.316 77.5422 103.236 77.4725 104.716L77.5724 104.721L77.6723 104.726C77.7449 103.183 77.0254 101.219 75.5397 98.8412L75.4549 98.8942ZM73.3517 96.0571L73.2763 96.1228C74.0519 97.0131 74.7499 97.9545 75.3701 98.9471L75.4549 98.8942L75.5397 98.8412C74.9139 97.8395 74.2096 96.8896 73.4271 95.9914L73.3517 96.0571ZM71.8712 94.4333L71.8001 94.5035C72.171 94.8793 72.6629 95.4188 73.2763 96.1228L73.3517 96.0571L73.4271 95.9914C72.8127 95.2863 72.3176 94.7432 71.9424 94.363L71.8712 94.4333ZM68.7765 95.9254L68.8295 96.0102L71.3222 94.4526L71.2692 94.3678L71.2163 94.283L68.7235 95.8406L68.7765 95.9254ZM70.306 97.8394L70.3712 97.7635C69.6784 97.1682 69.1578 96.7375 68.8101 96.4727L68.7495 96.5522L68.689 96.6318C69.0316 96.8928 69.5486 97.3202 70.2408 97.9152L70.306 97.8394ZM72.0477 99.8141L72.1326 99.7611C71.6964 99.0632 71.1087 98.3975 70.3712 97.7635L70.306 97.8394L70.2408 97.9152C70.9659 98.5384 71.5393 99.1891 71.9629 99.8671L72.0477 99.8141ZM73.259 102.668L73.3583 102.656C73.263 101.876 72.8501 100.909 72.1326 99.7611L72.0477 99.8141L71.9629 99.8671C72.6751 101.007 73.0697 101.943 73.1598 102.681L73.259 102.668ZM72.3198 104.481L72.3728 104.565C72.7437 104.334 73.0159 104.058 73.1825 103.737C73.3494 103.415 73.4068 103.053 73.3583 102.656L73.259 102.668L73.1598 102.681C73.204 103.043 73.1511 103.363 73.0049 103.645C72.8584 103.927 72.6147 104.178 72.2668 104.396L72.3198 104.481ZM69.7013 101.167L69.624 101.231C70.4679 102.261 71.3003 103.356 72.1212 104.515L72.2028 104.457L72.2844 104.399C71.461 103.237 70.6257 102.138 69.7787 101.104L69.7013 101.167ZM67.1625 98.7557L67.107 98.8388C67.9272 99.3874 68.7664 100.184 69.624 101.231L69.7013 101.167L69.7787 101.104C68.9128 100.047 68.0595 99.2352 67.2181 98.6726L67.1625 98.7557ZM64.6062 97.8381L64.6006 97.938C65.4485 97.9852 66.2835 98.2837 67.1066 98.8386L67.1625 98.7557L67.2184 98.6728C66.3702 98.101 65.501 97.7878 64.6118 97.7383L64.6062 97.8381ZM61.8773 98.6567L61.9303 98.7415C62.8685 98.1552 63.7579 97.891 64.6006 97.938L64.6062 97.8381L64.6118 97.7383C63.7174 97.6884 62.7875 97.97 61.8243 98.5719L61.8773 98.6567ZM59.7263 101.742L59.8247 101.76C60.0628 100.476 60.7623 99.4713 61.9303 98.7415L61.8773 98.6567L61.8243 98.5719C60.6115 99.3297 59.877 100.382 59.628 101.724L59.7263 101.742ZM60.5201 105.566L60.6049 105.513C59.8441 104.296 59.5861 103.046 59.8247 101.76L59.7263 101.742L59.628 101.724C59.3794 103.064 59.6506 104.364 60.4353 105.619L60.5201 105.566ZM61.5591 106.932L61.6318 106.864C61.2728 106.484 60.9304 106.034 60.6049 105.513L60.5201 105.566L60.4353 105.619C60.7667 106.15 61.117 106.61 61.4865 107.001L61.5591 106.932ZM62.7677 107.951L62.823 107.867C62.3878 107.578 61.9908 107.243 61.6318 106.864L61.5591 106.932L61.4865 107.001C61.8558 107.392 62.2645 107.736 62.7123 108.034L62.7677 107.951ZM63.9226 108.535L63.9604 108.442C63.5174 108.261 63.138 108.069 62.8216 107.866L62.7677 107.951L62.7137 108.035C63.0426 108.246 63.4333 108.443 63.8848 108.627L63.9226 108.535ZM67.2712 107.603L67.3242 107.688L69.382 106.402L69.329 106.317L69.276 106.232L67.2182 107.518L67.2712 107.603ZM65.6973 107.015L65.638 107.095C66.0166 107.374 66.4118 107.591 66.8238 107.744L66.8587 107.65L66.8936 107.557C66.5003 107.41 66.1214 107.203 65.7566 106.934L65.6973 107.015ZM64.6489 105.904L64.5641 105.957C64.8323 106.387 65.1908 106.766 65.638 107.095L65.6973 107.015L65.7566 106.934C65.3276 106.618 64.9872 106.257 64.7337 105.851L64.6489 105.904ZM64.0346 104.676L63.9382 104.703C64.0234 105.011 64.2347 105.43 64.5641 105.957L64.6489 105.904L64.7337 105.851C64.4063 105.327 64.208 104.928 64.131 104.65L64.0346 104.676ZM63.9781 103.825L63.8794 103.809C63.8334 104.099 63.8536 104.397 63.9382 104.703L64.0346 104.676L64.131 104.65C64.0533 104.369 64.0358 104.099 64.0769 103.84L63.9781 103.825ZM64.2478 103.173L64.1743 103.105C64.015 103.277 63.9195 103.516 63.8791 103.811L63.9781 103.825L64.0772 103.838C64.1141 103.569 64.1983 103.373 64.3212 103.241L64.2478 103.173ZM64.8652 102.69L64.8122 102.605C64.5377 102.777 64.3237 102.943 64.1743 103.105L64.2478 103.173L64.3212 103.241C64.4539 103.097 64.6516 102.941 64.9182 102.775L64.8652 102.69ZM66.063 102.401L66.079 102.302C65.6611 102.234 65.2376 102.339 64.8122 102.605L64.8652 102.69L64.9182 102.775C65.3121 102.529 65.6871 102.441 66.0469 102.5L66.063 102.401ZM67.2346 102.999L67.2996 102.923C66.8977 102.579 66.4908 102.369 66.079 102.302L66.063 102.401L66.0469 102.5C66.4129 102.559 66.7871 102.748 67.1696 103.075L67.2346 102.999ZM68.4533 104.317L68.5309 104.254C68.038 103.646 67.6272 103.201 67.2993 102.923L67.2346 102.999L67.1699 103.075C67.4835 103.342 67.8851 103.775 68.3756 104.38L68.4533 104.317ZM69.4623 105.596L69.5417 105.536C69.2298 105.128 68.8928 104.7 68.5309 104.254L68.4533 104.317L68.3756 104.38C68.7364 104.825 69.0722 105.251 69.3828 105.657L69.4623 105.596ZM72.3198 104.481L72.2668 104.396C72.2728 104.392 72.2805 104.394 72.2844 104.399L72.2028 104.457L72.1212 104.515C72.1784 104.596 72.2887 104.618 72.3728 104.565L72.3198 104.481ZM68.6555 96.4494L68.5707 96.5024C68.6021 96.5527 68.6423 96.5963 68.689 96.6318L68.7495 96.5522L68.8101 96.4727C68.7822 96.4514 68.7586 96.4257 68.7404 96.3964L68.6555 96.4494ZM68.7765 95.9254L68.7235 95.8406C68.4986 95.9812 68.4302 96.2775 68.5707 96.5024L68.6555 96.4494L68.7404 96.3964C68.6583 96.2652 68.6982 96.0923 68.8295 96.0102L68.7765 95.9254ZM71.8712 94.4333L71.9424 94.363C71.7485 94.1666 71.4468 94.1389 71.2163 94.283L71.2692 94.3678L71.3222 94.4526C71.4769 94.356 71.6748 94.3766 71.8001 94.5035L71.8712 94.4333ZM69.329 106.317L69.382 106.402C69.6791 106.216 69.7555 105.815 69.5417 105.536L69.4623 105.596L69.3828 105.657C69.524 105.842 69.4746 106.108 69.276 106.232L69.329 106.317ZM66.0005 113.563L65.9157 113.616C66.0913 113.897 66.4615 113.982 66.7425 113.807L66.6895 113.722L66.6365 113.637C66.4492 113.754 66.2024 113.697 66.0853 113.51L66.0005 113.563ZM67.2712 107.603L67.2182 107.518C67.1183 107.581 66.9986 107.596 66.8936 107.557L66.8587 107.65L66.8238 107.744C66.9923 107.807 67.1766 107.78 67.3242 107.688L67.2712 107.603ZM64.1031 109.583L64.0501 109.498C63.769 109.674 63.6836 110.044 63.8592 110.325L63.944 110.272L64.0288 110.219C63.9117 110.031 63.9687 109.785 64.156 109.668L64.1031 109.583ZM64.1222 108.616L64.0847 108.709C64.3936 108.834 64.4317 109.259 64.1519 109.434L64.2049 109.519L64.2579 109.604C64.679 109.341 64.6169 108.708 64.1598 108.523L64.1222 108.616Z" fill="black" style="mix-blend-mode:exclusion"/>
<g filter="url(#filter5_i_0_189)">
<path d="M92.3925 128.713C92.571 128.998 92.4217 129.375 92.0961 129.461L77.5665 133.295C77.3547 133.351 77.1311 133.263 77.0149 133.077L74.6393 129.275C74.5225 129.088 74.5419 128.847 74.6869 128.681L80.4629 122.076C80.7894 121.702 80.4315 121.133 79.9533 121.265L71.513 123.597C71.2997 123.656 71.073 123.568 70.9558 123.38L68.5454 119.523C68.429 119.337 68.4478 119.096 68.5916 118.93L78.4274 107.585C78.6477 107.33 79.051 107.362 79.2292 107.647L81.4019 111.124C81.5237 111.319 81.497 111.572 81.3372 111.737L75.2734 118.001C74.9213 118.365 75.2707 118.962 75.7602 118.832L84.3828 116.559C84.5946 116.503 84.8182 116.591 84.9343 116.777L86.852 119.846C86.9695 120.034 86.9492 120.277 86.802 120.443L80.9607 127.025C80.6216 127.408 81.0064 127.992 81.4915 127.832L89.6986 125.121C89.9174 125.049 90.1573 125.136 90.2794 125.331L92.3925 128.713Z" fill="url(#paint5_linear_0_189)" fill-opacity="0.1"/>
</g>
<path d="M92.3925 128.713C92.571 128.998 92.4217 129.375 92.0961 129.461L77.5665 133.295C77.3547 133.351 77.1311 133.263 77.0149 133.077L74.6393 129.275C74.5225 129.088 74.5419 128.847 74.6869 128.681L80.4629 122.076C80.7894 121.702 80.4315 121.133 79.9533 121.265L71.513 123.597C71.2997 123.656 71.073 123.568 70.9558 123.38L68.5454 119.523C68.429 119.337 68.4478 119.096 68.5916 118.93L78.4274 107.585C78.6477 107.33 79.051 107.362 79.2292 107.647L81.4019 111.124C81.5237 111.319 81.497 111.572 81.3372 111.737L75.2734 118.001C74.9213 118.365 75.2707 118.962 75.7602 118.832L84.3828 116.559C84.5946 116.503 84.8182 116.591 84.9343 116.777L86.852 119.846C86.9695 120.034 86.9492 120.277 86.802 120.443L80.9607 127.025C80.6216 127.408 81.0064 127.992 81.4915 127.832L89.6986 125.121C89.9174 125.049 90.1573 125.136 90.2794 125.331L92.3925 128.713Z" stroke="black" stroke-width="0.2" style="mix-blend-mode:exclusion"/>
</g>
<g opacity="0.6">
<g filter="url(#filter6_i_0_189)">
<path fill-rule="evenodd" clip-rule="evenodd" d="M18.2845 10.6758C18.767 10.3743 19.362 10.6196 19.6368 11.0593C19.9116 11.4991 19.7767 11.9904 19.2943 12.2918C18.813 12.5926 18.3084 12.5009 18.0336 12.0611C17.7588 11.6214 17.8032 10.9766 18.2845 10.6758ZM17.7337 19.7955C18.0536 19.5956 18.5594 19.6893 18.742 19.9814C19.0193 20.4252 18.8792 20.9168 18.5593 21.1167C18.2348 21.3194 17.7361 21.2271 17.4587 20.7832C17.2762 20.4911 17.4092 19.9982 17.7337 19.7955Z" fill="url(#paint6_linear_0_189)" fill-opacity="0.3"/>
</g>
<path d="M17.4587 20.7832L17.5435 20.7302L17.5435 20.7302L17.4587 20.7832ZM19.6368 11.0593L19.7216 11.0064C19.4265 10.534 18.7739 10.2521 18.2315 10.591L18.2845 10.6758L18.3375 10.7606C18.76 10.4966 19.2976 10.7052 19.552 11.1123L19.6368 11.0593ZM19.2943 12.2918L19.3473 12.3766C19.6055 12.2152 19.7783 11.9981 19.8459 11.7541C19.9137 11.5091 19.8724 11.2477 19.7216 11.0064L19.6368 11.0593L19.552 11.1123C19.676 11.3108 19.7046 11.5148 19.6531 11.7007C19.6014 11.8877 19.4655 12.0669 19.2413 12.207L19.2943 12.2918ZM18.0336 12.0611L17.9488 12.1141C18.0998 12.3558 18.3179 12.5068 18.5685 12.5525C18.8181 12.5981 19.0896 12.5376 19.3473 12.3766L19.2943 12.2918L19.2413 12.207C19.0177 12.3467 18.7963 12.3908 18.6045 12.3558C18.4138 12.321 18.2422 12.2062 18.1184 12.0081L18.0336 12.0611ZM18.2845 10.6758L18.2315 10.591C17.6907 10.9289 17.6533 11.6413 17.9488 12.1141L18.0336 12.0611L18.1184 12.0081C17.8643 11.6015 17.9157 11.0242 18.3375 10.7606L18.2845 10.6758ZM18.742 19.9814L18.8268 19.9284C18.7164 19.7518 18.5155 19.644 18.3075 19.6056C18.0987 19.567 17.8658 19.595 17.6807 19.7107L17.7337 19.7955L17.7866 19.8803C17.9214 19.796 18.1014 19.7709 18.2712 19.8023C18.4417 19.8338 18.5849 19.9188 18.6572 20.0344L18.742 19.9814ZM18.5593 21.1167L18.6123 21.2015C18.9839 20.9693 19.1302 20.414 18.8268 19.9284L18.742 19.9814L18.6572 20.0344C18.9084 20.4364 18.7745 20.8643 18.5063 21.0319L18.5593 21.1167ZM17.4587 20.7832L17.3739 20.8362C17.6771 21.3215 18.2358 21.4368 18.6123 21.2015L18.5593 21.1167L18.5063 21.0319C18.2339 21.2021 17.795 21.1326 17.5435 20.7302L17.4587 20.7832ZM17.7337 19.7955L17.6807 19.7107C17.4935 19.8276 17.3661 20.0246 17.3097 20.2293C17.2535 20.4331 17.2638 20.6601 17.3739 20.8362L17.4587 20.7832L17.5435 20.7302C17.4711 20.6143 17.4567 20.4487 17.5025 20.2824C17.5481 20.1169 17.6494 19.966 17.7866 19.8803L17.7337 19.7955Z" fill="url(#paint7_linear_0_189)"/>
<g filter="url(#filter7_i_0_189)">
<path fill-rule="evenodd" clip-rule="evenodd" d="M31.461 23.6673C33.1725 22.5979 33.6928 20.344 32.6234 18.6325L23.7778 4.47652C22.7083 2.76503 20.4544 2.2447 18.7429 3.31416L4.58701 12.1598C2.87553 13.2292 2.35516 15.4831 3.42462 17.1946L12.2702 31.3505C13.3397 33.062 15.5936 33.5824 17.3051 32.5129L31.461 23.6673ZM13.164 17.5488C12.768 16.9151 12.5457 16.3176 12.2934 15.6393L12.2934 15.6391C12.2641 15.5605 12.2345 15.4807 12.2041 15.3997C12.1651 15.2958 12.0921 15.2082 11.9974 15.1504L10.7924 14.4158C10.4119 14.1839 10.5019 13.6078 10.935 13.5029L11.5969 13.3427C11.812 13.2906 11.9658 13.1031 11.9857 12.8827C12.1664 10.8782 12.9651 9.25981 14.5315 8.28099C17.4104 6.48206 21.3799 7.79018 23.4583 11.1163C25.1716 13.8582 25.1508 17.2483 23.4846 19.3653C23.2751 19.6315 22.8748 19.559 22.6953 19.2717V19.2717C20.8993 16.3976 17.3358 15.4679 14.6923 17.1197C14.4331 17.2817 14.1944 17.4639 13.9744 17.6621C13.7387 17.8746 13.3616 17.8602 13.1914 17.5923C13.1823 17.5779 13.1731 17.5634 13.164 17.5488ZM15.324 27.9796C15.3497 28.4263 15.9041 28.617 16.1991 28.2807L16.3915 28.0612C16.5299 27.9035 16.7515 27.8502 16.9499 27.9185C18.5216 28.4591 20.1547 28.538 21.4303 27.741C23.8494 26.2294 24.3087 22.5765 22.6098 19.8576C20.8109 16.9787 17.422 15.9435 15.0029 17.4551C12.5796 18.9694 12.0287 22.4664 13.8277 25.3453C14.1708 25.8944 14.643 26.3688 15.1251 26.8349C15.2156 26.9225 15.2701 27.0407 15.2773 27.1664L15.324 27.9796Z" fill="url(#paint8_linear_0_189)" fill-opacity="0.3"/>
</g>
<path d="M31.461 23.6673L31.514 23.7521L31.461 23.6673ZM17.3051 32.5129L17.2521 32.4281L17.3051 32.5129ZM12.2934 15.6393L12.3871 15.6044L12.3869 15.6038L12.2934 15.6393ZM12.2934 15.6391L12.1996 15.674L12.1999 15.6746L12.2934 15.6391ZM21.4303 27.741L21.4832 27.8258L21.4832 27.8258L21.4303 27.741ZM15.1251 26.8349L15.1946 26.763L15.1251 26.8349ZM15.2773 27.1664L15.3771 27.1607L15.2773 27.1664ZM16.3915 28.0612L16.4667 28.1272L16.3915 28.0612ZM13.9744 17.6621L14.0414 17.7364L13.9744 17.6621ZM13.1914 17.5923L13.107 17.646L13.1914 17.5923ZM11.5969 13.3427L11.6205 13.4399L11.5969 13.3427ZM11.9857 12.8827L12.0853 12.8917L11.9857 12.8827ZM10.7924 14.4158L10.7403 14.5012L10.7924 14.4158ZM10.935 13.5029L10.9585 13.6001L10.935 13.5029ZM12.2041 15.3997L12.1104 15.4349L12.2041 15.3997ZM11.9974 15.1504L11.9453 15.2358L11.9974 15.1504ZM32.6234 18.6325L32.5386 18.6855C33.5788 20.3501 33.0727 22.5423 31.408 23.5825L31.461 23.6673L31.514 23.7521C33.2723 22.6534 33.8069 20.3378 32.7082 18.5795L32.6234 18.6325ZM23.7778 4.47652L23.693 4.52952L32.5386 18.6855L32.6234 18.6325L32.7082 18.5795L23.8626 4.42353L23.7778 4.47652ZM18.7429 3.31416L18.7959 3.39896C20.4606 2.35877 22.6528 2.86486 23.693 4.52952L23.7778 4.47652L23.8626 4.42353C22.7638 2.66521 20.4483 2.13063 18.6899 3.22935L18.7429 3.31416ZM4.58701 12.1598L4.64001 12.2446L18.7959 3.39896L18.7429 3.31416L18.6899 3.22935L4.53402 12.075L4.58701 12.1598ZM3.42462 17.1946L3.50942 17.1416C2.46923 15.4769 2.97535 13.2848 4.64001 12.2446L4.58701 12.1598L4.53402 12.075C2.7757 13.1737 2.24109 15.4893 3.33981 17.2476L3.42462 17.1946ZM12.2702 31.3505L12.355 31.2975L3.50942 17.1416L3.42462 17.1946L3.33981 17.2476L12.1854 31.4035L12.2702 31.3505ZM17.3051 32.5129L17.2521 32.4281C15.5874 33.4683 13.3952 32.9622 12.355 31.2975L12.2702 31.3505L12.1854 31.4035C13.2841 33.1618 15.5997 33.6964 17.3581 32.5977L17.3051 32.5129ZM31.461 23.6673L31.408 23.5825L17.2521 32.4281L17.3051 32.5129L17.3581 32.5977L31.514 23.7521L31.461 23.6673ZM12.2934 15.6393L12.1997 15.6741C12.4517 16.3516 12.6771 16.9583 13.0792 17.6018L13.164 17.5488L13.2488 17.4958C12.8589 16.8718 12.6398 16.2835 12.3871 15.6044L12.2934 15.6393ZM12.2934 15.6391L12.1999 15.6746L12.1999 15.6748L12.2934 15.6393L12.3869 15.6038L12.3869 15.6036L12.2934 15.6391ZM12.2041 15.3997L12.1104 15.4349C12.1408 15.5157 12.1704 15.5953 12.1996 15.674L12.2934 15.6391L12.3871 15.6043C12.3578 15.5256 12.3281 15.4458 12.2977 15.3646L12.2041 15.3997ZM10.7924 14.4158L10.7403 14.5012L11.9453 15.2358L11.9974 15.1504L12.0494 15.065L10.8444 14.3304L10.7924 14.4158ZM11.5969 13.3427L11.5734 13.2455L10.9115 13.4057L10.935 13.5029L10.9585 13.6001L11.6205 13.4399L11.5969 13.3427ZM14.5315 8.28099L14.4785 8.19618C12.8787 9.19588 12.0688 10.8471 11.8861 12.8738L11.9857 12.8827L12.0853 12.8917C12.264 10.9093 13.0515 9.32373 14.5845 8.36579L14.5315 8.28099ZM23.4583 11.1163L23.5431 11.0633C21.4442 7.70433 17.4171 6.35996 14.4785 8.19618L14.5315 8.28099L14.5845 8.36579C17.4037 6.60416 21.3156 7.87604 23.3735 11.1692L23.4583 11.1163ZM23.4846 19.3653L23.5632 19.4272C25.2607 17.2703 25.2739 13.8331 23.5431 11.0633L23.4583 11.1163L23.3735 11.1692C25.0694 13.8833 25.0408 17.2263 23.406 19.3035L23.4846 19.3653ZM14.6923 17.1197L14.7453 17.2045C17.3366 15.5852 20.8404 16.4919 22.6105 19.3247L22.6953 19.2717L22.7801 19.2187C20.9583 16.3032 17.3349 15.3505 14.6393 17.0349L14.6923 17.1197ZM13.9744 17.6621L14.0414 17.7364C14.2572 17.5419 14.4913 17.3632 14.7453 17.2045L14.6923 17.1197L14.6393 17.0349C14.3749 17.2001 14.1315 17.3859 13.9075 17.5878L13.9744 17.6621ZM13.164 17.5488L13.0792 17.6018C13.0884 17.6166 13.0977 17.6313 13.107 17.646L13.1914 17.5923L13.2758 17.5387C13.2668 17.5245 13.2578 17.5102 13.2488 17.4958L13.164 17.5488ZM16.3915 28.0612L16.3163 27.9953L16.1239 28.2147L16.1991 28.2807L16.2743 28.3466L16.4667 28.1272L16.3915 28.0612ZM21.4303 27.741L21.3773 27.6562C20.1382 28.4304 18.5406 28.3599 16.9824 27.8239L16.9499 27.9185L16.9174 28.013C18.5026 28.5583 20.1711 28.6457 21.4832 27.8258L21.4303 27.741ZM22.6098 19.8576L22.525 19.9106C24.2036 22.5969 23.7364 26.182 21.3773 27.6562L21.4303 27.741L21.4832 27.8258C23.9623 26.2767 24.4139 22.556 22.6946 19.8046L22.6098 19.8576ZM15.0029 17.4551L15.0559 17.5399C17.4165 16.0648 20.7474 17.0659 22.525 19.9106L22.6098 19.8576L22.6946 19.8046C20.8743 16.8915 17.4276 15.8221 14.9499 17.3703L15.0029 17.4551ZM13.8277 25.3453L13.9125 25.2923C12.1349 22.4475 12.6912 19.0175 15.0559 17.5399L15.0029 17.4551L14.9499 17.3703C12.468 18.9212 11.9226 22.4852 13.7429 25.3983L13.8277 25.3453ZM15.1251 26.8349L15.1946 26.763C14.7122 26.2966 14.2483 25.8297 13.9125 25.2923L13.8277 25.3453L13.7429 25.3983C14.0933 25.959 14.5739 26.4411 15.0556 26.9068L15.1251 26.8349ZM15.324 27.9796L15.4238 27.9739L15.3771 27.1607L15.2773 27.1664L15.1775 27.1722L15.2242 27.9854L15.324 27.9796ZM15.1251 26.8349L15.0556 26.9068C15.1281 26.977 15.1717 27.0717 15.1775 27.1722L15.2773 27.1664L15.3771 27.1607C15.3685 27.0098 15.3031 26.8679 15.1946 26.763L15.1251 26.8349ZM16.1991 28.2807L16.1239 28.2147C15.8879 28.4838 15.4444 28.3312 15.4238 27.9739L15.324 27.9796L15.2242 27.9854C15.255 28.5214 15.9203 28.7502 16.2743 28.3466L16.1991 28.2807ZM16.3915 28.0612L16.4667 28.1272C16.5769 28.0016 16.7553 27.9573 16.9174 28.013L16.9499 27.9185L16.9824 27.8239C16.7477 27.7432 16.4829 27.8054 16.3163 27.9953L16.3915 28.0612ZM13.9744 17.6621L13.9075 17.5878C13.7078 17.7678 13.406 17.7436 13.2758 17.5387L13.1914 17.5923L13.107 17.646C13.3172 17.9768 13.7696 17.9813 14.0414 17.7364L13.9744 17.6621ZM11.5969 13.3427L11.6205 13.4399C11.8794 13.3772 12.0618 13.1524 12.0853 12.8917L11.9857 12.8827L11.8861 12.8738C11.8699 13.0538 11.7446 13.204 11.5734 13.2455L11.5969 13.3427ZM10.7924 14.4158L10.8444 14.3304C10.5401 14.1449 10.6121 13.684 10.9585 13.6001L10.935 13.5029L10.9115 13.4057C10.3918 13.5315 10.2838 14.2229 10.7403 14.5012L10.7924 14.4158ZM23.4846 19.3653L23.406 19.3035C23.3256 19.4057 23.2098 19.4434 23.0926 19.427C22.9734 19.4104 22.8544 19.3375 22.7801 19.2187L22.6953 19.2717L22.6105 19.3247C22.7158 19.4932 22.8866 19.6002 23.0649 19.6251C23.2451 19.6502 23.4342 19.5911 23.5632 19.4272L23.4846 19.3653ZM12.2041 15.3997L12.2977 15.3646C12.2508 15.2396 12.1631 15.1343 12.0494 15.065L11.9974 15.1504L11.9453 15.2358C12.0212 15.282 12.0794 15.3521 12.1104 15.4349L12.2041 15.3997Z" fill="url(#paint9_linear_0_189)"/>
<g filter="url(#filter8_i_0_189)">
<path fill-rule="evenodd" clip-rule="evenodd" d="M21.9486 16.5395C21.4673 16.8402 20.9618 16.7471 20.6844 16.3032C20.4083 15.8613 20.4529 15.2168 20.9342 14.916C21.4166 14.6146 22.0115 14.8595 22.2876 15.3014C22.565 15.7453 22.4311 16.238 21.9486 16.5395ZM19.8518 23.1852C20.1718 22.9853 20.6772 23.0783 20.8594 23.3699C21.1356 23.8119 20.9989 24.309 20.679 24.5089C20.3546 24.7116 19.8523 24.6137 19.5762 24.1717C19.394 23.8802 19.5274 23.3879 19.8518 23.1852Z" fill="url(#paint10_linear_0_189)" fill-opacity="0.3"/>
</g>
<path d="M19.5762 24.1717L19.661 24.1187L19.661 24.1187L19.5762 24.1717ZM20.6844 16.3032L20.5996 16.3562C20.7518 16.5997 20.9705 16.7521 21.2217 16.7989C21.4719 16.8455 21.7438 16.7854 22.0016 16.6243L21.9486 16.5395L21.8956 16.4547C21.6721 16.5943 21.4506 16.6381 21.2583 16.6023C21.0672 16.5667 20.8945 16.4506 20.7692 16.2502L20.6844 16.3032ZM20.9342 14.916L20.8812 14.8312C20.3403 15.1692 20.3028 15.8812 20.5996 16.3562L20.6844 16.3032L20.7692 16.2502C20.5137 15.8413 20.5654 15.2644 20.9872 15.0009L20.9342 14.916ZM22.2876 15.3014L22.3724 15.2484C22.076 14.774 21.4236 14.4923 20.8812 14.8312L20.9342 14.916L20.9872 15.0009C21.4096 14.7369 21.947 14.945 22.2028 15.3544L22.2876 15.3014ZM21.9486 16.5395L22.0016 16.6243C22.26 16.4628 22.4326 16.2452 22.4995 16.0002C22.5667 15.7543 22.5244 15.4916 22.3724 15.2484L22.2876 15.3014L22.2028 15.3544C22.3283 15.5551 22.3576 15.7607 22.3066 15.9475C22.2553 16.1352 22.1197 16.3147 21.8956 16.4547L21.9486 16.5395ZM20.8594 23.3699L20.9442 23.3169C20.834 23.1406 20.6332 23.033 20.4253 22.9949C20.2166 22.9566 19.9839 22.9847 19.7989 23.1004L19.8518 23.1852L19.9048 23.27C20.0397 23.1857 20.2196 23.1605 20.3892 23.1916C20.5596 23.2229 20.7026 23.3077 20.7746 23.4229L20.8594 23.3699ZM20.679 24.5089L20.732 24.5937C21.1043 24.3611 21.246 23.7999 20.9442 23.3169L20.8594 23.3699L20.7746 23.4229C21.0251 23.8238 20.8935 24.257 20.626 24.4241L20.679 24.5089ZM19.5762 24.1717L19.4914 24.2247C19.7929 24.7073 20.3548 24.8294 20.732 24.5937L20.679 24.5089L20.626 24.4241C20.3544 24.5939 19.9117 24.52 19.661 24.1187L19.5762 24.1717ZM19.8518 23.1852L19.7989 23.1004C19.6117 23.2173 19.4842 23.4141 19.4277 23.6185C19.3713 23.8221 19.3814 24.0488 19.4914 24.2247L19.5762 24.1717L19.661 24.1187C19.5887 24.0031 19.5745 23.8379 19.6204 23.6718C19.6661 23.5065 19.7676 23.3558 19.9048 23.27L19.8518 23.1852Z" fill="url(#paint11_linear_0_189)"/>
</g>
<defs>
<filter id="filter0_i_0_189" x="17.1167" y="27.7803" width="21.4713" height="23.2231" filterUnits="userSpaceOnUse" color-interpolation-filters="sRGB">
<feFlood flood-opacity="0" result="BackgroundImageFix"/>
<feBlend mode="normal" in="SourceGraphic" in2="BackgroundImageFix" result="shape"/>
<feColorMatrix in="SourceAlpha" type="matrix" values="0 0 0 0 0 0 0 0 0 0 0 0 0 0 0 0 0 0 127 0" result="hardAlpha"/>
<feOffset dx="1" dy="1"/>
<feGaussianBlur stdDeviation="1.5"/>
<feComposite in2="hardAlpha" operator="arithmetic" k2="-1" k3="1"/>
<feColorMatrix type="matrix" values="0 0 0 0 0 0 0 0 0 0 0 0 0 0 0 0 0 0 0.5 0"/>
<feBlend mode="normal" in2="shape" result="effect1_innerShadow_0_189"/>
</filter>
<filter id="filter1_i_0_189" x="29.3345" y="44.8428" width="25.1995" height="27.1001" filterUnits="userSpaceOnUse" color-interpolation-filters="sRGB">
<feFlood flood-opacity="0" result="BackgroundImageFix"/>
<feBlend mode="normal" in="SourceGraphic" in2="BackgroundImageFix" result="shape"/>
<feColorMatrix in="SourceAlpha" type="matrix" values="0 0 0 0 0 0 0 0 0 0 0 0 0 0 0 0 0 0 127 0" result="hardAlpha"/>
<feOffset dx="1" dy="1"/>
<feGaussianBlur stdDeviation="1.5"/>
<feComposite in2="hardAlpha" operator="arithmetic" k2="-1" k3="1"/>
<feColorMatrix type="matrix" values="0 0 0 0 0 0 0 0 0 0 0 0 0 0 0 0 0 0 0.5 0"/>
<feBlend mode="normal" in2="shape" result="effect1_innerShadow_0_189"/>
</filter>
<filter id="filter2_i_0_189" x="43.0686" y="68.7764" width="23.8933" height="14.918" filterUnits="userSpaceOnUse" color-interpolation-filters="sRGB">
<feFlood flood-opacity="0" result="BackgroundImageFix"/>
<feBlend mode="normal" in="SourceGraphic" in2="BackgroundImageFix" result="shape"/>
<feColorMatrix in="SourceAlpha" type="matrix" values="0 0 0 0 0 0 0 0 0 0 0 0 0 0 0 0 0 0 127 0" result="hardAlpha"/>
<feOffset dx="1" dy="1"/>
<feGaussianBlur stdDeviation="1.5"/>
<feComposite in2="hardAlpha" operator="arithmetic" k2="-1" k3="1"/>
<feColorMatrix type="matrix" values="0 0 0 0 0 0 0 0 0 0 0 0 0 0 0 0 0 0 0.5 0"/>
<feBlend mode="normal" in2="shape" result="effect1_innerShadow_0_189"/>
</filter>
<filter id="filter3_i_0_189" x="49.0468" y="80.4072" width="21.4065" height="20.9121" filterUnits="userSpaceOnUse" color-interpolation-filters="sRGB">
<feFlood flood-opacity="0" result="BackgroundImageFix"/>
<feBlend mode="normal" in="SourceGraphic" in2="BackgroundImageFix" result="shape"/>
<feColorMatrix in="SourceAlpha" type="matrix" values="0 0 0 0 0 0 0 0 0 0 0 0 0 0 0 0 0 0 127 0" result="hardAlpha"/>
<feOffset dx="1" dy="1"/>
<feGaussianBlur stdDeviation="1.5"/>
<feComposite in2="hardAlpha" operator="arithmetic" k2="-1" k3="1"/>
<feColorMatrix type="matrix" values="0 0 0 0 0 0 0 0 0 0 0 0 0 0 0 0 0 0 0.5 0"/>
<feBlend mode="normal" in2="shape" result="effect1_innerShadow_0_189"/>
</filter>
<filter id="filter4_i_0_189" x="59.5387" y="94.1924" width="19.1387" height="20.7056" filterUnits="userSpaceOnUse" color-interpolation-filters="sRGB">
<feFlood flood-opacity="0" result="BackgroundImageFix"/>
<feBlend mode="normal" in="SourceGraphic" in2="BackgroundImageFix" result="shape"/>
<feColorMatrix in="SourceAlpha" type="matrix" values="0 0 0 0 0 0 0 0 0 0 0 0 0 0 0 0 0 0 127 0" result="hardAlpha"/>
<feOffset dx="1" dy="1"/>
<feGaussianBlur stdDeviation="1.5"/>
<feComposite in2="hardAlpha" operator="arithmetic" k2="-1" k3="1"/>
<feColorMatrix type="matrix" values="0 0 0 0 0 0 0 0 0 0 0 0 0 0 0 0 0 0 0.5 0"/>
<feBlend mode="normal" in2="shape" result="effect1_innerShadow_0_189"/>
</filter>
<filter id="filter5_i_0_189" x="68.3694" y="107.312" width="25.1995" height="27.1001" filterUnits="userSpaceOnUse" color-interpolation-filters="sRGB">
<feFlood flood-opacity="0" result="BackgroundImageFix"/>
<feBlend mode="normal" in="SourceGraphic" in2="BackgroundImageFix" result="shape"/>
<feColorMatrix in="SourceAlpha" type="matrix" values="0 0 0 0 0 0 0 0 0 0 0 0 0 0 0 0 0 0 127 0" result="hardAlpha"/>
<feOffset dx="1" dy="1"/>
<feGaussianBlur stdDeviation="1.5"/>
<feComposite in2="hardAlpha" operator="arithmetic" k2="-1" k3="1"/>
<feColorMatrix type="matrix" values="0 0 0 0 0 0 0 0 0 0 0 0 0 0 0 0 0 0 0.5 0"/>
<feBlend mode="normal" in2="shape" result="effect1_innerShadow_0_189"/>
</filter>
<filter id="filter6_i_0_189" x="17.2762" y="10.4419" width="3.60132" height="11.8774" filterUnits="userSpaceOnUse" color-interpolation-filters="sRGB">
<feFlood flood-opacity="0" result="BackgroundImageFix"/>
<feBlend mode="normal" in="SourceGraphic" in2="BackgroundImageFix" result="shape"/>
<feColorMatrix in="SourceAlpha" type="matrix" values="0 0 0 0 0 0 0 0 0 0 0 0 0 0 0 0 0 0 127 0" result="hardAlpha"/>
<feOffset dx="1" dy="1"/>
<feGaussianBlur stdDeviation="0.5"/>
<feComposite in2="hardAlpha" operator="arithmetic" k2="-1" k3="1"/>
<feColorMatrix type="matrix" values="0 0 0 0 0 0 0 0 0 0 0 0 0 0 0 0 0 0 0.5 0"/>
<feBlend mode="normal" in2="shape" result="effect1_innerShadow_0_189"/>
</filter>
<filter id="filter7_i_0_189" x="2.7688" y="2.6582" width="31.5104" height="31.5107" filterUnits="userSpaceOnUse" color-interpolation-filters="sRGB">
<feFlood flood-opacity="0" result="BackgroundImageFix"/>
<feBlend mode="normal" in="SourceGraphic" in2="BackgroundImageFix" result="shape"/>
<feColorMatrix in="SourceAlpha" type="matrix" values="0 0 0 0 0 0 0 0 0 0 0 0 0 0 0 0 0 0 127 0" result="hardAlpha"/>
<feOffset dx="1" dy="1"/>
<feGaussianBlur stdDeviation="0.5"/>
<feComposite in2="hardAlpha" operator="arithmetic" k2="-1" k3="1"/>
<feColorMatrix type="matrix" values="0 0 0 0 0 0 0 0 0 0 0 0 0 0 0 0 0 0 0.5 0"/>
<feBlend mode="normal" in2="shape" result="effect1_innerShadow_0_189"/>
</filter>
<filter id="filter8_i_0_189" x="19.394" y="14.6821" width="4.13635" height="11.0278" filterUnits="userSpaceOnUse" color-interpolation-filters="sRGB">
<feFlood flood-opacity="0" result="BackgroundImageFix"/>
<feBlend mode="normal" in="SourceGraphic" in2="BackgroundImageFix" result="shape"/>
<feColorMatrix in="SourceAlpha" type="matrix" values="0 0 0 0 0 0 0 0 0 0 0 0 0 0 0 0 0 0 127 0" result="hardAlpha"/>
<feOffset dx="1" dy="1"/>
<feGaussianBlur stdDeviation="0.5"/>
<feComposite in2="hardAlpha" operator="arithmetic" k2="-1" k3="1"/>
<feColorMatrix type="matrix" values="0 0 0 0 0 0 0 0 0 0 0 0 0 0 0 0 0 0 0.5 0"/>
<feBlend mode="normal" in2="shape" result="effect1_innerShadow_0_189"/>
</filter>
<linearGradient id="paint0_linear_0_189" x1="35.4016" y1="27.4834" x2="16.5658" y2="38.0083" gradientUnits="userSpaceOnUse">
<stop stop-color="white"/>
<stop offset="1" stop-color="#2C2F36"/>
</linearGradient>
<linearGradient id="paint1_linear_0_189" x1="40.0726" y1="44.456" x2="26.8671" y2="52.3212" gradientUnits="userSpaceOnUse">
<stop stop-color="white"/>
<stop offset="1" stop-color="#2C2F36"/>
</linearGradient>
<linearGradient id="paint2_linear_0_189" x1="60.3512" y1="65.2716" x2="41.4969" y2="75.3757" gradientUnits="userSpaceOnUse">
<stop stop-color="white"/>
<stop offset="1" stop-color="#2C2F36"/>
</linearGradient>
<linearGradient id="paint3_linear_0_189" x1="62.2153" y1="79.892" x2="48.882" y2="87.5225" gradientUnits="userSpaceOnUse">
<stop stop-color="white"/>
<stop offset="1" stop-color="#2C2F36"/>
</linearGradient>
<linearGradient id="paint4_linear_0_189" x1="71.7854" y1="92.4654" x2="57.718" y2="100.521" gradientUnits="userSpaceOnUse">
<stop stop-color="white"/>
<stop offset="1" stop-color="#2C2F36"/>
</linearGradient>
<linearGradient id="paint5_linear_0_189" x1="79.1075" y1="106.925" x2="65.902" y2="114.79" gradientUnits="userSpaceOnUse">
<stop stop-color="white"/>
<stop offset="1" stop-color="#2C2F36"/>
</linearGradient>
<linearGradient id="paint6_linear_0_189" x1="19.0847" y1="10.1758" x2="13.1484" y2="13.8852" gradientUnits="userSpaceOnUse">
<stop stop-color="white" stop-opacity="0.1"/>
<stop offset="1" stop-opacity="0.1"/>
</linearGradient>
<linearGradient id="paint7_linear_0_189" x1="19.0847" y1="10.1758" x2="13.1484" y2="13.8852" gradientUnits="userSpaceOnUse">
<stop/>
<stop offset="1"/>
</linearGradient>
<linearGradient id="paint8_linear_0_189" x1="21.8416" y1="1.37793" x2="1.4884" y2="14.096" gradientUnits="userSpaceOnUse">
<stop stop-color="white" stop-opacity="0.1"/>
<stop offset="1" stop-opacity="0.1"/>
</linearGradient>
<linearGradient id="paint9_linear_0_189" x1="21.8416" y1="1.37793" x2="1.4884" y2="14.096" gradientUnits="userSpaceOnUse">
<stop/>
<stop offset="1"/>
</linearGradient>
<linearGradient id="paint10_linear_0_189" x1="21.7344" y1="14.416" x2="15.798" y2="18.1255" gradientUnits="userSpaceOnUse">
<stop stop-color="white" stop-opacity="0.1"/>
<stop offset="1" stop-opacity="0.1"/>
</linearGradient>
<linearGradient id="paint11_linear_0_189" x1="21.7344" y1="14.416" x2="15.798" y2="18.1255" gradientUnits="userSpaceOnUse">
<stop/>
<stop offset="1"/>
</linearGradient>
</defs>
</svg>
