<svg width="97" height="141" viewBox="0 0 97 141" fill="none" xmlns="http://www.w3.org/2000/svg">
<mask id="path-1-outside-1_0_184" maskUnits="userSpaceOnUse" x="25.1348" y="43.3279" width="28.2224" height="31.8827" fill="black">
<rect fill="white" x="25.1348" y="43.3279" width="28.2224" height="31.8827"/>
<path d="M51.5461 65.5737C51.8156 66.0404 51.5559 66.6346 51.0303 66.7538L36.9884 69.9396C36.6465 70.0172 36.2939 69.8631 36.1186 69.5594L34.099 66.0613C33.9227 65.756 33.9671 65.3712 34.2083 65.114L39.3745 59.6067C39.9175 59.0278 39.3769 58.0967 38.605 58.2813L31.279 60.0329C30.9347 60.1152 30.5772 59.9614 30.4002 59.6548L28.3486 56.1014C28.173 55.7972 28.2164 55.4139 28.4556 55.1566L38.2539 44.6207C38.6204 44.2267 39.2635 44.2995 39.5325 44.7655L41.2623 47.7615C41.4461 48.0799 41.3893 48.4826 41.1245 48.7377L35.7897 53.8771C35.2064 54.4391 35.7317 55.4125 36.5216 55.2335L43.9534 53.5488C44.2953 53.4713 44.6478 53.6254 44.8231 53.929L46.4098 56.6773C46.5872 56.9845 46.5411 57.3719 46.2965 57.6288L41.152 63.0336C40.5884 63.6258 41.171 64.5823 41.9557 64.3531L48.9566 62.3089C49.3105 62.2055 49.6893 62.3575 49.8736 62.6768L51.5461 65.5737Z"/>
</mask>
<path d="M51.5461 65.5737C51.8156 66.0404 51.5559 66.6346 51.0303 66.7538L36.9884 69.9396C36.6465 70.0172 36.2939 69.8631 36.1186 69.5594L34.099 66.0613C33.9227 65.756 33.9671 65.3712 34.2083 65.114L39.3745 59.6067C39.9175 59.0278 39.3769 58.0967 38.605 58.2813L31.279 60.0329C30.9347 60.1152 30.5772 59.9614 30.4002 59.6548L28.3486 56.1014C28.173 55.7972 28.2164 55.4139 28.4556 55.1566L38.2539 44.6207C38.6204 44.2267 39.2635 44.2995 39.5325 44.7655L41.2623 47.7615C41.4461 48.0799 41.3893 48.4826 41.1245 48.7377L35.7897 53.8771C35.2064 54.4391 35.7317 55.4125 36.5216 55.2335L43.9534 53.5488C44.2953 53.4713 44.6478 53.6254 44.8231 53.929L46.4098 56.6773C46.5872 56.9845 46.5411 57.3719 46.2965 57.6288L41.152 63.0336C40.5884 63.6258 41.171 64.5823 41.9557 64.3531L48.9566 62.3089C49.3105 62.2055 49.6893 62.3575 49.8736 62.6768L51.5461 65.5737Z" fill="url(#paint0_linear_0_184)" fill-opacity="0.7"/>
<path d="M51.5461 65.5737C51.8156 66.0404 51.5559 66.6346 51.0303 66.7538L36.9884 69.9396C36.6465 70.0172 36.2939 69.8631 36.1186 69.5594L34.099 66.0613C33.9227 65.756 33.9671 65.3712 34.2083 65.114L39.3745 59.6067C39.9175 59.0278 39.3769 58.0967 38.605 58.2813L31.279 60.0329C30.9347 60.1152 30.5772 59.9614 30.4002 59.6548L28.3486 56.1014C28.173 55.7972 28.2164 55.4139 28.4556 55.1566L38.2539 44.6207C38.6204 44.2267 39.2635 44.2995 39.5325 44.7655L41.2623 47.7615C41.4461 48.0799 41.3893 48.4826 41.1245 48.7377L35.7897 53.8771C35.2064 54.4391 35.7317 55.4125 36.5216 55.2335L43.9534 53.5488C44.2953 53.4713 44.6478 53.6254 44.8231 53.929L46.4098 56.6773C46.5872 56.9845 46.5411 57.3719 46.2965 57.6288L41.152 63.0336C40.5884 63.6258 41.171 64.5823 41.9557 64.3531L48.9566 62.3089C49.3105 62.2055 49.6893 62.3575 49.8736 62.6768L51.5461 65.5737Z" stroke="#414141" stroke-width="0.4" mask="url(#path-1-outside-1_0_184)"/>
<mask id="path-2-outside-2_0_184" maskUnits="userSpaceOnUse" x="38.517" y="65.3934" width="26.4186" height="22.7583" fill="black">
<rect fill="white" x="38.517" y="65.3934" width="26.4186" height="22.7583"/>
<path d="M60.9498 78.5943C60.7953 78.6835 60.5978 78.6306 60.5086 78.4761V78.4761C60.4933 78.4496 60.4819 78.421 60.4744 78.3914C60.4208 78.177 60.3452 77.9088 60.2477 77.5867C60.1433 77.2418 59.9908 76.8957 59.7903 76.5484C59.3072 75.7117 58.8303 75.2319 58.3594 75.1091C57.8886 74.9863 57.223 75.1732 56.3626 75.67V75.67C56.3037 75.704 56.2836 75.7792 56.3175 75.8381L57.7564 78.3302C57.9773 78.7129 57.8462 79.2022 57.4636 79.4231L55.9602 80.291C55.5776 80.512 55.0883 80.3809 54.8674 79.9982L53.849 78.2344C53.6281 77.8517 53.1389 77.7206 52.7562 77.9415L43.7343 83.1503C43.3517 83.3712 42.8624 83.2401 42.6415 82.8575L40.9806 79.9807C40.7597 79.5981 40.8908 79.1088 41.2734 78.8879L50.2953 73.6791C50.6779 73.4582 50.809 72.9689 50.5881 72.5863L50.3354 72.1485C50.1145 71.7659 50.2456 71.2766 50.6282 71.0557L52.1316 70.1877C52.5142 69.9668 53.0035 70.0979 53.2244 70.4805L53.6652 71.2441C53.7822 71.4468 54.0414 71.5162 54.2442 71.3992V71.3992C55.8702 70.4604 57.3393 70.1885 58.6513 70.5834C59.9634 70.9783 61.1252 72.052 62.137 73.8043C62.5015 74.4358 62.8102 75.0206 63.0631 75.5587C63.2014 75.8533 63.3254 76.1324 63.435 76.3963C63.5835 76.7538 63.4335 77.1603 63.0983 77.3539L60.9498 78.5943Z"/>
</mask>
<path d="M60.9498 78.5943C60.7953 78.6835 60.5978 78.6306 60.5086 78.4761V78.4761C60.4933 78.4496 60.4819 78.421 60.4744 78.3914C60.4208 78.177 60.3452 77.9088 60.2477 77.5867C60.1433 77.2418 59.9908 76.8957 59.7903 76.5484C59.3072 75.7117 58.8303 75.2319 58.3594 75.1091C57.8886 74.9863 57.223 75.1732 56.3626 75.67V75.67C56.3037 75.704 56.2836 75.7792 56.3175 75.8381L57.7564 78.3302C57.9773 78.7129 57.8462 79.2022 57.4636 79.4231L55.9602 80.291C55.5776 80.512 55.0883 80.3809 54.8674 79.9982L53.849 78.2344C53.6281 77.8517 53.1389 77.7206 52.7562 77.9415L43.7343 83.1503C43.3517 83.3712 42.8624 83.2401 42.6415 82.8575L40.9806 79.9807C40.7597 79.5981 40.8908 79.1088 41.2734 78.8879L50.2953 73.6791C50.6779 73.4582 50.809 72.9689 50.5881 72.5863L50.3354 72.1485C50.1145 71.7659 50.2456 71.2766 50.6282 71.0557L52.1316 70.1877C52.5142 69.9668 53.0035 70.0979 53.2244 70.4805L53.6652 71.2441C53.7822 71.4468 54.0414 71.5162 54.2442 71.3992V71.3992C55.8702 70.4604 57.3393 70.1885 58.6513 70.5834C59.9634 70.9783 61.1252 72.052 62.137 73.8043C62.5015 74.4358 62.8102 75.0206 63.0631 75.5587C63.2014 75.8533 63.3254 76.1324 63.435 76.3963C63.5835 76.7538 63.4335 77.1603 63.0983 77.3539L60.9498 78.5943Z" fill="url(#paint1_linear_0_184)" fill-opacity="0.7"/>
<path d="M60.9498 78.5943C60.7953 78.6835 60.5978 78.6306 60.5086 78.4761V78.4761C60.4933 78.4496 60.4819 78.421 60.4744 78.3914C60.4208 78.177 60.3452 77.9088 60.2477 77.5867C60.1433 77.2418 59.9908 76.8957 59.7903 76.5484C59.3072 75.7117 58.8303 75.2319 58.3594 75.1091C57.8886 74.9863 57.223 75.1732 56.3626 75.67V75.67C56.3037 75.704 56.2836 75.7792 56.3175 75.8381L57.7564 78.3302C57.9773 78.7129 57.8462 79.2022 57.4636 79.4231L55.9602 80.291C55.5776 80.512 55.0883 80.3809 54.8674 79.9982L53.849 78.2344C53.6281 77.8517 53.1389 77.7206 52.7562 77.9415L43.7343 83.1503C43.3517 83.3712 42.8624 83.2401 42.6415 82.8575L40.9806 79.9807C40.7597 79.5981 40.8908 79.1088 41.2734 78.8879L50.2953 73.6791C50.6779 73.4582 50.809 72.9689 50.5881 72.5863L50.3354 72.1485C50.1145 71.7659 50.2456 71.2766 50.6282 71.0557L52.1316 70.1877C52.5142 69.9668 53.0035 70.0979 53.2244 70.4805L53.6652 71.2441C53.7822 71.4468 54.0414 71.5162 54.2442 71.3992V71.3992C55.8702 70.4604 57.3393 70.1885 58.6513 70.5834C59.9634 70.9783 61.1252 72.052 62.137 73.8043C62.5015 74.4358 62.8102 75.0206 63.0631 75.5587C63.2014 75.8533 63.3254 76.1324 63.435 76.3963C63.5835 76.7538 63.4335 77.1603 63.0983 77.3539L60.9498 78.5943Z" stroke="#414141" stroke-width="0.4" mask="url(#path-2-outside-2_0_184)"/>
<mask id="path-3-outside-3_0_184" maskUnits="userSpaceOnUse" x="46.0274" y="79.5148" width="22.7224" height="22.3564" fill="black">
<rect fill="white" x="46.0274" y="79.5148" width="22.7224" height="22.3564"/>
<path d="M54.992 100.649C54.6094 100.87 54.1201 100.739 53.8992 100.356L47.4873 89.2504C47.2663 88.8678 47.3974 88.3785 47.7801 88.1576L49.5476 87.1371C49.7241 87.0353 49.9328 87.0046 50.1311 87.0513L59.5146 89.2633C60.1969 89.4241 60.7415 88.6918 60.3909 88.0846L57.8339 83.6557C57.613 83.2731 57.7441 82.7838 58.1267 82.5629L59.855 81.565C60.2377 81.3441 60.7269 81.4752 60.9479 81.8578L67.1205 92.5492C67.3414 92.9318 67.2103 93.4211 66.8277 93.642L65.1048 94.6367C64.93 94.7377 64.7234 94.7688 64.5266 94.7238L55.2 92.5925C54.519 92.4369 53.9797 93.1675 54.3289 93.7724L57.0723 98.5242C57.2933 98.9068 57.1622 99.3961 56.7795 99.617L54.992 100.649Z"/>
</mask>
<path d="M54.992 100.649C54.6094 100.87 54.1201 100.739 53.8992 100.356L47.4873 89.2504C47.2663 88.8678 47.3974 88.3785 47.7801 88.1576L49.5476 87.1371C49.7241 87.0353 49.9328 87.0046 50.1311 87.0513L59.5146 89.2633C60.1969 89.4241 60.7415 88.6918 60.3909 88.0846L57.8339 83.6557C57.613 83.2731 57.7441 82.7838 58.1267 82.5629L59.855 81.565C60.2377 81.3441 60.7269 81.4752 60.9479 81.8578L67.1205 92.5492C67.3414 92.9318 67.2103 93.4211 66.8277 93.642L65.1048 94.6367C64.93 94.7377 64.7234 94.7688 64.5266 94.7238L55.2 92.5925C54.519 92.4369 53.9797 93.1675 54.3289 93.7724L57.0723 98.5242C57.2933 98.9068 57.1622 99.3961 56.7795 99.617L54.992 100.649Z" fill="url(#paint2_linear_0_184)" fill-opacity="0.7"/>
<path d="M54.992 100.649C54.6094 100.87 54.1201 100.739 53.8992 100.356L47.4873 89.2504C47.2663 88.8678 47.3974 88.3785 47.7801 88.1576L49.5476 87.1371C49.7241 87.0353 49.9328 87.0046 50.1311 87.0513L59.5146 89.2633C60.1969 89.4241 60.7415 88.6918 60.3909 88.0846L57.8339 83.6557C57.613 83.2731 57.7441 82.7838 58.1267 82.5629L59.855 81.565C60.2377 81.3441 60.7269 81.4752 60.9479 81.8578L67.1205 92.5492C67.3414 92.9318 67.2103 93.4211 66.8277 93.642L65.1048 94.6367C64.93 94.7377 64.7234 94.7688 64.5266 94.7238L55.2 92.5925C54.519 92.4369 53.9797 93.1675 54.3289 93.7724L57.0723 98.5242C57.2933 98.9068 57.1622 99.3961 56.7795 99.617L54.992 100.649Z" stroke="#414141" stroke-width="0.4" mask="url(#path-3-outside-3_0_184)"/>
<mask id="path-4-outside-4_0_184" maskUnits="userSpaceOnUse" x="52.5415" y="93.4225" width="24.0885" height="23.7224" fill="black">
<rect fill="white" x="52.5415" y="93.4225" width="24.0885" height="23.7224"/>
<path d="M71.4622 101.194C72.8612 103.617 73.4989 105.583 73.375 107.091C73.2511 108.599 72.392 109.814 70.7975 110.734L62.4444 115.557C62.0618 115.778 61.5725 115.647 61.3516 115.264L59.5811 112.197C59.432 111.939 59.5205 111.609 59.7787 111.46V111.46C60.1651 111.237 60.1311 110.664 59.7238 110.482C59.6833 110.464 59.6421 110.445 59.6004 110.426C59.1598 110.228 58.7818 110.02 58.4665 109.802C58.0356 109.493 57.6448 109.14 57.2943 108.742C56.9437 108.345 56.6135 107.878 56.3036 107.341C55.5744 106.078 55.3545 104.795 55.6437 103.491C55.933 102.187 56.6854 101.185 57.901 100.483C58.8719 99.9224 59.7906 99.6814 60.6569 99.7601C61.5232 99.8388 62.3641 100.174 63.1796 100.766C63.9906 101.351 64.8083 102.184 65.6327 103.265C66.4416 104.326 67.2367 105.451 68.0179 106.64C68.0431 106.679 68.0941 106.691 68.1339 106.668V106.668C68.868 106.244 69.202 105.651 69.1359 104.889C69.0697 104.128 68.6994 103.163 68.0249 101.995C67.6193 101.292 67.0621 100.614 66.3531 99.9603C65.6819 99.3413 65.1783 98.8944 64.8426 98.6196C64.8063 98.5899 64.7757 98.5542 64.7522 98.5136V98.5136C64.6472 98.3317 64.7095 98.0991 64.8914 97.9941L67.2367 96.6401C67.5514 96.4584 67.9492 96.5114 68.1917 96.7821C68.529 97.1588 68.9515 97.6599 69.4592 98.2854C70.2066 99.2063 70.8743 100.176 71.4622 101.194ZM64.7988 108.562C65.2038 108.328 65.3231 107.798 65.0497 107.418C64.8069 107.081 64.5488 106.732 64.2755 106.369C63.8052 105.746 63.4146 105.293 63.1036 105.01C62.7233 104.661 62.3399 104.448 61.9535 104.371C61.5671 104.294 61.1647 104.377 60.7464 104.618C60.4701 104.778 60.2588 104.931 60.1125 105.079C59.9662 105.226 59.8688 105.441 59.8203 105.721C59.7672 105.994 59.7761 106.278 59.847 106.574C59.9178 106.87 60.1082 107.286 60.4181 107.823C60.6642 108.249 61.0005 108.631 61.4271 108.969C61.7503 109.225 62.0875 109.432 62.4389 109.59C62.6518 109.686 62.8967 109.66 63.099 109.543L64.7988 108.562Z"/>
</mask>
<path d="M71.4622 101.194C72.8612 103.617 73.4989 105.583 73.375 107.091C73.2511 108.599 72.392 109.814 70.7975 110.734L62.4444 115.557C62.0618 115.778 61.5725 115.647 61.3516 115.264L59.5811 112.197C59.432 111.939 59.5205 111.609 59.7787 111.46V111.46C60.1651 111.237 60.1311 110.664 59.7238 110.482C59.6833 110.464 59.6421 110.445 59.6004 110.426C59.1598 110.228 58.7818 110.02 58.4665 109.802C58.0356 109.493 57.6448 109.14 57.2943 108.742C56.9437 108.345 56.6135 107.878 56.3036 107.341C55.5744 106.078 55.3545 104.795 55.6437 103.491C55.933 102.187 56.6854 101.185 57.901 100.483C58.8719 99.9224 59.7906 99.6814 60.6569 99.7601C61.5232 99.8388 62.3641 100.174 63.1796 100.766C63.9906 101.351 64.8083 102.184 65.6327 103.265C66.4416 104.326 67.2367 105.451 68.0179 106.64C68.0431 106.679 68.0941 106.691 68.1339 106.668V106.668C68.868 106.244 69.202 105.651 69.1359 104.889C69.0697 104.128 68.6994 103.163 68.0249 101.995C67.6193 101.292 67.0621 100.614 66.3531 99.9603C65.6819 99.3413 65.1783 98.8944 64.8426 98.6196C64.8063 98.5899 64.7757 98.5542 64.7522 98.5136V98.5136C64.6472 98.3317 64.7095 98.0991 64.8914 97.9941L67.2367 96.6401C67.5514 96.4584 67.9492 96.5114 68.1917 96.7821C68.529 97.1588 68.9515 97.6599 69.4592 98.2854C70.2066 99.2063 70.8743 100.176 71.4622 101.194ZM64.7988 108.562C65.2038 108.328 65.3231 107.798 65.0497 107.418C64.8069 107.081 64.5488 106.732 64.2755 106.369C63.8052 105.746 63.4146 105.293 63.1036 105.01C62.7233 104.661 62.3399 104.448 61.9535 104.371C61.5671 104.294 61.1647 104.377 60.7464 104.618C60.4701 104.778 60.2588 104.931 60.1125 105.079C59.9662 105.226 59.8688 105.441 59.8203 105.721C59.7672 105.994 59.7761 106.278 59.847 106.574C59.9178 106.87 60.1082 107.286 60.4181 107.823C60.6642 108.249 61.0005 108.631 61.4271 108.969C61.7503 109.225 62.0875 109.432 62.4389 109.59C62.6518 109.686 62.8967 109.66 63.099 109.543L64.7988 108.562Z" fill="url(#paint3_linear_0_184)" fill-opacity="0.7"/>
<path d="M58.4665 109.802L58.35 109.965L58.3528 109.967L58.4665 109.802ZM63.1796 100.766L63.0621 100.928L63.0627 100.929L63.1796 100.766ZM69.4592 98.2854L69.6145 98.1594L69.4592 98.2854ZM63.1036 105.01L62.9684 105.157L62.9688 105.157L63.1036 105.01ZM59.8203 105.721L60.0166 105.759L60.0173 105.755L59.8203 105.721ZM61.4271 108.969L61.3029 109.126L61.4271 108.969ZM62.4389 109.59L62.3568 109.773L62.4389 109.59ZM64.8426 98.6196L64.7159 98.7744L64.8426 98.6196ZM68.0179 106.64L67.8507 106.75L68.0179 106.64ZM59.7238 110.482L59.8055 110.299L59.7238 110.482ZM71.4622 101.194L71.289 101.294C72.6826 103.708 73.2944 105.629 73.1757 107.075L73.375 107.091L73.5743 107.108C73.7033 105.537 73.0399 103.527 71.6354 101.094L71.4622 101.194ZM73.375 107.091L73.1757 107.075C73.0584 108.503 72.2491 109.665 70.6975 110.561L70.7975 110.734L70.8975 110.907C72.5348 109.962 73.4439 108.696 73.5743 107.108L73.375 107.091ZM70.7975 110.734L70.6975 110.561L62.3444 115.384L62.4444 115.557L62.5444 115.73L70.8975 110.907L70.7975 110.734ZM61.3516 115.264L61.5248 115.164L59.7543 112.097L59.5811 112.197L59.4079 112.297L61.1784 115.364L61.3516 115.264ZM59.7238 110.482L59.8055 110.299C59.7651 110.281 59.7241 110.263 59.6824 110.244L59.6004 110.426L59.5184 110.609C59.5602 110.628 59.6014 110.646 59.6421 110.664L59.7238 110.482ZM59.6004 110.426L59.6824 110.244C59.2501 110.05 58.8833 109.847 58.5803 109.638L58.4665 109.802L58.3528 109.967C58.6803 110.193 59.0694 110.407 59.5184 110.609L59.6004 110.426ZM58.4665 109.802L58.5831 109.64C58.1643 109.339 57.7848 108.996 57.4443 108.61L57.2943 108.742L57.1442 108.875C57.5048 109.284 57.9068 109.647 58.35 109.965L58.4665 109.802ZM57.2943 108.742L57.4443 108.61C57.1038 108.224 56.7811 107.768 56.4768 107.241L56.3036 107.341L56.1304 107.441C56.4458 107.987 56.7836 108.466 57.1442 108.875L57.2943 108.742ZM56.3036 107.341L56.4768 107.241C55.7702 106.017 55.5616 104.785 55.839 103.534L55.6437 103.491L55.4485 103.448C55.1474 104.805 55.3787 106.139 56.1304 107.441L56.3036 107.341ZM55.6437 103.491L55.839 103.534C56.1154 102.289 56.8312 101.332 58.001 100.656L57.901 100.483L57.801 100.31C56.5397 101.038 55.7506 102.086 55.4485 103.448L55.6437 103.491ZM57.901 100.483L58.001 100.656C58.9465 100.11 59.824 99.8853 60.6388 99.9593L60.6569 99.7601L60.675 99.5609C59.7571 99.4776 58.7974 99.7345 57.801 100.31L57.901 100.483ZM60.6569 99.7601L60.6388 99.9593C61.4639 100.034 62.2711 100.354 63.0621 100.928L63.1796 100.766L63.2972 100.605C62.4572 99.9946 61.5826 99.6433 60.675 99.5609L60.6569 99.7601ZM63.1796 100.766L63.0627 100.929C63.8531 101.498 64.6572 102.315 65.4737 103.386L65.6327 103.265L65.7918 103.144C64.9594 102.052 64.1281 101.203 63.2966 100.604L63.1796 100.766ZM65.6327 103.265L65.4737 103.386C66.2796 104.444 67.0719 105.565 67.8507 106.75L68.0179 106.64L68.185 106.53C67.4014 105.338 66.6037 104.209 65.7918 103.144L65.6327 103.265ZM68.1339 106.668L68.2339 106.841C68.6244 106.615 68.9208 106.338 69.1092 106.003C69.2984 105.668 69.3712 105.288 69.3351 104.872L69.1359 104.889L68.9366 104.907C68.9666 105.253 68.9056 105.55 68.7607 105.807C68.6152 106.065 68.3775 106.296 68.0339 106.495L68.1339 106.668ZM69.1359 104.889L69.3351 104.872C69.2652 104.067 68.8777 103.072 68.1981 101.895L68.0249 101.995L67.8517 102.095C68.5211 103.254 68.8743 104.189 68.9366 104.907L69.1359 104.889ZM68.0249 101.995L68.1981 101.895C67.7808 101.172 67.2098 100.478 66.4887 99.8132L66.3531 99.9603L66.2176 100.107C66.9144 100.75 67.4579 101.412 67.8517 102.095L68.0249 101.995ZM66.3531 99.9603L66.4887 99.8132C65.817 99.1938 65.3098 98.7436 64.9693 98.4648L64.8426 98.6196L64.7159 98.7744C65.0468 99.0452 65.5467 99.4888 66.2176 100.107L66.3531 99.9603ZM64.8914 97.9941L64.9914 98.1673L67.3367 96.8133L67.2367 96.6401L67.1367 96.4669L64.7914 97.8209L64.8914 97.9941ZM68.1917 96.7821L68.0427 96.9156C68.377 97.2889 68.7972 97.7872 69.3039 98.4114L69.4592 98.2854L69.6145 98.1594C69.1058 97.5326 68.681 97.0288 68.3407 96.6487L68.1917 96.7821ZM69.4592 98.2854L69.3039 98.4114C70.0447 99.3242 70.7064 100.285 71.289 101.294L71.4622 101.194L71.6354 101.094C71.0422 100.067 70.3685 99.0884 69.6145 98.1594L69.4592 98.2854ZM65.0497 107.418L65.212 107.301C64.9682 106.963 64.7092 106.612 64.4351 106.249L64.2755 106.369L64.1159 106.49C64.3883 106.851 64.6455 107.199 64.8874 107.535L65.0497 107.418ZM64.2755 106.369L64.4351 106.249C63.9626 105.623 63.5631 105.158 63.2383 104.862L63.1036 105.01L62.9688 105.157C63.2661 105.428 63.6479 105.87 64.1159 106.49L64.2755 106.369ZM63.1036 105.01L63.2388 104.862C62.8396 104.496 62.4244 104.261 61.9925 104.175L61.9535 104.371L61.9145 104.567C62.2555 104.635 62.6069 104.825 62.9684 105.157L63.1036 105.01ZM61.9535 104.371L61.9925 104.175C61.5484 104.087 61.0968 104.185 60.6464 104.445L60.7464 104.618L60.8464 104.791C61.2326 104.568 61.5858 104.502 61.9145 104.567L61.9535 104.371ZM60.7464 104.618L60.6464 104.445C60.362 104.609 60.134 104.773 59.9704 104.938L60.1125 105.079L60.2545 105.22C60.3835 105.089 60.5782 104.946 60.8464 104.791L60.7464 104.618ZM60.1125 105.079L59.9704 104.938C59.7864 105.124 59.6761 105.381 59.6232 105.687L59.8203 105.721L60.0173 105.755C60.0614 105.5 60.146 105.329 60.2545 105.22L60.1125 105.079ZM59.8203 105.721L59.624 105.683C59.5649 105.986 59.5756 106.3 59.6525 106.621L59.847 106.574L60.0415 106.527C59.9766 106.257 59.9695 106.001 60.0166 105.759L59.8203 105.721ZM59.847 106.574L59.6525 106.621C59.7304 106.946 59.9332 107.383 60.2449 107.923L60.4181 107.823L60.5913 107.723C60.2832 107.189 60.1052 106.794 60.0415 106.527L59.847 106.574ZM60.4181 107.823L60.2449 107.923C60.5048 108.373 60.8586 108.774 61.3029 109.126L61.4271 108.969L61.5513 108.812C61.1424 108.489 60.8235 108.125 60.5913 107.723L60.4181 107.823ZM61.4271 108.969L61.3029 109.126C61.6381 109.391 61.9894 109.607 62.3568 109.773L62.4389 109.59L62.521 109.408C62.1857 109.257 61.8624 109.059 61.5513 108.812L61.4271 108.969ZM63.099 109.543L63.199 109.716L64.8988 108.735L64.7988 108.562L64.6988 108.388L62.999 109.37L63.099 109.543ZM62.4389 109.59L62.3568 109.773C62.6365 109.899 62.9492 109.86 63.199 109.716L63.099 109.543L62.999 109.37C62.8442 109.459 62.6671 109.474 62.521 109.408L62.4389 109.59ZM65.0497 107.418L64.8874 107.535C65.0901 107.817 65.0034 108.213 64.6988 108.388L64.7988 108.562L64.8988 108.735C65.4042 108.443 65.556 107.779 65.212 107.301L65.0497 107.418ZM67.2367 96.6401L67.3367 96.8133C67.574 96.6763 67.8668 96.7192 68.0427 96.9156L68.1917 96.7821L68.3407 96.6487C68.0317 96.3036 67.5288 96.2405 67.1367 96.4669L67.2367 96.6401ZM64.7522 98.5136L64.9254 98.4136C64.8757 98.3274 64.9052 98.2171 64.9914 98.1673L64.8914 97.9941L64.7914 97.8209C64.5139 97.9812 64.4188 98.336 64.579 98.6136L64.7522 98.5136ZM64.8426 98.6196L64.9693 98.4648C64.9512 98.45 64.9365 98.4327 64.9254 98.4136L64.7522 98.5136L64.579 98.6136C64.6149 98.6756 64.6615 98.7298 64.7159 98.7744L64.8426 98.6196ZM59.5811 112.197L59.7543 112.097C59.6604 111.935 59.7161 111.727 59.8787 111.633L59.7787 111.46L59.6787 111.287C59.3248 111.491 59.2036 111.944 59.4079 112.297L59.5811 112.197ZM68.0179 106.64L67.8507 106.75C67.9341 106.877 68.1021 106.917 68.2339 106.841L68.1339 106.668L68.0339 106.495C68.0861 106.464 68.1522 106.48 68.185 106.53L68.0179 106.64ZM59.7787 111.46L59.8787 111.633C60.4094 111.327 60.3586 110.547 59.8055 110.299L59.7238 110.482L59.6421 110.664C59.9035 110.781 59.9207 111.147 59.6787 111.287L59.7787 111.46ZM62.4444 115.557L62.3444 115.384C62.0574 115.549 61.6905 115.451 61.5248 115.164L61.3516 115.264L61.1784 115.364C61.4545 115.842 62.0661 116.006 62.5444 115.73L62.4444 115.557Z" fill="#414141" mask="url(#path-4-outside-4_0_184)"/>
<mask id="path-6-outside-5_0_184" maskUnits="userSpaceOnUse" x="62.4659" y="107.987" width="28.2224" height="31.8827" fill="black">
<rect fill="white" x="62.4659" y="107.987" width="28.2224" height="31.8827"/>
<path d="M88.8772 130.233C89.1467 130.7 88.8869 131.294 88.3614 131.413L74.3195 134.599C73.9776 134.676 73.625 134.522 73.4497 134.219L71.4301 130.721C71.2537 130.415 71.2982 130.03 71.5394 129.773L76.7055 124.266C77.2486 123.687 76.708 122.756 75.936 122.941L68.6101 124.692C68.2658 124.775 67.9083 124.621 67.7312 124.314L65.6797 120.761C65.504 120.456 65.5474 120.073 65.7867 119.816L75.585 109.28C75.9514 108.886 76.5946 108.959 76.8636 109.425L78.5934 112.421C78.7772 112.739 78.7203 113.142 78.4556 113.397L73.1208 118.536C72.5375 119.098 73.0628 120.072 73.8527 119.893L81.2844 118.208C81.6263 118.131 81.9789 118.285 82.1541 118.588L83.7409 121.337C83.9183 121.644 83.8721 122.031 83.6275 122.288L78.483 127.693C77.9194 128.285 78.502 129.242 79.2868 129.012L86.2876 126.968C86.6416 126.865 87.0203 127.017 87.2047 127.336L88.8772 130.233Z"/>
</mask>
<path d="M88.8772 130.233C89.1467 130.7 88.8869 131.294 88.3614 131.413L74.3195 134.599C73.9776 134.676 73.625 134.522 73.4497 134.219L71.4301 130.721C71.2537 130.415 71.2982 130.03 71.5394 129.773L76.7055 124.266C77.2486 123.687 76.708 122.756 75.936 122.941L68.6101 124.692C68.2658 124.775 67.9083 124.621 67.7312 124.314L65.6797 120.761C65.504 120.456 65.5474 120.073 65.7867 119.816L75.585 109.28C75.9514 108.886 76.5946 108.959 76.8636 109.425L78.5934 112.421C78.7772 112.739 78.7203 113.142 78.4556 113.397L73.1208 118.536C72.5375 119.098 73.0628 120.072 73.8527 119.893L81.2844 118.208C81.6263 118.131 81.9789 118.285 82.1541 118.588L83.7409 121.337C83.9183 121.644 83.8721 122.031 83.6275 122.288L78.483 127.693C77.9194 128.285 78.502 129.242 79.2868 129.012L86.2876 126.968C86.6416 126.865 87.0203 127.017 87.2047 127.336L88.8772 130.233Z" fill="url(#paint4_linear_0_184)" fill-opacity="0.7"/>
<path d="M88.8772 130.233C89.1467 130.7 88.8869 131.294 88.3614 131.413L74.3195 134.599C73.9776 134.676 73.625 134.522 73.4497 134.219L71.4301 130.721C71.2537 130.415 71.2982 130.03 71.5394 129.773L76.7055 124.266C77.2486 123.687 76.708 122.756 75.936 122.941L68.6101 124.692C68.2658 124.775 67.9083 124.621 67.7312 124.314L65.6797 120.761C65.504 120.456 65.5474 120.073 65.7867 119.816L75.585 109.28C75.9514 108.886 76.5946 108.959 76.8636 109.425L78.5934 112.421C78.7772 112.739 78.7203 113.142 78.4556 113.397L73.1208 118.536C72.5375 119.098 73.0628 120.072 73.8527 119.893L81.2844 118.208C81.6263 118.131 81.9789 118.285 82.1541 118.588L83.7409 121.337C83.9183 121.644 83.8721 122.031 83.6275 122.288L78.483 127.693C77.9194 128.285 78.502 129.242 79.2868 129.012L86.2876 126.968C86.6416 126.865 87.0203 127.017 87.2047 127.336L88.8772 130.233Z" stroke="#414141" stroke-width="0.4" mask="url(#path-6-outside-5_0_184)"/>
<mask id="path-7-outside-6_0_184" maskUnits="userSpaceOnUse" x="15.7648" y="26.2589" width="28.9186" height="27.0885" fill="black">
<rect fill="white" x="15.7648" y="26.2589" width="28.9186" height="27.0885"/>
<path d="M32.7023 34.818C32.1223 35.1528 32.1807 36.0261 32.7667 36.3503C33.0902 36.5292 33.3986 36.72 33.6918 36.9226C34.4096 37.4185 35.0261 38.1125 35.541 39.0044C36.5117 40.6857 36.6533 42.33 35.9657 43.9373C35.2782 45.5446 33.8688 46.9635 31.7376 48.194C29.6458 49.4016 27.607 49.8078 25.6211 49.4125C23.6353 49.0172 22.1433 47.9552 21.1453 46.2265C20.7169 45.4845 20.4199 44.7877 20.2542 44.1362C20.1295 43.6458 20.054 43.1478 20.0279 42.6423C20.0149 42.391 19.7769 42.2059 19.5339 42.271V42.271C19.3679 42.3155 19.1927 42.243 19.1067 42.0941L17.294 38.9544C17.0731 38.5718 17.2042 38.0825 17.5869 37.8616L34.6246 28.0249C35.0072 27.804 35.4965 27.9351 35.7174 28.3177L37.3783 31.1945C37.5992 31.5772 37.4681 32.0664 37.0855 32.2873L32.7023 34.818ZM31.2199 38.9575C30.9875 38.555 30.6871 38.1759 30.3186 37.8203C30.0587 37.5694 29.778 37.3437 29.4765 37.1432C29.2411 36.9866 28.9374 36.9916 28.6926 37.133L22.8972 40.479C22.6048 40.6478 22.4435 40.9839 22.5355 41.3088C22.5811 41.4698 22.6328 41.6223 22.6906 41.7665C22.8107 42.0655 22.9824 42.4084 23.2057 42.7952C23.8574 43.924 24.6742 44.5732 25.6563 44.7429C26.6384 44.9127 27.7924 44.6147 29.1185 43.8491C30.3026 43.1655 31.098 42.4379 31.505 41.6662C31.9119 40.8944 31.8169 39.9916 31.2199 38.9575Z"/>
</mask>
<path d="M32.7023 34.818C32.1223 35.1528 32.1807 36.0261 32.7667 36.3503C33.0902 36.5292 33.3986 36.72 33.6918 36.9226C34.4096 37.4185 35.0261 38.1125 35.541 39.0044C36.5117 40.6857 36.6533 42.33 35.9657 43.9373C35.2782 45.5446 33.8688 46.9635 31.7376 48.194C29.6458 49.4016 27.607 49.8078 25.6211 49.4125C23.6353 49.0172 22.1433 47.9552 21.1453 46.2265C20.7169 45.4845 20.4199 44.7877 20.2542 44.1362C20.1295 43.6458 20.054 43.1478 20.0279 42.6423C20.0149 42.391 19.7769 42.2059 19.5339 42.271V42.271C19.3679 42.3155 19.1927 42.243 19.1067 42.0941L17.294 38.9544C17.0731 38.5718 17.2042 38.0825 17.5869 37.8616L34.6246 28.0249C35.0072 27.804 35.4965 27.9351 35.7174 28.3177L37.3783 31.1945C37.5992 31.5772 37.4681 32.0664 37.0855 32.2873L32.7023 34.818ZM31.2199 38.9575C30.9875 38.555 30.6871 38.1759 30.3186 37.8203C30.0587 37.5694 29.778 37.3437 29.4765 37.1432C29.2411 36.9866 28.9374 36.9916 28.6926 37.133L22.8972 40.479C22.6048 40.6478 22.4435 40.9839 22.5355 41.3088C22.5811 41.4698 22.6328 41.6223 22.6906 41.7665C22.8107 42.0655 22.9824 42.4084 23.2057 42.7952C23.8574 43.924 24.6742 44.5732 25.6563 44.7429C26.6384 44.9127 27.7924 44.6147 29.1185 43.8491C30.3026 43.1655 31.098 42.4379 31.505 41.6662C31.9119 40.8944 31.8169 39.9916 31.2199 38.9575Z" fill="url(#paint5_linear_0_184)" fill-opacity="0.7"/>
<path d="M20.2542 44.1362L20.448 44.0869L20.2542 44.1362ZM22.6906 41.7665L22.8763 41.692L22.6906 41.7665ZM22.5355 41.3088L22.7279 41.2543L22.5355 41.3088ZM29.4765 37.1432L29.5872 36.9766L29.4765 37.1432ZM32.7667 36.3503L32.8635 36.1753L32.7667 36.3503ZM20.0279 42.6423L19.8281 42.6526L20.0279 42.6423ZM32.7667 36.3503L32.6699 36.5253C32.9878 36.7011 33.2905 36.8884 33.5781 37.0871L33.6918 36.9226L33.8055 36.758C33.5066 36.5515 33.1926 36.3573 32.8635 36.1753L32.7667 36.3503ZM33.6918 36.9226L33.5781 37.0871C34.2676 37.5634 34.865 38.2335 35.3678 39.1044L35.541 39.0044L35.7142 38.9044C35.1871 37.9914 34.5517 37.2736 33.8055 36.758L33.6918 36.9226ZM35.541 39.0044L35.3678 39.1044C36.311 40.7381 36.4417 42.3163 35.7819 43.8587L35.9657 43.9373L36.1496 44.016C36.8649 42.3438 36.7124 40.6333 35.7142 38.9044L35.541 39.0044ZM35.9657 43.9373L35.7819 43.8587C35.117 45.4129 33.7462 46.8033 31.6376 48.0208L31.7376 48.194L31.8376 48.3672C33.9914 47.1237 35.4394 45.6763 36.1496 44.016L35.9657 43.9373ZM31.7376 48.194L31.6376 48.0208C29.5793 49.2091 27.5896 49.6004 25.6602 49.2164L25.6211 49.4125L25.5821 49.6087C27.6244 50.0152 29.7123 49.5942 31.8376 48.3672L31.7376 48.194ZM25.6211 49.4125L25.6602 49.2164C23.7299 48.8321 22.2873 47.8045 21.3185 46.1265L21.1453 46.2265L20.9721 46.3265C21.9994 48.1059 23.5407 49.2023 25.5821 49.6087L25.6211 49.4125ZM21.1453 46.2265L21.3185 46.1265C20.8969 45.3963 20.6081 44.7166 20.448 44.0869L20.2542 44.1362L20.0603 44.1855C20.2316 44.8589 20.5369 45.5728 20.9721 46.3265L21.1453 46.2265ZM20.2542 44.1362L20.448 44.0869C20.3265 43.6093 20.2531 43.1244 20.2276 42.632L20.0279 42.6423L19.8281 42.6526C19.855 43.1713 19.9324 43.6823 20.0603 44.1855L20.2542 44.1362ZM19.1067 42.0941L19.2799 41.9941L17.4672 38.8544L17.294 38.9544L17.1208 39.0544L18.9335 42.1941L19.1067 42.0941ZM17.5869 37.8616L17.6869 38.0348L34.7246 28.1981L34.6246 28.0249L34.5246 27.8517L17.4869 37.6884L17.5869 37.8616ZM35.7174 28.3177L35.5442 28.4177L37.2051 31.2945L37.3783 31.1945L37.5515 31.0945L35.8906 28.2177L35.7174 28.3177ZM37.0855 32.2873L36.9855 32.1141L32.6023 34.6448L32.7023 34.818L32.8023 34.9912L37.1855 32.4606L37.0855 32.2873ZM31.2199 38.9575L31.3931 38.8575C31.1505 38.4373 30.838 38.0436 30.4575 37.6764L30.3186 37.8203L30.1797 37.9642C30.5361 38.3081 30.8245 38.6727 31.0467 39.0575L31.2199 38.9575ZM30.3186 37.8203L30.4575 37.6764C30.1889 37.4171 29.8988 37.1839 29.5872 36.9766L29.4765 37.1432L29.3657 37.3097C29.6573 37.5036 29.9285 37.7217 30.1797 37.9642L30.3186 37.8203ZM28.6926 37.133L28.5926 36.9598L22.7972 40.3058L22.8972 40.479L22.9972 40.6522L28.7926 37.3062L28.6926 37.133ZM22.5355 41.3088L22.3431 41.3633C22.3904 41.5305 22.4444 41.6898 22.505 41.841L22.6906 41.7665L22.8763 41.692C22.8212 41.5548 22.7717 41.409 22.7279 41.2543L22.5355 41.3088ZM22.6906 41.7665L22.505 41.841C22.6297 42.1514 22.8061 42.5031 23.0325 42.8952L23.2057 42.7952L23.3789 42.6952C23.1586 42.3137 22.9917 41.9796 22.8763 41.692L22.6906 41.7665ZM23.2057 42.7952L23.0325 42.8952C23.704 44.0584 24.5648 44.7573 25.6222 44.94L25.6563 44.7429L25.6904 44.5459C24.7837 44.3892 24.0107 43.7895 23.3789 42.6952L23.2057 42.7952ZM25.6563 44.7429L25.6222 44.94C26.6695 45.121 27.8727 44.7994 29.2185 44.0223L29.1185 43.8491L29.0185 43.6759C27.7122 44.4301 26.6072 44.7043 25.6904 44.5459L25.6563 44.7429ZM29.1185 43.8491L29.2185 44.0223C30.4182 43.3297 31.25 42.5784 31.6819 41.7594L31.505 41.6662L31.3281 41.5729C30.9461 42.2973 30.1869 43.0014 29.0185 43.6759L29.1185 43.8491ZM31.505 41.6662L31.6819 41.7594C32.1321 40.9057 32.0104 39.9268 31.3931 38.8575L31.2199 38.9575L31.0467 39.0575C31.6234 40.0564 31.6918 40.8832 31.3281 41.5729L31.505 41.6662ZM22.8972 40.479L22.7972 40.3058C22.4362 40.5142 22.2229 40.9389 22.3431 41.3633L22.5355 41.3088L22.7279 41.2543C22.6641 41.029 22.7733 40.7814 22.9972 40.6522L22.8972 40.479ZM29.4765 37.1432L29.5872 36.9766C29.2817 36.7734 28.8958 36.7847 28.5926 36.9598L28.6926 37.133L28.7926 37.3062C28.9791 37.1985 29.2005 37.1998 29.3657 37.3097L29.4765 37.1432ZM37.3783 31.1945L37.2051 31.2945C37.3708 31.5815 37.2725 31.9485 36.9855 32.1141L37.0855 32.2873L37.1855 32.4606C37.6638 32.1844 37.8277 31.5728 37.5515 31.0945L37.3783 31.1945ZM32.7667 36.3503L32.8635 36.1753C32.3936 35.9153 32.3765 35.237 32.8023 34.9912L32.7023 34.818L32.6023 34.6448C31.8681 35.0686 31.9678 36.1369 32.6699 36.5253L32.7667 36.3503ZM34.6246 28.0249L34.7246 28.1981C35.0115 28.0324 35.3785 28.1307 35.5442 28.4177L35.7174 28.3177L35.8906 28.2177C35.6144 27.7394 35.0029 27.5755 34.5246 27.8517L34.6246 28.0249ZM19.5339 42.271L19.4821 42.0778C19.4035 42.0989 19.3206 42.0646 19.2799 41.9941L19.1067 42.0941L18.9335 42.1941C19.0647 42.4214 19.3322 42.5321 19.5857 42.4642L19.5339 42.271ZM20.0279 42.6423L20.2276 42.632C20.2085 42.2627 19.8568 41.9774 19.4821 42.0778L19.5339 42.271L19.5857 42.4642C19.6971 42.4343 19.8212 42.5193 19.8281 42.6526L20.0279 42.6423ZM17.294 38.9544L17.4672 38.8544C17.3016 38.5674 17.3999 38.2005 17.6869 38.0348L17.5869 37.8616L17.4869 37.6884C17.0086 37.9645 16.8447 38.5761 17.1208 39.0544L17.294 38.9544Z" fill="#414141" mask="url(#path-7-outside-6_0_184)"/>
<g filter="url(#filter0_i_0_184)">
<path fill-rule="evenodd" clip-rule="evenodd" d="M18.2712 10.5339C18.7639 10.2495 19.35 10.5154 19.6093 10.9644C19.8686 11.4135 19.7166 11.8998 19.224 12.1842C18.7325 12.468 18.2314 12.3587 17.9721 11.9097C17.7129 11.4606 17.7797 10.8177 18.2712 10.5339ZM17.4024 19.6288C17.7291 19.4402 18.2314 19.5515 18.4036 19.8498C18.6653 20.303 18.5081 20.7895 18.1814 20.9781C17.8501 21.1693 17.3549 21.0596 17.0932 20.6064C16.921 20.3081 17.0711 19.8201 17.4024 19.6288Z" fill="url(#paint6_linear_0_184)" fill-opacity="0.7"/>
</g>
<path d="M17.0932 20.6064L17.1582 20.5689L17.1582 20.5689L17.0932 20.6064ZM19.6093 10.9644L19.6743 10.9269C19.4006 10.4529 18.7723 10.158 18.2337 10.469L18.2712 10.5339L18.3087 10.5989C18.7555 10.3409 19.2995 10.5778 19.5444 11.0019L19.6093 10.9644ZM19.224 12.1842L19.2615 12.2491C19.5208 12.0994 19.6963 11.893 19.7702 11.6586C19.8442 11.4234 19.8134 11.1679 19.6743 10.9269L19.6093 10.9644L19.5444 11.0019C19.6645 11.21 19.6873 11.4222 19.6271 11.6135C19.5666 11.8056 19.4198 11.9846 19.1865 12.1192L19.224 12.1842ZM17.9721 11.9097L17.9072 11.9472C18.0464 12.1884 18.2535 12.3421 18.4949 12.395C18.7355 12.4477 19.0027 12.3986 19.2615 12.2491L19.224 12.1842L19.1865 12.1192C18.9538 12.2536 18.7246 12.2917 18.527 12.2485C18.3302 12.2054 18.1571 12.08 18.0371 11.8722L17.9721 11.9097ZM18.2712 10.5339L18.2337 10.469C17.6966 10.7791 17.6333 11.4727 17.9072 11.9472L17.9721 11.9097L18.0371 11.8722C17.7924 11.4485 17.8627 10.8564 18.3087 10.5989L18.2712 10.5339ZM18.4036 19.8498L18.4686 19.8123C18.369 19.6398 18.179 19.5281 17.9771 19.4835C17.7746 19.4387 17.5475 19.4584 17.3649 19.5639L17.4024 19.6288L17.4399 19.6938C17.584 19.6106 17.7714 19.5916 17.9448 19.6299C18.1187 19.6684 18.266 19.7615 18.3387 19.8873L18.4036 19.8498ZM18.1814 20.9781L18.2189 21.043C18.5852 20.8315 18.7487 20.2976 18.4686 19.8123L18.4036 19.8498L18.3387 19.8873C18.5818 20.3085 18.431 20.7474 18.1439 20.9131L18.1814 20.9781ZM17.0932 20.6064L17.0282 20.6439C17.3082 21.1288 17.8477 21.2573 18.2189 21.043L18.1814 20.9781L18.1439 20.9131C17.8525 21.0814 17.4015 20.9904 17.1582 20.5689L17.0932 20.6064ZM17.4024 19.6288L17.3649 19.5639C17.1801 19.6706 17.0494 19.8573 16.9874 20.055C16.9256 20.2521 16.9288 20.4717 17.0282 20.6439L17.0932 20.6064L17.1582 20.5689C17.0853 20.4428 17.0775 20.2692 17.1305 20.0999C17.1834 19.9312 17.2934 19.7784 17.4399 19.6938L17.4024 19.6288Z" fill="black"/>
<g filter="url(#filter1_i_0_184)">
<path fill-rule="evenodd" clip-rule="evenodd" d="M30.9863 23.9775C32.7341 22.9684 33.3328 20.734 32.3237 18.9863L23.9775 4.53025C22.9685 2.78248 20.7341 2.1838 18.9863 3.19288L4.53033 11.5391C2.78256 12.5481 2.18385 14.7825 3.19292 16.5302L11.5391 30.9863C12.5482 32.734 14.7826 33.3327 16.5303 32.3237L30.9863 23.9775ZM12.914 17.2242C12.5404 16.577 12.3391 15.9721 12.1106 15.2854L12.1106 15.2852C12.0946 15.2374 12.0786 15.1891 12.0623 15.1403C12.006 14.9719 11.8943 14.8276 11.746 14.73L11.0878 14.2965C10.5553 13.9459 10.7128 13.1265 11.3373 12.9982V12.9982C11.6474 12.9345 11.8758 12.6738 11.9207 12.3604C12.1961 10.4382 13.0473 8.90856 14.6042 8.00971C17.5441 6.31234 21.4655 7.7582 23.4265 11.1548C25.0431 13.9548 24.904 17.3421 23.165 19.3997C22.9463 19.6584 22.5488 19.572 22.3794 19.2787V19.2787C20.6848 16.3436 17.1559 15.2901 14.4563 16.8486C14.2069 16.9926 13.9751 17.1552 13.7595 17.3328C13.4941 17.5514 13.086 17.522 12.914 17.2242V17.2242ZM14.7036 27.4972C14.7155 28.0276 15.3647 28.2765 15.7282 27.8901V27.8901C15.8987 27.7089 16.1635 27.6553 16.3965 27.7427C17.93 28.3182 19.5339 28.4409 20.8195 27.6986C23.2899 26.2723 23.8765 22.6377 22.2735 19.8612C20.5761 16.9213 17.2255 15.7684 14.7551 17.1947C12.2804 18.6234 11.6078 22.0991 13.3052 25.039C13.6108 25.5684 14.0338 26.0353 14.4718 26.4919C14.609 26.635 14.6884 26.824 14.6929 27.0223L14.7036 27.4972Z" fill="url(#paint7_linear_0_184)" fill-opacity="0.7"/>
</g>
<path d="M30.9863 23.9775L30.9488 23.9125L30.9863 23.9775ZM18.9863 3.19288L18.9488 3.12792L18.9863 3.19288ZM4.53033 11.5391L4.56783 11.604L4.53033 11.5391ZM16.5303 32.3237L16.5678 32.3886L16.5303 32.3237ZM12.1106 15.2854L12.1818 15.2617L12.1816 15.2612L12.1106 15.2854ZM12.1106 15.2852L12.0394 15.3089L12.0395 15.3094L12.1106 15.2852ZM20.8195 27.6986L20.857 27.7636L20.857 27.7636L20.8195 27.6986ZM14.4718 26.4919L14.4176 26.5438L14.4718 26.4919ZM14.6929 27.0223L14.7679 27.0206L14.6929 27.0223ZM14.7036 27.4972L14.7786 27.4955L14.7036 27.4972ZM16.3965 27.7427L16.4228 27.6725L16.3965 27.7427ZM11.9207 12.3604L11.8464 12.3498L11.9207 12.3604ZM11.0878 14.2965L11.0465 14.3592L11.0878 14.2965ZM23.165 19.3997L23.1077 19.3513L23.165 19.3997ZM12.0623 15.1403L12.1334 15.1166L12.0623 15.1403ZM11.746 14.73L11.7047 14.7926L11.746 14.73ZM32.3237 18.9863L32.2588 19.0238C33.2471 20.7357 32.6607 22.9242 30.9488 23.9125L30.9863 23.9775L31.0238 24.0424C32.8075 23.0127 33.4185 20.7324 32.3887 18.9488L32.3237 18.9863ZM23.9775 4.53025L23.9126 4.56775L32.2588 19.0238L32.3237 18.9863L32.3887 18.9488L24.0425 4.49275L23.9775 4.53025ZM18.9863 3.19288L19.0238 3.25783C20.7357 2.26946 22.9242 2.85585 23.9126 4.56775L23.9775 4.53025L24.0425 4.49275C23.0127 2.7091 20.7325 2.09814 18.9488 3.12792L18.9863 3.19288ZM4.53033 11.5391L4.56783 11.604L19.0238 3.25783L18.9863 3.19288L18.9488 3.12792L4.49283 11.4741L4.53033 11.5391ZM3.19292 16.5302L3.25787 16.4927C2.26951 14.7808 2.85593 12.5924 4.56783 11.604L4.53033 11.5391L4.49283 11.4741C2.70918 12.5039 2.09818 14.7841 3.12797 16.5677L3.19292 16.5302ZM11.5391 30.9863L11.6041 30.9488L3.25787 16.4927L3.19292 16.5302L3.12797 16.5677L11.4742 31.0238L11.5391 30.9863ZM16.5303 32.3237L16.4928 32.2587C14.7809 33.2471 12.5924 32.6607 11.6041 30.9488L11.5391 30.9863L11.4742 31.0238C12.5039 32.8074 14.7842 33.4184 16.5678 32.3886L16.5303 32.3237ZM30.9863 23.9775L30.9488 23.9125L16.4928 32.2587L16.5303 32.3237L16.5678 32.3886L31.0238 24.0424L30.9863 23.9775ZM12.1106 15.2854L12.0394 15.3091C12.2677 15.9952 12.4711 16.607 12.8491 17.2617L12.914 17.2242L12.979 17.1867C12.6096 16.547 12.4105 15.949 12.1818 15.2617L12.1106 15.2854ZM12.1106 15.2852L12.0395 15.3094L12.0396 15.3096L12.1106 15.2854L12.1816 15.2612L12.1816 15.2611L12.1106 15.2852ZM12.0623 15.1403L11.9911 15.1641C12.0074 15.2128 12.0235 15.261 12.0394 15.3089L12.1106 15.2852L12.1817 15.2616C12.1658 15.2137 12.1497 15.1654 12.1334 15.1166L12.0623 15.1403ZM11.0878 14.2965L11.0465 14.3592L11.7047 14.7926L11.746 14.73L11.7872 14.6673L11.129 14.2339L11.0878 14.2965ZM14.6042 8.00971L14.5667 7.94475C12.985 8.85792 12.1242 10.411 11.8464 12.3498L11.9207 12.3604L11.9949 12.3711C12.268 10.4654 13.1096 8.95919 14.6417 8.07466L14.6042 8.00971ZM23.4265 11.1548L23.4914 11.1173C21.5159 7.69554 17.5523 6.221 14.5667 7.94475L14.6042 8.00971L14.6417 8.07466C17.5359 6.40369 21.4151 7.82087 23.3615 11.1923L23.4265 11.1548ZM23.165 19.3997L23.2222 19.4481C24.9858 17.3615 25.1204 13.9387 23.4914 11.1173L23.4265 11.1548L23.3615 11.1923C24.9658 13.971 24.8221 17.3228 23.1077 19.3513L23.165 19.3997ZM14.4563 16.8486L14.4938 16.9136C17.1534 15.378 20.6382 16.4128 22.3144 19.3162L22.3794 19.2787L22.4444 19.2412C20.7315 16.2744 17.1583 15.2021 14.4188 16.7837L14.4563 16.8486ZM13.7595 17.3328L13.8072 17.3907C14.0198 17.2156 14.2482 17.0554 14.4938 16.9136L14.4563 16.8486L14.4188 16.7837C14.1657 16.9298 13.9305 17.0948 13.7118 17.2749L13.7595 17.3328ZM20.8195 27.6986L20.782 27.6337C19.524 28.36 17.9463 28.2442 16.4228 27.6725L16.3965 27.7427L16.3701 27.8129C17.9138 28.3922 19.5438 28.5218 20.857 27.7636L20.8195 27.6986ZM22.2735 19.8612L22.2085 19.8987C23.7971 22.6503 23.2065 26.2339 20.782 27.6337L20.8195 27.6986L20.857 27.7636C23.3733 26.3108 23.9558 22.6251 22.3384 19.8237L22.2735 19.8612ZM14.7551 17.1947L14.7926 17.2596C17.2181 15.8592 20.5263 16.985 22.2085 19.8987L22.2735 19.8612L22.3384 19.8237C20.6259 16.8576 17.2328 15.6775 14.7176 17.1297L14.7551 17.1947ZM13.3052 25.039L13.3701 25.0015C11.6879 22.0878 12.3628 18.6625 14.7926 17.2596L14.7551 17.1947L14.7176 17.1297C12.198 18.5844 11.5278 22.1104 13.2402 25.0765L13.3052 25.039ZM14.4718 26.4919L14.5259 26.44C14.0881 25.9836 13.6708 25.5223 13.3701 25.0015L13.3052 25.039L13.2402 25.0765C13.5508 25.6144 13.9794 26.0869 14.4176 26.5438L14.4718 26.4919ZM14.7036 27.4972L14.7786 27.4955L14.7679 27.0206L14.6929 27.0223L14.6179 27.0239L14.6286 27.4988L14.7036 27.4972ZM14.4718 26.4919L14.4176 26.5438C14.5421 26.6736 14.6139 26.8447 14.6179 27.0239L14.6929 27.0223L14.7679 27.0206C14.763 26.8033 14.676 26.5965 14.5259 26.44L14.4718 26.4919ZM15.7282 27.8901L15.6736 27.8387C15.356 28.1763 14.789 27.9588 14.7786 27.4955L14.7036 27.4972L14.6286 27.4988C14.642 28.0963 15.3733 28.3768 15.7828 27.9415L15.7282 27.8901ZM15.7282 27.8901L15.7828 27.9415C15.9313 27.7837 16.1637 27.7354 16.3701 27.8129L16.3965 27.7427L16.4228 27.6725C16.1634 27.5751 15.8661 27.6341 15.6736 27.8387L15.7282 27.8901ZM13.7595 17.3328L13.7118 17.2749C13.4737 17.4711 13.1225 17.4353 12.979 17.1867L12.914 17.2242L12.8491 17.2617C13.0494 17.6086 13.5145 17.6317 13.8072 17.3907L13.7595 17.3328ZM11.3373 12.9982L11.3524 13.0717C11.6959 13.0011 11.9459 12.7133 11.9949 12.3711L11.9207 12.3604L11.8464 12.3498C11.8057 12.6344 11.5989 12.8679 11.3222 12.9248L11.3373 12.9982ZM11.0878 14.2965L11.129 14.2339C10.6524 13.92 10.7934 13.1865 11.3524 13.0717L11.3373 12.9982L11.3222 12.9248C10.6323 13.0665 10.4583 13.9718 11.0465 14.3592L11.0878 14.2965ZM23.165 19.3997L23.1077 19.3513C23.0173 19.4582 22.8911 19.4942 22.7667 19.4723C22.6408 19.4503 22.518 19.3688 22.4444 19.2412L22.3794 19.2787L22.3144 19.3162C22.4101 19.4819 22.5708 19.5903 22.7407 19.6201C22.9121 19.6501 23.0939 19.6 23.2222 19.4481L23.165 19.3997ZM12.0623 15.1403L12.1334 15.1166C12.0718 14.932 11.9494 14.7741 11.7872 14.6673L11.746 14.73L11.7047 14.7926C11.8392 14.8811 11.9403 15.0118 11.9911 15.1641L12.0623 15.1403Z" fill="black"/>
<g filter="url(#filter2_i_0_184)">
<path fill-rule="evenodd" clip-rule="evenodd" d="M21.7284 16.522C21.2369 16.8058 20.7349 16.6951 20.4732 16.2417C20.2126 15.7904 20.2797 15.1479 20.7712 14.8641C21.2639 14.5797 21.8498 14.8452 22.1104 15.2965C22.3721 15.7498 22.221 16.2375 21.7284 16.522ZM19.401 23.0905C19.7277 22.9018 20.2295 23.0125 20.4014 23.3102C20.662 23.7615 20.5081 24.2536 20.1814 24.4423C19.8501 24.6335 19.3516 24.5181 19.091 24.0668C18.9191 23.7691 19.0697 23.2817 19.401 23.0905Z" fill="url(#paint8_linear_0_184)" fill-opacity="0.7"/>
</g>
<path d="M19.091 24.0668L19.156 24.0293L19.156 24.0293L19.091 24.0668ZM20.4732 16.2417L20.4082 16.2792C20.5486 16.5224 20.7563 16.6776 20.9983 16.7315C21.2395 16.7852 21.507 16.7364 21.7659 16.5869L21.7284 16.522L21.6909 16.457C21.4583 16.5913 21.229 16.6291 21.0309 16.5851C20.8336 16.5412 20.6595 16.4144 20.5381 16.2042L20.4732 16.2417ZM20.7712 14.8641L20.7337 14.7992C20.1966 15.1093 20.1331 15.8026 20.4082 16.2792L20.4732 16.2417L20.5381 16.2042C20.2922 15.7782 20.3628 15.1865 20.8087 14.9291L20.7712 14.8641ZM22.1104 15.2965L22.1753 15.259C21.9004 14.7828 21.2723 14.4882 20.7337 14.7992L20.7712 14.8641L20.8087 14.9291C21.2554 14.6712 21.7993 14.9076 22.0454 15.334L22.1104 15.2965ZM21.7284 16.522L21.7659 16.5869C22.0253 16.4371 22.2006 16.2303 22.2739 15.9949C22.3474 15.7587 22.3156 15.5019 22.1753 15.259L22.1104 15.2965L22.0454 15.334C22.1669 15.5444 22.1905 15.7581 22.1307 15.9503C22.0706 16.1432 21.9241 16.3224 21.6909 16.457L21.7284 16.522ZM20.4014 23.3102L20.4664 23.2727C20.3669 23.1004 20.1771 22.9891 19.9754 22.9447C19.773 22.9002 19.546 22.9201 19.3635 23.0255L19.401 23.0905L19.4385 23.1554C19.5826 23.0722 19.7699 23.0531 19.9431 23.0912C20.117 23.1294 20.2641 23.2223 20.3365 23.3477L20.4014 23.3102ZM20.1814 24.4423L20.2189 24.5072C20.5858 24.2954 20.7451 23.7555 20.4664 23.2727L20.4014 23.3102L20.3365 23.3477C20.5789 23.7676 20.4305 24.2119 20.1439 24.3773L20.1814 24.4423ZM19.091 24.0668L19.0261 24.1043C19.3046 24.5867 19.8472 24.7218 20.2189 24.5072L20.1814 24.4423L20.1439 24.3773C19.853 24.5452 19.3986 24.4494 19.156 24.0293L19.091 24.0668ZM19.401 23.0905L19.3635 23.0255C19.1787 23.1322 19.0479 23.3187 18.9858 23.5162C18.9238 23.713 18.9268 23.9323 19.0261 24.1043L19.091 24.0668L19.156 24.0293C19.0834 23.9035 19.0757 23.7303 19.1288 23.5612C19.1818 23.3928 19.2919 23.24 19.4385 23.1554L19.401 23.0905Z" fill="black"/>
<defs>
<filter id="filter0_i_0_184" x="16.9463" y="10.3408" width="3.86292" height="11.8022" filterUnits="userSpaceOnUse" color-interpolation-filters="sRGB">
<feFlood flood-opacity="0" result="BackgroundImageFix"/>
<feBlend mode="normal" in="SourceGraphic" in2="BackgroundImageFix" result="shape"/>
<feColorMatrix in="SourceAlpha" type="matrix" values="0 0 0 0 0 0 0 0 0 0 0 0 0 0 0 0 0 0 127 0" result="hardAlpha"/>
<feOffset dx="1" dy="1"/>
<feGaussianBlur stdDeviation="0.5"/>
<feComposite in2="hardAlpha" operator="arithmetic" k2="-1" k3="1"/>
<feColorMatrix type="matrix" values="0 0 0 0 0.0987602 0 0 0 0 0.0987602 0 0 0 0 0.0987602 0 0 0 0.5 0"/>
<feBlend mode="normal" in2="shape" result="effect1_innerShadow_0_184"/>
</filter>
<filter id="filter1_i_0_184" x="2.62769" y="2.62769" width="31.2612" height="31.2612" filterUnits="userSpaceOnUse" color-interpolation-filters="sRGB">
<feFlood flood-opacity="0" result="BackgroundImageFix"/>
<feBlend mode="normal" in="SourceGraphic" in2="BackgroundImageFix" result="shape"/>
<feColorMatrix in="SourceAlpha" type="matrix" values="0 0 0 0 0 0 0 0 0 0 0 0 0 0 0 0 0 0 127 0" result="hardAlpha"/>
<feOffset dx="1" dy="1"/>
<feGaussianBlur stdDeviation="0.5"/>
<feComposite in2="hardAlpha" operator="arithmetic" k2="-1" k3="1"/>
<feColorMatrix type="matrix" values="0 0 0 0 0.0987602 0 0 0 0 0.0987602 0 0 0 0 0.0987602 0 0 0 0.5 0"/>
<feBlend mode="normal" in2="shape" result="effect1_innerShadow_0_184"/>
</filter>
<filter id="filter2_i_0_184" x="18.9443" y="14.671" width="4.36792" height="10.9351" filterUnits="userSpaceOnUse" color-interpolation-filters="sRGB">
<feFlood flood-opacity="0" result="BackgroundImageFix"/>
<feBlend mode="normal" in="SourceGraphic" in2="BackgroundImageFix" result="shape"/>
<feColorMatrix in="SourceAlpha" type="matrix" values="0 0 0 0 0 0 0 0 0 0 0 0 0 0 0 0 0 0 127 0" result="hardAlpha"/>
<feOffset dx="1" dy="1"/>
<feGaussianBlur stdDeviation="0.5"/>
<feComposite in2="hardAlpha" operator="arithmetic" k2="-1" k3="1"/>
<feColorMatrix type="matrix" values="0 0 0 0 0.0987602 0 0 0 0 0.0987602 0 0 0 0 0.0987602 0 0 0 0.5 0"/>
<feBlend mode="normal" in2="shape" result="effect1_innerShadow_0_184"/>
</filter>
<linearGradient id="paint0_linear_0_184" x1="33.3623" y1="62.8009" x2="39.4653" y2="51.5803" gradientUnits="userSpaceOnUse">
<stop/>
<stop offset="1" stop-color="#787878"/>
</linearGradient>
<linearGradient id="paint1_linear_0_184" x1="43.7643" y1="82.0349" x2="43.3611" y2="72.3653" gradientUnits="userSpaceOnUse">
<stop/>
<stop offset="1" stop-color="#787878"/>
</linearGradient>
<linearGradient id="paint2_linear_0_184" x1="51.6954" y1="94.5547" x2="53.776" y2="84.7561" gradientUnits="userSpaceOnUse">
<stop/>
<stop offset="1" stop-color="#787878"/>
</linearGradient>
<linearGradient id="paint3_linear_0_184" x1="58.6234" y1="109.265" x2="60.8631" y2="98.8935" gradientUnits="userSpaceOnUse">
<stop/>
<stop offset="1" stop-color="#787878"/>
</linearGradient>
<linearGradient id="paint4_linear_0_184" x1="70.6933" y1="127.46" x2="76.7963" y2="116.24" gradientUnits="userSpaceOnUse">
<stop/>
<stop offset="1" stop-color="#787878"/>
</linearGradient>
<linearGradient id="paint5_linear_0_184" x1="22.0056" y1="44.9281" x2="23.1607" y2="32.7845" gradientUnits="userSpaceOnUse">
<stop/>
<stop offset="1" stop-color="#787878"/>
</linearGradient>
<linearGradient id="paint6_linear_0_184" x1="19.2993" y1="-1.60634" x2="-0.233977" y2="9.67122" gradientUnits="userSpaceOnUse">
<stop stop-color="#696969"/>
<stop offset="1"/>
</linearGradient>
<linearGradient id="paint7_linear_0_184" x1="9.36602" y1="27.2224" x2="26.6506" y2="9.16019" gradientUnits="userSpaceOnUse">
<stop/>
<stop offset="1" stop-color="#7E7D7D"/>
</linearGradient>
<linearGradient id="paint8_linear_0_184" x1="22.3549" y1="3.68608" x2="2.82156" y2="14.9636" gradientUnits="userSpaceOnUse">
<stop stop-color="#696969"/>
<stop offset="1"/>
</linearGradient>
</defs>
</svg>
