<svg width="95" height="142" viewBox="0 0 95 142" fill="none" xmlns="http://www.w3.org/2000/svg">
<g opacity="0.6" filter="url(#filter0_i_0_186)">
<mask id="path-1-outside-1_0_186" maskUnits="userSpaceOnUse" x="14.4559" y="26.9694" width="28.8428" height="26.8938" fill="black">
<rect fill="white" x="14.4559" y="26.9694" width="28.8428" height="26.8938"/>
<path fill-rule="evenodd" clip-rule="evenodd" d="M24.1073 49.9439C26.086 50.3739 28.1316 50.0033 30.2441 48.8323C32.3965 47.6392 33.8304 46.2452 34.5459 44.6501C35.2614 43.0551 35.1486 41.4086 34.2074 39.7106C33.7081 38.8098 33.1039 38.1052 32.3948 37.5968C31.9446 37.274 31.4574 36.9792 30.9332 36.7122C30.5602 36.5222 30.5322 35.9796 30.8983 35.7767L36.1312 32.876C36.3728 32.7422 36.46 32.4378 36.3261 32.1963L34.4248 28.7662C34.2909 28.5246 33.9866 28.4374 33.7451 28.5713L16.0135 38.4C15.772 38.5339 15.6847 38.8382 15.8186 39.0797L17.7217 42.513C17.805 42.6633 17.9789 42.7389 18.1457 42.6973V42.6973C18.3898 42.6364 18.6245 42.8257 18.6331 43.0771C18.6504 43.5831 18.7172 44.0823 18.8333 44.5747C18.9876 45.2291 19.2724 45.931 19.6878 46.6803C20.6555 48.4261 22.1287 49.514 24.1073 49.9439ZM30.1255 42.3015C29.7052 43.0659 28.8971 43.7796 27.7013 44.4424C26.3621 45.1848 25.203 45.4626 24.224 45.2757C23.2451 45.0889 22.4396 44.4255 21.8077 43.2855C21.5912 42.8949 21.4256 42.549 21.3108 42.2479C21.2325 42.0427 21.1669 41.8209 21.1137 41.5825C21.0679 41.3766 21.1706 41.1689 21.3551 41.0666L27.5423 37.637C27.6968 37.5513 27.886 37.5522 28.0341 37.6485C28.3867 37.8777 28.7108 38.14 29.0064 38.4355C29.3686 38.7974 29.6624 39.1817 29.8877 39.5883C30.4666 40.6326 30.5459 41.537 30.1255 42.3015Z"/>
</mask>
<path fill-rule="evenodd" clip-rule="evenodd" d="M24.1073 49.9439C26.086 50.3739 28.1316 50.0033 30.2441 48.8323C32.3965 47.6392 33.8304 46.2452 34.5459 44.6501C35.2614 43.0551 35.1486 41.4086 34.2074 39.7106C33.7081 38.8098 33.1039 38.1052 32.3948 37.5968C31.9446 37.274 31.4574 36.9792 30.9332 36.7122C30.5602 36.5222 30.5322 35.9796 30.8983 35.7767L36.1312 32.876C36.3728 32.7422 36.46 32.4378 36.3261 32.1963L34.4248 28.7662C34.2909 28.5246 33.9866 28.4374 33.7451 28.5713L16.0135 38.4C15.772 38.5339 15.6847 38.8382 15.8186 39.0797L17.7217 42.513C17.805 42.6633 17.9789 42.7389 18.1457 42.6973V42.6973C18.3898 42.6364 18.6245 42.8257 18.6331 43.0771C18.6504 43.5831 18.7172 44.0823 18.8333 44.5747C18.9876 45.2291 19.2724 45.931 19.6878 46.6803C20.6555 48.4261 22.1287 49.514 24.1073 49.9439ZM30.1255 42.3015C29.7052 43.0659 28.8971 43.7796 27.7013 44.4424C26.3621 45.1848 25.203 45.4626 24.224 45.2757C23.2451 45.0889 22.4396 44.4255 21.8077 43.2855C21.5912 42.8949 21.4256 42.549 21.3108 42.2479C21.2325 42.0427 21.1669 41.8209 21.1137 41.5825C21.0679 41.3766 21.1706 41.1689 21.3551 41.0666L27.5423 37.637C27.6968 37.5513 27.886 37.5522 28.0341 37.6485C28.3867 37.8777 28.7108 38.14 29.0064 38.4355C29.3686 38.7974 29.6624 39.1817 29.8877 39.5883C30.4666 40.6326 30.5459 41.537 30.1255 42.3015Z" fill="white" fill-opacity="0.7"/>
<path d="M34.5459 44.6501L34.7284 44.732L34.7284 44.732L34.5459 44.6501ZM32.3948 37.5968L32.2782 37.7593L32.2782 37.7593L32.3948 37.5968ZM18.6331 43.0771L18.833 43.0703L18.6331 43.0771ZM27.5423 37.637L27.4453 37.4621L27.5423 37.637ZM28.0341 37.6485L27.9252 37.8162L28.0341 37.6485ZM21.1137 41.5825L20.9185 41.626L21.1137 41.5825ZM30.8983 35.7767L30.8013 35.6018L30.8983 35.7767ZM30.2441 48.8323L30.1471 48.6574C28.0685 49.8096 26.0722 50.1662 24.1498 49.7485L24.1073 49.9439L24.0649 50.1394C26.0998 50.5815 28.1947 50.197 30.3411 49.0073L30.2441 48.8323ZM34.5459 44.6501L34.3635 44.5683C33.6716 46.1107 32.2767 47.477 30.1471 48.6574L30.2441 48.8323L30.3411 49.0073C32.5163 47.8015 33.9893 46.3797 34.7284 44.732L34.5459 44.6501ZM34.2074 39.7106L34.0325 39.8075C34.947 41.4574 35.0501 43.0376 34.3635 44.5683L34.5459 44.6501L34.7284 44.732C35.4728 43.0725 35.3502 41.3597 34.3823 39.6136L34.2074 39.7106ZM32.3948 37.5968L32.2782 37.7593C32.9593 38.2476 33.5449 38.928 34.0325 39.8075L34.2074 39.7106L34.3823 39.6136C33.8712 38.6915 33.2484 37.9627 32.5113 37.4342L32.3948 37.5968ZM30.9332 36.7122L30.8424 36.8904C31.3582 37.1531 31.8368 37.4428 32.2782 37.7593L32.3948 37.5968L32.5113 37.4342C32.0525 37.1053 31.5566 36.8052 31.0239 36.534L30.9332 36.7122ZM36.1312 32.876L36.0343 32.7011L30.8013 35.6018L30.8983 35.7767L30.9952 35.9516L36.2282 33.051L36.1312 32.876ZM34.4248 28.7662L34.2499 28.8631L36.1512 32.2933L36.3261 32.1963L36.5011 32.0994L34.5997 28.6692L34.4248 28.7662ZM16.0135 38.4L16.1105 38.5749L33.842 28.7462L33.7451 28.5713L33.6481 28.3963L15.9166 38.2251L16.0135 38.4ZM17.7217 42.513L17.8966 42.416L15.9935 38.9828L15.8186 39.0797L15.6437 39.1767L17.5468 42.6099L17.7217 42.513ZM18.8333 44.5747L19.0279 44.5288C18.9148 44.0492 18.8499 43.5631 18.833 43.0703L18.6331 43.0771L18.4332 43.084C18.451 43.6031 18.5195 44.1153 18.6386 44.6206L18.8333 44.5747ZM19.6878 46.6803L19.8627 46.5834C19.4539 45.8459 19.1771 45.1613 19.0279 44.5288L18.8333 44.5747L18.6386 44.6206C18.7981 45.297 19.0909 46.0161 19.5129 46.7773L19.6878 46.6803ZM24.1073 49.9439L24.1498 49.7485C22.2265 49.3306 20.8021 48.278 19.8627 46.5834L19.6878 46.6803L19.5129 46.7773C20.509 48.5743 22.0309 49.6974 24.0649 50.1394L24.1073 49.9439ZM27.7013 44.4424L27.7983 44.6174C29.0099 43.9458 29.8547 43.2091 30.3008 42.3978L30.1255 42.3015L29.9503 42.2051C29.5556 42.9228 28.7843 43.6135 27.6044 44.2675L27.7013 44.4424ZM24.224 45.2757L24.1865 45.4722C25.2304 45.6714 26.439 45.3708 27.7983 44.6174L27.7013 44.4424L27.6044 44.2675C26.2851 44.9988 25.1755 45.2537 24.2615 45.0793L24.224 45.2757ZM21.8077 43.2855L21.6328 43.3825C22.284 44.5572 23.1324 45.271 24.1865 45.4722L24.224 45.2757L24.2615 45.0793C23.3577 44.9068 22.5953 44.2937 21.9827 43.1885L21.8077 43.2855ZM21.3108 42.2479L21.1239 42.3192C21.2431 42.6317 21.4133 42.9865 21.6328 43.3825L21.8077 43.2855L21.9827 43.1885C21.7691 42.8033 21.6081 42.4663 21.4976 42.1767L21.3108 42.2479ZM21.1137 41.5825L20.9185 41.626C20.9735 41.8728 21.0419 42.104 21.1239 42.3192L21.3108 42.2479L21.4976 42.1767C21.4232 41.9815 21.3602 41.7691 21.309 41.539L21.1137 41.5825ZM27.5423 37.637L27.4453 37.4621L21.2582 40.8916L21.3551 41.0666L21.4521 41.2415L27.6392 37.8119L27.5423 37.637ZM29.0064 38.4355L29.1478 38.294C28.8423 37.9886 28.5073 37.7176 28.1431 37.4809L28.0341 37.6485L27.9252 37.8162C28.2661 38.0378 28.5794 38.2914 28.865 38.5769L29.0064 38.4355ZM29.8877 39.5883L30.0627 39.4913C29.8274 39.0669 29.5219 38.6678 29.1478 38.294L29.0064 38.4355L28.865 38.5769C29.2153 38.927 29.4974 39.2966 29.7128 39.6852L29.8877 39.5883ZM30.1255 42.3015L30.3008 42.3978C30.7658 41.552 30.6612 40.5711 30.0627 39.4913L29.8877 39.5883L29.7128 39.6852C30.272 40.694 30.3259 41.5219 29.9503 42.2051L30.1255 42.3015ZM18.1457 42.6973L18.1941 42.8914C18.306 42.8634 18.4286 42.9505 18.4332 43.084L18.6331 43.0771L18.833 43.0703C18.8203 42.7008 18.4736 42.4094 18.0973 42.5033L18.1457 42.6973ZM17.7217 42.513L17.5468 42.6099C17.674 42.8394 17.9395 42.9549 18.1941 42.8914L18.1457 42.6973L18.0973 42.5033C18.0184 42.5229 17.936 42.4872 17.8966 42.416L17.7217 42.513ZM27.5423 37.637L27.6392 37.8119C27.7337 37.7595 27.8433 37.7631 27.9252 37.8162L28.0341 37.6485L28.1431 37.4809C27.9286 37.3414 27.6599 37.3431 27.4453 37.4621L27.5423 37.637ZM16.0135 38.4L15.9166 38.2251C15.5784 38.4125 15.4563 38.8386 15.6437 39.1767L15.8186 39.0797L15.9935 38.9828C15.9132 38.8379 15.9656 38.6553 16.1105 38.5749L16.0135 38.4ZM21.1137 41.5825L21.309 41.539C21.2839 41.4264 21.3388 41.3043 21.4521 41.2415L21.3551 41.0666L21.2582 40.8916C21.0023 41.0335 20.8519 41.3268 20.9185 41.626L21.1137 41.5825ZM34.4248 28.7662L34.5997 28.6692C34.4123 28.3311 33.9862 28.2089 33.6481 28.3963L33.7451 28.5713L33.842 28.7462C33.9869 28.6659 34.1695 28.7182 34.2499 28.8631L34.4248 28.7662ZM36.1312 32.876L36.2282 33.051C36.5663 32.8635 36.6885 32.4375 36.5011 32.0994L36.3261 32.1963L36.1512 32.2933C36.2315 32.4382 36.1792 32.6208 36.0343 32.7011L36.1312 32.876ZM30.9332 36.7122L31.0239 36.534C30.781 36.4102 30.7816 36.07 30.9952 35.9516L30.8983 35.7767L30.8013 35.6018C30.2827 35.8892 30.3394 36.6342 30.8424 36.8904L30.9332 36.7122Z" fill="black" mask="url(#path-1-outside-1_0_186)"/>
<path d="M40.4604 49.5974C40.594 49.8385 40.5469 50.1401 40.345 50.3279L33.9615 56.2658C33.665 56.5416 33.9191 57.033 34.3154 56.9506L43.0452 55.1307C43.3025 55.0771 43.5646 55.1978 43.6921 55.4276L45.4467 58.593C45.5756 58.8255 45.5362 59.1148 45.3498 59.3043L39.1718 65.5727C38.8851 65.8639 39.1683 66.347 39.5625 66.2394L47.9 63.9615C48.1667 63.8887 48.4483 64.008 48.5823 64.2498L50.5154 67.7372C50.7114 68.0907 50.5091 68.5329 50.1135 68.6154L35.4035 71.6845C35.1462 71.7381 34.8842 71.6174 34.7566 71.3876L32.583 67.4664C32.4549 67.2351 32.4928 66.9474 32.677 66.7577L38.7906 60.4636C39.067 60.179 38.8052 59.7094 38.4177 59.795L29.8669 61.682C29.6076 61.7392 29.3418 61.619 29.213 61.3867L27.0077 57.4082C26.8802 57.1778 26.9178 56.8911 27.1005 56.7014L37.5168 45.8863C37.7967 45.5959 38.2772 45.6589 38.4728 46.0118L40.4604 49.5974Z" fill="white" fill-opacity="0.7" stroke="black" stroke-width="0.2"/>
<path d="M61.1536 74.4362C61.5082 75.0758 61.8085 75.6686 62.0532 76.2142C62.2268 76.601 62.3765 76.962 62.5027 77.2971C62.6062 77.5717 62.4867 77.8753 62.2334 78.0158L59.8444 79.34C59.6401 79.4533 59.3829 79.3795 59.2696 79.1752C59.2502 79.1401 59.2358 79.1023 59.2268 79.0638C59.1775 78.8509 59.1067 78.5835 59.0152 78.261C58.9192 77.9225 58.7763 77.5803 58.5852 77.2355C58.1186 76.3937 57.6668 75.9389 57.2398 75.8196C56.8125 75.7001 56.1752 75.8559 55.3087 76.3362C55.2976 76.3423 55.2934 76.3569 55.2996 76.368L56.8402 79.1473C57.0008 79.4372 56.8963 79.8018 56.6064 79.9625L54.5634 81.095C54.2736 81.2556 53.9089 81.151 53.7483 80.8612L52.47 78.5551C52.3629 78.3619 52.1189 78.2919 51.9257 78.399L42.2895 83.7404C41.9996 83.9011 41.635 83.7965 41.4743 83.5067L39.573 80.0766C39.4123 79.7867 39.5169 79.4221 39.8067 79.2614L49.4429 73.92C49.6361 73.8129 49.7061 73.5689 49.599 73.3757L49.063 72.4088C48.9024 72.119 49.0069 71.7544 49.2968 71.5937L51.3398 70.4612C51.6296 70.3006 51.9943 70.4051 52.1549 70.695L52.7278 71.7285C52.8145 71.8849 53.0122 71.9415 53.1686 71.8548C54.8257 70.9363 56.3287 70.679 57.6685 71.1079C59.0069 71.5365 60.1662 72.6548 61.1536 74.4362Z" fill="white" fill-opacity="0.7" stroke="black" stroke-width="0.2"/>
<path d="M65.08 94.0125C65.2407 94.3023 65.1361 94.667 64.8463 94.8276L62.7409 95.9947C62.6085 96.0681 62.4532 96.0888 62.3062 96.0525L52.2366 93.5659C51.8976 93.4822 51.6209 93.8429 51.7902 94.1484L54.9291 99.8112C55.0898 100.101 54.9852 100.466 54.6954 100.626L52.3654 101.918C52.0755 102.079 51.7109 101.974 51.5502 101.684L45.0422 89.9434C44.8816 89.6536 44.9861 89.2889 45.276 89.1283L47.4275 87.9357C47.5612 87.8616 47.718 87.8413 47.8661 87.879L57.9972 90.4543C58.337 90.5407 58.6163 90.1792 58.4463 89.8726L55.4849 84.5301C55.3243 84.2403 55.4288 83.8756 55.7187 83.715L57.9889 82.4566C58.2787 82.2959 58.6434 82.4005 58.804 82.6903L65.08 94.0125Z" fill="white" fill-opacity="0.7" stroke="black" stroke-width="0.2"/>
<mask id="path-6-outside-2_0_186" maskUnits="userSpaceOnUse" x="51.8475" y="93.7194" width="23.9849" height="23.5951" fill="black">
<rect fill="white" x="51.8475" y="93.7194" width="23.9849" height="23.5951"/>
<path fill-rule="evenodd" clip-rule="evenodd" d="M58.7656 110.572C58.8322 110.603 58.8972 110.634 58.9607 110.663C59.3351 110.838 59.3574 111.369 58.996 111.57L58.891 111.628C58.6495 111.762 58.5622 112.066 58.6961 112.307L60.5775 115.702C60.7114 115.943 61.0157 116.031 61.2573 115.897L69.9556 111.075C71.5659 110.182 72.4462 108.983 72.5963 107.478C72.7465 105.972 72.1433 103.995 70.7867 101.548C70.2167 100.52 69.566 99.5385 68.8348 98.6047C68.2586 97.869 67.7941 97.3026 67.4414 96.9056C67.2905 96.7359 67.0423 96.6986 66.8436 96.8088L64.2728 98.2338C64.0891 98.3356 64.0227 98.5671 64.1246 98.7507V98.7507C64.1473 98.7917 64.1773 98.828 64.2131 98.8583C64.544 99.1389 65.0396 99.5946 65.7 100.225C66.3974 100.891 66.9427 101.579 67.336 102.288C67.99 103.468 68.3434 104.439 68.3963 105.202C68.4491 105.965 68.1048 106.552 67.3634 106.963V106.963C67.3232 106.985 67.2725 106.972 67.2479 106.933C66.4876 105.731 65.7123 104.592 64.922 103.517C64.1166 102.421 63.3135 101.574 62.5129 100.976C61.7079 100.369 60.8729 100.019 60.0081 99.9256C59.1433 99.8318 58.2206 100.057 57.24 100.6C56.0124 101.281 55.2426 102.27 54.9306 103.569C54.6186 104.867 54.8162 106.154 55.5232 107.429C55.8236 107.972 56.1457 108.444 56.4892 108.848C56.8328 109.251 57.2173 109.612 57.6428 109.928C57.9542 110.151 58.3285 110.366 58.7656 110.572ZM64.4514 107.927C64.6166 108.169 64.5363 108.499 64.2806 108.64L62.1584 109.817C62.0307 109.887 61.8779 109.9 61.744 109.842C61.3498 109.671 60.9743 109.439 60.6175 109.147C60.1968 108.801 59.8672 108.414 59.6286 107.983C59.3281 107.441 59.145 107.021 59.0794 106.724C59.0137 106.427 59.0098 106.143 59.0676 105.871C59.121 105.591 59.2221 105.379 59.3709 105.234C59.5198 105.089 59.7338 104.939 60.0128 104.784C60.4353 104.55 60.839 104.475 61.2241 104.559C61.6091 104.642 61.9887 104.862 62.3628 105.217C62.6688 105.506 63.0515 105.966 63.5108 106.597C63.8484 107.061 64.1619 107.504 64.4514 107.927Z"/>
</mask>
<path fill-rule="evenodd" clip-rule="evenodd" d="M58.7656 110.572C58.8322 110.603 58.8972 110.634 58.9607 110.663C59.3351 110.838 59.3574 111.369 58.996 111.57L58.891 111.628C58.6495 111.762 58.5622 112.066 58.6961 112.307L60.5775 115.702C60.7114 115.943 61.0157 116.031 61.2573 115.897L69.9556 111.075C71.5659 110.182 72.4462 108.983 72.5963 107.478C72.7465 105.972 72.1433 103.995 70.7867 101.548C70.2167 100.52 69.566 99.5385 68.8348 98.6047C68.2586 97.869 67.7941 97.3026 67.4414 96.9056C67.2905 96.7359 67.0423 96.6986 66.8436 96.8088L64.2728 98.2338C64.0891 98.3356 64.0227 98.5671 64.1246 98.7507V98.7507C64.1473 98.7917 64.1773 98.828 64.2131 98.8583C64.544 99.1389 65.0396 99.5946 65.7 100.225C66.3974 100.891 66.9427 101.579 67.336 102.288C67.99 103.468 68.3434 104.439 68.3963 105.202C68.4491 105.965 68.1048 106.552 67.3634 106.963V106.963C67.3232 106.985 67.2725 106.972 67.2479 106.933C66.4876 105.731 65.7123 104.592 64.922 103.517C64.1166 102.421 63.3135 101.574 62.5129 100.976C61.7079 100.369 60.8729 100.019 60.0081 99.9256C59.1433 99.8318 58.2206 100.057 57.24 100.6C56.0124 101.281 55.2426 102.27 54.9306 103.569C54.6186 104.867 54.8162 106.154 55.5232 107.429C55.8236 107.972 56.1457 108.444 56.4892 108.848C56.8328 109.251 57.2173 109.612 57.6428 109.928C57.9542 110.151 58.3285 110.366 58.7656 110.572ZM64.4514 107.927C64.6166 108.169 64.5363 108.499 64.2806 108.64L62.1584 109.817C62.0307 109.887 61.8779 109.9 61.744 109.842C61.3498 109.671 60.9743 109.439 60.6175 109.147C60.1968 108.801 59.8672 108.414 59.6286 107.983C59.3281 107.441 59.145 107.021 59.0794 106.724C59.0137 106.427 59.0098 106.143 59.0676 105.871C59.121 105.591 59.2221 105.379 59.3709 105.234C59.5198 105.089 59.7338 104.939 60.0128 104.784C60.4353 104.55 60.839 104.475 61.2241 104.559C61.6091 104.642 61.9887 104.862 62.3628 105.217C62.6688 105.506 63.0515 105.966 63.5108 106.597C63.8484 107.061 64.1619 107.504 64.4514 107.927Z" fill="white" fill-opacity="0.7"/>
<path d="M68.8348 98.6047L68.6773 98.7281L68.8348 98.6047ZM65.7 100.225L65.5619 100.37L65.5619 100.37L65.7 100.225ZM68.3963 105.202L68.5958 105.188L68.5958 105.188L68.3963 105.202ZM62.5129 100.976L62.3926 101.135L62.3932 101.136L62.5129 100.976ZM60.0081 99.9256L59.9865 100.124L59.9865 100.124L60.0081 99.9256ZM56.4892 108.848L56.6415 108.718L56.6415 108.718L56.4892 108.848ZM57.6428 109.928L57.5234 110.088L57.5262 110.09L57.6428 109.928ZM59.0676 105.871L59.2632 105.913L59.264 105.909L59.0676 105.871ZM62.3628 105.217L62.2251 105.362L62.2255 105.362L62.3628 105.217ZM63.5108 106.597L63.3491 106.715L63.3491 106.715L63.5108 106.597ZM67.2479 106.933L67.4169 106.826L67.2479 106.933ZM64.2131 98.8583L64.0837 99.0108L64.2131 98.8583ZM64.2806 108.64L64.1837 108.465L64.2806 108.64ZM64.4514 107.927L64.2864 108.04L64.4514 107.927ZM60.5775 115.702L60.4026 115.799L60.5775 115.702ZM62.1584 109.817L62.0614 109.642L62.1584 109.817ZM61.744 109.842L61.8235 109.659L61.744 109.842ZM58.6961 112.307L58.871 112.211L58.6961 112.307ZM58.9607 110.663L58.876 110.844L58.9607 110.663ZM58.9607 110.663L59.0454 110.482C58.9821 110.453 58.9172 110.422 58.8508 110.391L58.7656 110.572L58.6804 110.753C58.7472 110.784 58.8123 110.815 58.876 110.844L58.9607 110.663ZM58.891 111.628L58.9879 111.803L59.0929 111.744L58.996 111.57L58.899 111.395L58.794 111.453L58.891 111.628ZM60.5775 115.702L60.7525 115.605L58.871 112.211L58.6961 112.307L58.5211 112.404L60.4026 115.799L60.5775 115.702ZM69.9556 111.075L69.8587 110.9L61.1603 115.722L61.2573 115.897L61.3542 116.072L70.0526 111.25L69.9556 111.075ZM72.5963 107.478L72.3973 107.458C72.2551 108.884 71.4257 110.032 69.8587 110.9L69.9556 111.075L70.0526 111.25C71.7062 110.333 72.6372 109.083 72.7953 107.497L72.5963 107.478ZM70.7867 101.548L70.6118 101.645C71.9631 104.083 72.5412 106.014 72.3973 107.458L72.5963 107.478L72.7953 107.497C72.9517 105.929 72.3235 103.908 70.9616 101.451L70.7867 101.548ZM68.8348 98.6047L68.6773 98.7281C69.4021 99.6536 70.0469 100.626 70.6118 101.645L70.7867 101.548L70.9616 101.451C70.3864 100.413 69.7299 99.4235 68.9922 98.4814L68.8348 98.6047ZM67.4414 96.9056L67.2919 97.0385C67.6406 97.4309 68.1021 97.9935 68.6773 98.7281L68.8348 98.6047L68.9922 98.4814C68.4151 97.7445 67.9477 97.1743 67.5908 96.7728L67.4414 96.9056ZM64.2728 98.2338L64.3698 98.4087L66.9406 96.9837L66.8436 96.8088L66.7467 96.6338L64.1758 98.0589L64.2728 98.2338ZM65.7 100.225L65.8381 100.081C65.1773 99.4495 64.6781 98.9904 64.3424 98.7058L64.2131 98.8583L64.0837 99.0108C64.4099 99.2874 64.9019 99.7396 65.5619 100.37L65.7 100.225ZM67.336 102.288L67.5109 102.191C67.1062 101.461 66.5475 100.758 65.8381 100.081L65.7 100.225L65.5619 100.37C66.2473 101.024 66.7793 101.696 67.1611 102.385L67.336 102.288ZM68.3963 105.202L68.5958 105.188C68.5399 104.382 68.1699 103.38 67.5109 102.191L67.336 102.288L67.1611 102.385C67.8101 103.556 68.1469 104.497 68.1967 105.216L68.3963 105.202ZM67.3634 106.963L67.4604 107.138C67.8548 106.919 68.156 106.647 68.3502 106.316C68.5452 105.983 68.6246 105.605 68.5958 105.188L68.3963 105.202L68.1967 105.216C68.2207 105.562 68.1545 105.859 68.0052 106.113C67.8551 106.369 67.6135 106.595 67.2665 106.788L67.3634 106.963ZM64.922 103.517L64.7608 103.635C65.5482 104.707 66.3209 105.841 67.0788 107.04L67.2479 106.933L67.4169 106.826C66.6543 105.62 65.8764 104.478 65.0832 103.399L64.922 103.517ZM62.5129 100.976L62.3932 101.136C63.1735 101.719 63.9632 102.55 64.7608 103.635L64.922 103.517L65.0832 103.399C64.2699 102.292 63.4536 101.429 62.6326 100.816L62.5129 100.976ZM60.0081 99.9256L59.9865 100.124C60.8102 100.214 61.6117 100.547 62.3926 101.135L62.5129 100.976L62.6332 100.816C61.804 100.191 60.9357 99.825 60.0297 99.7268L60.0081 99.9256ZM57.24 100.6L57.337 100.775C58.2918 100.246 59.1731 100.036 59.9865 100.124L60.0081 99.9256L60.0297 99.7268C59.1134 99.6274 58.1493 99.8675 57.1431 100.425L57.24 100.6ZM54.9306 103.569L55.1251 103.615C55.4232 102.374 56.1556 101.43 57.337 100.775L57.24 100.6L57.1431 100.425C55.8692 101.131 55.0619 102.166 54.7361 103.522L54.9306 103.569ZM55.5232 107.429L55.6981 107.332C55.0129 106.096 54.8259 104.86 55.1251 103.615L54.9306 103.569L54.7361 103.522C54.4114 104.874 54.6194 106.212 55.3482 107.526L55.5232 107.429ZM56.4892 108.848L56.6415 108.718C56.3079 108.326 55.9932 107.865 55.6981 107.332L55.5232 107.429L55.3482 107.526C55.6541 108.078 55.9835 108.562 56.3369 108.978L56.4892 108.848ZM57.6428 109.928L57.7622 109.767C57.3487 109.46 56.9753 109.11 56.6415 108.718L56.4892 108.848L56.3369 108.978C56.6903 109.393 57.0858 109.763 57.5235 110.088L57.6428 109.928ZM58.7656 110.572L58.8508 110.391C58.422 110.189 58.0588 109.98 57.7594 109.765L57.6428 109.928L57.5262 110.09C57.8497 110.323 58.235 110.543 58.6804 110.753L58.7656 110.572ZM62.1584 109.817L62.2554 109.992L64.3776 108.815L64.2806 108.64L64.1837 108.465L62.0614 109.642L62.1584 109.817ZM60.6175 109.147L60.4906 109.301C60.8607 109.605 61.252 109.847 61.6644 110.026L61.744 109.842L61.8235 109.659C61.4476 109.496 61.0879 109.274 60.7443 108.992L60.6175 109.147ZM59.6286 107.983L59.4537 108.08C59.7058 108.535 60.0525 108.942 60.4906 109.301L60.6175 109.147L60.7443 108.992C60.3412 108.661 60.0287 108.292 59.8035 107.886L59.6286 107.983ZM59.0794 106.724L58.8841 106.768C58.9563 107.094 59.1514 107.535 59.4537 108.08L59.6286 107.983L59.8035 107.886C59.5048 107.347 59.3338 106.949 59.2747 106.681L59.0794 106.724ZM59.0676 105.871L58.8719 105.83C58.8076 106.132 58.8128 106.445 58.8841 106.768L59.0794 106.724L59.2747 106.681C59.2146 106.409 59.2119 106.154 59.2632 105.913L59.0676 105.871ZM59.3709 105.234L59.2314 105.091C59.0441 105.273 58.9294 105.528 58.8711 105.834L59.0676 105.871L59.264 105.909C59.3125 105.655 59.4001 105.485 59.5105 105.377L59.3709 105.234ZM60.0128 104.784L59.9158 104.61C59.6286 104.769 59.3978 104.929 59.2314 105.091L59.3709 105.234L59.5105 105.377C59.6418 105.249 59.8389 105.11 60.1097 104.959L60.0128 104.784ZM61.2241 104.559L61.2665 104.363C60.8239 104.267 60.3707 104.357 59.9158 104.61L60.0128 104.784L60.1097 104.959C60.4998 104.743 60.8541 104.683 61.1816 104.754L61.2241 104.559ZM62.3628 105.217L62.5005 105.072C62.1079 104.699 61.6968 104.457 61.2665 104.363L61.2241 104.559L61.1816 104.754C61.5214 104.828 61.8694 105.024 62.2251 105.362L62.3628 105.217ZM63.5108 106.597L63.6725 106.479C63.211 105.845 62.8197 105.373 62.5001 105.072L62.3628 105.217L62.2255 105.362C62.5179 105.638 62.892 106.087 63.3491 106.715L63.5108 106.597ZM64.4514 107.927L64.6165 107.814C64.3257 107.39 64.0111 106.945 63.6725 106.479L63.5108 106.597L63.3491 106.715C63.6856 107.177 63.9981 107.619 64.2864 108.04L64.4514 107.927ZM67.3634 106.963L67.2665 106.788C67.3191 106.759 67.385 106.776 67.4169 106.826L67.2479 106.933L67.0788 107.04C67.16 107.168 67.3272 107.211 67.4604 107.138L67.3634 106.963ZM64.1246 98.7507L63.9496 98.8477C63.9844 98.9104 64.03 98.9653 64.0837 99.0108L64.2131 98.8583L64.3424 98.7058C64.3246 98.6907 64.3102 98.6731 64.2995 98.6538L64.1246 98.7507ZM64.2728 98.2338L64.1758 98.0589C63.8955 98.2142 63.7943 98.5674 63.9496 98.8477L64.1246 98.7507L64.2995 98.6538C64.2512 98.5667 64.2827 98.457 64.3698 98.4087L64.2728 98.2338ZM67.4414 96.9056L67.5908 96.7728C67.3751 96.53 67.0236 96.4803 66.7467 96.6338L66.8436 96.8088L66.9406 96.9837C67.0609 96.917 67.2058 96.9417 67.2919 97.0385L67.4414 96.9056ZM64.2806 108.64L64.3776 108.815C64.7349 108.617 64.8491 108.154 64.6165 107.814L64.4514 107.927L64.2864 108.04C64.384 108.183 64.3376 108.38 64.1837 108.465L64.2806 108.64ZM60.5775 115.702L60.4026 115.799C60.59 116.137 61.0161 116.259 61.3542 116.072L61.2573 115.897L61.1603 115.722C61.0154 115.802 60.8328 115.75 60.7525 115.605L60.5775 115.702ZM62.1584 109.817L62.0614 109.642C61.983 109.685 61.8953 109.69 61.8235 109.659L61.744 109.842L61.6644 110.026C61.8605 110.111 62.0785 110.09 62.2554 109.992L62.1584 109.817ZM58.891 111.628L58.794 111.453C58.4559 111.64 58.3337 112.066 58.5211 112.404L58.6961 112.307L58.871 112.211C58.7907 112.066 58.843 111.883 58.9879 111.803L58.891 111.628ZM58.9607 110.663L58.876 110.844C59.1054 110.952 59.1147 111.275 58.899 111.395L58.996 111.57L59.0929 111.744C59.6002 111.463 59.5647 110.725 59.0454 110.482L58.9607 110.663Z" fill="black" mask="url(#path-6-outside-2_0_186)"/>
<path d="M76.1724 114.024C76.3061 114.265 76.2589 114.566 76.057 114.754L69.6735 120.692C69.3771 120.968 69.6311 121.459 70.0274 121.377L78.7573 119.557C79.0146 119.503 79.2766 119.624 79.4042 119.854L81.1587 123.019C81.2877 123.252 81.2483 123.541 81.0618 123.731L74.8838 129.999C74.5971 130.29 74.8803 130.773 75.2745 130.666L83.612 128.388C83.8787 128.315 84.1603 128.434 84.2944 128.676L86.2275 132.163C86.4234 132.517 86.2212 132.959 85.8255 133.042L71.1156 136.111C70.8583 136.164 70.5962 136.044 70.4687 135.814L68.2951 131.893C68.1669 131.661 68.2049 131.374 68.3891 131.184L74.5026 124.89C74.7791 124.605 74.5172 124.136 74.1297 124.221L65.5789 126.108C65.3196 126.165 65.0538 126.045 64.9251 125.813L62.7198 121.834C62.5922 121.604 62.6298 121.317 62.8125 121.128L73.2288 110.313C73.5088 110.022 73.9893 110.085 74.1849 110.438L76.1724 114.024Z" fill="white" fill-opacity="0.7" stroke="black" stroke-width="0.2"/>
</g>
<g opacity="0.6" filter="url(#filter1_i_0_186)">
<path fill-rule="evenodd" clip-rule="evenodd" d="M18.3117 10.4582C18.8092 10.1824 19.3907 10.4585 19.6421 10.912C19.8935 11.3655 19.733 11.849 19.2355 12.1248C18.7391 12.4 18.24 12.282 17.9886 11.8285C17.7372 11.375 17.8153 10.7334 18.3117 10.4582ZM17.2843 19.5365C17.6142 19.3536 18.1145 19.4737 18.2815 19.775C18.5352 20.2327 18.3696 20.7163 18.0396 20.8992C17.705 21.0846 17.2118 20.9663 16.9581 20.5086C16.7911 20.2073 16.9497 19.722 17.2843 19.5365Z" fill="white" fill-opacity="0.7"/>
<path d="M16.9581 20.5086L17.0455 20.4601L17.0455 20.4601L16.9581 20.5086ZM19.6421 10.912L19.7295 10.8635C19.4595 10.3763 18.8225 10.0607 18.2632 10.3707L18.3117 10.4582L18.3602 10.5457C18.796 10.3041 19.3219 10.5406 19.5546 10.9605L19.6421 10.912ZM19.2355 12.1248L19.284 12.2123C19.5503 12.0647 19.7342 11.8568 19.8145 11.6168C19.8951 11.3757 19.8675 11.1124 19.7295 10.8635L19.6421 10.912L19.5546 10.9605C19.668 11.1651 19.686 11.3704 19.6248 11.5534C19.5633 11.7374 19.4182 11.9092 19.187 12.0374L19.2355 12.1248ZM17.9886 11.8285L17.9012 11.877C18.0393 12.1262 18.2492 12.2884 18.4971 12.3472C18.7439 12.4058 19.0182 12.3596 19.284 12.2123L19.2355 12.1248L19.187 12.0374C18.9564 12.1652 18.733 12.1976 18.5433 12.1526C18.3547 12.1079 18.1893 11.9843 18.0761 11.78L17.9886 11.8285ZM18.3117 10.4582L18.2632 10.3707C17.7055 10.6799 17.6308 11.3893 17.9012 11.877L17.9886 11.8285L18.0761 11.78C17.8436 11.3606 17.9251 10.7868 18.3602 10.5457L18.3117 10.4582ZM18.2815 19.775L18.3689 19.7265C18.268 19.5444 18.073 19.4262 17.8673 19.3769C17.6608 19.3275 17.4267 19.3432 17.2358 19.4491L17.2843 19.5365L17.3328 19.624C17.4718 19.5469 17.6529 19.5313 17.8207 19.5714C17.9894 19.6118 18.128 19.7043 18.194 19.8235L18.2815 19.775ZM18.0396 20.8992L18.0881 20.9866C18.4714 20.7742 18.6466 20.2273 18.3689 19.7265L18.2815 19.775L18.194 19.8235C18.4238 20.2381 18.2677 20.6584 17.9911 20.8117L18.0396 20.8992ZM16.9581 20.5086L16.8706 20.557C17.148 21.0575 17.6998 21.2019 18.0881 20.9866L18.0396 20.8992L17.9911 20.8117C17.7103 20.9674 17.2756 20.8751 17.0455 20.4601L16.9581 20.5086ZM17.2843 19.5365L17.2358 19.4491C17.0428 19.5561 16.9052 19.7461 16.8382 19.9475C16.7715 20.1481 16.7699 20.3753 16.8706 20.557L16.9581 20.5086L17.0455 20.4601C16.9792 20.3405 16.9735 20.1744 17.028 20.0107C17.0822 19.8478 17.1913 19.7024 17.3328 19.624L17.2843 19.5365Z" fill="url(#paint0_linear_0_186)"/>
<path fill-rule="evenodd" clip-rule="evenodd" d="M30.7901 24.1217C32.5552 23.1432 33.1928 20.9197 32.2144 19.1545L24.1217 4.55506C23.1433 2.78994 20.9198 2.15236 19.1546 3.13078L4.55517 11.2234C2.79006 12.2018 2.15244 14.4254 3.13086 16.1905L11.2235 30.79C12.2019 32.5551 14.4255 33.1927 16.1906 32.2143L30.7901 24.1217ZM12.8384 17.054C12.4761 16.4003 12.2854 15.792 12.0689 15.1015L12.0689 15.1013C12.0438 15.0212 12.0183 14.9401 11.9922 14.8576C11.9587 14.7518 11.8905 14.6604 11.7988 14.5977L10.634 13.8011C10.2662 13.5496 10.3862 12.979 10.8241 12.897L11.4936 12.7716C11.7111 12.7308 11.8745 12.5516 11.9059 12.3326C12.1913 10.3402 13.0736 8.76589 14.6891 7.8704C17.6582 6.2246 21.5537 7.73868 23.4552 11.169C25.0227 13.9968 24.8244 17.3812 23.0498 19.4081C22.8266 19.6629 22.4307 19.5696 22.2665 19.2733V19.2733C20.6233 16.3091 17.1133 15.1942 14.387 16.7054C14.1197 16.8536 13.8718 17.0231 13.6417 17.2095C13.3952 17.4093 13.0194 17.3752 12.8635 17.0989C12.8551 17.0839 12.8467 17.069 12.8384 17.054ZM14.4495 27.5835C14.4518 28.0309 14.9954 28.2504 15.3076 27.9299L15.5113 27.7209C15.6577 27.5706 15.8818 27.529 16.0764 27.6075C17.6177 28.2297 19.2443 28.394 20.5599 27.6648C23.0548 26.2818 23.7047 22.658 22.1504 19.8539C20.5046 16.8848 17.1746 15.6736 14.6797 17.0566C12.1804 18.442 11.4473 21.9054 13.0931 24.8745C13.407 25.4408 13.8538 25.9393 14.3108 26.43C14.3966 26.5221 14.4448 26.6431 14.4454 26.769L14.4495 27.5835Z" fill="white" fill-opacity="0.7"/>
<path d="M32.2144 19.1545L32.3018 19.1061L32.2144 19.1545ZM24.1217 4.55506L24.0343 4.60354L24.1217 4.55506ZM3.13086 16.1905L3.0434 16.239L3.13086 16.1905ZM11.2235 30.79L11.311 30.7415L11.2235 30.79ZM12.0689 15.1015L12.1643 15.0715L12.1641 15.0709L12.0689 15.1015ZM12.0689 15.1013L11.9734 15.1312L11.9736 15.1319L12.0689 15.1013ZM20.5599 27.6648L20.6083 27.7523L20.6083 27.7523L20.5599 27.6648ZM14.3108 26.43L14.3839 26.3618L14.3108 26.43ZM14.4454 26.769L14.3454 26.7695L14.4454 26.769ZM15.3076 27.9299L15.236 27.8601L15.3076 27.9299ZM14.4495 27.5835L14.5495 27.583L14.4495 27.5835ZM15.5113 27.7209L15.5829 27.7907L15.5113 27.7209ZM13.6417 17.2095L13.7047 17.2872L13.6417 17.2095ZM11.4936 12.7716L11.4752 12.6733L11.4936 12.7716ZM10.8241 12.897L10.8057 12.7987L10.8241 12.897ZM23.0498 19.4081L22.9745 19.3422L23.0498 19.4081ZM11.9922 14.8576L11.8969 14.8878L11.9922 14.8576ZM11.7988 14.5977L11.7424 14.6803L11.7424 14.6803L11.7988 14.5977ZM32.2144 19.1545L32.1269 19.203C33.0785 20.9198 32.4584 23.0826 30.7416 24.0342L30.7901 24.1217L30.8386 24.2091C32.652 23.2039 33.307 20.9195 32.3018 19.1061L32.2144 19.1545ZM24.1217 4.55506L24.0343 4.60354L32.1269 19.203L32.2144 19.1545L32.3018 19.1061L24.2092 4.50658L24.1217 4.55506ZM19.1546 3.13078L19.2031 3.21824C20.9199 2.2666 23.0826 2.88673 24.0343 4.60354L24.1217 4.55506L24.2092 4.50658C23.204 2.69316 20.9196 2.03813 19.1062 3.04332L19.1546 3.13078ZM4.55517 11.2234L4.60365 11.3109L19.2031 3.21824L19.1546 3.13078L19.1062 3.04332L4.50669 11.1359L4.55517 11.2234ZM3.13086 16.1905L3.21833 16.142C2.26668 14.4252 2.88684 12.2625 4.60365 11.3109L4.55517 11.2234L4.50669 11.1359C2.69327 12.1411 2.03821 14.4255 3.0434 16.239L3.13086 16.1905ZM11.2235 30.79L11.311 30.7415L3.21833 16.142L3.13086 16.1905L3.0434 16.239L11.136 30.8385L11.2235 30.79ZM16.1906 32.2143L16.1421 32.1268C14.4253 33.0785 12.2626 32.4583 11.311 30.7415L11.2235 30.79L11.136 30.8385C12.1412 32.6519 14.4257 33.3069 16.2391 32.3017L16.1906 32.2143ZM30.7901 24.1217L30.7416 24.0342L16.1421 32.1268L16.1906 32.2143L16.2391 32.3017L30.8386 24.2091L30.7901 24.1217ZM12.0689 15.1015L11.9735 15.1314C12.1897 15.8211 12.383 16.4387 12.7509 17.1024L12.8384 17.054L12.9259 17.0055C12.5691 16.3619 12.3811 15.7629 12.1643 15.0715L12.0689 15.1015ZM12.0689 15.1013L11.9736 15.1319L11.9737 15.132L12.0689 15.1015L12.1641 15.0709L12.1641 15.0708L12.0689 15.1013ZM11.9922 14.8576L11.8969 14.8878C11.9229 14.9701 11.9483 15.0511 11.9734 15.1312L12.0689 15.1013L12.1643 15.0714C12.1392 14.9913 12.1137 14.91 12.0876 14.8274L11.9922 14.8576ZM10.634 13.8011L10.5775 13.8837L11.7424 14.6803L11.7988 14.5977L11.8553 14.5152L10.6904 13.7186L10.634 13.8011ZM11.4936 12.7716L11.4752 12.6733L10.8057 12.7987L10.8241 12.897L10.8426 12.9952L11.512 12.8698L11.4936 12.7716ZM14.6891 7.8704L14.6406 7.78294C12.9906 8.69753 12.0954 10.3041 11.8069 12.3184L11.9059 12.3326L12.0049 12.3468C12.2871 10.3764 13.1565 8.83425 14.7375 7.95786L14.6891 7.8704ZM23.4552 11.169L23.5426 11.1205C21.6224 7.65631 17.6712 6.10302 14.6406 7.78294L14.6891 7.8704L14.7375 7.95786C17.6451 6.34619 21.4851 7.82105 23.3677 11.2174L23.4552 11.169ZM23.0498 19.4081L23.125 19.474C24.9331 17.4089 25.1261 13.9771 23.5426 11.1205L23.4552 11.169L23.3677 11.2174C24.9192 14.0165 24.7158 17.3535 22.9745 19.3422L23.0498 19.4081ZM14.387 16.7054L14.4355 16.7929C17.1081 15.3114 20.5595 16.4003 22.179 19.3218L22.2665 19.2733L22.3539 19.2249C20.6871 16.2179 17.1186 15.0769 14.3385 16.6179L14.387 16.7054ZM13.6417 17.2095L13.7047 17.2872C13.9305 17.1042 14.1735 16.9381 14.4355 16.7929L14.387 16.7054L14.3385 16.6179C14.0658 16.7691 13.8131 16.9419 13.5788 17.1318L13.6417 17.2095ZM12.8384 17.054L12.7509 17.1024C12.7594 17.1177 12.7679 17.1329 12.7764 17.148L12.8635 17.0989L12.9506 17.0497C12.9423 17.035 12.934 17.0203 12.9259 17.0055L12.8384 17.054ZM15.5113 27.7209L15.4397 27.6511L15.236 27.8601L15.3076 27.9299L15.3793 27.9997L15.5829 27.7907L15.5113 27.7209ZM20.5599 27.6648L20.5114 27.5773C19.2335 28.2856 17.6418 28.1316 16.1138 27.5148L16.0764 27.6075L16.0389 27.7003C17.5935 28.3278 19.2551 28.5023 20.6083 27.7523L20.5599 27.6648ZM22.1504 19.8539L22.0629 19.9024C23.5986 22.6729 22.9445 26.2286 20.5114 27.5773L20.5599 27.6648L20.6083 27.7523C23.1651 26.335 23.8107 22.6431 22.2378 19.8054L22.1504 19.8539ZM14.6797 17.0566L14.7281 17.1441C17.1627 15.7946 20.4367 16.9686 22.0629 19.9024L22.1504 19.8539L22.2378 19.8054C20.5725 16.8011 17.1865 15.5527 14.6312 16.9691L14.6797 17.0566ZM13.0931 24.8745L13.1806 24.826C11.5543 21.8921 12.2893 18.4959 14.7281 17.1441L14.6797 17.0566L14.6312 16.9691C12.0715 18.388 11.3403 21.9186 13.0056 24.9229L13.0931 24.8745ZM14.3108 26.43L14.3839 26.3618C13.9266 25.8707 13.4878 25.3803 13.1806 24.826L13.0931 24.8745L13.0056 24.9229C13.3262 25.5012 13.7809 26.0078 14.2376 26.4981L14.3108 26.43ZM14.4495 27.5835L14.5495 27.583L14.5454 26.7685L14.4454 26.769L14.3454 26.7695L14.3495 27.584L14.4495 27.5835ZM14.3108 26.43L14.2376 26.4981C14.3064 26.572 14.3449 26.6688 14.3454 26.7695L14.4454 26.769L14.5454 26.7685C14.5447 26.6173 14.4868 26.4723 14.3839 26.3618L14.3108 26.43ZM15.3076 27.9299L15.236 27.8601C14.9863 28.1165 14.5513 27.9409 14.5495 27.583L14.4495 27.5835L14.3495 27.584C14.3522 28.1209 15.0046 28.3843 15.3793 27.9997L15.3076 27.9299ZM15.5113 27.7209L15.5829 27.7907C15.6995 27.671 15.88 27.6361 16.0389 27.7003L16.0764 27.6075L16.1138 27.5148C15.8837 27.4219 15.6159 27.4702 15.4397 27.6511L15.5113 27.7209ZM13.6417 17.2095L13.5788 17.1318C13.3699 17.3011 13.0699 17.2611 12.9506 17.0497L12.8635 17.0989L12.7764 17.148C12.969 17.4893 13.4205 17.5175 13.7047 17.2872L13.6417 17.2095ZM11.4936 12.7716L11.512 12.8698C11.7738 12.8208 11.9678 12.6059 12.0049 12.3468L11.9059 12.3326L11.8069 12.3184C11.7813 12.4974 11.6483 12.6408 11.4752 12.6733L11.4936 12.7716ZM10.634 13.8011L10.6904 13.7186C10.3962 13.5174 10.4922 13.0609 10.8426 12.9952L10.8241 12.897L10.8057 12.7987C10.2802 12.8971 10.1362 13.5819 10.5775 13.8837L10.634 13.8011ZM23.0498 19.4081L22.9745 19.3422C22.8888 19.4401 22.7712 19.4717 22.655 19.4492C22.5369 19.4264 22.4218 19.3474 22.3539 19.2249L22.2665 19.2733L22.179 19.3218C22.2753 19.4956 22.4403 19.6114 22.617 19.6456C22.7956 19.6801 22.9876 19.6309 23.125 19.474L23.0498 19.4081ZM11.9922 14.8576L12.0876 14.8274C12.0473 14.7001 11.9652 14.5904 11.8553 14.5152L11.7988 14.5977L11.7424 14.6803C11.8158 14.7305 11.8702 14.8034 11.8969 14.8878L11.9922 14.8576Z" fill="url(#paint1_linear_0_186)"/>
<path fill-rule="evenodd" clip-rule="evenodd" d="M21.6636 16.5057C21.1672 16.7808 20.6673 16.6614 20.4135 16.2035C20.1609 15.7478 20.2391 15.1065 20.7355 14.8314C21.2331 14.5556 21.8143 14.8313 22.0669 15.287C22.3207 15.7449 22.1612 16.2299 21.6636 16.5057ZM19.2219 23.0325C19.5518 22.8496 20.0517 22.969 20.2184 23.2697C20.4711 23.7255 20.3086 24.2148 19.9786 24.3977C19.6441 24.5832 19.1476 24.4591 18.895 24.0033C18.7283 23.7026 18.8873 23.218 19.2219 23.0325Z" fill="white" fill-opacity="0.7"/>
<path d="M18.895 24.0033L18.9824 23.9548L18.9824 23.9548L18.895 24.0033ZM20.4135 16.2035L20.326 16.252C20.4652 16.5031 20.6757 16.6669 20.9241 16.7267C21.1715 16.7863 21.4462 16.7405 21.7121 16.5931L21.6636 16.5057L21.6151 16.4182C21.3846 16.546 21.1611 16.5781 20.971 16.5323C20.7819 16.4867 20.6155 16.3618 20.5009 16.155L20.4135 16.2035ZM20.7355 14.8314L20.687 14.7439C20.1292 15.0531 20.0545 15.7622 20.326 16.252L20.4135 16.2035L20.5009 16.155C20.2672 15.7334 20.349 15.1599 20.784 14.9188L20.7355 14.8314ZM22.0669 15.287L22.1544 15.2385C21.8832 14.7492 21.2464 14.4338 20.687 14.7439L20.7355 14.8314L20.784 14.9188C21.2197 14.6773 21.7454 14.9133 21.9795 15.3355L22.0669 15.287ZM21.6636 16.5057L21.7121 16.5931C21.9785 16.4454 22.1623 16.2371 22.242 15.996C22.322 15.7539 22.2934 15.4893 22.1544 15.2385L22.0669 15.287L21.9795 15.3355C22.0942 15.5425 22.1128 15.7494 22.0521 15.9332C21.991 16.118 21.8462 16.2901 21.6151 16.4182L21.6636 16.5057ZM20.2184 23.2697L20.3059 23.2212C20.205 23.0394 20.0101 22.9215 19.8046 22.8725C19.5982 22.8233 19.3643 22.8393 19.1734 22.9451L19.2219 23.0325L19.2704 23.12C19.4095 23.0429 19.5905 23.0271 19.7582 23.0671C19.9267 23.1072 20.0651 23.1994 20.1309 23.3182L20.2184 23.2697ZM19.9786 24.3977L20.0271 24.4852C20.4111 24.2723 20.582 23.7194 20.3059 23.2212L20.2184 23.2697L20.1309 23.3182C20.3601 23.7317 20.206 24.1573 19.9302 24.3103L19.9786 24.3977ZM18.895 24.0033L18.8075 24.0518C19.0834 24.5495 19.6381 24.7008 20.0271 24.4852L19.9786 24.3977L19.9302 24.3103C19.65 24.4656 19.2118 24.3687 18.9824 23.9548L18.895 24.0033ZM19.2219 23.0325L19.1734 22.9451C18.9804 23.0521 18.8428 23.2419 18.7756 23.443C18.7087 23.6434 18.7069 23.8703 18.8075 24.0518L18.895 24.0033L18.9824 23.9548C18.9164 23.8356 18.9107 23.6699 18.9653 23.5064C19.0196 23.3437 19.1288 23.1985 19.2704 23.12L19.2219 23.0325Z" fill="url(#paint2_linear_0_186)"/>
</g>
<defs>
<filter id="filter0_i_0_186" x="15.5559" y="28.3085" width="71.5478" height="108.614" filterUnits="userSpaceOnUse" color-interpolation-filters="sRGB">
<feFlood flood-opacity="0" result="BackgroundImageFix"/>
<feBlend mode="normal" in="SourceGraphic" in2="BackgroundImageFix" result="shape"/>
<feColorMatrix in="SourceAlpha" type="matrix" values="0 0 0 0 0 0 0 0 0 0 0 0 0 0 0 0 0 0 127 0" result="hardAlpha"/>
<feOffset dx="0.7" dy="0.7"/>
<feGaussianBlur stdDeviation="0.5"/>
<feComposite in2="hardAlpha" operator="arithmetic" k2="-1" k3="1"/>
<feColorMatrix type="matrix" values="0 0 0 0 0 0 0 0 0 0 0 0 0 0 0 0 0 0 0.85 0"/>
<feBlend mode="normal" in2="shape" result="effect1_innerShadow_0_186"/>
</filter>
<filter id="filter1_i_0_186" x="2.57202" y="2.5719" width="30.9012" height="31.2013" filterUnits="userSpaceOnUse" color-interpolation-filters="sRGB">
<feFlood flood-opacity="0" result="BackgroundImageFix"/>
<feBlend mode="normal" in="SourceGraphic" in2="BackgroundImageFix" result="shape"/>
<feColorMatrix in="SourceAlpha" type="matrix" values="0 0 0 0 0 0 0 0 0 0 0 0 0 0 0 0 0 0 127 0" result="hardAlpha"/>
<feOffset dx="0.7" dy="1"/>
<feGaussianBlur stdDeviation="0.5"/>
<feComposite in2="hardAlpha" operator="arithmetic" k2="-1" k3="1"/>
<feColorMatrix type="matrix" values="0 0 0 0 0 0 0 0 0 0 0 0 0 0 0 0 0 0 0.85 0"/>
<feBlend mode="normal" in2="shape" result="effect1_innerShadow_0_186"/>
</filter>
<linearGradient id="paint0_linear_0_186" x1="19.137" y1="10.0007" x2="13.0146" y2="13.3944" gradientUnits="userSpaceOnUse">
<stop/>
<stop offset="1"/>
</linearGradient>
<linearGradient id="paint1_linear_0_186" x1="22.3503" y1="1.35938" x2="1.35947" y2="12.9948" gradientUnits="userSpaceOnUse">
<stop/>
<stop offset="1"/>
</linearGradient>
<linearGradient id="paint2_linear_0_186" x1="21.5608" y1="14.3739" x2="15.4385" y2="17.7676" gradientUnits="userSpaceOnUse">
<stop/>
<stop offset="1"/>
</linearGradient>
</defs>
</svg>
