<svg width="101" height="140" viewBox="0 0 101 140" fill="none" xmlns="http://www.w3.org/2000/svg">
<g filter="url(#filter0_i_0_193)">
<path fill-rule="evenodd" clip-rule="evenodd" d="M43.0358 99.4752C42.4525 97.5362 41.1367 95.9267 39.0884 94.6468C37.0014 93.3427 35.0869 92.7644 33.345 92.9119C31.603 93.0594 30.2177 93.9563 29.1889 95.6027C28.6431 96.4762 28.3198 97.3462 28.2189 98.2129C28.1777 98.5669 28.154 98.9287 28.1479 99.2984C28.1367 99.968 27.3931 100.429 26.8252 100.075L22.533 97.3925C22.1583 97.1584 21.6647 97.2723 21.4306 97.647L19.6703 100.464C19.4361 100.839 19.5501 101.332 19.9248 101.567L36.6088 111.992C36.9835 112.226 37.477 112.112 37.7112 111.737L39.6323 108.663C39.7234 108.517 39.7052 108.328 39.588 108.203V108.203C39.4164 108.019 39.4682 107.722 39.6839 107.592C40.118 107.332 40.5223 107.031 40.8967 106.691C41.3942 106.239 41.87 105.649 42.324 104.923C43.3818 103.23 43.619 101.414 43.0358 99.4752ZM33.4339 97.9167C34.3063 97.9138 35.3222 98.2745 36.4817 98.999C37.7802 99.8105 38.5851 100.69 38.8963 101.636C39.2075 102.583 39.0177 103.609 38.327 104.715C38.0904 105.093 37.8682 105.406 37.6605 105.652C37.5604 105.771 37.45 105.888 37.3292 106.004C37.0856 106.238 36.7131 106.253 36.4268 106.074L30.7517 102.528C30.5119 102.378 30.3649 102.113 30.3926 101.831C30.4282 101.471 30.4957 101.117 30.5951 100.77C30.7361 100.278 30.9298 99.8343 31.1761 99.4401C31.8089 98.4275 32.5614 97.9197 33.4339 97.9167Z" fill="url(#paint0_linear_0_193)" fill-opacity="0.4"/>
</g>
<path d="M33.345 92.9119L33.3344 92.7873L33.3344 92.7873L33.345 92.9119ZM28.2189 98.2129L28.343 98.2273L28.343 98.2273L28.2189 98.2129ZM39.6839 107.592L39.7482 107.699L39.6839 107.592ZM30.3926 101.831L30.517 101.843L30.3926 101.831ZM37.3292 106.004L37.2427 105.914L37.3292 106.004ZM22.533 97.3925L22.4667 97.4985L22.533 97.3925ZM39.0884 94.6468L39.0222 94.7528C41.05 96.0199 42.3432 97.6066 42.9161 99.5112L43.0358 99.4752L43.1555 99.4392C42.5619 97.4657 41.2235 95.8335 39.1546 94.5408L39.0884 94.6468ZM33.345 92.9119L33.3555 93.0364C35.0615 92.892 36.949 93.4573 39.0222 94.7528L39.0884 94.6468L39.1546 94.5408C37.0538 93.228 35.1123 92.6368 33.3344 92.7873L33.345 92.9119ZM29.1889 95.6027L29.2949 95.669C30.3055 94.0517 31.6576 93.1802 33.3555 93.0364L33.345 92.9119L33.3344 92.7873C31.5485 92.9386 30.1299 93.861 29.0829 95.5365L29.1889 95.6027ZM28.2189 98.2129L28.343 98.2273C28.4414 97.3821 28.7572 96.5295 29.2949 95.669L29.1889 95.6027L29.0829 95.5365C28.529 96.4228 28.1981 97.3104 28.0947 98.1984L28.2189 98.2129ZM28.1479 99.2984L28.2728 99.3004C28.2789 98.9348 28.3023 98.5771 28.343 98.2273L28.2189 98.2129L28.0947 98.1984C28.053 98.5567 28.0291 98.9227 28.0229 99.2963L28.1479 99.2984ZM22.533 97.3925L22.4667 97.4985L26.759 100.181L26.8252 100.075L26.8914 99.9686L22.5992 97.2865L22.533 97.3925ZM19.6703 100.464L19.7763 100.53L21.5366 97.7133L21.4306 97.647L21.3246 97.5808L19.5643 100.398L19.6703 100.464ZM36.6088 111.992L36.675 111.886L19.991 101.461L19.9248 101.567L19.8585 101.673L36.5426 112.098L36.6088 111.992ZM39.6323 108.663L39.5263 108.597L37.6052 111.671L37.7112 111.737L37.8172 111.804L39.7383 108.729L39.6323 108.663ZM40.8967 106.691L40.8126 106.599C40.4443 106.933 40.0466 107.229 39.6196 107.485L39.6839 107.592L39.7482 107.699C40.1894 107.435 40.6002 107.129 40.9808 106.784L40.8967 106.691ZM42.324 104.923L42.218 104.857C41.7685 105.576 41.2997 106.156 40.8126 106.599L40.8967 106.691L40.9808 106.784C41.4887 106.322 41.9715 105.723 42.43 104.989L42.324 104.923ZM43.0358 99.4752L42.9161 99.5112C43.4891 101.416 43.2564 103.195 42.218 104.857L42.324 104.923L42.43 104.989C43.5072 103.265 43.7489 101.412 43.1555 99.4392L43.0358 99.4752ZM36.4817 98.999L36.5479 98.893C35.3789 98.1625 34.3392 97.7886 33.4334 97.7917L33.4339 97.9167L33.4343 98.0417C34.2733 98.0389 35.2656 98.3865 36.4154 99.105L36.4817 98.999ZM38.8963 101.636L39.0151 101.597C38.691 100.611 37.8586 99.712 36.5479 98.893L36.4817 98.999L36.4154 99.105C37.7019 99.9089 38.4793 100.768 38.7776 101.675L38.8963 101.636ZM38.327 104.715L38.4331 104.781C39.1369 103.654 39.3412 102.59 39.0151 101.597L38.8963 101.636L38.7776 101.675C39.0738 102.577 38.8986 103.564 38.221 104.648L38.327 104.715ZM37.6605 105.652L37.7561 105.733C37.9687 105.481 38.1944 105.163 38.4331 104.781L38.327 104.715L38.221 104.648C37.9864 105.024 37.7677 105.331 37.5649 105.572L37.6605 105.652ZM37.3292 106.004L37.4158 106.094C37.5394 105.976 37.6529 105.855 37.7561 105.733L37.6605 105.652L37.5649 105.572C37.4679 105.687 37.3605 105.801 37.2427 105.914L37.3292 106.004ZM30.7517 102.528L30.6854 102.634L36.3605 106.18L36.4268 106.074L36.493 105.968L30.8179 102.422L30.7517 102.528ZM30.5951 100.77L30.4749 100.735C30.3734 101.09 30.3045 101.451 30.2682 101.819L30.3926 101.831L30.517 101.843C30.5518 101.491 30.6179 101.144 30.7153 100.804L30.5951 100.77ZM31.1761 99.4401L31.0701 99.3738C30.817 99.7789 30.6188 100.233 30.4749 100.735L30.5951 100.77L30.7153 100.804C30.8534 100.322 31.0426 99.8897 31.2821 99.5063L31.1761 99.4401ZM33.4339 97.9167L33.4334 97.7917C32.503 97.7949 31.7163 98.3397 31.0701 99.3738L31.1761 99.4401L31.2821 99.5063C31.9014 98.5153 32.6198 98.0445 33.4343 98.0417L33.4339 97.9167ZM39.588 108.203L39.6794 108.117C39.5659 107.996 39.5958 107.791 39.7482 107.699L39.6839 107.592L39.6196 107.485C39.3406 107.652 39.2669 108.042 39.4966 108.288L39.588 108.203ZM39.6323 108.663L39.7383 108.729C39.8594 108.535 39.8352 108.284 39.6794 108.117L39.588 108.203L39.4966 108.288C39.5752 108.372 39.5874 108.499 39.5263 108.597L39.6323 108.663ZM30.7517 102.528L30.8179 102.422C30.6138 102.295 30.4945 102.072 30.517 101.843L30.3926 101.831L30.2682 101.819C30.2353 102.153 30.41 102.462 30.6854 102.634L30.7517 102.528ZM36.6088 111.992L36.5426 112.098C36.9758 112.369 37.5465 112.237 37.8172 111.804L37.7112 111.737L37.6052 111.671C37.4076 111.987 36.9912 112.083 36.675 111.886L36.6088 111.992ZM37.3292 106.004L37.2427 105.914C37.0457 106.103 36.7374 106.121 36.493 105.968L36.4268 106.074L36.3605 106.18C36.6888 106.385 37.1255 106.373 37.4158 106.094L37.3292 106.004ZM19.6703 100.464L19.5643 100.398C19.2936 100.831 19.4253 101.402 19.8585 101.673L19.9248 101.567L19.991 101.461C19.6749 101.263 19.5787 100.847 19.7763 100.53L19.6703 100.464ZM22.533 97.3925L22.5992 97.2865C22.166 97.0158 21.5953 97.1476 21.3246 97.5808L21.4306 97.647L21.5366 97.7133C21.7342 97.3971 22.1506 97.301 22.4667 97.4985L22.533 97.3925ZM28.1479 99.2984L28.0229 99.2963C28.0131 99.883 27.365 100.265 26.8914 99.9686L26.8252 100.075L26.759 100.181C27.4212 100.594 28.2603 100.053 28.2728 99.3004L28.1479 99.2984Z" fill="white" style="mix-blend-mode:exclusion"/>
<g filter="url(#filter1_i_0_193)">
<path d="M45.1342 68.9976C45.4198 68.5406 46.0664 68.4909 46.4184 68.899L55.8235 79.8016C56.0525 80.0671 56.082 80.4508 55.8962 80.7481L53.7557 84.1736C53.5689 84.4726 53.2083 84.614 52.868 84.5218L45.5799 82.5459C44.8138 82.3382 44.2455 83.2526 44.7709 83.8476L49.7568 89.4937C49.9912 89.759 50.0232 90.1469 49.8356 90.4471L47.6613 93.9267C47.4751 94.2247 47.1163 94.3663 46.7768 94.2758L32.8742 90.5708C32.3542 90.4322 32.1166 89.8302 32.4017 89.3738L34.235 86.44C34.4298 86.1282 34.812 85.9894 35.1615 86.1034L42.204 88.4009C42.974 88.6521 43.5869 87.7313 43.058 87.1179L38.0814 81.347C37.8525 81.0815 37.8231 80.6979 38.0088 80.4006L39.6905 77.7093C39.8785 77.4085 40.2422 77.2674 40.5839 77.3627L47.7713 79.3676C48.5587 79.5872 49.1297 78.6238 48.559 78.0385L43.4673 72.8168C43.2099 72.5528 43.1662 72.147 43.3616 71.8343L45.1342 68.9976Z" fill="url(#paint1_linear_0_193)" fill-opacity="0.4"/>
</g>
<path d="M45.1342 68.9976C45.4198 68.5406 46.0664 68.4909 46.4184 68.899L55.8235 79.8016C56.0525 80.0671 56.082 80.4508 55.8962 80.7481L53.7557 84.1736C53.5689 84.4726 53.2083 84.614 52.868 84.5218L45.5799 82.5459C44.8138 82.3382 44.2455 83.2526 44.7709 83.8476L49.7568 89.4937C49.9912 89.759 50.0232 90.1469 49.8356 90.4471L47.6613 93.9267C47.4751 94.2247 47.1163 94.3663 46.7768 94.2758L32.8742 90.5708C32.3542 90.4322 32.1166 89.8302 32.4017 89.3738L34.235 86.44C34.4298 86.1282 34.812 85.9894 35.1615 86.1034L42.204 88.4009C42.974 88.6521 43.5869 87.7313 43.058 87.1179L38.0814 81.347C37.8525 81.0815 37.8231 80.6979 38.0088 80.4006L39.6905 77.7093C39.8785 77.4085 40.2422 77.2674 40.5839 77.3627L47.7713 79.3676C48.5587 79.5872 49.1297 78.6238 48.559 78.0385L43.4673 72.8168C43.2099 72.5528 43.1662 72.147 43.3616 71.8343L45.1342 68.9976Z" stroke="white" stroke-width="0.25" style="mix-blend-mode:exclusion"/>
<g filter="url(#filter2_i_0_193)">
<path d="M52.2159 54.5819C52.3672 54.6764 52.4132 54.8757 52.3187 55.027V55.027C52.3025 55.0529 52.2826 55.0764 52.2599 55.0969C52.0959 55.2449 51.8945 55.4375 51.6559 55.6748C51.4004 55.929 51.1664 56.2261 50.9539 56.5662C50.4419 57.3855 50.2422 58.0319 50.3548 58.5053C50.4674 58.9787 50.945 59.4786 51.7875 60.0051V60.0051C51.8451 60.0411 51.921 60.0236 51.957 59.9659L53.482 57.5255C53.7161 57.1508 54.2097 57.0368 54.5844 57.271L56.0565 58.1909C56.4312 58.425 56.5452 58.9186 56.311 59.2933L55.2317 61.0205C54.9976 61.3952 55.1116 61.8887 55.4863 62.1229L64.3209 67.6433C64.6956 67.8775 64.8095 68.371 64.5754 68.7457L62.815 71.5628C62.5809 71.9375 62.0874 72.0515 61.7127 71.8173L52.8781 66.2969C52.5034 66.0627 52.0098 66.1767 51.7757 66.5514L51.5078 66.98C51.2737 67.3547 50.7801 67.4687 50.4054 67.2345L48.9333 66.3146C48.5586 66.0805 48.4447 65.5869 48.6788 65.2122L49.146 64.4646C49.27 64.2661 49.2097 64.0046 49.0112 63.8805V63.8805C47.4189 62.8856 46.4891 61.7161 46.2218 60.3723C45.9545 59.0284 46.357 57.4985 47.4293 55.7825C47.8157 55.1641 48.1871 54.617 48.5436 54.1411C48.7387 53.8807 48.927 53.6402 49.1085 53.4195C49.3544 53.1205 49.7838 53.0621 50.1121 53.2673L52.2159 54.5819Z" fill="url(#paint2_linear_0_193)" fill-opacity="0.4"/>
</g>
<path d="M52.2159 54.5819C52.3672 54.6764 52.4132 54.8757 52.3187 55.027V55.027C52.3025 55.0529 52.2826 55.0764 52.2599 55.0969C52.0959 55.2449 51.8945 55.4375 51.6559 55.6748C51.4004 55.929 51.1664 56.2261 50.9539 56.5662C50.4419 57.3855 50.2422 58.0319 50.3548 58.5053C50.4674 58.9787 50.945 59.4786 51.7875 60.0051V60.0051C51.8451 60.0411 51.921 60.0236 51.957 59.9659L53.482 57.5255C53.7161 57.1508 54.2097 57.0368 54.5844 57.271L56.0565 58.1909C56.4312 58.425 56.5452 58.9186 56.311 59.2933L55.2317 61.0205C54.9976 61.3952 55.1116 61.8887 55.4863 62.1229L64.3209 67.6433C64.6956 67.8775 64.8095 68.371 64.5754 68.7457L62.815 71.5628C62.5809 71.9375 62.0874 72.0515 61.7127 71.8173L52.8781 66.2969C52.5034 66.0627 52.0098 66.1767 51.7757 66.5514L51.5078 66.98C51.2737 67.3547 50.7801 67.4687 50.4054 67.2345L48.9333 66.3146C48.5586 66.0805 48.4447 65.5869 48.6788 65.2122L49.146 64.4646C49.27 64.2661 49.2097 64.0046 49.0112 63.8805V63.8805C47.4189 62.8856 46.4891 61.7161 46.2218 60.3723C45.9545 59.0284 46.357 57.4985 47.4293 55.7825C47.8157 55.1641 48.1871 54.617 48.5436 54.1411C48.7387 53.8807 48.927 53.6402 49.1085 53.4195C49.3544 53.1205 49.7838 53.0621 50.1121 53.2673L52.2159 54.5819Z" stroke="white" stroke-width="0.25" style="mix-blend-mode:exclusion"/>
<g filter="url(#filter3_i_0_193)">
<path d="M74.4863 49.4884C74.861 49.7225 74.9749 50.2161 74.7408 50.5908L67.9452 61.466C67.7111 61.8407 67.2175 61.9546 66.8428 61.7205L65.112 60.639C64.9392 60.531 64.8141 60.3611 64.7622 60.164L62.3101 50.8405C62.1317 50.1624 61.2295 50.0255 60.8579 50.62L58.1479 54.957C57.9137 55.3317 57.4202 55.4457 57.0455 55.2115L55.3531 54.154C54.9784 53.9198 54.8644 53.4263 55.0985 53.0516L61.6406 42.5822C61.8747 42.2075 62.3682 42.0935 62.7429 42.3277L64.4301 43.3819C64.6013 43.4889 64.7257 43.6567 64.7784 43.8516L67.2752 53.087C67.4575 53.7613 68.3558 53.8946 68.7259 53.3022L71.6335 48.6491C71.8676 48.2744 72.3612 48.1605 72.7359 48.3946L74.4863 49.4884Z" fill="url(#paint3_linear_0_193)" fill-opacity="0.4"/>
</g>
<path d="M74.4863 49.4884C74.861 49.7225 74.9749 50.2161 74.7408 50.5908L67.9452 61.466C67.7111 61.8407 67.2175 61.9546 66.8428 61.7205L65.112 60.639C64.9392 60.531 64.8141 60.3611 64.7622 60.164L62.3101 50.8405C62.1317 50.1624 61.2295 50.0255 60.8579 50.62L58.1479 54.957C57.9137 55.3317 57.4202 55.4457 57.0455 55.2115L55.3531 54.154C54.9784 53.9198 54.8644 53.4263 55.0985 53.0516L61.6406 42.5822C61.8747 42.2075 62.3682 42.0935 62.7429 42.3277L64.4301 43.3819C64.6013 43.4889 64.7257 43.6567 64.7784 43.8516L67.2752 53.087C67.4575 53.7613 68.3558 53.8946 68.7259 53.3022L71.6335 48.6491C71.8676 48.2744 72.3612 48.1605 72.7359 48.3946L74.4863 49.4884Z" stroke="white" stroke-width="0.25" style="mix-blend-mode:exclusion"/>
<g filter="url(#filter4_i_0_193)">
<path fill-rule="evenodd" clip-rule="evenodd" d="M80.9555 40.8294C80.9525 40.7837 80.9495 40.7387 80.9465 40.6944C80.9163 40.2492 81.4062 39.9502 81.7846 40.1867V40.1867C82.0374 40.3446 82.3705 40.2678 82.5285 40.0149L84.4049 37.012C84.639 36.6373 84.5251 36.1437 84.1504 35.9096L75.9707 30.7984C74.4093 29.8227 72.9338 29.6342 71.544 30.2328C70.1543 30.8315 68.718 32.3173 67.2352 34.6903C66.6121 35.6874 66.0695 36.7321 65.6073 37.8244C65.2934 38.5663 65.0493 39.1746 64.8751 39.6493C64.7498 39.9904 64.8898 40.3666 65.198 40.5592L67.4946 41.9942C67.6727 42.1055 67.9073 42.0514 68.0186 41.8733V41.8733C68.0434 41.8335 68.0606 41.7897 68.0698 41.7437C68.1548 41.3182 68.313 40.6639 68.5443 39.7806C68.7887 38.8477 69.1258 38.0373 69.5557 37.3494C70.2705 36.2054 70.9487 35.4254 71.5901 35.0095C72.2316 34.5935 72.9118 34.6101 73.6306 35.0593V35.0593C73.6697 35.0837 73.6829 35.1343 73.6608 35.1747C72.9779 36.4225 72.3579 37.6526 71.8006 38.8651C71.2327 40.1008 70.8811 41.2139 70.7459 42.2042C70.6059 43.2022 70.7046 44.1022 71.0418 44.904C71.3791 45.7059 72.0231 46.4039 72.9738 46.998C74.1642 47.7418 75.4028 47.9354 76.6897 47.5788C77.9765 47.2221 79.0064 46.4254 79.7792 45.1887C80.1076 44.6631 80.365 44.1522 80.5515 43.6561C80.7379 43.16 80.8663 42.6491 80.9368 42.1235C80.9812 41.7428 80.9874 41.3115 80.9555 40.8294ZM75.7413 37.4301C75.948 37.0106 76.472 36.867 76.8686 37.1148L78.5332 38.155C78.7312 38.2787 78.8694 38.4826 78.8848 38.7156C78.9101 39.1001 78.8856 39.4951 78.8113 39.9006C78.7133 40.4359 78.5339 40.9122 78.2731 41.3296C77.9446 41.8552 77.6664 42.2187 77.4384 42.4202C77.2104 42.6217 76.9636 42.763 76.6979 42.8442C76.4274 42.9331 76.1926 42.9476 75.9936 42.8877C75.7946 42.8278 75.5598 42.7134 75.2892 42.5443C74.8796 42.2883 74.618 41.9717 74.5044 41.5944C74.3908 41.2172 74.3988 40.7788 74.5282 40.2793C74.6325 39.8715 74.8493 39.3138 75.1787 38.6061C75.3702 38.1947 75.5577 37.8028 75.7413 37.4301Z" fill="url(#paint4_linear_0_193)" fill-opacity="0.4"/>
</g>
<path d="M75.9707 30.7984L75.9045 30.9044L75.9707 30.7984ZM65.6073 37.8244L65.7224 37.8731L65.6073 37.8244ZM68.5443 39.7806L68.6653 39.8122L68.6653 39.8122L68.5443 39.7806ZM71.5901 35.0095L71.5221 34.9046L71.5221 34.9046L71.5901 35.0095ZM70.7459 42.2042L70.8697 42.2215L70.8698 42.2211L70.7459 42.2042ZM71.0418 44.904L71.157 44.8556L71.157 44.8556L71.0418 44.904ZM80.5515 43.6561L80.4344 43.6121L80.4344 43.6121L80.5515 43.6561ZM80.9368 42.1235L81.0607 42.1401L81.061 42.138L80.9368 42.1235ZM76.6979 42.8442L76.6614 42.7246L76.6589 42.7254L76.6979 42.8442ZM74.5282 40.2793L74.6492 40.3106L74.6493 40.3102L74.5282 40.2793ZM75.1787 38.6061L75.2921 38.6588L75.2921 38.6588L75.1787 38.6061ZM68.0698 41.7437L68.1923 41.7682L68.0698 41.7437ZM75.7413 37.4301L75.6292 37.3749L75.7413 37.4301ZM84.4049 37.012L84.5109 37.0782L84.4049 37.012ZM84.1504 35.9096L84.0842 36.0156L84.1504 35.9096ZM78.8848 38.7156L79.0095 38.7074L78.8848 38.7156ZM82.5285 40.0149L82.4224 39.9487L82.5285 40.0149ZM80.9465 40.6944L81.0712 40.686L80.9465 40.6944ZM80.9465 40.6944L80.8218 40.7029C80.8248 40.7471 80.8278 40.792 80.8308 40.8376L80.9555 40.8294L81.0802 40.8211C81.0772 40.7754 81.0742 40.7303 81.0712 40.686L80.9465 40.6944ZM84.4049 37.012L84.2989 36.9457L82.4224 39.9487L82.5285 40.0149L82.6345 40.0812L84.5109 37.0782L84.4049 37.012ZM75.9707 30.7984L75.9045 30.9044L84.0842 36.0156L84.1504 35.9096L84.2166 35.8036L76.037 30.6923L75.9707 30.7984ZM71.544 30.2328L71.5935 30.3476C72.9372 29.7688 74.3693 29.9451 75.9045 30.9044L75.9707 30.7984L76.037 30.6923C74.4494 29.7003 72.9304 29.4995 71.4946 30.118L71.544 30.2328ZM67.2352 34.6903L67.3412 34.7566C68.8204 32.3894 70.2398 30.9308 71.5935 30.3476L71.544 30.2328L71.4946 30.118C70.0688 30.7322 68.6156 32.2453 67.1292 34.6241L67.2352 34.6903ZM65.6073 37.8244L65.7224 37.8731C66.1821 36.7869 66.7217 35.748 67.3412 34.7566L67.2352 34.6903L67.1292 34.6241C66.5026 35.6268 65.9569 36.6774 65.4922 37.7757L65.6073 37.8244ZM64.8751 39.6493L64.9924 39.6923C65.1657 39.2203 65.4089 38.6141 65.7224 37.8731L65.6073 37.8244L65.4922 37.7757C65.1779 38.5185 64.9329 39.1289 64.7577 39.6062L64.8751 39.6493ZM67.4946 41.9942L67.5608 41.8882L65.2642 40.4532L65.198 40.5592L65.1317 40.6652L67.4283 42.1002L67.4946 41.9942ZM68.5443 39.7806L68.4234 39.7489C68.1919 40.6326 68.033 41.2899 67.9472 41.7192L68.0698 41.7437L68.1923 41.7682C68.2766 41.3466 68.434 40.6952 68.6653 39.8122L68.5443 39.7806ZM69.5557 37.3494L69.4497 37.2832C69.012 37.9836 68.6704 38.8061 68.4234 39.7489L68.5443 39.7806L68.6653 39.8122C68.907 38.8894 69.2396 38.0911 69.6617 37.4156L69.5557 37.3494ZM71.5901 35.0095L71.5221 34.9046C70.8577 35.3354 70.1679 36.1338 69.4497 37.2832L69.5557 37.3494L69.6617 37.4156C70.3731 36.2771 71.0396 35.5155 71.6581 35.1143L71.5901 35.0095ZM73.6306 35.0593L73.6969 34.9533C73.3231 34.7197 72.9518 34.5939 72.5844 34.585C72.2161 34.576 71.8613 34.6846 71.5221 34.9046L71.5901 35.0095L71.6581 35.1143C71.9605 34.9183 72.2665 34.8273 72.5783 34.8349C72.8911 34.8425 73.2193 34.9496 73.5644 35.1653L73.6306 35.0593ZM71.8006 38.8651L71.9142 38.9173C72.4702 37.7076 73.0889 36.4801 73.7704 35.2347L73.6608 35.1747L73.5511 35.1147C72.867 36.3649 72.2456 37.5976 71.6871 38.8129L71.8006 38.8651ZM70.7459 42.2042L70.8698 42.2211C71.0028 41.2465 71.3497 40.1456 71.9142 38.9173L71.8006 38.8651L71.6871 38.8129C71.1157 40.0561 70.7594 41.1812 70.6221 42.1873L70.7459 42.2042ZM71.0418 44.904L71.157 44.8556C70.8298 44.0776 70.7323 43.2009 70.8697 42.2215L70.7459 42.2042L70.6221 42.1868C70.4795 43.2036 70.5793 44.1268 70.9266 44.9525L71.0418 44.904ZM72.9738 46.998L73.0401 46.892C72.1049 46.3076 71.4818 45.6276 71.157 44.8556L71.0418 44.904L70.9266 44.9525C71.2764 45.7842 71.9413 46.5002 72.9076 47.104L72.9738 46.998ZM76.6897 47.5788L76.6563 47.4583C75.4051 47.805 74.2024 47.6183 73.0401 46.892L72.9738 46.998L72.9076 47.104C74.1259 47.8653 75.4005 48.0657 76.723 47.6992L76.6897 47.5788ZM79.7792 45.1887L79.6732 45.1225C78.9153 46.3353 77.9101 47.1108 76.6563 47.4583L76.6897 47.5788L76.723 47.6992C78.0429 47.3334 79.0975 46.5156 79.8852 45.2549L79.7792 45.1887ZM80.5515 43.6561L80.4344 43.6121C80.2514 44.0993 79.9979 44.6027 79.6732 45.1225L79.7792 45.1887L79.8852 45.2549C80.2173 44.7234 80.4787 44.2051 80.6685 43.7001L80.5515 43.6561ZM80.9368 42.1235L80.8129 42.1069C80.7437 42.6231 80.6175 43.1248 80.4344 43.6121L80.5515 43.6561L80.6685 43.7001C80.8582 43.1951 80.989 42.6751 81.0607 42.1401L80.9368 42.1235ZM80.9555 40.8294L80.8308 40.8376C80.8623 41.314 80.856 41.7376 80.8126 42.109L80.9368 42.1235L81.061 42.138C81.1064 41.7481 81.1126 41.3089 81.0802 40.8211L80.9555 40.8294ZM78.5332 38.155L78.5994 38.049L76.9349 37.0088L76.8686 37.1148L76.8024 37.2208L78.4669 38.261L78.5332 38.155ZM78.8113 39.9006L78.9343 39.9231C79.0103 39.5082 79.0355 39.1029 79.0095 38.7074L78.8848 38.7156L78.76 38.7239C78.7846 39.0973 78.7609 39.482 78.6884 39.8781L78.8113 39.9006ZM78.2731 41.3296L78.3791 41.3958C78.6491 40.9637 78.8337 40.4723 78.9343 39.9231L78.8113 39.9006L78.6884 39.8781C78.5929 40.3995 78.4187 40.8607 78.1671 41.2633L78.2731 41.3296ZM77.4384 42.4202L77.5212 42.5139C77.7634 42.2998 78.0494 41.9234 78.3791 41.3958L78.2731 41.3296L78.1671 41.2633C77.8398 41.787 77.5694 42.1376 77.3556 42.3265L77.4384 42.4202ZM76.6979 42.8442L76.7344 42.9637C77.0188 42.8768 77.2811 42.726 77.5212 42.5139L77.4384 42.4202L77.3556 42.3265C77.1398 42.5173 76.9084 42.6491 76.6614 42.7246L76.6979 42.8442ZM75.9936 42.8877L75.9576 43.0074C76.1887 43.0769 76.4509 43.0569 76.7369 42.9629L76.6979 42.8442L76.6589 42.7254C76.4039 42.8092 76.1965 42.8182 76.0296 42.768L75.9936 42.8877ZM75.2892 42.5443L75.223 42.6503C75.4985 42.8225 75.7438 42.9431 75.9576 43.0074L75.9936 42.8877L76.0296 42.768C75.8453 42.7126 75.6211 42.6042 75.3555 42.4383L75.2892 42.5443ZM74.5044 41.5944L74.3847 41.6305C74.5089 42.0429 74.7937 42.382 75.223 42.6503L75.2892 42.5443L75.3555 42.4383C74.9655 42.1946 74.7271 41.9004 74.6241 41.5584L74.5044 41.5944ZM74.5282 40.2793L74.4072 40.2479C74.2738 40.7629 74.2628 41.2255 74.3847 41.6305L74.5044 41.5944L74.6241 41.5584C74.5189 41.2088 74.5238 40.7947 74.6492 40.3106L74.5282 40.2793ZM75.1787 38.6061L75.0654 38.5533C74.735 39.2632 74.5143 39.8292 74.4071 40.2483L74.5282 40.2793L74.6493 40.3102C74.7507 39.9138 74.9637 39.3644 75.2921 38.6588L75.1787 38.6061ZM75.7413 37.4301L75.6292 37.3749C75.4451 37.7484 75.2572 38.1412 75.0654 38.5533L75.1787 38.6061L75.2921 38.6588C75.4831 38.2483 75.6703 37.8571 75.8534 37.4853L75.7413 37.4301ZM73.6306 35.0593L73.5644 35.1653C73.5471 35.1545 73.5415 35.1323 73.5511 35.1147L73.6608 35.1747L73.7704 35.2347C73.8242 35.1364 73.7922 35.0128 73.6969 34.9533L73.6306 35.0593ZM68.0186 41.8733L68.1246 41.9395C68.1576 41.8866 68.1803 41.8286 68.1923 41.7682L68.0698 41.7437L67.9472 41.7192C67.9409 41.7508 67.9292 41.7804 67.9126 41.807L68.0186 41.8733ZM67.4946 41.9942L67.4283 42.1002C67.665 42.2481 67.9767 42.1762 68.1246 41.9395L68.0186 41.8733L67.9126 41.807C67.8379 41.9266 67.6804 41.9629 67.5608 41.8882L67.4946 41.9942ZM64.8751 39.6493L64.7577 39.6062C64.611 40.0059 64.7762 40.443 65.1317 40.6652L65.198 40.5592L65.2642 40.4532C65.0034 40.2902 64.8887 39.9749 64.9924 39.6923L64.8751 39.6493ZM76.8686 37.1148L76.9349 37.0088C76.4768 36.7226 75.8693 36.8876 75.6292 37.3749L75.7413 37.4301L75.8534 37.4853C76.0267 37.1336 76.4672 37.0114 76.8024 37.2208L76.8686 37.1148ZM84.4049 37.012L84.5109 37.0782C84.7816 36.645 84.6499 36.0743 84.2166 35.8036L84.1504 35.9096L84.0842 36.0156C84.4003 36.2131 84.4965 36.6296 84.2989 36.9457L84.4049 37.012ZM78.5332 38.155L78.4669 38.261C78.6359 38.3666 78.7477 38.5365 78.76 38.7239L78.8848 38.7156L79.0095 38.7074C78.9912 38.4287 78.8265 38.1909 78.5994 38.049L78.5332 38.155ZM81.7846 40.1867L81.7183 40.2927C82.0297 40.4872 82.4399 40.3925 82.6345 40.0812L82.5285 40.0149L82.4224 39.9487C82.301 40.143 82.0451 40.2021 81.8508 40.0807L81.7846 40.1867ZM80.9465 40.6944L81.0712 40.686C81.0477 40.3404 81.4283 40.1114 81.7183 40.2927L81.7846 40.1867L81.8508 40.0807C81.3841 39.789 80.7848 40.1581 80.8218 40.7029L80.9465 40.6944Z" fill="white" style="mix-blend-mode:exclusion"/>
<g filter="url(#filter5_i_0_193)">
<path d="M84.6992 5.68072C84.9847 5.22369 85.6313 5.17404 85.9833 5.5821L95.3885 16.4847C95.6175 16.7502 95.647 17.1339 95.4612 17.4312L93.3207 20.8567C93.1338 21.1557 92.7732 21.2971 92.4329 21.2049L85.1449 19.229C84.3788 19.0213 83.8105 19.9357 84.3359 20.5307L89.3218 26.1768C89.5561 26.4421 89.5881 26.83 89.4005 27.1302L87.2262 30.6098C87.0401 30.9078 86.6813 31.0494 86.3418 30.9589L72.4391 27.2539C71.9192 27.1153 71.6815 26.5133 71.9667 26.0569L73.7999 23.1231C73.9947 22.8113 74.377 22.6725 74.7265 22.7865L81.7689 25.084C82.5389 25.3352 83.1518 24.4144 82.6229 23.801L77.6464 18.0301C77.4174 17.7646 77.388 17.381 77.5738 17.0837L79.2555 14.3924C79.4435 14.0916 79.8071 13.9505 80.1489 14.0458L87.3362 16.0507C88.1236 16.2703 88.6946 15.3069 88.1239 14.7216L83.0322 9.49988C82.7748 9.23588 82.7312 8.83014 82.9266 8.51744L84.6992 5.68072Z" fill="url(#paint5_linear_0_193)" fill-opacity="0.4"/>
</g>
<path d="M84.6992 5.68072C84.9847 5.22369 85.6313 5.17404 85.9833 5.5821L95.3885 16.4847C95.6175 16.7502 95.647 17.1339 95.4612 17.4312L93.3207 20.8567C93.1338 21.1557 92.7732 21.2971 92.4329 21.2049L85.1449 19.229C84.3788 19.0213 83.8105 19.9357 84.3359 20.5307L89.3218 26.1768C89.5561 26.4421 89.5881 26.83 89.4005 27.1302L87.2262 30.6098C87.0401 30.9078 86.6813 31.0494 86.3418 30.9589L72.4391 27.2539C71.9192 27.1153 71.6815 26.5133 71.9667 26.0569L73.7999 23.1231C73.9947 22.8113 74.377 22.6725 74.7265 22.7865L81.7689 25.084C82.5389 25.3352 83.1518 24.4144 82.6229 23.801L77.6464 18.0301C77.4174 17.7646 77.388 17.381 77.5738 17.0837L79.2555 14.3924C79.4435 14.0916 79.8071 13.9505 80.1489 14.0458L87.3362 16.0507C88.1236 16.2703 88.6946 15.3069 88.1239 14.7216L83.0322 9.49988C82.7748 9.23588 82.7312 8.83014 82.9266 8.51744L84.6992 5.68072Z" stroke="white" stroke-width="0.25" style="mix-blend-mode:exclusion"/>
<g filter="url(#filter6_i_0_193)">
<path fill-rule="evenodd" clip-rule="evenodd" d="M12.1586 124.217C11.6762 123.915 11.6357 123.273 11.9105 122.833C12.1853 122.393 12.686 122.299 13.1684 122.601C13.6497 122.902 13.7885 123.395 13.5137 123.835C13.2389 124.275 12.6399 124.518 12.1586 124.217ZM20.5968 120.714C20.2769 120.514 20.1393 120.019 20.3219 119.726C20.5992 119.283 21.1025 119.193 21.4224 119.393C21.7468 119.596 21.8824 120.084 21.6051 120.528C21.4226 120.82 20.9212 120.917 20.5968 120.714Z" fill="url(#paint6_linear_0_193)"/>
</g>
<path d="M21.6051 120.528L21.5415 120.488L21.5415 120.488L21.6051 120.528ZM11.9105 122.833L11.8469 122.793C11.5568 123.258 11.5915 123.951 12.1189 124.28L12.1586 124.217L12.1984 124.153C11.7608 123.88 11.7146 123.288 11.9741 122.873L11.9105 122.833ZM13.1684 122.601L13.2081 122.537C12.9542 122.379 12.6895 122.32 12.4479 122.365C12.2055 122.41 11.9944 122.558 11.8469 122.793L11.9105 122.833L11.9741 122.873C12.1015 122.669 12.2781 122.549 12.4753 122.513C12.6733 122.476 12.9002 122.522 13.1287 122.664L13.1684 122.601ZM13.5137 123.835L13.5773 123.875C13.7249 123.639 13.7635 123.384 13.6968 123.146C13.6304 122.908 13.4616 122.696 13.2081 122.537L13.1684 122.601L13.1287 122.664C13.3565 122.807 13.4978 122.991 13.5524 123.186C13.6067 123.38 13.5773 123.592 13.4501 123.795L13.5137 123.835ZM12.1586 124.217L12.1189 124.28C12.6448 124.609 13.287 124.339 13.5773 123.875L13.5137 123.835L13.4501 123.795C13.1908 124.21 12.6351 124.426 12.1984 124.153L12.1586 124.217ZM20.3219 119.726L20.2583 119.687C20.1527 119.856 20.1433 120.076 20.1987 120.275C20.2542 120.475 20.3782 120.666 20.5571 120.778L20.5968 120.714L20.6365 120.651C20.4954 120.562 20.3907 120.406 20.3432 120.235C20.2954 120.063 20.3085 119.889 20.3855 119.766L20.3219 119.726ZM21.4224 119.393L21.4621 119.329C21.1034 119.105 20.5552 119.211 20.2583 119.687L20.3219 119.726L20.3855 119.766C20.6432 119.354 21.1015 119.281 21.3827 119.456L21.4224 119.393ZM21.6051 120.528L21.6687 120.568C21.9654 120.093 21.8256 119.556 21.4621 119.329L21.4224 119.393L21.3827 119.456C21.668 119.635 21.7994 120.076 21.5415 120.488L21.6051 120.528ZM20.5968 120.714L20.5571 120.778C20.738 120.891 20.9643 120.919 21.1679 120.88C21.371 120.842 21.5633 120.737 21.6687 120.568L21.6051 120.528L21.5415 120.488C21.4643 120.612 21.3147 120.7 21.1404 120.733C20.9666 120.766 20.78 120.74 20.6365 120.651L20.5968 120.714Z" fill="black"/>
<g filter="url(#filter7_i_0_193)">
<path fill-rule="evenodd" clip-rule="evenodd" d="M18.0592 106.679C16.3477 105.609 14.0938 106.13 13.0244 107.841L4.17877 121.997C3.10931 123.709 3.62968 125.962 5.34117 127.032L19.4971 135.878C21.2086 136.947 23.4625 136.427 24.5319 134.715L33.3775 120.559C34.447 118.848 33.9266 116.594 32.2152 115.524L18.0592 106.679ZM20.5808 125.806C20.1848 126.44 19.7452 126.902 19.2462 127.426L19.2461 127.426C19.2113 127.462 19.1762 127.499 19.1408 127.537C19.0185 127.665 18.9436 127.832 18.9269 128.008L18.8532 128.793C18.7936 129.428 17.9962 129.673 17.5898 129.182V129.182C17.3879 128.938 17.0506 128.859 16.7528 128.967C14.9262 129.626 13.176 129.592 11.6515 128.64C8.7726 126.841 8.20822 122.7 10.2866 119.374C11.9999 116.632 15.0561 115.164 17.6892 115.734C18.0203 115.805 18.1306 116.197 17.9511 116.484V116.484C16.1551 119.358 16.8817 122.969 19.5252 124.621C19.7694 124.773 20.0218 124.902 20.2798 125.009C20.5974 125.14 20.763 125.515 20.5808 125.806V125.806ZM28.8112 119.403C29.2739 119.144 29.189 118.454 28.6771 118.314V118.314C28.4371 118.249 28.2654 118.04 28.2332 117.793C28.0214 116.169 27.3768 114.695 26.1178 113.909C23.6987 112.397 20.2141 113.585 18.5152 116.304C16.7163 119.183 17.2714 122.683 19.6905 124.194C22.1138 125.709 25.4984 124.671 27.2973 121.792C27.6212 121.274 27.8349 120.681 28.0325 120.08C28.0944 119.891 28.224 119.733 28.3969 119.636L28.8112 119.403Z" fill="url(#paint7_linear_0_193)"/>
</g>
<path d="M13.0244 107.841L12.9608 107.801L13.0244 107.841ZM18.0592 106.679L18.099 106.615L18.0592 106.679ZM4.17877 121.997L4.24237 122.037L4.17877 121.997ZM5.34117 127.032L5.30142 127.096L5.34117 127.032ZM19.4971 135.878L19.5368 135.814L19.4971 135.878ZM24.5319 134.715L24.5955 134.755L24.5319 134.715ZM33.3775 120.559L33.3139 120.519L33.3775 120.559ZM32.2152 115.524L32.1754 115.588L32.2152 115.524ZM19.2462 127.426L19.1919 127.374L19.1915 127.374L19.2462 127.426ZM19.2461 127.426L19.3004 127.478L19.3007 127.477L19.2461 127.426ZM26.1178 113.909L26.1576 113.845L26.1576 113.845L26.1178 113.909ZM28.0325 120.08L28.1037 120.103L28.0325 120.08ZM28.3969 119.636L28.3602 119.57L28.3969 119.636ZM28.8112 119.403L28.7745 119.338L28.8112 119.403ZM28.2332 117.793L28.3076 117.784L28.2332 117.793ZM20.2798 125.009L20.2511 125.078L20.2798 125.009ZM18.8532 128.793L18.9279 128.8L18.8532 128.793ZM17.6892 115.734L17.6734 115.807L17.6892 115.734ZM19.1408 127.537L19.0864 127.485L19.1408 127.537ZM18.9269 128.008L18.8523 128.001L18.9269 128.008ZM13.0244 107.841L13.088 107.881C14.1355 106.205 16.3431 105.695 18.0195 106.742L18.0592 106.679L18.099 106.615C16.3524 105.524 14.0522 106.055 12.9608 107.801L13.0244 107.841ZM4.17877 121.997L4.24237 122.037L13.088 107.881L13.0244 107.841L12.9608 107.801L4.11517 121.957L4.17877 121.997ZM5.34117 127.032L5.38091 126.968C3.70455 125.921 3.19487 123.713 4.24237 122.037L4.17877 121.997L4.11517 121.957C3.02376 123.704 3.55481 126.004 5.30142 127.096L5.34117 127.032ZM19.4971 135.878L19.5368 135.814L5.38091 126.968L5.34117 127.032L5.30142 127.096L19.4573 135.941L19.4971 135.878ZM24.5319 134.715L24.4683 134.675C23.4208 136.352 21.2132 136.861 19.5368 135.814L19.4971 135.878L19.4573 135.941C21.204 137.033 23.5041 136.502 24.5955 134.755L24.5319 134.715ZM33.3775 120.559L33.3139 120.519L24.4683 134.675L24.5319 134.715L24.5955 134.755L33.4411 120.599L33.3775 120.559ZM32.2152 115.524L32.1754 115.588C33.8518 116.635 34.3614 118.843 33.3139 120.519L33.3775 120.559L33.4411 120.599C34.5325 118.852 34.0015 116.552 32.2549 115.461L32.2152 115.524ZM18.0592 106.679L18.0195 106.742L32.1754 115.588L32.2152 115.524L32.2549 115.461L18.099 106.615L18.0592 106.679ZM19.2462 127.426L19.3005 127.477C19.7991 126.954 20.2438 126.487 20.6444 125.846L20.5808 125.806L20.5172 125.766C20.1258 126.393 19.6914 126.849 19.1919 127.374L19.2462 127.426ZM19.2461 127.426L19.3007 127.477L19.3008 127.477L19.2462 127.426L19.1915 127.374L19.1914 127.375L19.2461 127.426ZM19.1408 127.537L19.1952 127.588C19.2305 127.551 19.2656 127.514 19.3004 127.478L19.2461 127.426L19.1918 127.374C19.157 127.411 19.1218 127.448 19.0864 127.485L19.1408 127.537ZM18.8532 128.793L18.9279 128.8L19.0016 128.015L18.9269 128.008L18.8523 128.001L18.7786 128.786L18.8532 128.793ZM11.6515 128.64L11.6117 128.703C13.1606 129.671 14.9359 129.702 16.7782 129.037L16.7528 128.967L16.7273 128.896C14.9165 129.55 13.1915 129.514 11.6912 128.576L11.6515 128.64ZM10.2866 119.374L10.223 119.334C8.12922 122.685 8.68809 126.877 11.6117 128.703L11.6515 128.64L11.6912 128.576C8.8571 126.805 8.28723 122.715 10.3502 119.413L10.2866 119.374ZM17.6892 115.734L17.7051 115.66C15.0347 115.083 11.9494 116.571 10.223 119.334L10.2866 119.374L10.3502 119.413C12.0505 116.692 15.0774 115.246 17.6734 115.807L17.6892 115.734ZM19.5252 124.621L19.5649 124.557C16.9605 122.93 16.2381 119.367 18.0147 116.524L17.9511 116.484L17.8875 116.444C16.0721 119.35 16.8029 123.008 19.4854 124.684L19.5252 124.621ZM20.2798 125.009L20.3086 124.939C20.0541 124.834 19.8055 124.707 19.5649 124.557L19.5252 124.621L19.4854 124.684C19.7333 124.839 19.9894 124.969 20.2511 125.078L20.2798 125.009ZM26.1178 113.909L26.0781 113.972C27.31 114.742 27.9484 116.189 28.1589 117.803L28.2332 117.793L28.3076 117.784C28.0944 116.149 27.4436 114.649 26.1576 113.845L26.1178 113.909ZM18.5152 116.304L18.5788 116.344C20.2625 113.65 23.7039 112.489 26.0781 113.972L26.1178 113.909L26.1576 113.845C23.6935 112.305 20.1658 113.521 18.4516 116.265L18.5152 116.304ZM19.6905 124.194L19.7302 124.131C17.355 122.647 16.7959 119.197 18.5788 116.344L18.5152 116.304L18.4516 116.265C16.6366 119.169 17.1877 122.719 19.6507 124.258L19.6905 124.194ZM27.2973 121.792L27.2337 121.752C25.4508 124.605 22.1096 125.618 19.7302 124.131L19.6905 124.194L19.6507 124.258C22.118 125.8 25.546 124.736 27.3609 121.832L27.2973 121.792ZM28.0325 120.08L27.9612 120.056C27.7637 120.657 27.5524 121.242 27.2337 121.752L27.2973 121.792L27.3609 121.832C27.69 121.305 27.906 120.705 28.1037 120.103L28.0325 120.08ZM28.8112 119.403L28.7745 119.338L28.3602 119.57L28.3969 119.636L28.4336 119.701L28.8479 119.469L28.8112 119.403ZM28.0325 120.08L28.1037 120.103C28.1598 119.932 28.2772 119.789 28.4336 119.701L28.3969 119.636L28.3602 119.57C28.1707 119.676 28.0289 119.85 27.9612 120.056L28.0325 120.08ZM28.6771 118.314L28.6574 118.386C29.1045 118.508 29.1787 119.111 28.7745 119.338L28.8112 119.403L28.8479 119.469C29.3692 119.176 29.2735 118.399 28.6968 118.242L28.6771 118.314ZM28.6771 118.314L28.6968 118.242C28.4879 118.185 28.3361 118.002 28.3076 117.784L28.2332 117.793L28.1589 117.803C28.1947 118.078 28.3863 118.312 28.6574 118.386L28.6771 118.314ZM20.2798 125.009L20.2511 125.078C20.5361 125.196 20.6694 125.523 20.5172 125.766L20.5808 125.806L20.6444 125.846C20.8567 125.506 20.6588 125.085 20.3086 124.939L20.2798 125.009ZM17.5898 129.182L17.6476 129.134C17.424 128.864 17.0525 128.779 16.7273 128.896L16.7528 128.967L16.7782 129.037C17.0486 128.94 17.3519 129.012 17.532 129.23L17.5898 129.182ZM18.8532 128.793L18.7786 128.786C18.7252 129.354 18.0114 129.574 17.6476 129.134L17.5898 129.182L17.532 129.23C17.9811 129.773 18.862 129.501 18.9279 128.8L18.8532 128.793ZM17.6892 115.734L17.6734 115.807C17.8102 115.837 17.9012 115.931 17.9403 116.051C17.9799 116.173 17.9656 116.319 17.8875 116.444L17.9511 116.484L18.0147 116.524C18.1161 116.362 18.1364 116.169 18.083 116.005C18.029 115.839 17.8994 115.702 17.7051 115.66L17.6892 115.734ZM19.1408 127.537L19.0864 127.485C18.9524 127.626 18.8704 127.808 18.8523 128.001L18.9269 128.008L19.0016 128.015C19.0167 127.855 19.0845 127.705 19.1952 127.588L19.1408 127.537Z" fill="black"/>
<g filter="url(#filter8_i_0_193)">
<path fill-rule="evenodd" clip-rule="evenodd" d="M15.8227 118.353C16.304 118.654 16.4419 119.149 16.1645 119.593C15.8884 120.035 15.2896 120.277 14.8083 119.977C14.3258 119.675 14.2852 119.033 14.5613 118.591C14.8387 118.147 15.3403 118.052 15.8227 118.353ZM22.715 117.324C22.3951 117.125 22.2571 116.629 22.4393 116.338C22.7155 115.896 23.2222 115.801 23.5421 116.001C23.8666 116.203 23.9987 116.698 23.7225 117.14C23.5403 117.431 23.0394 117.527 22.715 117.324Z" fill="url(#paint8_linear_0_193)"/>
</g>
<path d="M23.7225 117.14L23.6589 117.1L23.6589 117.1L23.7225 117.14ZM16.1645 119.593L16.2281 119.633C16.3769 119.395 16.4165 119.138 16.3504 118.899C16.2846 118.661 16.116 118.448 15.8625 118.29L15.8227 118.353L15.783 118.417C16.0107 118.559 16.1518 118.744 16.2058 118.939C16.2597 119.134 16.2295 119.347 16.1009 119.553L16.1645 119.593ZM14.8083 119.977L14.7685 120.04C15.2945 120.369 15.9365 120.099 16.2281 119.633L16.1645 119.593L16.1009 119.553C15.8402 119.97 15.2847 120.186 14.848 119.913L14.8083 119.977ZM14.5613 118.591L14.4977 118.551C14.2063 119.018 14.2411 119.711 14.7685 120.04L14.8083 119.977L14.848 119.913C14.4105 119.64 14.364 119.048 14.6249 118.631L14.5613 118.591ZM15.8227 118.353L15.8625 118.29C15.6084 118.131 15.3434 118.073 15.1012 118.119C14.8582 118.165 14.6463 118.314 14.4977 118.551L14.5613 118.591L14.6249 118.631C14.7537 118.425 14.9313 118.304 15.1291 118.266C15.3276 118.229 15.5546 118.274 15.783 118.417L15.8227 118.353ZM22.4393 116.338L22.3757 116.298C22.2703 116.467 22.2611 116.687 22.3166 116.886C22.3723 117.085 22.4965 117.276 22.6752 117.388L22.715 117.324L22.7547 117.261C22.6136 117.173 22.5088 117.016 22.4611 116.845C22.4132 116.674 22.4262 116.5 22.5029 116.378L22.4393 116.338ZM23.5421 116.001L23.5819 115.937C23.2227 115.713 22.6711 115.825 22.3757 116.298L22.4393 116.338L22.5029 116.378C22.7598 115.966 23.2218 115.889 23.5024 116.064L23.5421 116.001ZM23.7225 117.14L23.7861 117.179C24.0813 116.707 23.9459 116.165 23.5819 115.937L23.5421 116.001L23.5024 116.064C23.7872 116.242 23.916 116.689 23.6589 117.1L23.7225 117.14ZM22.715 117.324L22.6752 117.388C22.8561 117.501 23.0823 117.529 23.2858 117.491C23.4887 117.453 23.6809 117.348 23.7861 117.179L23.7225 117.14L23.6589 117.1C23.582 117.223 23.4326 117.311 23.2584 117.344C23.0848 117.376 22.8982 117.35 22.7547 117.261L22.715 117.324Z" fill="black"/>
<defs>
<filter id="filter0_i_0_193" x="19.4236" y="92.7642" width="25.0481" height="20.4746" filterUnits="userSpaceOnUse" color-interpolation-filters="sRGB">
<feFlood flood-opacity="0" result="BackgroundImageFix"/>
<feBlend mode="normal" in="SourceGraphic" in2="BackgroundImageFix" result="shape"/>
<feColorMatrix in="SourceAlpha" type="matrix" values="0 0 0 0 0 0 0 0 0 0 0 0 0 0 0 0 0 0 127 0" result="hardAlpha"/>
<feOffset dx="1" dy="1"/>
<feGaussianBlur stdDeviation="1.5"/>
<feComposite in2="hardAlpha" operator="arithmetic" k2="-1" k3="1"/>
<feColorMatrix type="matrix" values="0 0 0 0 0 0 0 0 0 0 0 0 0 0 0 0 0 0 0.5 0"/>
<feBlend mode="normal" in2="shape" result="effect1_innerShadow_0_193"/>
</filter>
<filter id="filter1_i_0_193" x="32.1545" y="68.4966" width="24.9883" height="26.9312" filterUnits="userSpaceOnUse" color-interpolation-filters="sRGB">
<feFlood flood-opacity="0" result="BackgroundImageFix"/>
<feBlend mode="normal" in="SourceGraphic" in2="BackgroundImageFix" result="shape"/>
<feColorMatrix in="SourceAlpha" type="matrix" values="0 0 0 0 0 0 0 0 0 0 0 0 0 0 0 0 0 0 127 0" result="hardAlpha"/>
<feOffset dx="1" dy="1"/>
<feGaussianBlur stdDeviation="1.5"/>
<feComposite in2="hardAlpha" operator="arithmetic" k2="-1" k3="1"/>
<feColorMatrix type="matrix" values="0 0 0 0 0 0 0 0 0 0 0 0 0 0 0 0 0 0 0.5 0"/>
<feBlend mode="normal" in2="shape" result="effect1_innerShadow_0_193"/>
</filter>
<filter id="filter2_i_0_193" x="46.0167" y="53.021" width="19.8053" height="20.043" filterUnits="userSpaceOnUse" color-interpolation-filters="sRGB">
<feFlood flood-opacity="0" result="BackgroundImageFix"/>
<feBlend mode="normal" in="SourceGraphic" in2="BackgroundImageFix" result="shape"/>
<feColorMatrix in="SourceAlpha" type="matrix" values="0 0 0 0 0 0 0 0 0 0 0 0 0 0 0 0 0 0 127 0" result="hardAlpha"/>
<feOffset dx="1" dy="1"/>
<feGaussianBlur stdDeviation="1.5"/>
<feComposite in2="hardAlpha" operator="arithmetic" k2="-1" k3="1"/>
<feColorMatrix type="matrix" values="0 0 0 0 0 0 0 0 0 0 0 0 0 0 0 0 0 0 0.5 0"/>
<feBlend mode="normal" in2="shape" result="effect1_innerShadow_0_193"/>
</filter>
<filter id="filter3_i_0_193" x="54.8518" y="42.0811" width="21.1356" height="20.8862" filterUnits="userSpaceOnUse" color-interpolation-filters="sRGB">
<feFlood flood-opacity="0" result="BackgroundImageFix"/>
<feBlend mode="normal" in="SourceGraphic" in2="BackgroundImageFix" result="shape"/>
<feColorMatrix in="SourceAlpha" type="matrix" values="0 0 0 0 0 0 0 0 0 0 0 0 0 0 0 0 0 0 127 0" result="hardAlpha"/>
<feOffset dx="1" dy="1"/>
<feGaussianBlur stdDeviation="1.5"/>
<feComposite in2="hardAlpha" operator="arithmetic" k2="-1" k3="1"/>
<feColorMatrix type="matrix" values="0 0 0 0 0 0 0 0 0 0 0 0 0 0 0 0 0 0 0.5 0"/>
<feBlend mode="normal" in2="shape" result="effect1_innerShadow_0_193"/>
</filter>
<filter id="filter4_i_0_193" x="64.7042" y="29.7661" width="20.9474" height="19.1108" filterUnits="userSpaceOnUse" color-interpolation-filters="sRGB">
<feFlood flood-opacity="0" result="BackgroundImageFix"/>
<feBlend mode="normal" in="SourceGraphic" in2="BackgroundImageFix" result="shape"/>
<feColorMatrix in="SourceAlpha" type="matrix" values="0 0 0 0 0 0 0 0 0 0 0 0 0 0 0 0 0 0 127 0" result="hardAlpha"/>
<feOffset dx="1" dy="1"/>
<feGaussianBlur stdDeviation="1.5"/>
<feComposite in2="hardAlpha" operator="arithmetic" k2="-1" k3="1"/>
<feColorMatrix type="matrix" values="0 0 0 0 0 0 0 0 0 0 0 0 0 0 0 0 0 0 0.5 0"/>
<feBlend mode="normal" in2="shape" result="effect1_innerShadow_0_193"/>
</filter>
<filter id="filter5_i_0_193" x="71.7195" y="5.17969" width="24.9883" height="26.9312" filterUnits="userSpaceOnUse" color-interpolation-filters="sRGB">
<feFlood flood-opacity="0" result="BackgroundImageFix"/>
<feBlend mode="normal" in="SourceGraphic" in2="BackgroundImageFix" result="shape"/>
<feColorMatrix in="SourceAlpha" type="matrix" values="0 0 0 0 0 0 0 0 0 0 0 0 0 0 0 0 0 0 127 0" result="hardAlpha"/>
<feOffset dx="1" dy="1"/>
<feGaussianBlur stdDeviation="1.5"/>
<feComposite in2="hardAlpha" operator="arithmetic" k2="-1" k3="1"/>
<feColorMatrix type="matrix" values="0 0 0 0 0 0 0 0 0 0 0 0 0 0 0 0 0 0 0.5 0"/>
<feBlend mode="normal" in2="shape" result="effect1_innerShadow_0_193"/>
</filter>
<filter id="filter6_i_0_193" x="11.6654" y="119.217" width="11.1642" height="6.20898" filterUnits="userSpaceOnUse" color-interpolation-filters="sRGB">
<feFlood flood-opacity="0" result="BackgroundImageFix"/>
<feBlend mode="normal" in="SourceGraphic" in2="BackgroundImageFix" result="shape"/>
<feColorMatrix in="SourceAlpha" type="matrix" values="0 0 0 0 0 0 0 0 0 0 0 0 0 0 0 0 0 0 127 0" result="hardAlpha"/>
<feOffset dx="1" dy="1"/>
<feGaussianBlur stdDeviation="0.5"/>
<feComposite in2="hardAlpha" operator="arithmetic" k2="-1" k3="1"/>
<feColorMatrix type="matrix" values="0 0 0 0 0.0987602 0 0 0 0 0.0987602 0 0 0 0 0.0987602 0 0 0 0.5 0"/>
<feBlend mode="normal" in2="shape" result="effect1_innerShadow_0_193"/>
</filter>
<filter id="filter7_i_0_193" x="3.54797" y="106.048" width="31.4603" height="31.4604" filterUnits="userSpaceOnUse" color-interpolation-filters="sRGB">
<feFlood flood-opacity="0" result="BackgroundImageFix"/>
<feBlend mode="normal" in="SourceGraphic" in2="BackgroundImageFix" result="shape"/>
<feColorMatrix in="SourceAlpha" type="matrix" values="0 0 0 0 0 0 0 0 0 0 0 0 0 0 0 0 0 0 127 0" result="hardAlpha"/>
<feOffset dx="1" dy="1"/>
<feGaussianBlur stdDeviation="0.5"/>
<feComposite in2="hardAlpha" operator="arithmetic" k2="-1" k3="1"/>
<feColorMatrix type="matrix" values="0 0 0 0 0.0987602 0 0 0 0 0.0987602 0 0 0 0 0.0987602 0 0 0 0.5 0"/>
<feBlend mode="normal" in2="shape" result="effect1_innerShadow_0_193"/>
</filter>
<filter id="filter8_i_0_193" x="14.3152" y="115.826" width="10.6321" height="5.35986" filterUnits="userSpaceOnUse" color-interpolation-filters="sRGB">
<feFlood flood-opacity="0" result="BackgroundImageFix"/>
<feBlend mode="normal" in="SourceGraphic" in2="BackgroundImageFix" result="shape"/>
<feColorMatrix in="SourceAlpha" type="matrix" values="0 0 0 0 0 0 0 0 0 0 0 0 0 0 0 0 0 0 127 0" result="hardAlpha"/>
<feOffset dx="1" dy="1"/>
<feGaussianBlur stdDeviation="0.5"/>
<feComposite in2="hardAlpha" operator="arithmetic" k2="-1" k3="1"/>
<feColorMatrix type="matrix" values="0 0 0 0 0.0987602 0 0 0 0 0.0987602 0 0 0 0 0.0987602 0 0 0 0.5 0"/>
<feBlend mode="normal" in2="shape" result="effect1_innerShadow_0_193"/>
</filter>
<linearGradient id="paint0_linear_0_193" x1="18.9135" y1="100.935" x2="36.6303" y2="113.25" gradientUnits="userSpaceOnUse">
<stop stop-color="white"/>
<stop offset="1"/>
</linearGradient>
<linearGradient id="paint1_linear_0_193" x1="31.5911" y1="90.144" x2="44.4493" y2="98.5651" gradientUnits="userSpaceOnUse">
<stop stop-color="white"/>
<stop offset="1"/>
</linearGradient>
<linearGradient id="paint2_linear_0_193" x1="42.7882" y1="62.4747" x2="60.1349" y2="74.9915" gradientUnits="userSpaceOnUse">
<stop stop-color="white"/>
<stop offset="1"/>
</linearGradient>
<linearGradient id="paint3_linear_0_193" x1="54.2638" y1="53.8603" x2="66.967" y2="62.4992" gradientUnits="userSpaceOnUse">
<stop stop-color="white"/>
<stop offset="1"/>
</linearGradient>
<linearGradient id="paint4_linear_0_193" x1="63.0657" y1="40.8067" x2="76.4728" y2="49.9191" gradientUnits="userSpaceOnUse">
<stop stop-color="white"/>
<stop offset="1"/>
</linearGradient>
<linearGradient id="paint5_linear_0_193" x1="71.1561" y1="26.8271" x2="84.0142" y2="35.2482" gradientUnits="userSpaceOnUse">
<stop stop-color="white"/>
<stop offset="1"/>
</linearGradient>
<linearGradient id="paint6_linear_0_193" x1="0.956712" y1="129.009" x2="20.0845" y2="140.961" gradientUnits="userSpaceOnUse">
<stop stop-color="white" stop-opacity="0.1"/>
<stop offset="1" stop-opacity="0.1"/>
</linearGradient>
<linearGradient id="paint7_linear_0_193" x1="-29.383" y1="136.778" x2="36.1981" y2="177.757" gradientUnits="userSpaceOnUse">
<stop stop-color="white" stop-opacity="0.1"/>
<stop offset="1" stop-opacity="0.4"/>
</linearGradient>
<linearGradient id="paint8_linear_0_193" x1="4.19515" y1="123.826" x2="23.323" y2="135.778" gradientUnits="userSpaceOnUse">
<stop stop-color="white" stop-opacity="0.1"/>
<stop offset="1" stop-opacity="0.1"/>
</linearGradient>
</defs>
</svg>
