<svg width="95" height="142" viewBox="0 0 95 142" fill="none" xmlns="http://www.w3.org/2000/svg">
<path fill-rule="evenodd" clip-rule="evenodd" d="M24.1073 49.9439C26.086 50.3739 28.1316 50.0033 30.2441 48.8323C32.3965 47.6392 33.8304 46.2452 34.5459 44.6501C35.2614 43.0551 35.1486 41.4086 34.2074 39.7106C33.7081 38.8098 33.1039 38.1052 32.3948 37.5968C31.9446 37.274 31.4574 36.9792 30.9332 36.7122C30.5602 36.5222 30.5322 35.9796 30.8983 35.7767L36.1312 32.876C36.3728 32.7422 36.46 32.4378 36.3261 32.1963L34.4248 28.7662C34.2909 28.5246 33.9866 28.4374 33.7451 28.5713L16.0135 38.4C15.772 38.5339 15.6847 38.8382 15.8186 39.0797L17.7217 42.513C17.805 42.6633 17.9789 42.7389 18.1457 42.6973V42.6973C18.3898 42.6364 18.6245 42.8257 18.6331 43.0771C18.6504 43.5831 18.7172 44.0823 18.8333 44.5747C18.9876 45.2291 19.2724 45.931 19.6878 46.6803C20.6555 48.4261 22.1287 49.514 24.1073 49.9439ZM30.1255 42.3015C29.7052 43.0659 28.8971 43.7796 27.7013 44.4424C26.3621 45.1848 25.203 45.4626 24.224 45.2757C23.2451 45.0889 22.4396 44.4255 21.8077 43.2855C21.5912 42.8949 21.4256 42.549 21.3108 42.2479C21.2325 42.0427 21.1669 41.8209 21.1137 41.5825C21.0679 41.3766 21.1706 41.1689 21.3551 41.0666L27.5423 37.637C27.6968 37.5513 27.886 37.5522 28.0341 37.6485C28.3867 37.8777 28.7108 38.14 29.0064 38.4355C29.3686 38.7974 29.6624 39.1817 29.8877 39.5883C30.4666 40.6326 30.5459 41.537 30.1255 42.3015Z" fill="url(#paint0_linear_0_186)" fill-opacity="0.7"/>
<path d="M34.5459 44.6501L34.6372 44.6911L34.6372 44.6911L34.5459 44.6501ZM32.3948 37.5968L32.3365 37.678L32.3365 37.678L32.3948 37.5968ZM18.6331 43.0771L18.733 43.0737L18.6331 43.0771ZM27.5423 37.637L27.4938 37.5495L27.5423 37.637ZM28.0341 37.6485L27.9797 37.7324L28.0341 37.6485ZM21.1137 41.5825L21.0161 41.6043L21.1137 41.5825ZM36.1312 32.876L36.0828 32.7886L36.1312 32.876ZM30.8983 35.7767L30.9468 35.8642L30.8983 35.7767ZM30.2441 48.8323L30.1956 48.7449C28.1 49.9065 26.0791 50.27 24.1286 49.8462L24.1073 49.9439L24.0861 50.0417C26.0929 50.4777 28.1631 50.1002 30.2926 48.9198L30.2441 48.8323ZM34.5459 44.6501L34.4547 44.6092C33.751 46.1779 32.3366 47.5581 30.1956 48.7449L30.2441 48.8323L30.2926 48.9198C32.4564 47.7204 33.9099 46.3124 34.6372 44.6911L34.5459 44.6501ZM34.2074 39.7106L34.1199 39.7591C35.0478 41.433 35.1558 43.0464 34.4547 44.6092L34.5459 44.6501L34.6372 44.6911C35.3671 43.0638 35.2494 41.3841 34.2948 39.6621L34.2074 39.7106ZM32.3948 37.5968L32.3365 37.678C33.0316 38.1764 33.6265 38.8689 34.1199 39.7591L34.2074 39.7106L34.2948 39.6621C33.7896 38.7506 33.1761 38.0339 32.453 37.5155L32.3948 37.5968ZM30.9332 36.7122L30.8878 36.8013C31.4078 37.0661 31.8907 37.3584 32.3365 37.678L32.3948 37.5968L32.453 37.5155C31.9986 37.1896 31.507 36.8922 30.9786 36.6231L30.9332 36.7122ZM36.1312 32.876L36.0828 32.7886L30.8498 35.6892L30.8983 35.7767L30.9468 35.8642L36.1797 32.9635L36.1312 32.876ZM34.4248 28.7662L34.3373 28.8146L36.2387 32.2448L36.3261 32.1963L36.4136 32.1478L34.5122 28.7177L34.4248 28.7662ZM16.0135 38.4L16.062 38.4875L33.7935 28.6587L33.7451 28.5713L33.6966 28.4838L15.965 38.3126L16.0135 38.4ZM17.7217 42.513L17.8091 42.4645L15.9061 39.0313L15.8186 39.0797L15.7311 39.1282L17.6342 42.5614L17.7217 42.513ZM18.8333 44.5747L18.9306 44.5518C18.816 44.0657 18.7501 43.5731 18.733 43.0737L18.6331 43.0771L18.5331 43.0806C18.5507 43.5931 18.6183 44.0988 18.7359 44.5977L18.8333 44.5747ZM19.6878 46.6803L19.7752 46.6318C19.3632 45.8884 19.0823 45.1952 18.9306 44.5518L18.8333 44.5747L18.7359 44.5977C18.8928 45.263 19.1817 45.9735 19.6003 46.7288L19.6878 46.6803ZM24.1073 49.9439L24.1286 49.8462C22.1776 49.4223 20.7288 48.3521 19.7752 46.6318L19.6878 46.6803L19.6003 46.7288C20.5822 48.5002 22.0798 49.6057 24.0861 50.0417L24.1073 49.9439ZM27.7013 44.4424L27.7498 44.5299C28.9535 43.8627 29.7799 43.1375 30.2131 42.3496L30.1255 42.3015L30.0379 42.2533C29.6304 42.9944 28.8407 43.6965 27.6528 44.355L27.7013 44.4424ZM24.224 45.2757L24.2053 45.3739C25.2167 45.567 26.4006 45.2778 27.7498 44.5299L27.7013 44.4424L27.6528 44.355C26.3236 45.0918 25.1892 45.3581 24.2428 45.1775L24.224 45.2757ZM21.8077 43.2855L21.7203 43.334C22.3618 44.4913 23.1887 45.1799 24.2053 45.3739L24.224 45.2757L24.2428 45.1775C23.3014 44.9978 22.5175 44.3596 21.8952 43.237L21.8077 43.2855ZM21.3108 42.2479L21.2173 42.2835C21.3343 42.5904 21.5023 42.9407 21.7203 43.334L21.8077 43.2855L21.8952 43.237C21.6802 42.8491 21.5168 42.5077 21.4042 42.2123L21.3108 42.2479ZM21.1137 41.5825L21.0161 41.6043C21.0702 41.8469 21.1372 42.0734 21.2173 42.2835L21.3108 42.2479L21.4042 42.2123C21.3279 42.0121 21.2635 41.795 21.2114 41.5608L21.1137 41.5825ZM27.5423 37.637L27.4938 37.5495L21.3066 40.9791L21.3551 41.0666L21.4036 41.154L27.5907 37.7244L27.5423 37.637ZM29.0064 38.4355L29.0771 38.3647C28.7766 38.0643 28.447 37.7976 28.0886 37.5647L28.0341 37.6485L27.9797 37.7324C28.3264 37.9578 28.6451 38.2157 28.9357 38.5062L29.0064 38.4355ZM29.8877 39.5883L29.9752 39.5398C29.7449 39.1243 29.4452 38.7326 29.0771 38.3647L29.0064 38.4355L28.9357 38.5062C29.292 38.8622 29.5799 39.2391 29.8003 39.6368L29.8877 39.5883ZM30.1255 42.3015L30.2131 42.3496C30.6558 41.5445 30.5639 40.6019 29.9752 39.5398L29.8877 39.5883L29.8003 39.6368C30.3693 40.6633 30.4359 41.5294 30.0379 42.2533L30.1255 42.3015ZM18.1457 42.6973L18.1699 42.7943C18.3479 42.7499 18.5266 42.8881 18.5331 43.0806L18.6331 43.0771L18.733 43.0737C18.7224 42.7632 18.4317 42.5229 18.1215 42.6003L18.1457 42.6973ZM17.7217 42.513L17.6342 42.5614C17.7395 42.7514 17.9592 42.8469 18.1699 42.7943L18.1457 42.6973L18.1215 42.6003C17.9986 42.6309 17.8705 42.5752 17.8091 42.4645L17.7217 42.513ZM27.5423 37.637L27.5907 37.7244C27.7152 37.6554 27.8647 37.6577 27.9797 37.7324L28.0341 37.6485L28.0886 37.5647C27.9073 37.4468 27.6784 37.4472 27.4938 37.5495L27.5423 37.637ZM16.0135 38.4L15.965 38.3126C15.6752 38.4732 15.5705 38.8384 15.7311 39.1282L15.8186 39.0797L15.9061 39.0313C15.799 38.838 15.8688 38.5946 16.062 38.4875L16.0135 38.4ZM21.1137 41.5825L21.2114 41.5608C21.1759 41.4015 21.2547 41.2366 21.4036 41.154L21.3551 41.0666L21.3066 40.9791C21.0864 41.1012 20.9599 41.3517 21.0161 41.6043L21.1137 41.5825ZM34.4248 28.7662L34.5122 28.7177C34.3516 28.4279 33.9864 28.3231 33.6966 28.4838L33.7451 28.5713L33.7935 28.6587C33.9868 28.5516 34.2302 28.6214 34.3373 28.8146L34.4248 28.7662ZM36.1312 32.876L36.1797 32.9635C36.4695 32.8028 36.5743 32.4377 36.4136 32.1478L36.3261 32.1963L36.2387 32.2448C36.3458 32.438 36.276 32.6815 36.0828 32.7886L36.1312 32.876ZM30.9332 36.7122L30.9786 36.6231C30.6706 36.4662 30.6569 36.0248 30.9468 35.8642L30.8983 35.7767L30.8498 35.6892C30.4075 35.9344 30.4498 36.5782 30.8878 36.8013L30.9332 36.7122Z" fill="black"/>
<path d="M50.4285 67.7857C50.5918 68.0803 50.423 68.4488 50.0933 68.5176L35.383 71.5861C35.1685 71.6308 34.9498 71.5307 34.8436 71.339L32.6702 67.4181C32.5633 67.2253 32.5953 66.9854 32.7488 66.8273L38.8625 60.5336C39.2082 60.1778 38.8805 59.59 38.3961 59.697L29.8453 61.5843C29.6292 61.632 29.4075 61.532 29.3002 61.3385L27.095 57.3602C26.9885 57.1682 27.0198 56.9291 27.1722 56.771L37.5882 45.9555C37.8215 45.7133 38.2226 45.7658 38.3857 46.06L40.3735 49.6461C40.4849 49.847 40.445 50.098 40.2767 50.2546L33.8934 56.1929C33.5228 56.5376 33.8404 57.1517 34.336 57.0484L43.0658 55.229C43.2803 55.1843 43.4989 55.2845 43.6051 55.4761L45.3596 58.6413C45.4671 58.8352 45.4341 59.0768 45.2784 59.2347L39.1006 65.5023C38.742 65.8662 39.0956 66.4703 39.5885 66.3356L47.9262 64.0582C48.1485 63.9975 48.3835 64.0965 48.4952 64.2981L50.4285 67.7857Z" fill="url(#paint1_linear_0_186)" fill-opacity="0.7" stroke="black" stroke-width="0.2"/>
<path d="M59.7959 79.253C59.6399 79.3395 59.4433 79.2831 59.3568 79.1271V79.1271C59.342 79.1003 59.3311 79.0716 59.3242 79.0418C59.2743 78.8265 59.2034 78.5571 59.1115 78.2333C59.0131 77.8866 58.8667 77.5379 58.6723 77.1872C58.2039 76.3422 57.7354 75.8541 57.2668 75.7231C56.7981 75.5921 56.1294 75.7674 55.2604 76.2491V76.2491C55.201 76.282 55.1795 76.3569 55.2125 76.4163L56.7531 79.1956C56.8869 79.4372 56.7997 79.7415 56.5582 79.8754L54.5151 81.0078C54.2736 81.1417 53.9693 81.0545 53.8354 80.8129L52.5571 78.5068C52.4232 78.2653 52.1189 78.178 51.8774 78.3119L42.2412 83.6533C41.9996 83.7872 41.6953 83.6999 41.5615 83.4584L39.6601 80.0283C39.5262 79.7868 39.6135 79.4824 39.855 79.3486L49.4912 74.0071C49.7327 73.8733 49.82 73.5689 49.6861 73.3274L49.1502 72.3606C49.0163 72.119 49.1035 71.8147 49.3451 71.6808L51.3881 70.5484C51.6296 70.4145 51.934 70.5017 52.0678 70.7433L52.6407 71.7767C52.7542 71.9815 53.0121 72.0554 53.2169 71.942V71.942C54.8591 71.0317 56.3326 70.7854 57.6376 71.2032C58.9425 71.621 60.0855 72.7147 61.0665 74.4845C61.42 75.1222 61.7184 75.7123 61.9618 76.2548C62.1348 76.6404 62.284 76.9996 62.4094 77.3326C62.4947 77.5591 62.3967 77.8114 62.1851 77.9287L59.7959 79.253Z" fill="url(#paint2_linear_0_186)" fill-opacity="0.7" stroke="black" stroke-width="0.2"/>
<path d="M52.3171 101.831C52.0755 101.965 51.7712 101.877 51.6373 101.636L45.1293 89.8951C44.9955 89.6536 45.0827 89.3493 45.3243 89.2154L47.4757 88.0228C47.5871 87.9611 47.7179 87.9442 47.8413 87.9755L57.973 90.5513C58.3976 90.6593 58.7459 90.2076 58.5335 89.8243L55.572 84.4818C55.4382 84.2403 55.5254 83.936 55.7669 83.8021L58.0372 82.5437C58.2787 82.4098 58.583 82.4971 58.7169 82.7386L64.9929 94.0608C65.1268 94.3023 65.0395 94.6066 64.798 94.7405L62.6926 95.9076C62.5823 95.9687 62.4529 95.9859 62.3303 95.9557L52.2602 93.4688C51.8364 93.3641 51.4914 93.8148 51.703 94.1966L54.842 99.8595C54.9759 100.101 54.8886 100.405 54.6471 100.539L52.3171 101.831Z" fill="url(#paint3_linear_0_186)" fill-opacity="0.7" stroke="black" stroke-width="0.2"/>
<path fill-rule="evenodd" clip-rule="evenodd" d="M58.7658 110.572C58.8323 110.603 58.8973 110.634 58.9608 110.663C59.3352 110.838 59.3576 111.369 58.9961 111.57L58.8911 111.628C58.6496 111.762 58.5623 112.066 58.6962 112.308L60.5777 115.702C60.7115 115.943 61.0159 116.031 61.2574 115.897L69.9557 111.075C71.566 110.183 72.4463 108.983 72.5964 107.478C72.7466 105.972 72.1434 103.995 70.7868 101.548C70.2168 100.52 69.5661 99.5387 68.8349 98.6049C68.2587 97.8691 67.7943 97.3027 67.4415 96.9058C67.2906 96.736 67.0424 96.6988 66.8437 96.8089L64.2729 98.2339C64.0892 98.3357 64.0229 98.5672 64.1247 98.7509V98.7509C64.1474 98.7919 64.1774 98.8281 64.2132 98.8584C64.5441 99.1391 65.0397 99.5947 65.7001 100.225C66.3975 100.891 66.9429 101.579 67.3361 102.288C67.9901 103.468 68.3435 104.44 68.3964 105.202C68.4492 105.965 68.1049 106.552 67.3636 106.963V106.963C67.3233 106.985 67.2726 106.972 67.248 106.933C66.4877 105.731 65.7124 104.592 64.9221 103.517C64.1167 102.421 63.3136 101.574 62.513 100.976C61.708 100.37 60.8731 100.019 60.0082 99.9257C59.1434 99.8319 58.2207 100.057 57.2402 100.6C56.0125 101.281 55.2427 102.27 54.9307 103.569C54.6188 104.867 54.8163 106.154 55.5233 107.43C55.8238 107.972 56.1458 108.444 56.4893 108.848C56.8329 109.252 57.2174 109.612 57.6429 109.928C57.9543 110.151 58.3286 110.366 58.7658 110.572ZM64.4516 107.928C64.6167 108.169 64.5364 108.499 64.2808 108.64L62.1585 109.817C62.0309 109.887 61.878 109.9 61.7441 109.842C61.3499 109.671 60.9744 109.44 60.6176 109.147C60.197 108.802 59.8673 108.414 59.6287 107.983C59.3282 107.441 59.1452 107.022 59.0795 106.724C59.0138 106.427 59.0099 106.143 59.0677 105.871C59.1211 105.592 59.2222 105.379 59.3711 105.234C59.5199 105.089 59.7339 104.939 60.0129 104.785C60.4354 104.55 60.8392 104.475 61.2242 104.559C61.6092 104.642 61.9888 104.862 62.3629 105.217C62.6689 105.506 63.0516 105.966 63.5109 106.597C63.8485 107.061 64.162 107.505 64.4516 107.928Z" fill="url(#paint4_linear_0_186)" fill-opacity="0.7"/>
<path d="M68.8349 98.6049L68.7562 98.6665L68.8349 98.6049ZM65.7001 100.225L65.631 100.298L65.631 100.298L65.7001 100.225ZM68.3964 105.202L68.4961 105.195L68.4961 105.195L68.3964 105.202ZM62.513 100.976L62.4529 101.056L62.4532 101.056L62.513 100.976ZM60.0082 99.9257L59.9974 100.025L59.9974 100.025L60.0082 99.9257ZM56.4893 108.848L56.5655 108.783L56.5655 108.783L56.4893 108.848ZM57.6429 109.928L57.5833 110.008L57.5847 110.009L57.6429 109.928ZM59.0677 105.871L59.1655 105.892L59.1659 105.89L59.0677 105.871ZM62.3629 105.217L62.294 105.29L62.2943 105.29L62.3629 105.217ZM63.5109 106.597L63.4301 106.656L63.4301 106.656L63.5109 106.597ZM67.248 106.933L67.1635 106.987L67.248 106.933ZM64.2132 98.8584L64.1485 98.9347L64.2132 98.8584ZM64.4516 107.928L64.3691 107.984L64.4516 107.928ZM60.5777 115.702L60.6651 115.653L60.5777 115.702ZM61.7441 109.842L61.7838 109.751L61.7441 109.842ZM58.6962 112.308L58.6087 112.356L58.6962 112.308ZM58.9608 110.663L59.0032 110.573C58.9398 110.543 58.8748 110.513 58.8084 110.481L58.7658 110.572L58.7232 110.662C58.7898 110.694 58.8549 110.724 58.9185 110.754L58.9608 110.663ZM58.8911 111.628L58.9396 111.715L59.0446 111.657L58.9961 111.57L58.9476 111.482L58.8426 111.54L58.8911 111.628ZM60.5777 115.702L60.6651 115.653L58.7836 112.259L58.6962 112.308L58.6087 112.356L60.4902 115.75L60.5777 115.702ZM69.9557 111.075L69.9073 110.988L61.2089 115.809L61.2574 115.897L61.3059 115.984L70.0042 111.163L69.9557 111.075ZM72.5964 107.478L72.4969 107.468C72.3508 108.934 71.4959 110.107 69.9073 110.988L69.9557 111.075L70.0042 111.163C71.6362 110.258 72.5418 109.033 72.696 107.488L72.5964 107.478ZM70.7868 101.548L70.6994 101.597C72.0533 104.039 72.644 105.993 72.4969 107.468L72.5964 107.478L72.696 107.488C72.8492 105.951 72.2335 103.952 70.8743 101.5L70.7868 101.548ZM68.8349 98.6049L68.7562 98.6665C69.4842 99.5962 70.1319 100.573 70.6994 101.597L70.7868 101.548L70.8743 101.5C70.3017 100.467 69.6481 99.4811 68.9136 98.5432L68.8349 98.6049ZM67.4415 96.9058L67.3667 96.9722C67.7175 97.3669 68.1805 97.9314 68.7562 98.6665L68.8349 98.6049L68.9136 98.5432C68.337 97.8068 67.871 97.2386 67.5162 96.8393L67.4415 96.9058ZM64.2729 98.2339L64.3214 98.3214L66.8922 96.8963L66.8437 96.8089L66.7953 96.7214L64.2244 98.1465L64.2729 98.2339ZM65.7001 100.225L65.7692 100.153C65.1086 99.5221 64.6111 99.0648 64.2779 98.7822L64.2132 98.8584L64.1485 98.9347C64.477 99.2133 64.9709 99.6672 65.631 100.298L65.7001 100.225ZM67.3361 102.288L67.4236 102.24C67.0246 101.52 66.4726 100.825 65.7692 100.153L65.7001 100.225L65.631 100.298C66.3225 100.958 66.8611 101.638 67.2487 102.337L67.3361 102.288ZM68.3964 105.202L68.4961 105.195C68.4418 104.411 68.0801 103.424 67.4236 102.24L67.3361 102.288L67.2487 102.337C67.9002 103.512 68.2453 104.468 68.2966 105.209L68.3964 105.202ZM67.3636 106.963L67.412 107.05C67.7946 106.838 68.0809 106.577 68.2641 106.265C68.4476 105.952 68.5238 105.594 68.4961 105.195L68.3964 105.202L68.2966 105.209C68.3218 105.573 68.2523 105.89 68.0915 106.164C67.9305 106.438 67.6739 106.676 67.3151 106.875L67.3636 106.963ZM64.9221 103.517L64.8415 103.576C65.6303 104.65 66.4043 105.786 67.1635 106.987L67.248 106.933L67.3325 106.88C66.571 105.676 65.7944 104.535 65.0027 103.458L64.9221 103.517ZM62.513 100.976L62.4532 101.056C63.2436 101.647 64.04 102.486 64.8415 103.576L64.9221 103.517L65.0027 103.458C64.1934 102.357 63.3837 101.502 62.5729 100.896L62.513 100.976ZM60.0082 99.9257L59.9974 100.025C60.8417 100.117 61.6599 100.459 62.4529 101.056L62.513 100.976L62.5732 100.896C61.7561 100.281 60.9044 99.9223 60.019 99.8263L60.0082 99.9257ZM57.2402 100.6L57.2887 100.688C58.2563 100.151 59.1583 99.9341 59.9974 100.025L60.0082 99.9257L60.019 99.8263C59.1284 99.7297 58.1851 99.9622 57.1917 100.513L57.2402 100.6ZM54.9307 103.569L55.028 103.592C55.333 102.322 56.0841 101.355 57.2887 100.688L57.2402 100.6L57.1917 100.513C55.9409 101.206 55.1524 102.218 54.8335 103.545L54.9307 103.569ZM55.5233 107.43L55.6107 107.381C54.9147 106.125 54.7224 104.864 55.028 103.592L54.9307 103.569L54.8335 103.545C54.5151 104.87 54.7179 106.183 55.4358 107.478L55.5233 107.43ZM56.4893 108.848L56.5655 108.783C56.2269 108.385 55.9085 107.918 55.6107 107.381L55.5233 107.43L55.4358 107.478C55.739 108.025 56.0647 108.503 56.4132 108.913L56.4893 108.848ZM57.6429 109.928L57.7026 109.848C57.2831 109.536 56.9041 109.181 56.5655 108.783L56.4893 108.848L56.4132 108.913C56.7616 109.322 57.1517 109.687 57.5833 110.008L57.6429 109.928ZM58.7658 110.572L58.8084 110.481C58.3754 110.278 58.0066 110.066 57.7012 109.847L57.6429 109.928L57.5847 110.009C57.9021 110.237 58.2819 110.455 58.7232 110.662L58.7658 110.572ZM62.1585 109.817L62.207 109.904L64.3292 108.728L64.2808 108.64L64.2323 108.553L62.11 109.729L62.1585 109.817ZM60.6176 109.147L60.5541 109.224C60.9176 109.522 61.301 109.759 61.7043 109.934L61.7441 109.842L61.7838 109.751C61.3988 109.584 61.0312 109.357 60.681 109.069L60.6176 109.147ZM59.6287 107.983L59.5413 108.032C59.7866 108.474 60.1248 108.872 60.5541 109.224L60.6176 109.147L60.681 109.069C60.2691 108.731 59.9481 108.353 59.7162 107.935L59.6287 107.983ZM59.0795 106.724L58.9819 106.746C59.0508 107.058 59.2399 107.488 59.5413 108.032L59.6287 107.983L59.7162 107.935C59.4166 107.394 59.2395 106.985 59.1771 106.703L59.0795 106.724ZM59.0677 105.871L58.9699 105.85C58.9088 106.137 58.9134 106.436 58.9819 106.746L59.0795 106.724L59.1771 106.703C59.1143 106.418 59.1109 106.149 59.1655 105.892L59.0677 105.871ZM59.3711 105.234L59.3013 105.163C59.1332 105.326 59.0253 105.56 58.9695 105.853L59.0677 105.871L59.1659 105.89C59.2168 105.623 59.3112 105.432 59.4409 105.306L59.3711 105.234ZM60.0129 104.785L59.9644 104.697C59.6813 104.854 59.4589 105.009 59.3013 105.163L59.3711 105.234L59.4409 105.306C59.5809 105.169 59.7865 105.024 60.0614 104.872L60.0129 104.785ZM61.2242 104.559L61.2454 104.461C60.8316 104.371 60.4031 104.454 59.9644 104.697L60.0129 104.785L60.0614 104.872C60.4677 104.647 60.8467 104.579 61.203 104.656L61.2242 104.559ZM62.3629 105.217L62.4318 105.145C62.0484 104.78 61.653 104.549 61.2454 104.461L61.2242 104.559L61.203 104.656C61.5654 104.735 61.9292 104.943 62.294 105.29L62.3629 105.217ZM63.5109 106.597L63.5918 106.538C63.1314 105.906 62.7444 105.44 62.4316 105.144L62.3629 105.217L62.2943 105.29C62.5935 105.572 62.9719 106.026 63.4301 106.656L63.5109 106.597ZM64.4516 107.928L64.5341 107.871C64.2439 107.447 63.9298 107.003 63.5918 106.538L63.5109 106.597L63.4301 106.656C63.7671 107.119 64.0801 107.562 64.3691 107.984L64.4516 107.928ZM67.3636 106.963L67.3151 106.875C67.3213 106.872 67.3289 106.874 67.3325 106.88L67.248 106.933L67.1635 106.987C67.2163 107.07 67.3253 107.098 67.412 107.05L67.3636 106.963ZM64.1247 98.7509L64.0372 98.7993C64.066 98.8512 64.1038 98.8968 64.1485 98.9347L64.2132 98.8584L64.2779 98.7822C64.2511 98.7595 64.2289 98.7325 64.2122 98.7024L64.1247 98.7509ZM64.2729 98.2339L64.2244 98.1465C63.9925 98.275 63.9086 98.5674 64.0372 98.7993L64.1247 98.7509L64.2122 98.7024C64.1371 98.567 64.186 98.3964 64.3214 98.3214L64.2729 98.2339ZM67.4415 96.9058L67.5162 96.8393C67.3329 96.6331 67.0331 96.5896 66.7953 96.7214L66.8437 96.8089L66.8922 96.8963C67.0517 96.8079 67.2483 96.8389 67.3667 96.9722L67.4415 96.9058ZM64.2808 108.64L64.3292 108.728C64.6357 108.558 64.733 108.162 64.5341 107.871L64.4516 107.928L64.3691 107.984C64.5004 108.176 64.4371 108.439 64.2323 108.553L64.2808 108.64ZM60.5777 115.702L60.4902 115.75C60.6509 116.04 61.016 116.145 61.3059 115.984L61.2574 115.897L61.2089 115.809C61.0157 115.916 60.7722 115.847 60.6651 115.653L60.5777 115.702ZM62.1585 109.817L62.11 109.729C62.007 109.786 61.8867 109.795 61.7838 109.751L61.7441 109.842L61.7043 109.934C61.8693 110.006 62.0547 109.989 62.207 109.904L62.1585 109.817ZM58.8911 111.628L58.8426 111.54C58.5528 111.701 58.4481 112.066 58.6087 112.356L58.6962 112.308L58.7836 112.259C58.6765 112.066 58.7464 111.822 58.9396 111.715L58.8911 111.628ZM58.9608 110.663L58.9185 110.754C59.2204 110.895 59.2362 111.322 58.9476 111.482L58.9961 111.57L59.0446 111.657C59.4789 111.416 59.45 110.782 59.0032 110.573L58.9608 110.663Z" fill="black"/>
<path d="M86.1406 132.212C86.3039 132.507 86.1351 132.875 85.8054 132.944L71.0951 136.012C70.8806 136.057 70.662 135.957 70.5557 135.765L68.3823 131.844C68.2755 131.652 68.3074 131.412 68.461 131.254L74.5747 124.96C74.9203 124.604 74.5927 124.016 74.1083 124.123L65.5574 126.011C65.3413 126.058 65.1196 125.958 65.0123 125.765L62.8072 121.787C62.7007 121.595 62.732 121.356 62.8843 121.197L73.3004 110.382C73.5337 110.14 73.9348 110.192 74.0978 110.486L76.0856 114.072C76.197 114.273 76.1571 114.524 75.9889 114.681L69.6056 120.619C69.235 120.964 69.5526 121.578 70.0482 121.475L78.778 119.655C78.9925 119.611 79.2111 119.711 79.3173 119.903L81.0718 123.068C81.1793 123.262 81.1462 123.503 80.9906 123.661L74.8128 129.929C74.4541 130.293 74.8078 130.897 75.3006 130.762L83.6383 128.485C83.8606 128.424 84.0957 128.523 84.2074 128.724L86.1406 132.212Z" fill="url(#paint5_linear_0_186)" fill-opacity="0.7" stroke="black" stroke-width="0.2"/>
<path fill-rule="evenodd" clip-rule="evenodd" d="M18.3117 10.4583C18.8092 10.1825 19.3907 10.4586 19.6421 10.9121C19.8935 11.3656 19.733 11.8492 19.2355 12.125C18.7391 12.4001 18.24 12.2821 17.9886 11.8286C17.7372 11.3751 17.8153 10.7335 18.3117 10.4583ZM17.2843 19.5367C17.6142 19.3538 18.1145 19.4738 18.2815 19.7751C18.5352 20.2328 18.3696 20.7164 18.0396 20.8993C17.705 21.0848 17.2118 20.9664 16.9581 20.5087C16.7911 20.2074 16.9497 19.7221 17.2843 19.5367Z" fill="url(#paint6_linear_0_186)" fill-opacity="0.7"/>
<path d="M16.9581 20.5087L17.0455 20.4602L17.0455 20.4602L16.9581 20.5087ZM19.6421 10.9121L19.7295 10.8636C19.4595 10.3765 18.8225 10.0608 18.2632 10.3709L18.3117 10.4583L18.3602 10.5458C18.796 10.3042 19.3219 10.5407 19.5546 10.9606L19.6421 10.9121ZM19.2355 12.125L19.284 12.2124C19.5503 12.0648 19.7342 11.857 19.8145 11.6169C19.8951 11.3758 19.8675 11.1125 19.7295 10.8636L19.6421 10.9121L19.5546 10.9606C19.668 11.1652 19.686 11.3705 19.6248 11.5535C19.5633 11.7375 19.4182 11.9093 19.187 12.0375L19.2355 12.125ZM17.9886 11.8286L17.9012 11.8771C18.0393 12.1263 18.2492 12.2885 18.4971 12.3473C18.7439 12.4059 19.0182 12.3597 19.284 12.2124L19.2355 12.125L19.187 12.0375C18.9564 12.1653 18.733 12.1978 18.5433 12.1527C18.3547 12.108 18.1893 11.9844 18.0761 11.7801L17.9886 11.8286ZM18.3117 10.4583L18.2632 10.3709C17.7055 10.68 17.6308 11.3894 17.9012 11.8771L17.9886 11.8286L18.0761 11.7801C17.8436 11.3608 17.9251 10.7869 18.3602 10.5458L18.3117 10.4583ZM18.2815 19.7751L18.3689 19.7266C18.268 19.5445 18.073 19.4263 17.8673 19.3771C17.6608 19.3276 17.4267 19.3434 17.2358 19.4492L17.2843 19.5367L17.3328 19.6241C17.4718 19.5471 17.6529 19.5314 17.8207 19.5716C17.9894 19.6119 18.128 19.7044 18.194 19.8236L18.2815 19.7751ZM18.0396 20.8993L18.0881 20.9868C18.4714 20.7743 18.6466 20.2274 18.3689 19.7266L18.2815 19.7751L18.194 19.8236C18.4238 20.2382 18.2677 20.6585 17.9911 20.8118L18.0396 20.8993ZM16.9581 20.5087L16.8706 20.5572C17.148 21.0576 17.6998 21.202 18.0881 20.9868L18.0396 20.8993L17.9911 20.8118C17.7103 20.9675 17.2756 20.8752 17.0455 20.4602L16.9581 20.5087ZM17.2843 19.5367L17.2358 19.4492C17.0428 19.5562 16.9052 19.7462 16.8382 19.9477C16.7715 20.1483 16.7699 20.3755 16.8706 20.5572L16.9581 20.5087L17.0455 20.4602C16.9792 20.3406 16.9735 20.1745 17.028 20.0108C17.0822 19.8479 17.1913 19.7026 17.3328 19.6241L17.2843 19.5367Z" fill="url(#paint7_linear_0_186)"/>
<path fill-rule="evenodd" clip-rule="evenodd" d="M30.7901 24.1217C32.5552 23.1432 33.1928 20.9197 32.2144 19.1545L24.1217 4.55506C23.1433 2.78994 20.9198 2.15236 19.1546 3.13078L4.55517 11.2234C2.79006 12.2018 2.15244 14.4254 3.13086 16.1905L11.2235 30.79C12.2019 32.5551 14.4255 33.1927 16.1906 32.2143L30.7901 24.1217ZM12.8384 17.054C12.4761 16.4003 12.2854 15.792 12.0689 15.1015L12.0689 15.1013C12.0438 15.0212 12.0183 14.9401 11.9922 14.8576C11.9587 14.7518 11.8905 14.6604 11.7988 14.5977L10.634 13.8011C10.2662 13.5496 10.3862 12.979 10.8241 12.897L11.4936 12.7716C11.7111 12.7308 11.8745 12.5516 11.9059 12.3326C12.1913 10.3402 13.0736 8.76589 14.6891 7.8704C17.6582 6.2246 21.5537 7.73868 23.4552 11.169C25.0227 13.9968 24.8244 17.3812 23.0498 19.4081C22.8266 19.6629 22.4307 19.5696 22.2665 19.2733V19.2733C20.6233 16.3091 17.1133 15.1942 14.387 16.7054C14.1197 16.8536 13.8718 17.0231 13.6417 17.2095C13.3952 17.4093 13.0194 17.3752 12.8635 17.0989C12.8551 17.0839 12.8467 17.069 12.8384 17.054ZM14.4495 27.5835C14.4518 28.0309 14.9954 28.2504 15.3076 27.9299L15.5113 27.7209C15.6577 27.5706 15.8818 27.529 16.0764 27.6075C17.6177 28.2297 19.2443 28.394 20.5599 27.6648C23.0548 26.2818 23.7047 22.658 22.1504 19.8539C20.5046 16.8848 17.1746 15.6736 14.6797 17.0566C12.1804 18.442 11.4473 21.9054 13.0931 24.8745C13.407 25.4408 13.8538 25.9393 14.3108 26.43C14.3966 26.5221 14.4448 26.6431 14.4454 26.769L14.4495 27.5835Z" fill="url(#paint8_linear_0_186)" fill-opacity="0.7"/>
<path d="M32.2144 19.1545L32.3018 19.1061L32.2144 19.1545ZM24.1217 4.55506L24.0343 4.60354L24.1217 4.55506ZM3.13086 16.1905L3.0434 16.239L3.13086 16.1905ZM11.2235 30.79L11.311 30.7415L11.2235 30.79ZM12.0689 15.1015L12.1643 15.0715L12.1641 15.0709L12.0689 15.1015ZM12.0689 15.1013L11.9734 15.1312L11.9736 15.1319L12.0689 15.1013ZM20.5599 27.6648L20.6083 27.7523L20.6083 27.7523L20.5599 27.6648ZM14.3108 26.43L14.3839 26.3618L14.3108 26.43ZM14.4454 26.769L14.3454 26.7695L14.4454 26.769ZM15.3076 27.9299L15.236 27.8601L15.3076 27.9299ZM14.4495 27.5835L14.5495 27.583L14.4495 27.5835ZM15.5113 27.7209L15.5829 27.7907L15.5113 27.7209ZM16.0764 27.6075L16.0389 27.7003L16.0764 27.6075ZM13.6417 17.2095L13.5788 17.1318L13.6417 17.2095ZM11.4936 12.7716L11.4752 12.6733L11.4936 12.7716ZM10.634 13.8011L10.5775 13.8837L10.634 13.8011ZM10.8241 12.897L10.8057 12.7987L10.8241 12.897ZM23.0498 19.4081L22.9745 19.3422L23.0498 19.4081ZM11.9922 14.8576L12.0876 14.8274L11.9922 14.8576ZM11.7988 14.5977L11.7424 14.6803L11.7988 14.5977ZM32.2144 19.1545L32.1269 19.203C33.0785 20.9198 32.4584 23.0826 30.7416 24.0342L30.7901 24.1217L30.8386 24.2091C32.652 23.2039 33.307 20.9195 32.3018 19.1061L32.2144 19.1545ZM24.1217 4.55506L24.0343 4.60354L32.1269 19.203L32.2144 19.1545L32.3018 19.1061L24.2092 4.50658L24.1217 4.55506ZM19.1546 3.13078L19.2031 3.21824C20.9199 2.2666 23.0826 2.88673 24.0343 4.60354L24.1217 4.55506L24.2092 4.50658C23.204 2.69316 20.9196 2.03813 19.1062 3.04332L19.1546 3.13078ZM4.55517 11.2234L4.60365 11.3109L19.2031 3.21824L19.1546 3.13078L19.1062 3.04332L4.50669 11.1359L4.55517 11.2234ZM3.13086 16.1905L3.21833 16.142C2.26668 14.4252 2.88684 12.2625 4.60365 11.3109L4.55517 11.2234L4.50669 11.1359C2.69327 12.1411 2.03821 14.4255 3.0434 16.239L3.13086 16.1905ZM11.2235 30.79L11.311 30.7415L3.21833 16.142L3.13086 16.1905L3.0434 16.239L11.136 30.8385L11.2235 30.79ZM16.1906 32.2143L16.1421 32.1268C14.4253 33.0785 12.2626 32.4583 11.311 30.7415L11.2235 30.79L11.136 30.8385C12.1412 32.6519 14.4257 33.3069 16.2391 32.3017L16.1906 32.2143ZM30.7901 24.1217L30.7416 24.0342L16.1421 32.1268L16.1906 32.2143L16.2391 32.3017L30.8386 24.2091L30.7901 24.1217ZM12.0689 15.1015L11.9735 15.1314C12.1897 15.8211 12.383 16.4387 12.7509 17.1024L12.8384 17.054L12.9259 17.0055C12.5691 16.3619 12.3811 15.7629 12.1643 15.0715L12.0689 15.1015ZM12.0689 15.1013L11.9736 15.1319L11.9737 15.132L12.0689 15.1015L12.1641 15.0709L12.1641 15.0708L12.0689 15.1013ZM11.9922 14.8576L11.8969 14.8878C11.9229 14.9701 11.9483 15.0511 11.9734 15.1312L12.0689 15.1013L12.1643 15.0714C12.1392 14.9913 12.1137 14.91 12.0876 14.8274L11.9922 14.8576ZM10.634 13.8011L10.5775 13.8837L11.7424 14.6803L11.7988 14.5977L11.8553 14.5152L10.6904 13.7186L10.634 13.8011ZM11.4936 12.7716L11.4752 12.6733L10.8057 12.7987L10.8241 12.897L10.8426 12.9952L11.512 12.8698L11.4936 12.7716ZM14.6891 7.8704L14.6406 7.78294C12.9906 8.69753 12.0954 10.3041 11.8069 12.3184L11.9059 12.3326L12.0049 12.3468C12.2871 10.3764 13.1565 8.83425 14.7375 7.95786L14.6891 7.8704ZM23.4552 11.169L23.5426 11.1205C21.6224 7.65631 17.6712 6.10302 14.6406 7.78294L14.6891 7.8704L14.7375 7.95786C17.6451 6.34619 21.4851 7.82105 23.3677 11.2174L23.4552 11.169ZM23.0498 19.4081L23.125 19.474C24.9331 17.4089 25.1261 13.9771 23.5426 11.1205L23.4552 11.169L23.3677 11.2174C24.9192 14.0165 24.7158 17.3535 22.9745 19.3422L23.0498 19.4081ZM14.387 16.7054L14.4355 16.7929C17.1081 15.3114 20.5595 16.4003 22.179 19.3218L22.2665 19.2733L22.3539 19.2249C20.6871 16.2179 17.1186 15.0769 14.3385 16.6179L14.387 16.7054ZM13.6417 17.2095L13.7047 17.2872C13.9305 17.1042 14.1735 16.9381 14.4355 16.7929L14.387 16.7054L14.3385 16.6179C14.0658 16.7691 13.8131 16.9419 13.5788 17.1318L13.6417 17.2095ZM12.8384 17.054L12.7509 17.1024C12.7594 17.1177 12.7679 17.1329 12.7764 17.148L12.8635 17.0989L12.9506 17.0497C12.9423 17.035 12.934 17.0203 12.9259 17.0055L12.8384 17.054ZM15.5113 27.7209L15.4397 27.6511L15.236 27.8601L15.3076 27.9299L15.3793 27.9997L15.5829 27.7907L15.5113 27.7209ZM20.5599 27.6648L20.5114 27.5773C19.2335 28.2856 17.6418 28.1316 16.1138 27.5148L16.0764 27.6075L16.0389 27.7003C17.5935 28.3278 19.2551 28.5023 20.6083 27.7523L20.5599 27.6648ZM22.1504 19.8539L22.0629 19.9024C23.5986 22.6729 22.9445 26.2286 20.5114 27.5773L20.5599 27.6648L20.6083 27.7523C23.1651 26.335 23.8107 22.6431 22.2378 19.8054L22.1504 19.8539ZM14.6797 17.0566L14.7281 17.1441C17.1627 15.7946 20.4367 16.9686 22.0629 19.9024L22.1504 19.8539L22.2378 19.8054C20.5725 16.8011 17.1865 15.5527 14.6312 16.9691L14.6797 17.0566ZM13.0931 24.8745L13.1806 24.826C11.5543 21.8921 12.2893 18.4959 14.7281 17.1441L14.6797 17.0566L14.6312 16.9691C12.0715 18.388 11.3403 21.9186 13.0056 24.9229L13.0931 24.8745ZM14.3108 26.43L14.3839 26.3618C13.9266 25.8707 13.4878 25.3803 13.1806 24.826L13.0931 24.8745L13.0056 24.9229C13.3262 25.5012 13.7809 26.0078 14.2376 26.4981L14.3108 26.43ZM14.4495 27.5835L14.5495 27.583L14.5454 26.7685L14.4454 26.769L14.3454 26.7695L14.3495 27.584L14.4495 27.5835ZM14.3108 26.43L14.2376 26.4981C14.3064 26.572 14.3449 26.6688 14.3454 26.7695L14.4454 26.769L14.5454 26.7685C14.5447 26.6173 14.4868 26.4723 14.3839 26.3618L14.3108 26.43ZM15.3076 27.9299L15.236 27.8601C14.9863 28.1165 14.5513 27.9409 14.5495 27.583L14.4495 27.5835L14.3495 27.584C14.3522 28.1209 15.0046 28.3843 15.3793 27.9997L15.3076 27.9299ZM15.5113 27.7209L15.5829 27.7907C15.6995 27.671 15.88 27.6361 16.0389 27.7003L16.0764 27.6075L16.1138 27.5148C15.8837 27.4219 15.6159 27.4702 15.4397 27.6511L15.5113 27.7209ZM13.6417 17.2095L13.5788 17.1318C13.3699 17.3011 13.0699 17.2611 12.9506 17.0497L12.8635 17.0989L12.7764 17.148C12.969 17.4893 13.4205 17.5175 13.7047 17.2872L13.6417 17.2095ZM11.4936 12.7716L11.512 12.8698C11.7738 12.8208 11.9678 12.6059 12.0049 12.3468L11.9059 12.3326L11.8069 12.3184C11.7813 12.4974 11.6483 12.6408 11.4752 12.6733L11.4936 12.7716ZM10.634 13.8011L10.6904 13.7186C10.3962 13.5174 10.4922 13.0609 10.8426 12.9952L10.8241 12.897L10.8057 12.7987C10.2802 12.8971 10.1362 13.5819 10.5775 13.8837L10.634 13.8011ZM23.0498 19.4081L22.9745 19.3422C22.8888 19.4401 22.7712 19.4717 22.655 19.4492C22.5369 19.4264 22.4218 19.3474 22.3539 19.2249L22.2665 19.2733L22.179 19.3218C22.2753 19.4956 22.4403 19.6114 22.617 19.6456C22.7956 19.6801 22.9876 19.6309 23.125 19.474L23.0498 19.4081ZM11.9922 14.8576L12.0876 14.8274C12.0473 14.7001 11.9652 14.5904 11.8553 14.5152L11.7988 14.5977L11.7424 14.6803C11.8158 14.7305 11.8702 14.8034 11.8969 14.8878L11.9922 14.8576Z" fill="url(#paint9_linear_0_186)"/>
<path fill-rule="evenodd" clip-rule="evenodd" d="M21.6638 16.5057C21.1674 16.7808 20.6675 16.6614 20.4137 16.2035C20.1611 15.7478 20.2394 15.1065 20.7357 14.8314C21.2333 14.5556 21.8146 14.8313 22.0672 15.287C22.321 15.7449 22.1614 16.2299 21.6638 16.5057ZM19.2221 23.0325C19.5521 22.8496 20.052 22.969 20.2186 23.2697C20.4713 23.7255 20.3088 24.2148 19.9789 24.3977C19.6443 24.5832 19.1479 24.4591 18.8952 24.0033C18.7285 23.7026 18.8876 23.218 19.2221 23.0325Z" fill="url(#paint10_linear_0_186)" fill-opacity="0.7"/>
<path d="M18.8952 24.0033L18.9827 23.9548L18.9827 23.9548L18.8952 24.0033ZM20.4137 16.2035L20.3263 16.252C20.4655 16.5031 20.676 16.6669 20.9244 16.7267C21.1718 16.7863 21.4464 16.7405 21.7123 16.5931L21.6638 16.5057L21.6154 16.4182C21.3849 16.546 21.1614 16.5781 20.9712 16.5323C20.7822 16.4867 20.6158 16.3618 20.5012 16.155L20.4137 16.2035ZM20.7357 14.8314L20.6873 14.7439C20.1295 15.0531 20.0548 15.7622 20.3263 16.252L20.4137 16.2035L20.5012 16.155C20.2675 15.7334 20.3492 15.1599 20.7842 14.9188L20.7357 14.8314ZM22.0672 15.287L22.1546 15.2385C21.8834 14.7492 21.2467 14.4338 20.6873 14.7439L20.7357 14.8314L20.7842 14.9188C21.2199 14.6773 21.7457 14.9133 21.9797 15.3355L22.0672 15.287ZM21.6638 16.5057L21.7123 16.5931C21.9788 16.4454 22.1625 16.2371 22.2422 15.996C22.3222 15.7539 22.2937 15.4893 22.1546 15.2385L22.0672 15.287L21.9797 15.3355C22.0945 15.5425 22.1131 15.7494 22.0523 15.9332C21.9913 16.118 21.8465 16.2901 21.6154 16.4182L21.6638 16.5057ZM20.2186 23.2697L20.3061 23.2212C20.2053 23.0394 20.0103 22.9215 19.8048 22.8725C19.5984 22.8233 19.3645 22.8393 19.1737 22.9451L19.2221 23.0325L19.2706 23.12C19.4097 23.0429 19.5907 23.0271 19.7584 23.0671C19.927 23.1072 20.0653 23.1994 20.1312 23.3182L20.2186 23.2697ZM19.9789 24.3977L20.0274 24.4852C20.4114 24.2723 20.5822 23.7194 20.3061 23.2212L20.2186 23.2697L20.1312 23.3182C20.3604 23.7317 20.2063 24.1573 19.9304 24.3103L19.9789 24.3977ZM18.8952 24.0033L18.8078 24.0518C19.0837 24.5495 19.6384 24.7008 20.0274 24.4852L19.9789 24.3977L19.9304 24.3103C19.6503 24.4656 19.2121 24.3687 18.9827 23.9548L18.8952 24.0033ZM19.2221 23.0325L19.1737 22.9451C18.9807 23.0521 18.843 23.2419 18.7759 23.443C18.709 23.6434 18.7072 23.8703 18.8078 24.0518L18.8952 24.0033L18.9827 23.9548C18.9166 23.8356 18.911 23.6699 18.9656 23.5064C19.0199 23.3437 19.129 23.1985 19.2706 23.12L19.2221 23.0325Z" fill="url(#paint11_linear_0_186)"/>
<defs>
<linearGradient id="paint0_linear_0_186" x1="38.0665" y1="35.3361" x2="19.1973" y2="45.7955" gradientUnits="userSpaceOnUse">
<stop stop-color="white"/>
<stop offset="1" stop-color="#999999"/>
</linearGradient>
<linearGradient id="paint1_linear_0_186" x1="44.4075" y1="56.9236" x2="30.979" y2="64.3671" gradientUnits="userSpaceOnUse">
<stop stop-color="white"/>
<stop offset="1" stop-color="#999999"/>
</linearGradient>
<linearGradient id="paint2_linear_0_186" x1="59.9563" y1="72.4815" x2="41.2305" y2="82.8614" gradientUnits="userSpaceOnUse">
<stop stop-color="white"/>
<stop offset="1" stop-color="#999999"/>
</linearGradient>
<linearGradient id="paint3_linear_0_186" x1="61.8118" y1="88.322" x2="48.3833" y2="95.7655" gradientUnits="userSpaceOnUse">
<stop stop-color="white"/>
<stop offset="1" stop-color="#999999"/>
</linearGradient>
<linearGradient id="paint4_linear_0_186" x1="70.9161" y1="101.781" x2="56.7462" y2="109.636" gradientUnits="userSpaceOnUse">
<stop stop-color="white"/>
<stop offset="1" stop-color="#999999"/>
</linearGradient>
<linearGradient id="paint5_linear_0_186" x1="80.1196" y1="121.35" x2="66.6912" y2="128.794" gradientUnits="userSpaceOnUse">
<stop stop-color="white"/>
<stop offset="1" stop-color="#999999"/>
</linearGradient>
<linearGradient id="paint6_linear_0_186" x1="21.3186" y1="13.9366" x2="15.1963" y2="17.3303" gradientUnits="userSpaceOnUse">
<stop stop-color="white"/>
<stop offset="1" stop-color="#999999"/>
</linearGradient>
<linearGradient id="paint7_linear_0_186" x1="19.137" y1="10.0009" x2="13.0146" y2="13.3945" gradientUnits="userSpaceOnUse">
<stop/>
<stop offset="1"/>
</linearGradient>
<linearGradient id="paint8_linear_0_186" x1="28.1681" y1="11.8548" x2="7.17718" y2="23.4902" gradientUnits="userSpaceOnUse">
<stop stop-color="white"/>
<stop offset="1" stop-color="#999999"/>
</linearGradient>
<linearGradient id="paint9_linear_0_186" x1="22.3503" y1="1.35938" x2="1.35947" y2="12.9948" gradientUnits="userSpaceOnUse">
<stop/>
<stop offset="1"/>
</linearGradient>
<linearGradient id="paint10_linear_0_186" x1="23.5003" y1="17.8724" x2="17.3779" y2="21.266" gradientUnits="userSpaceOnUse">
<stop stop-color="white"/>
<stop offset="1" stop-color="#999999"/>
</linearGradient>
<linearGradient id="paint11_linear_0_186" x1="21.561" y1="14.3739" x2="15.4387" y2="17.7676" gradientUnits="userSpaceOnUse">
<stop/>
<stop offset="1"/>
</linearGradient>
</defs>
</svg>
